<?xml version="1.0" encoding="utf-8"?>
<!-- Generator: Adobe Illustrator 19.2.1, SVG Export Plug-In . SVG Version: 6.00 Build 0)  -->
<svg version="1.1" id="Layer_1" xmlns="http://www.w3.org/2000/svg" xmlns:xlink="http://www.w3.org/1999/xlink" x="0px" y="0px"
	 viewBox="0 0 136.6701508 186.4689941" width="270.728216844" height="369.374131614" style="enable-background:new 0 0 136.6701508 186.4689941;" xml:space="preserve">
<style type="text/css">
	.st0{fill:#FFFFFF;}
	.st1{fill:#FFD200;}
	.st2{fill:#7E5300;}
	.st3{fill:#D71920;}
</style>
<g>
	<path class="st0" d="M132.634201,27.9629822l-0.2270203-0.9609985l-0.8829956-0.4449768
		c-0.4309998-0.2170105-7.1839905-3.5100098-23.6239929-5.9089966c1.4979858-2.6620178,2.493988-5.927002,3.0159912-9.8850098
		c0.2310181-1.7590027-0.1399841-3.2059937-1.1009827-4.303009c-1.085022-1.2380066-2.8270264-1.8670044-5.1790161-1.868988
		c-7.0369873-0.007019-11.2129822-0.3999939-16.2609863-1.1239929C84.4971771,1.1669922,80.225174,0,75.6671906,0
		c-3.2009888,0-5.6849976,0.6000061-6.822998,0.9349976C66.4832001,0.355011,64.0112,0.0610046,61.4832001,0.0610046
		c-7.2429962,0-12.9720001,2.3819885-14.6360016,3.1519775c-0.177002,0.0030212-0.3569946,0.0030212-0.5350037,0.0030212
		c-5.177002,0-10.5809937-0.322998-14.0789948-0.8390198c-0.2559948-0.0409851-0.4999981-0.0820007-0.7329998-0.1199951
		C30.4192066,2.0769958,29.4861927,1.92099,28.4492054,1.92099c-0.4869995,0-0.9620056,0.0339966-1.45401,0.1060181
		c-0.7409973,0.1080017-2.1139984,0.5780029-2.9879913,2.5029907c-1.4459991,3.1870117-1.0380096,9.8659973,1.8539886,14.3840027
		c0.3630066,0.6149902,0.8619995,1.3089905,1.4170074,2.0100098c-15.1150064,2.367981-21.3820038,5.4239807-21.7949982,5.6329956
		l-0.8840027,0.4449768l-0.2269897,0.9609985c-5.2929993,22.3880005-4.1620026,44.6650085,3.266983,64.4250183
		c7.0020137,18.6170044,19.3630066,34.6679993,35.7510071,46.4190063
		c9.5839996,7.223999,17.5899963,11.5779724,24.1600037,14.8829956l0.9409943,0.473999l0.9470062-0.4640198
		c8.8789978-4.3569946,16.1100006-8.8109741,24.1790009-14.8929749c16.38797-11.7510071,28.7479858-27.802002,35.7499695-46.4190063
		C136.7971954,72.6279907,137.9272003,50.3509827,132.634201,27.9629822"/>
	<path d="M93.6098785,75.0906067L93.6098785,75.0906067C93.6138763,75.0896301,93.6188507,75.088623,93.6098785,75.0906067"/>
	<path d="M106.7469025,90.2077942c2.5019836,2.6500244,4.9289856,6.0740051,6.3259888,10.5830078
		c0.0889893,0.2850037,0.3089905,1.1499939,0.4769897,2.0320129c1.2740173-3.4250183,2.3529968-6.9120178,3.25-10.4450073
		c-1.8320007-2.5339966-4.822998-5.071991-6.742981-6.8139954c-4.4560242-4.0440063-8.2060242-7.8000183-8.4450073-13.9380188
		c-0.0280151-0.7189941-0.1360168-1.9989929-0.1690063-2.4029846c0.9290161-0.9809875,1.5450134-1.7269897,2.1669922-2.651001
		c0.8910217,1.0750122,1.8040161,1.9110107,2.3670044,2.4750061c3.1750183,3.1789856,4.1589966,6.3710022,6.3510132,10.2189941
		c1.1459961,2.0100098,3.4159851,4.993988,5.743988,7.4880066c0.3389893-1.7170105,0.6390076-3.4429932,0.8999939-5.1750183
		c-3.0009766-2.821991-6.7720032-7.6869812-8.1940002-10.4379883c2.8150024,2.5150146,6.0500183,5.2409973,8.7090149,6.5939941
		c0.5830078-4.9599915,0.8580017-9.9620056,0.8580017-14.9629822c0-10.6700134-0.8880005-23.507019-3.8890076-38.4420166
		c-3.4020081-0.70401-7.4849854-1.4060059-12.3169861-2.0230103c1.9379883-2.17099,3.8589783-5.6369934,4.6739807-11.8209839
		c0.3540039-2.6990051-1.2829895-3.769989-4.1789856-3.7730103C97.5418854,6.7058105,93.280899,6.3247986,87.6458893,5.5057983
		C78.204895-0.3182068,68.9078979,3.1418152,68.9078979,3.1418152C57.5249023,0.0768127,47.3378906,5.3318176,47.3378906,5.3318176
		c-5.3129883,0.0449829-11.345993-0.256012-15.4389935-0.8600159c-1.8679962-0.2990112-3.0350037-0.571991-4.5970001-0.3460083
		c-2.621994,0.3850098-2.8130035,8.7480164,0.3690033,13.6790161c0.6849976,1.1799927,2.2120056,3.0360107,3.8049927,4.6699829
		c-4.2749939,0.5740051-7.9349976,1.2150269-11.0299988,1.855011c-3.0019989,14.9349976-3.8899994,27.7720032-3.8899994,38.4420166
		c0,18.5079956,3.7630005,37.0289917,12.9570007,53.3580017c-0.7119904-7.1620178-0.5089874-14.2450256,0.2140045-19.6800232
		c0.7319946-5.5079956,1.9230042-10.1080017,3.0220013-13.664978c0,0-1.251997,1.9660034-2.2889996,3.8359985
		c1.503006-5.53302,4.3469982-10.7390137,6.4190044-14.3880005c1.2059937,1.8959961,2.8569946,3.946991,4.8889923,5.6210022
		c-3.2980042,6.4249878-6.6260071,17.0979919-6.4810028,24.2469788c0.5599976-2.2460022,1.3059998-3.8889771,1.3059998-3.8889771
		c-0.9259949,10.2349854,2.2519989,24.4619751,7.2109985,33.0690002c2.4470062,4.3459778,5.2160034,8.13797,8.9459991,11.5249939
		c0.947998,0.6210022,1.8830109,1.21698,2.8059998,1.789978c-4.0869904-11.7819824-2.4539948-18.2129822,4.1589966-34.2109985
		c-4.8259888,4.8250122-8.5679932,6.8560181-10.848999,14.6300049c0.1170044-1.9119873,0.4680023-3.7059937,0.8580017-4.6419983
		c-2.6469879-3.1589966-4.4700012-6.9419861-5.423996-12.3979797c-0.595993,0.9849854-1.1499939,2.0289917-1.621994,3.4159851
		c0.0679932-2.276001,0.4119873-3.3770142,1.3149872-5.4760132c-0.0269928-0.2189941-0.0579987-0.4309998-0.0829926-0.6569824
		c-0.5690002,0.9509888-1.1100006,1.8540039-1.3170013,2.6340027c-2.2429962-6.5910034-3.2789917-16.9380188-1.1289978-24.5390015
		c0.5529938,11.2829895,3.798996,18.2340088,9.2850037,24.098999c0.4700012-0.7340088,0.996994-1.3840027,1.6679993-2.0390015
		c-0.5169983,0.8529968-0.8860016,1.6329956-1.1869965,2.3880005c-0.4370117,0.9419861-0.6690063,1.7229919-1.1390076,3.3800049
		c1.0549927-1.730011,1.6190033-2.6570129,2.2590027-3.5930176c5.4179993-7.5569763,13.0919952-10.0509949,18.2259979-15.1839905
		c0,0-2.9309998,1.1549988-5.3450012,2.9840088c3.6670074-3.507019,7.6679993-4.5820007,10.951004-9.5299988
		c0.2809906-0.4210205,0.6199951-0.9230042,0.9779968-1.5c0.0480042,0.6600037-0.0670013,1.5509949-0.2980042,2.2729797
		c1.3840027-1.1529846,2.42099-2.4729919,2.821991-3.3119812c-0.0589905,0.8269958-0.542984,3.0310059-0.8729858,4.0449829
		c1.3800049-1.2030029,2.1759949-2.7059937,2.7709961-3.8670044c0.3659973,0.2780151,0.7099915,0.9660034,0.8670044,1.5600281
		c1.2200012-0.5310059,2.3469849-1.40802,3.1289978-2.6880188c0.322998,0.2480164,0.7609863,0.8710022,0.8769836,1.1539917
		c0.9700012-0.6889954,1.8160095-1.8469849,2.0899963-3.0820007c0.15802,0.2410278,0.3340149,0.5299988,0.4150085,0.7970276
		c1.0069885-0.257019,2.2189941-1.3980103,2.6759949-1.9309998c1.2250061-1.4260254,1.8050232-3.5040283,1.973999-4.2170105
		c1.5209961-0.6830139,3.0200195-1.6130066,4.40802-2.6679993c-0.2480164,0.5939941-0.4320068,1.2980042-0.5090027,2.1319885
		c-0.0140076,0.1490173-0.0240173,0.2919922-0.0350037,0.4349976c-0.4940186,6.4970093,1.8249817,8.5420227,6.1669922,12.2730103
		C104.6418915,88.1217957,105.700882,89.0988159,106.7469025,90.2077942"/>
	<path d="M79.8016815,122.1228943c12.3979797-13.065979,15.1339722-24.1669922,10.3739929-36.7119751
		c0.1080017,10.2479858-22.3619995,25.4069824-25.8280029,31.019989c1.1999969-0.8980103,5.2960052-3.4509888,6.1480103-4.0190125
		c-3.1130066,2.4910278-4.802002,4.0830078-6.9600067,7.2850037c2.1190033-2.1019897,4.0800018-3.1719971,5.7619934-4.3240051
		c-8.3809967,7.3370056-10.8509979,19.434021-8.3499908,32.4130249c2.5079956,1.4119873,4.9499969,2.6940002,7.3649902,3.9140015
		C67.363678,139.4969177,73.1276703,129.1569214,79.8016815,122.1228943"/>
	<path class="st1" d="M14.1405954,69.0639954c-1.0230103-17.0709839,0.7929993-31.2079773,3.1039896-44.0229797
		c-1.1539917,0.2709961-2.2119913,0.5409851-3.1669931,0.7999878C6.0475936,61.947998,11.3125925,94.6150208,28.1725941,118.928009
		C19.8005848,104.6629944,15.0095835,87.8520203,14.1405954,69.0639954"/>
	<path d="M28.171999,118.9275818C28.1819935,118.9446106,28.1619892,118.9105835,28.171999,118.9275818
		C11.3129892,94.6145935,6.0479903,61.9476013,14.0779886,25.8406067c-5.3289948,1.4489746-7.6409907,2.6109924-7.6409907,2.6109924
		c-9.8470001,41.651001,3.485992,78.1059875,29.271986,101.4360046
		C32.9269867,126.4105835,30.4349842,122.7875977,28.171999,118.9275818"/>
	<path class="st1" d="M122.8656769,69.0639954c1.0229797-17.0709839-0.7930298-31.2079773-3.1040039-44.0229797
		c1.1539917,0.2709961,2.2119751,0.5409851,3.1669922,0.7999878c8.0299988,36.1069946,2.7649841,68.7740173-14.0950012,93.0870056
		C117.2056732,104.6629944,121.9966583,87.8520203,122.8656769,69.0639954"/>
	<path d="M108.8343964,118.9275818C108.8243866,118.9446106,108.8443756,118.9105835,108.8343964,118.9275818
		c16.8589783-24.3129883,22.1239929-56.9799805,14.0939941-93.0869751c5.3289795,1.4489746,7.6409912,2.6109924,7.6409912,2.6109924
		c9.8470154,41.651001-3.4859924,78.1059875-29.2720032,101.4360046
		C104.0793915,126.4105835,106.5713959,122.7875977,108.8343964,118.9275818"/>
	<path d="M47.3029938,180.6582947c0.3039856,0,0.8699951,0.0270081,1.3099976,0.0270081h1.7330017
		c0.3429871,0,0.8279877,0,1.1239929-0.0440063c0.0079956,0,0.026001,0.0169983,0.026001,0.026001
		c-0.0619965,0.2600098-0.1159973,0.8530121-0.1430054,1.32901c-0.0449982,0.0359955-0.2149963,0.0449982-0.2599945,0.0269928
		c-0.0449982-0.348999-0.1080017-0.5650024-0.1889954-0.7089996c-0.0810089-0.1620026-0.2150116-0.2059937-0.3410034-0.2249908
		c-0.2080078-0.026001-1.0870056-0.026001-1.2310028-0.0090027c-0.0440063,0.0090027-0.0899963,0.1169891-0.0899963,0.1529999
		c-0.0090027,0.5849915,0,1.2310028,0,1.8409882c0,0.0350037,0.0370026,0.0720062,0.0540009,0.0720062
		c0.2339935,0,0.9160004,0.0090027,1.1949921-0.0079956c0.1890106-0.0090027,0.279007-0.1090088,0.3509979-0.3600006
		c0.0270081-0.0890045,0.0450134-0.1710052,0.0620117-0.2880096c0.0359955-0.0179901,0.2339935-0.0179901,0.269989,0.0100098
		c-0.0099945,0.223999-0.04599,0.5469971-0.04599,0.8529968c0,0.2330017,0.0189972,0.6100006,0.0269928,0.871994
		c-0.0350037,0.0250092-0.2339935,0.0340118-0.2679901,0.0080109c-0.0640106-0.2700043-0.0540009-0.2340088-0.0910034-0.3509979
		c-0.0440063-0.1340027-0.1260071-0.2590027-0.3240051-0.2779999c-0.1529999-0.0180054-0.9060059-0.0180054-1.1759949-0.0180054
		c-0.026001,0-0.0540009,0.0540009-0.0540009,0.0709991v1.7079926c0,0.1340027,0.072998,0.2700043,0.1889954,0.2950134
		c0.1699982,0.0279999,0.5839996,0.0540009,1.0319977,0.0540009c0.4869995,0,0.5940094-0.0430145,0.7640076-0.2420044
		c0.1889954-0.197998,0.3600006-0.5380096,0.4940033-0.8619995c0.04599-0.0090027,0.2249908,0.04599,0.2509918,0.0809937
		c-0.026001,0.1699982-0.2229919,1.0059967-0.3769989,1.303009c-0.0440063,0.0879974-0.098999,0.1429901-0.4839935,0.1429901
		c-0.7820129,0-1.6350098-0.04599-2.4710083-0.04599c-0.4749908,0-1.0690002,0.0289917-1.5439911,0.0289917
		c-0.0180054-0.0549927-0.0180054-0.2079926,0-0.2429962c0.2869873-0.0370026,0.5019989-0.0630035,0.6279907-0.1000061
		c0.1710052-0.0540009,0.253006-0.1609955,0.253006-0.4570007c0.0269928-0.5029907,0.0269928-1.2669983,0.0269928-2.2369995
		c0-0.6829987,0-1.401001-0.0269928-1.723999c-0.0189972-0.2509918-0.0550079-0.3239899-0.2429962-0.3869934
		c-0.1270142-0.0350037-0.2880096-0.0540009-0.4400024-0.0709991
		C47.2659912,180.8553009,47.2859802,180.6853027,47.3029938,180.6582947"/>
	<path d="M54.7251892,185.7233887c0.2339935,0.1620026,0.5479889,0.2340088,0.8269958,0.2340088
		c0.4400024,0,0.7619934-0.2770081,0.7619934-0.7449951c0-0.4589996-0.1959991-0.7460022-0.9779968-1.230011
		c-0.8439941-0.5479889-1.3829956-0.9700012-1.3829956-1.8509979c0-1.0419922,0.8619995-1.6069946,1.8769989-1.6069946
		c0.6559906,0,1.0319977,0.1170044,1.4279938,0.1429901c-0.0630035,0.3510132-0.1170044,0.7360077-0.1529999,1.303009
		c-0.0359955,0.026001-0.2070007,0.0350037-0.2429962,0.0090027c-0.0800018-0.5400085-0.1779938-0.8099976-0.4120026-0.9790039
		c-0.2070007-0.1450043-0.4129944-0.1990051-0.6920013-0.1990051c-0.4850006,0-0.7899933,0.3420105-0.7899933,0.7830048
		c0,0.3769989,0.1790009,0.6459961,0.5379944,0.8970032c0.3789978,0.2599945,0.5930023,0.3860016,0.9799957,0.6279907
		c0.6460114,0.4230042,0.9530029,0.8270111,0.9530029,1.4480133c0,0.9689941-0.7639923,1.696991-2.1119995,1.696991
		c-0.5839996,0-1.1490021-0.1719971-1.3379974-0.2799988c-0.0899963-0.1340027-0.2429962-1.0950012-0.2610016-1.3910065
		c0.0270081-0.0449982,0.2080078-0.0899963,0.2420044-0.0639954
		C54.1701813,185.1584015,54.3931885,185.4723969,54.7251892,185.7233887"/>
	<path d="M62.97789,186.1282959c-0.3510132,0-0.7920074-0.0259857-1.3570099-0.0259857
		c-0.8359985,0-1.2570038,0.0259857-1.5359955,0.0259857c-0.0359955-0.0449982-0.0359955-0.2169952,0-0.2429962
		c0.197998-0.0169983,0.4309998-0.0449982,0.5559998-0.0800018c0.2169952-0.0540009,0.2890015-0.1529999,0.3150024-0.5759888
		c0.0359955-0.8890076,0.0269928-2.7120056,0.0269928-4.0859985c0-0.0170135-0.0179901-0.0630035-0.0449982-0.0630035
		c-0.1609955-0.0169983-0.6909943-0.0169983-0.897995,0c-0.2070007,0.0179901-0.3330078,0.1089935-0.4490051,0.3049927
		c-0.1170044,0.2070007-0.2420044,0.4940033-0.3320007,0.7640076c-0.0269928,0.0269928-0.2429962-0.0090027-0.2599945-0.0619965
		c0.0709991-0.3600006,0.1429901-1.1150055,0.1609955-1.4650116c0-0.0179901,0.0529938-0.0629883,0.0720062-0.0540009
		c0.2879944,0.0980072,0.5919952,0.1170044,0.8079987,0.1170044h3.1889954c0.4570007,0,0.7089996-0.0359955,0.9609985-0.1069946
		c0.0279999,0,0.0449982,0.0349884,0.0540009,0.0529938c-0.0899963,0.3330078-0.1710052,0.9440002-0.2070007,1.5180054
		c-0.0269928,0.0269928-0.2420044,0.0370026-0.2610016,0.0090027c-0.0449982-0.3050079-0.1069946-0.5830078-0.1880035-0.7810059
		c-0.0899963-0.2080078-0.1789856-0.2700043-0.3589935-0.2879944c-0.2420044-0.0170135-0.8800049-0.0170135-0.9790039-0.0090027
		c-0.0179901,0.0090027-0.0449982,0.0370026-0.0449982,0.0709991c0,1.2579956,0,3.6100006,0.0270081,4.2140045
		c0.0089874,0.223999,0.0529938,0.3579865,0.2429962,0.4319916c0.1519928,0.0429993,0.2140045,0.0429993,0.5119934,0.0879974
		C63.0218811,185.9113007,63.0128784,186.1023102,62.97789,186.1282959"/>
	<path d="M71.7156982,186.1282959c-0.3330078,0-0.9080048-0.0369873-1.4380035-0.0369873
		c-0.6460114,0-1.0059967,0.0369873-1.276001,0.0369873c-0.0250092-0.0369873-0.0350037-0.2249908,0-0.2509918
		c0.2259979-0.0279999,0.2980042-0.0370026,0.4589996-0.0630035c0.2619934-0.0630035,0.2879944-0.3059998,0.2980042-0.5849915
		c0.0169983-0.3680115,0.0169983-0.8970032,0.0259857-1.75c0-0.7280121,0-1.4020081-0.0259857-1.6440125
		c-0.0100098-0.1529999-0.0640106-0.3069916-0.2260132-0.3329926c-0.1169891-0.0270081-0.2869873-0.0529938-0.4139862-0.0709991
		c-0.026001-0.0460052-0.0080109-0.2250061,0.0189972-0.2510071c0.7279968-0.0369873,1.3919983-0.2709961,1.7779999-0.4319916
		c0.0269928-0.0100098,0.1080017,0.0269928,0.1080017,0.0529938c-0.0270081,0.3679962-0.0360107,0.6829987-0.0360107,1.4199982
		c0,0.7280121,0,2.2360077,0.0270081,2.9730072c0.0179901,0.322998,0.0549927,0.5659943,0.2859955,0.6199951
		c0.1909943,0.0350037,0.3249969,0.0449982,0.4420013,0.0630035
		C71.7596893,185.9033051,71.7596893,186.0913086,71.7156982,186.1282959"/>
	<path d="M77.0625916,182.0509949c0,0.3320007-0.1959991,0.6560059-0.8789978,1.0700073
		c-0.0090027,0.0169983-0.0090027,0.0339966,0,0.0429993c0.6999969,0.4489899,1.1039886,0.8179932,1.1039886,1.4629974
		c0,0.7929993-0.7459869,1.5639954-1.9309998,1.5639954c-1.2669983,0-1.723999-0.7359924-1.723999-1.3560028
		c0-0.3769989,0.2430115-0.7099915,1.0859985-1.1859894c0.0100098,0,0.0180054-0.026001,0-0.0360107
		c-0.4859924-0.3409882-0.8969879-0.7549896-0.8969879-1.3649902c0-0.4400024,0.2059937-0.8710022,0.54599-1.1130066
		c0.3070068-0.2429962,0.7290039-0.3869934,1.1950073-0.3869934
		C76.4345856,180.7480011,77.0625916,181.2599945,77.0625916,182.0509949 M76.2815857,185.2119904
		c0-0.4759979-0.3049927-0.8179932-1.302002-1.4189911c-0.0090027-0.0189972-0.0359955,0-0.0449982,0.0099945
		c-0.2429962,0.2600098-0.3950043,0.572998-0.3950043,0.9150085c0,0.5759888,0.4309998,1.1849976,1.0320129,1.1849976
		C75.9945831,185.9029999,76.2815857,185.6349945,76.2815857,185.2119904 M74.7635956,181.7269897
		c0,0.4680023,0.2509918,0.7280121,1.1679993,1.2770081c0.0089874,0,0.0269928,0,0.0449982-0.0099945
		c0.2149963-0.2700043,0.2969971-0.5750122,0.2969971-0.881012c0-0.5759888-0.3059998-1.0950012-0.8540039-1.0950012
		C75.025589,181.0179901,74.7635956,181.3690033,74.7635956,181.7269897"/>
	<path d="M82.5965729,182.0509949c0,0.3320007-0.1949768,0.6560059-0.8789978,1.0700073
		c-0.0090027,0.0169983-0.0090027,0.0339966,0,0.0429993c0.7010193,0.4489899,1.1040039,0.8179932,1.1040039,1.4629974
		c0,0.7929993-0.7449951,1.5639954-1.9299927,1.5639954c-1.2669983,0-1.723999-0.7359924-1.723999-1.3560028
		c0-0.3769989,0.2430115-0.7099915,1.0859985-1.1859894c0.0100098,0,0.0180054-0.026001,0-0.0360107
		c-0.4859924-0.3409882-0.8980103-0.7549896-0.8980103-1.3649902c0-0.4400024,0.2070007-0.8710022,0.5469971-1.1130066
		c0.3059998-0.2429962,0.7290039-0.3869934,1.1950073-0.3869934
		C81.9685822,180.7480011,82.5965729,181.2599945,82.5965729,182.0509949 M81.8165741,185.2119904
		c0-0.4759979-0.3049927-0.8179932-1.302002-1.4189911c-0.0090027-0.0189972-0.0359802,0-0.0449829,0.0099945
		c-0.2430115,0.2600098-0.3959961,0.572998-0.3959961,0.9150085c0,0.5759888,0.4319763,1.1849976,1.0329895,1.1849976
		C81.5295868,185.9029999,81.8165741,185.6349945,81.8165741,185.2119904 M80.2985992,181.7269897
		c0,0.4680023,0.2509766,0.7280121,1.1669922,1.2770081c0.0090027,0,0.0279846,0,0.04599-0.0099945
		c0.2139893-0.2700043,0.2969971-0.5750122,0.2969971-0.881012c0-0.5759888-0.3059998-1.0950012-0.8540039-1.0950012
		C80.5595856,181.0179901,80.2985992,181.3690033,80.2985992,181.7269897"/>
	<path d="M87.7153778,180.8109894c0,0.0900116-0.1890259,0.5840149-0.4310303,0.8710022
		c-0.0999756,0.1170044-0.2969971,0.2150116-0.4399719,0.2150116c-0.5840149,0-0.9810181-0.0620117-1.1150208-0.0620117
		c-0.0180054,0-0.0709839,0.0190125-0.0799866,0.0449982c-0.071991,0.1610107-0.1170044,0.2600098-0.1710205,0.4220123
		c0,0.0099945,0.0270081,0.0809937,0.0540161,0.0899963c0.2690125,0.125,1.2569885,0.5379944,1.6440125,0.7630005
		c0.5649719,0.3049927,0.9339905,0.6819916,0.9339905,1.3919983c0,1.1860046-1.2659912,1.9219971-2.3349915,1.9219971
		c-0.5310059,0-0.9360046-0.1880035-1.1590271-0.42099c-0.0629883-0.0630035-0.1439819-0.1800079-0.1439819-0.3059998
		c0-0.1440125,0.1610107-0.4380035,0.2609863-0.5750122c0.0169983-0.0189972,0.0800171-0.0449982,0.1060181-0.0540009
		c0.3599854,0.5299988,0.8989868,0.9440002,1.5379944,0.9440002c0.4580078,0,0.7359924-0.3419952,0.7359924-0.772995
		c0-0.3869934-0.1439819-0.7649994-0.6919861-1.1130066c-0.4680176-0.3149872-1.3390198-0.673996-1.5450134-0.798996
		c-0.0090027-0.0549927-0.026001-0.2339935-0.0090027-0.2969971c0.1629944-0.5390015,0.6480103-1.7519989,0.8910217-2.1029968
		c0.0879822-0.1170044,0.1679993-0.1610107,0.2419739-0.1610107c0.1430054,0,0.5820007,0.0440063,1.059021,0.0440063
		c0.3049927,0,0.3849792-0.026001,0.5299988-0.1430054C87.6243744,180.7119904,87.7153778,180.7669983,87.7153778,180.8109894"/>
	<path d="M39.6241913,171.2167053c-0.681015,1.0740051-1.5460052,2.1740112-2.2000122,2.6970215
		c-0.7859955,0.6289978-1.54599,0.7070007-2.2009888,0.7070007c-4.3489971,0-5.7629986-4.0599976-5.7629986-6.9940186
		c0-4.5049744,1.7809906-6.6269836,4.5329876-6.6269836c1.0720062,0,2.0429993,0.1820068,2.8800049,0.6549988
		c1.048996,0.6019897,1.2050018,1.4410095,1.5720062,3.1170044c0.0529938,0.1849976,1.1790009,0.0789795,1.3099976-0.131012
		c0-1.4150085,0.2099915-3.6409912,0.3409882-4.5579834c-0.9959869-0.026001-3.0129852-0.4710083-5.5269928-0.4710083
		c-2.147995,0-3.8260021,0.3919983-5.2660046,1.0740051c-2.9339905,1.3880005-4.4279938,4.164978-4.4279938,7.1779785
		c0,5.710022,3.6419983,8.5660095,9.5879955,8.5660095c1.9380035,0,3.0400085-0.3940125,3.878006-0.6799927
		c0.7850037-0.446991,1.9640045-2.5950012,2.3580017-3.7480164
		C40.4891815,171.6617126,39.9391785,171.2947083,39.6241913,171.2167053"/>
	<path d="M23.2519855,174.4394226c-0.6809998-0.2099915-0.7339935-0.7340088-0.7599945-1.2050171
		c-0.052002-1.0229797-0.026001-3.6419983-0.026001-6.052002c0-2.2529907-0.026001-3.5889893,0.026001-4.4529724
		c0.026001-0.4720154,0.026001-0.9950256,0.6289978-1.1790161c0.4199982-0.1319885,0.9700012-0.2099915,1.54599-0.2890015
		c0.1300049-0.1579895,0.105011-1.098999,0-1.2569885c-0.6809998,0-1.54599,0.0780029-4.348999,0.0780029
		c-1.9119873,0-3.2220001-0.0780029-4.1129913-0.0780029c-0.1569977,0.1839905-0.1569977,1.072998-0.0510101,1.2569885
		c0.5500031,0.07901,0.9950104,0.1319885,1.5970001,0.3150024c0.4460144,0.1319885,0.655014,0.4979858,0.681015,1.0480042
		c0.0519867,1.0480042,0.0519867,1.9379883,0.0519867,4.7680054c0,1.2819824,0,5.1849976-0.0519867,5.8139954
		c-0.07901,0.9970093-0.2350006,1.2070007-0.9950104,1.3619995c-0.1320038,0.0289917-0.4049988,0.0350037-0.5809937-0.0130005
		c-0.5890045-0.1620178-0.8209991-0.3930054-1.4089975-0.9819946c-1.1529999-1.1520081-3.4480133-4.1170044-4.0080109-5.1860046
		c-0.0419922-0.07901-0.04599-0.1700134,0.026001-0.2099915c1.7559967-0.7590027,3.0660095-1.9120178,3.0660095-3.9810181
		c0-2.3059998-1.8860016-4.1919861-5.2400055-4.1919861c-0.8910065,0-2.4620051,0.0780029-5.1600032,0.0780029
		c-1.0489962,0-3.276001-0.0780029-3.9309998-0.0780029c-0.1829987,0.1040039-0.2879944,1.0209961-0.1029968,1.2569885
		c0.5749969,0.105011,1.1779938,0.2109985,1.4920044,0.3150024c0.472,0.1059875,0.6819915,0.4190063,0.7319945,0.9949951
		c0.0529938,0.9429932,0.0529938,2.7770081,0.0529938,5.3430176c0,1.6259766-0.026001,4.5859985-0.0779877,5.4229736
		c-0.0250092,0.7080078-0.2080078,1.0760193-0.7850035,1.2050171c-0.3419952,0.07901-0.9700012,0.1839905-1.3619995,0.2369995
		c-0.2100067,0.1300049-0.1060028,1.1520081,0.0249939,1.2569885c0.7600098,0,2.1470032-0.0789795,4.2440033-0.0789795
		c2.1750031,0,3.6419978,0.0789795,4.0870051,0.0789795c0.1829987,0,0.2359924-1.2309875,0.0789948-1.2569885
		c-0.7080073-0.105011-0.9700007-0.1319885-1.5729976-0.3139954c-0.4970093-0.15802-0.6549988-0.5509949-0.6809998-1.1280212
		c-0.026001-0.8369751-0.052002-2.0429993-0.052002-3.6409912c0-0.052002,0.0780029-0.1829834,0.1309967-0.1829834
		c0.07901,0,0.4980011,0,0.7600098,0.0269775c0.3669891,0.0250244,0.5499878,0.07901,0.7599945,0.3919983
		c0.8639979,1.3619995,1.8069911,2.9869995,2.9080043,4.348999c0.1559906,0.2610168,0.6469879,0.8010254,1.3869934,1.1800232
		c1.3009949,0.6640015,3.9320078,0.644989,5.399003,0.5409851c0.6959991-0.0220032,1.5820007-0.0449829,2.9049988-0.0449829
		c2.3049927,0,3.4579926,0.0529785,4.2689972,0.0789795c0.1849976-0.1319885,0.3150024-1.0469971,0.2100067-1.2569885
		C24.4049854,174.674408,23.566988,174.5424194,23.2519855,174.4394226 M9.2379923,167.5744019
		c-0.4180145,0.2360229-1.7020106,0.3140259-2.7760005,0.3140259c-0.1320038,0-0.1840057-0.1560059-0.1840057-0.2610168
		c0-1.9109802,0-4.8209839,0.052002-5.6319885c0-0.105011,0.1049957-0.3130188,0.1839905-0.3930054
		c0.105011-0.0780029,0.576004-0.1300049,0.8380127-0.1300049c1.8860011,0,3.1959987,1.2820129,3.1959987,3.4570007
		C10.5479898,166.5274048,9.9719858,167.207428,9.2379923,167.5744019"/>
	<path d="M81.6649933,174.4129944c-0.6820068-0.1839905-0.8650208-0.7599792-0.8900146-1.38797
		c-0.1579895-1.8080139-0.3680115-8.2010193-0.3410034-10.1390076c0-0.5760193,0.07901-1.0480042,0.6809998-1.2579956
		c0.3659973-0.1300049,0.9960022-0.210022,1.7539978-0.3659973c0.1839905-0.131012,0.132019-1.2050171,0-1.2580261
		c-1.3089905,0-2.4620056,0.07901-6.2859802,0.07901c-0.053009,0.4970093-0.2630005,1.0480042-0.4980011,1.651001
		c-0.7610016,1.8590088-2.881012,6.2869873-3.6150055,7.6489868c-0.0529938,0.052002-0.1320038,0.0770264-0.2100067,0
		c-0.7859955-1.4949951-2.5149994-5.1609802-3.5619965-7.492981c-0.2619934-0.5500183-0.4980011-1.1520081-0.5769958-1.8070068
		c-1.9640045,0-4.7929993-0.07901-6.8119965-0.07901c-0.0770111,0.07901-0.1820068,1.1000061-0.1029968,1.2580261
		c0.8629913,0.1559753,1.6229858,0.3139954,2.095993,0.4719849c0.522995,0.2080078,0.6809998,0.7590027,0.654007,1.20401
		c-0.0780029,1.8859863-0.628006,7.9639893-0.8640137,9.9809875c-0.1049957,0.9700012-0.3939972,1.3880005-1.1539917,1.5979919
		c-0.2630005,0.0810242-0.7310028,0.1440125-1.1600037,0.2080078c-0.2220001,0.0329895-0.5610046,0.0339966-0.7619934,0.0010071
		c-0.7570038-0.1289978-1.1829987-0.2019958-1.5070038-0.3389893c-0.4710083-0.210022-0.5500031-0.7340088-0.576004-1.2060242
		c-0.0509949-1.1789856-0.0509949-3.2999878-0.0509949-5.0829773c0-2.1740112-0.026001-3.4580078,0.0249939-5.1600037
		c0.026001-0.8380127,0.1040039-1.178009,0.602005-1.3619995c0.2879944-0.15802,0.8919983-0.2620239,1.4409943-0.3139954
		c0.1829987-0.184021,0.1829987-1.0740051,0-1.2580261c-0.9689941,0-1.7289886,0.07901-4.0339966,0.07901
		c-2.147995,0-2.8289948-0.07901-4.1649933-0.07901c-0.1829987,0.132019-0.2100067,1.1270142-0.052002,1.2580261
		c0.8369904,0.1039734,1.3359985,0.1559753,1.7030029,0.3399963c0.3659973,0.1319885,0.4449921,0.6019897,0.4700012,0.9419861
		c0.0269928,1.493988,0.0269928,2.8560181,0.0269928,4.1409912c0,0.0510254-0.1049957,0.1300049-0.1829987,0.1560059
		c-0.2620087,0.053009-0.9430084,0.053009-2.8289948,0.053009c-2.5670013,0-2.9600067,0-3.1950073-0.053009
		c-0.0529938-0.053009-0.0800018-0.0780029-0.1320038-0.2080078c0-1.4679871,0-2.7789917,0.0250092-3.8789978
		c0-0.6279907,0.0800018-1.019989,0.6029968-1.2299805c0.2630005-0.1060181,0.8650055-0.210022,1.3630066-0.2619934
		c0.1579895-0.131012,0.1579895-1.1000061,0.0259857-1.2580261c-0.5759888,0-1.9119873,0.07901-4.1399994,0.07901
		c-2.4879913,0-3.3259888-0.07901-4.0069885-0.07901c-0.131012,0.105011-0.1840057,1.1530151-0.053009,1.2580261
		c0.4710083,0.0519714,0.9950104,0.1309814,1.5200043,0.2879944c0.5509949,0.1579895,0.628006,0.4719849,0.654007,1.3099976
		c0.0269928,0.7859802,0.0269928,2.3049927,0.0269928,4.8979797c0,2.3590088,0,4.7950134-0.0269928,5.1870117
		c-0.052002,0.9179993-0.2350006,1.3619995-0.9430084,1.54599c-0.3919983,0.1040039-0.7070007,0.1830139-1.3090057,0.2880249
		c-0.1839905,0.1839905-0.1059875,1.1259766,0,1.2569885c0.4450073,0,1.7810059-0.07901,3.9550018-0.07901
		c2.803009,0,4.0610046,0.07901,4.5330048,0.07901c0.1549988-0.131012,0.2879944-1.0469971,0.1289978-1.2569885
		c-0.576004-0.105011-1.3079987-0.2360229-1.6490021-0.3660278c-0.6019897-0.2099915-0.6819916-0.6819763-0.6819916-1.3099976
		c-0.0250092-0.9440002-0.0250092-2.3049927-0.0250092-3.9809875c0-0.0279846,0.0250092-0.131012,0.052002-0.1579895
		c0.1049957-0.0540161,0.3659973-0.0800171,3.1699982-0.0800171c1.1790009,0,2.4880066,0,2.9860077,0.026001
		c0.0789948,0,0.1309967,0.1069946,0.1309967,0.15802c0,1.7029724,0.026001,3.0909729-0.0269928,4.348999
		c-0.0250092,0.5759888-0.2080078,0.9429932-0.602005,1.0739746c-0.4190063,0.1300049-0.8899994,0.210022-1.4929962,0.2880249
		c-0.1829987,0.2099915-0.1570129,1.0999756,0.0269928,1.2569885c0.5240021,0,1.9120026-0.07901,4.1380005-0.07901
		c2.3330078,0,3.6410065,0.07901,4.2449951,0.07901h0.2320099c0.9960022,0,2.2009888-0.07901,3.25-0.07901
		c2.173996,0,3.5349884,0.07901,4.1649933,0.07901c0.1560059-0.1570129,0.2340088-1.1260071,0.0780029-1.2569885
		c-0.7330017-0.105011-1.2839966-0.210022-1.8079987-0.3660278c-0.8379974-0.2619934-0.9179993-0.6549988-0.9179993-1.414978
		c0-1.8340149,0.1589966-5.5020142,0.3419952-8.2260132c0.0250092-0.052002,0.1580048-0.0789795,0.1829987-0.052002
		c1.651001,3.7449951,3.8249969,8.8009949,4.5319977,11.0030212c0.105011,0.052002,1.2830048,0.0779724,1.3880005,0
		c0.7600098-2.0180054,3.7200012-8.4880066,4.8730011-11.1610107c0.026001-0.026001,0.1049957-0.026001,0.1309967,0
		c-0.0519867,3.0929871,0,6.4190063-0.0519867,8.5409851c-0.026001,0.9950256-0.1580048,1.20401-0.576004,1.3619995
		c-0.3670044,0.1300049-0.8390045,0.1820068-1.4929962,0.3140259c-0.1060028,0.1839905-0.1320038,1.0999756,0,1.2569885
		c1.4389954,0,2.5149994-0.07901,3.9809875-0.07901c2.5409851,0,3.8500061,0.07901,4.7940063,0.07901
		c0.1820068-0.1570129,0.2349854-1.0469971,0.1040039-1.2569885
		C82.6859894,174.6470032,82.0309906,174.5169983,81.6649933,174.4129944"/>
	<path d="M92.1397552,159.61203c-2.4349976,0-4.4529724,0.7339783-5.946991,1.7809753
		c-2.4609985,1.7550049-3.1679993,4.45401-3.1679993,6.6270142c0,2.0180054,0.5500183,4.322998,2.2260132,6.0249939
		c1.440979,1.4420166,3.3540039,2.3850098,6.5489807,2.3850098c2.6200256,0,5.2660217-1.0230103,7.098999-3.3269958
		c1.1010132-1.4410095,1.625-3.3789978,1.625-5.3440247C100.5237579,163.4100037,97.6427765,159.61203,92.1397552,159.61203
		 M94.4197845,174.151001c-0.5500183,0.4960022-1.2580261,0.7060242-1.8860168,0.7060242
		c-1.0740051,0-1.8079834-0.3659973-2.5409851-0.9430237c-1.7810059-1.5179749-2.4370117-4.4529724-2.4370117-6.6799927
		c0-2.4100037,0.4459839-4.6099854,1.9110107-5.6059875c0.4989929-0.3659973,1.2070007-0.5240173,1.8609924-0.5240173
		c0.9960022,0,1.651001,0.2890015,2.3840027,0.8910217c1.571991,1.3359985,2.2789917,3.9549866,2.2789917,6.7070007
		C95.9907684,170.9550171,95.6247711,173.0510254,94.4197845,174.151001"/>
	<path d="M133.9191742,161.6549072c-1.4410095-1.1529846-3.2750244-1.651001-5.6850281-1.651001
		c-2.0959778,0-2.6469727,0.053009-4.8719788,0.07901c-0.7610168,0-3.4970093-0.07901-4.072998-0.07901
		c-0.6289978,0-1.506012,0.07901-3.4170227,0.07901c-1.9909973,0-3.1689758-0.07901-3.7459717-0.07901
		c-0.0780029,0.053009-0.131012,1.1530151,0,1.2580261c0.6029968,0.0780029,1.1009827,0.1559753,1.7029724,0.2879944
		c0.8900146,0.1839905,1.1520081,0.6539917,1.20401,1.519989c0.1319885,2.0169983,0.1319885,4.0599976,0.1579895,7.4129944
		c-0.0529785,0-0.1049805,0.026001-0.1579895,0.026001c-1.6229858-1.8069763-5.0820007-6.1819763-7.2819824-8.9069824
		c-0.5500183-0.6800232-0.8390198-1.1000061-1.0480042-1.5720215c-0.5240173,0.0270081-1.5190125,0.053009-2.3840027,0.053009
		c-2.0429993,0-3.0650024-0.07901-3.9550171-0.07901c-0.0789795,0.105011-0.1059875,1.178009,0,1.3100281
		c0.7860107,0.0789795,1.3359985,0.2619934,1.8080139,0.4459839c0.6799927,0.2350159,0.8899841,1.0209961,0.8899841,1.5979919
		c0,2.7770081-0.0789795,8.0690002-0.2359924,9.5090027c-0.052002,0.7070007-0.2879944,1.2839966-0.8899841,1.5200195
		c-0.6020203,0.2079773-1.0220032,0.2869873-1.651001,0.3919983c-0.07901,0.1049805-0.131012,1.0999756,0,1.2569885
		c1.1269836,0,2.644989-0.07901,3.7449951-0.07901c1.2070007,0,2.4369812,0.07901,3.6419983,0.07901
		c0.1569824-0.2349854,0.1839905-1.1260071,0.053009-1.2569885c-0.7340088-0.132019-1.2050171-0.210022-1.651001-0.3139954
		c-0.7060242-0.184021-1.1530151-0.6020203-1.2060242-1.7820129c-0.0509949-1.1260071-0.1039734-5.3439941-0.0779724-8.2250061
		c0-0.0270081,0.0529785-0.1309814,0.1579895-0.0270081c2.3309937,2.882019,7.1000061,9.1960144,9.0910034,11.7620239
		c0.3919983-0.052002,2.4880066-0.1040039,2.9060059-0.026001c-0.0250244-1.0200195-0.052002-2.5140076-0.052002-3.7180176
		c-0.026001-3.4580078,0.052002-7.2330017,0.2099915-9.3009949c0.1309814-1.3099976,0.5239868-1.4400024,1.230011-1.6499939
		c0.1349792-0.0400085,0.3339844-0.071991,0.4440002-0.098999c0.2329712-0.0570068,0.8089905-0.0460205,1.0639954,0.0069885
		c0.2720032,0.0549927,0.598999,0.105011,0.742981,0.1440125c0.7070007,0.2099915,0.7600098,0.5239868,0.8390198,1.2569885
		c0.0529785,1.2310181,0.0269775,2.4620056,0.0269775,5.3439941c0,2.0700073-0.0269775,4.6640015-0.0539856,5.1340027
		c-0.052002,0.7080078-0.3659973,1.1020203-0.9949951,1.2319946c-0.5760193,0.1040039-0.8380127,0.184021-1.5460205,0.2620239
		c-0.1569824,0.026001-0.1569824,0.9960022,0,1.2569885h1.2320251c2.3580017,0.0270081,4.7669983,0.105011,6.2089844,0.105011
		c2.723999,0,5.2919922-0.4179993,7.4400024-2.1220093c1.6229858-1.2829895,2.9339905-3.3259888,2.9339905-6.4450073
		C136.6701508,165.1379089,135.62117,163.0169067,133.9191742,161.6549072 M130.9581757,173.1029053
		c-0.8640137,1.0740051-1.7280273,1.5440063-2.960022,1.5440063c-0.4710083,0-1.572998-0.1819763-2.0429993-0.6539917
		c-0.2089844-0.2080078-0.4190063-0.5759888-0.4450073-0.8640137c-0.0799866-0.7599792-0.0519714-2.5419922-0.0519714-5.0299988
		c0-2.3559875,0-5.4229736,0.0259705-6.3129883c0-0.052002,0.1030273-0.2619934,0.210022-0.2879944
		c0.1029968-0.053009,0.5239868-0.105011,0.7850037-0.105011c1.0749817,0,2.4100037,0.2350159,3.3529968,0.9429932
		c1.7019958,1.20401,2.5939941,3.4070129,2.5939941,5.6590271
		C132.4261627,170.5609131,131.8221588,171.9759216,130.9581757,173.1029053"/>
	<path class="st0" d="M29.4527912,60.3943787c0.4289856,2.8360291,1.2369995,5.4960022,2.4639893,7.7510071
		c0.9739971-2.0929871,2.7270031-3.7359924,3.9999981-4.6019897c0.0610046,0.2189941,0.1040039,0.3649902,0.1719971,0.5769958
		c-1.1179962,1.1409912-2.0249939,2.4720154-2.8569946,3.9710083c1.0870056-1.2879944,2.1369934-2.1020203,3.2200012-2.9360046
		c1.6529999,4.243988,4.6929932,6.9370117,8.0110016,8.7569885c0.7870026-4.0429993,2.2109985-7.5379944,3.9680023-9.2509766
		c0.0809937,0.1389771,0.1900024,0.3429871,0.2709961,0.473999c-1.2749939,2.0269775-1.6560059,3.0859985-2.1809998,5.1779785
		c1.0679932-1.8150024,1.9100037-2.9559937,2.9149933-4.0669861c0.9330139,1.3059998,1.8339996,2.2080078,2.6660004,3.0390015
		c2.9850006-2.9850159,9.253006-3.1150208,12.6529999-3.4470215c-3.9729919-3.1869812-18.7489929-0.3829956-24.7009888-8.8619995
		c0.3589935-0.6889954,0.8259888-1.3079834,1.5540009-2.0839844c-1.4980011,0.8999939-4.0810089,3.2149963-5.6480103,5.0849915
		c0.3529968-0.9809875,0.730011-1.7630005,1.1630096-2.4379883c-2.4360046-4.6690063-2.0400085-10.598999-1.5480042-15.0390015
		c0.6909943-0.5100098,1.4259949-0.9760132,2.2409973-1.3649902c-2.1869965,0.5099792-3.7960052,1.2659912-5.8390026,2.6959839
		c-0.7679901-5.8259888,1.6639996-12.1539917,3.6470013-16.4719849c-0.9049988,0.1659851-1.5650024,0.4839783-2.3659973,0.9949951
		c1.0019989-4.8110046,2.7779999-8.8940125,6.2779999-12.723999c-4.2700043,3.7120056-7.522995,8.5039978-9.2689953,14.4830017
		c0.9619904-0.4810181,1.3609924-0.6329956,2.1089916-0.8359985c-0.0709991,0.1269836-0.1989899,0.3249817-0.272995,0.4519958
		c-1.3879986,0.7609863-2.2180004,1.3729858-3.4669933,2.7729797c1.2379913-0.7999878,1.9579926-1.1779785,2.7679901-1.5019836
		c-3.1139984,5.571991-5.9420013,11.493988-4.5919952,20.1919861c0.848999-1.0539856,2.1880035-2.0820007,2.875-2.4089966
		c-0.0310059,0.1610107-0.0529938,0.3260193-0.0800018,0.4880066c-1.4649963,1.3729858-2.4859924,3.0050049-3.1490021,4.5069885
		c0.8419952-1.118988,1.7160034-2.0249939,2.8939972-2.7590027C28.9757862,54.1564026,28.9957905,57.3743896,29.4527912,60.3943787"
		/>
	<path class="st1" d="M92.8715057,52.8617859c-0.1620178,0.8940125-0.1880188,1.8860168-0.1500244,2.6030273
		c1.7490234,0.4629822,3.7780151-2.2260132,4.6589966-6.2430115c0.7920227,0.6749878,1.5380249,1.3770142,2.3770142,2.3540039
		c-0.6430054-1.5920105-1.1940002-2.446991-2.1629944-3.5390015c0.0289917-0.1929932,0.1390076-0.4609985,0.1619873-0.6579895
		c0,0,0.7359924,0.5209961,1.2780151,1.2949829c0.427002-1.2380066,0.7599792-4.0299988,0.9660034-7.8779907
		c-0.6650085,1.2900085-1.8359985,2.2669983-3.0080261,2.8519897
		C95.9965057,48.9078064,94.2394867,51.9248047,92.8715057,52.8617859"/>
	<path class="st1" d="M100.3141937,29.3422852c0-1.2039795-0.0820007-2.0819702-0.3850098-3.1159973
		c0.2839966,0.0859985,0.7149963,0.2920227,0.9419861,0.4070129c-0.1940002-2.5100098-0.0090027-3.8259888-0.9979858-6.105011
		c-0.0320129,1.2980042-0.0849915,2.9730225-0.8970032,3.697998c-0.6669922,0.598999-1.3529968,1.0620117-2.052002,1.3760071
		C98.1161652,26.4242859,99.4591827,27.7182922,100.3141937,29.3422852"/>
	<path class="st1" d="M40.0648956,51.1954041c0.7599945-0.6609802,1.5479889-1.0559998,2.4379883-1.3479919
		c0.0449982,0.0910034,0.0940094,0.1790161,0.1419983,0.2690125c-1.4789886,0.9799805-2.3839874,1.8059998-3.6279907,3.4729919
		c1.5950012-1.1730042,2.9069977-1.8509827,4.2509918-2.4589844c2.7510071,3.9659729,8.6500092,7.1299744,15.2140045,7.9679871
		c-0.8910065-1.8710022-4.2599945-4.2200012-5.4700012-6.0740051c-2.2919922-3.5059814-0.9449921-7.6489868,1.0379944-10.151001
		c-4.7589874,2.1100159-6.0039978,3.5830078-6.6209869,6.8269958c-5.7350006-5.6149902-6.4430084-19.742981-5.4380035-27.5449829
		c-3.1869965,5.7879944-5.7330017,9.9679871-5.7330017,18.1309814c0.923996-0.3979797,1.9420013-0.7859802,3.0549927-0.9309998
		C38.7108917,42.4544067,38.85289,47.4364319,40.0648956,51.1954041"/>
	<path class="st0" d="M56.1381836,18.190094c1.8849945,1.5780029,2.7999878,2.7290039,6.6519928,3.5340271
		c0.6589966,0.1380005,1.5700073,0.1359863,2.3190002,0.0780029c-1.5359955,1.1299744-3.6309967,1.59198-5.8110046,1.8509827
		c-2.845993,0.3430176-7.2709961-1.855011-10.4769897-2.4790039c-1.1950073-1.2519836-1.4140015-2.5409851-0.855011-3.3880005
		c0.2320099-0.3529968,0.5449982-1.1889954,1.3130035-1.8840027c0.1569977-0.0019836,0.3200073-0.0029907,0.4779968,0.0110168
		c1.0200043,0.0899963,2.0410004,0.2139893,3.0410004,0.446991C53.9551697,16.6311035,55.2391815,17.4561157,56.1381836,18.190094"
		/>
	<path class="st0" d="M59.2066956,30.3179016c2.9859924,0.1760254,5.5379944,0.9490051,7.7579956,1.4890137
		c0.3479919,0.0820007,0.6889954,0.177002,1.0379944,0.2720032c3.9430084,1.0979919,7.6679993,2.3049927,10.9340057,3.5220032
		c1.2070007,0.802002-4.6029968-0.6679993-10.901001-2.3829956c0.1210022,0.5569763,0.4109955,1.0899963,0.946991,1.5639954
		c0.5860138,0.519989,1.006012,1.0109863,1.3170013,1.4779968c-1.7059937-0.4790039-3.4589996-0.8890076-5.1849976-1.1619873
		c-2.1730042-0.3420105-4.2980042-0.4700012-6.2359924-0.2530212c2.4779968,0.1669922,5.5829926,0.559021,8.7890015,1.3640137
		c0.0670013,0.0140076,0.1329956,0.0289917,0.197998,0.0409851c0.071991,0.0160217,0.1439972,0.0310059,0.2149963,0.0450134
		c4.0379944,0.8200073,7.8820038,1.7680054,11.2769928,2.7619934c1.1279907,0.6260071-3.0089874,0.006012-8.2649994-0.9790039
		c0.4210052,1.6530151,0.1910095,2.8890076,3.0950012,3.7810059c3.5740051,1.0979919,9.1580048,0.5149841,11.3820038-0.4509888
		c1.4790039-0.6419983,3.0279846-2.0180054,3.303009-2.6220093c0.0999756-0.2180176,0.1849976-0.4100037,0.2609863-0.5910034
		c-2.019989-0.6520081-1.3240051-3.0490112-3.6159973-4.4700012c-1.6440125-1.0169983-1.6570129-2.0029907-2.5180054-3.6329956
		c-0.3160095-0.6019897-0.7860107-1.2929993-1.4219971-2.105011c-2.3710022-2.8079834-3.3409882-3.2229919-5.6559906-2.9969788
		c-1.5400085,0.1479797-3.9840088,0.7029724-5.8430023,3.039978c-0.5700073-0.2319946-1.1430054-0.4519958-1.7180023-0.664978
		c-3.0319977-1.1100159-6.1289978-1.9130249-9.1750031-1.9680176c3.1600037,0.428009,5.2799988,1.0859985,9.1940002,2.4840088
		c4.0810089,1.3599854,7.8890076,2.8119812,11.1900024,4.2489929c1.0879822,0.822998-4.3629913-0.776001-10.4449921-2.7659912
		c-0.427002,0.6699829-0.8280029,1.4450073-1.0270081,2.2330017c-0.8619995-0.2530212-1.7229919-0.4810181-2.5829926-0.6719971
		C63.3766937,30.4469299,61.2576904,30.190918,59.2066956,30.3179016"/>
	<path class="st0" d="M71.2652893,17.349884c-0.1740112-0.0909729-0.3480072-0.196991-0.5200043-0.3099976
		c-0.0230103,0.1600037-0.0650024,0.3320007-0.1370087,0.5299988c-1.7929993,0.1200256-4.1629944-2.3959961-5.2799988-3.4099731
		c-1.6719971-1.5200195-3.446991-1.9040222-5.9199982-2.1390076c-1.1609955,0.0820007-1.3509979-0.3089905,0.0639954-0.6710205
		c1.6460114-0.2389832,3.052002-0.1519775,4.2990112,0.1600037c-0.8730011-0.7489929-1.7969971-1.4179993-2.9219971-1.8139954
		c-0.8510132-0.3009949-1.7880096-0.6640015-2.6930084-0.7149963c-0.5480042-0.0270081-1.2539978,0.1380005-1.8589935,0.3259888
		c-1.053009,0.3270264-2.3130035,0.9030151-3.102005,1.3520203c0.0279999,1.144989-0.3950043,2.2890015-0.2389984,3.4450073
		c0.0809937,0.6089783-0.052002,0.9959717,0.4660034,1.3309937c0.3069916,0.197998,0.6159973,0.5239868,0.9169922,0.6849976
		c0.3160095,0.1730042,1.0250092,0.0709839,1.5480042,0.0440063c1.2669983-0.2260132,2.2689972-0.6679993,3.3390045-0.7369995
		c2.8349915-0.1860046,5.5670013,0.2189941,7.4059906,1.54599c1.8059998,1.394989,4.0420074,2.7739868,4.6009979,3.0750122
		c0.201004,0.1089783,0.4790039,0.3549805,0.8070068,0.3349915c0.2079926-0.1260071,0.4140015-0.2460022,0.6199951-0.3630066
		c0.0140076-0.1170044,0.0180054-0.2250061,0.0180054-0.3139954C72.6782837,19.151886,72.3782806,17.9259033,71.2652893,17.349884"
		/>
	<path class="st0" d="M96.2485809,15.0783081c-0.1240234-0.6289978-0.3560181-1.6629944-0.6080017-2.0709839
		c-0.5250244-0.848999-0.9730225-1.4599915-1.5350037-2.0289917c-1.0200195-0.6560059-2.3240051-1.1210022-4.1240234-1.6220093
		c-0.8379822-0.2330017-2.5519714-0.3989868-2.8659973-0.3340149c-0.5229797,0.1010132-0.7729797,0.4560242-0.947998,0.8070068
		c-0.2659912,0.5280151,0.8520203,1.8320007,1.6589966,3.0679932c0.6450195-0.8869934,1.4990234-1.2969971,3.0980225-1.4339905
		c1.1619873,0.0379944,1.1730042,0.3890076,0.2989807,0.5339966c-0.526001,0.0750122-1.4389954,0.6670227-2.0759888,2.2080078
		c-0.4249878,1.0299988-0.4309998,2.6409912-2.0849915,3.0889893c-0.1480103-0.17099-0.2590027-0.3410034-0.3380127-0.5069885
		c-0.2200012,0.3590088-0.6269836,1.0350037-0.2949829,1.7059937l0.4109802,0.3569946
		c0.1520081,0.0770264,0.3049927,0.1610107,0.4630127,0.2520142c-0.131012-1.2350159,1.5759888-2.2919922,2.242981-2.9440002
		c1.4500122-1.4160156,3.4670105-0.9160156,4.3930054-0.5849915c0.6750183,0.242981,1.2189941,0.8569946,1.8330078,1.1369934
		c0.5549927,0.1210022,0.5700073-0.5280151,0.6549988-0.7829895C96.5175629,15.656311,96.3015594,15.3513184,96.2485809,15.0783081"
		/>
	<path class="st0" d="M71.4763947,70.382782c-0.0510101,0.8400269,0.3149872,1.8170166,0.8579865,2.7550049
		c0.5360107,0.9240112,1.3140106,1.7019958,2.1900024,1.9940186c0.178009,0.6839905,0.2380066,1.3110046,0.178009,2.0269775
		c1.2179871,0.2920227,2.0879974,0,3.1609955-0.5369873c0.2689972,0.5369873,0.3280029,1.2529907,0.2389984,2.2059937
		c1.0140076-0.0879822,1.6699982-0.2680054,2.4579926-0.8439941c0.0469971,0.4570007,0.0180054,1.1430054-0.1319885,1.7099915
		c0.5069885-0.7469788,0.7449951-1.2839966,0.8670044-1.9549866c0.1019897-0.0400085,0.2039795-0.0830078,0.3069763-0.131012
		c0.1080017,0.802002,0.1390076,1.4890137-0.0699768,2.8009949c0.7749939-1.4019775,1.0429993-2.2070007,1.1919861-3.5189819
		c0.0929871-0.0660095,0.1260071-0.0360107,0.2200012-0.1060181c0.1929932,0.6980286,0.348999,1.355011,0.3179932,2.3560181
		c2.1180115-0.4169922,3.1900024-1.5050049,3.9609985-3.2780151c0.3340149,0.3250122,0.7910156,0.8789978,1.0769958,1.4160156
		c1.7890015-0.8519897,2.4900208-2.9840088,2.8040161-4.3829956c0.1690063-0.7579956,0.3330078-2.1240234,0.1679993-2.651001
		c0.1839905,0.0759888,0.3580017,0.164978,0.5270081,0.2590027c0.7159729-1.4909973,0.348999-3.5760193,1.2419739-4.8320007
		c0.7140198-1.007019,0.1720276-2.006012-0.151001-3.1640015c-0.2989807,6.1089783-2.5869751,3.4369812-3.1469727,3.1439819
		c-2.0190125-1.0549927-9.1630249-0.9689941-12.0429993-0.1919861c-1.1950073,0.321991-2.0870056,0.5039978-2.7570038,1.1520081
		c-2.0619965,1.9899902-2.7559967,1.2039795-3.1269989-0.5830078c-0.0550079-0.7189941-0.1430054-1.3330078-0.2880096-1.9370117
		c-0.0139923-0.118988-0.0289917-0.2389832-0.0429993-0.3599854c0.0100098,0.0799866,0.0070038,0.151001,0.0080109,0.223999
		c0.0319977,1.5709839-1.6910095,1.6059875-1.7880096,3.0599976c-0.0139923,0.2009888,0.0019989,0.4289856,0.0599976,0.6929932
		C69.9283905,68.316803,71.5453796,69.4907837,71.4763947,70.382782"/>
	<path class="st0" d="M64.5338898,18.3027039c-0.5570068-0.0949707-0.9680023-0.4159851-0.9180145-0.7069702
		c0.052002-0.2960205,0.5450134-0.4530029,1.102005-0.3560181c0.5610046,0.0970154,0.9720001,0.4129944,0.9210052,0.7070007
		C65.5878754,18.2377319,65.0938873,18.4007263,64.5338898,18.3027039"/>
	<path class="st0" d="M92.7100983,17.0336914c0.0749817,0.256012-0.2620239,0.5830078-0.756012,0.7280273
		c-0.4899902,0.1429749-0.946991,0.0529785-1.0240173-0.2050171c-0.0759888-0.2590027,0.2590027-0.5859985,0.7490234-0.7299805
		C92.1730804,16.6806946,92.6330719,16.7737122,92.7100983,17.0336914"/>
	<path class="st0" d="M97.2771759,22.6445007c0.1939697-0.6539917,0.6789856-1.3759766,0.7349854-1.9919739
		c0.0570068-0.6240234-0.2189941-1.678009-0.5069885-2.7520142c-0.006012-0.0010071-0.0110168-0.0019836-0.0169983-0.0029907
		c-1.4470215-0.3340149-1.803009,0.0799866-2.3500061,0.7539978c-1.0460205,1.2879944-1.2359924,1.6159973-2.4250183,2.2170105
		c-0.8569946,0.4339905-1.6539917,0.4169922-2.4559937,0.2479858c1.0130005,0.8450012,2.2420044,1.427002,3.4330139,1.5469971
		C94.9551544,22.7935181,96.225174,23.2355042,97.2771759,22.6445007"/>
	<path class="st1" d="M98.0740814,16.0939026c0.0019836,0.7200012,0.6849976,1.5180054,0.4239807,1.8560181
		c-0.2319946,0.0820007-0.617981,0.0369873-0.9920044-0.0490112c0.2860107,1.072998,0.5620117,2.1280212,0.506012,2.7520142
		c-0.0559998,0.6149902-0.5410156,1.3379822-0.7350159,1.9909973c0.0160217-0.0079956,0.0340271-0.0150146,0.0500183-0.0249939
		c0.1579895-0.0930176,0.3059998-0.210022,0.4419861-0.3540039c1.3050232-1.4049988,1.848999-2.1270142,1.684021-3.6910095
		c-0.1160278-0.4159851,0.9759827,0.098999,1.7349854,1.427002c-0.6959839-1.4750061-1.4159851-2.8070068-2.0910034-3.8670044
		c-0.243988-0.375-0.4499817-0.6959839-0.6470032-1C98.1940765,14.8879089,98.0720673,15.5559082,98.0740814,16.0939026"/>
	<path class="st2" d="M93.3489838,17.039093c-0.0230103-0.0779724-0.0510254-0.1519775-0.0800171-0.2259827
		c-0.1059875-0.0069885-0.2120056-0.0119934-0.3150024-0.0150146c0.2330017,1.0450134-0.4129944,2.1140137-1.492981,2.4320068
		c-1.1260071,0.3320007-2.2970276-0.276001-2.6150208-1.3580017c-0.0059814-0.0180054-0.0090027-0.0369873-0.0130005-0.0559998
		c0,0.0010071-0.0010071,0.0010071-0.0010071,0.0010071c-0.2349854,0.2319946-0.4429932,0.4689941-0.5669861,0.7099915
		c0.0020142,0.0030212,0.0020142,0.0050049,0.0029907,0.007019c0.4120178,1.4039917,1.882019,2.2030029,3.2860107,1.7909851
		C92.956955,19.9121094,93.759964,18.4411011,93.3489838,17.039093"/>
	<path class="st2" d="M66.5325928,17.7428894c-0.2620087,1.3850098-1.6360016,2.2980042-3.0850067,2.0450134
		c-1.4580078-0.2529907-2.451004-1.5979919-2.2080078-3.0039978c0.0130005-0.0629883,0.0279999-0.125,0.0440063-0.1849976
		c-0.3399963,0.0140076-0.6519928,0.0409851-0.9250031,0.0709839c-0.0599976,0.1740112-0.1129913,0.355011-0.144989,0.5440063
		c-0.3170013,1.8210144,0.9069977,3.5549927,2.7279968,3.8710022c1.8259888,0.3179932,3.5579987-0.9069824,3.875-2.7269897
		c0.0240021-0.1329956,0.0349884-0.2650146,0.0419922-0.3950195C66.749588,17.8839111,66.6405792,17.809906,66.5325928,17.7428894"
		/>
	<path class="st3" d="M76.2707977,63.0980835c-1.2860107,0.7610168-0.9370117-0.3379822-1.2360077-1.0859985
		c-0.5139923-1.2849731-1.529007-2.4229736-1.7359924-5.2879944c-0.1570129-1.2369995-0.227005-3.2929993,1.0509949-3.6779785
		c1.9839935-0.5980225,4.9319916,1.3450012,6.6159821,1.3450012c1.6820068,0,3.3370056-1.7410278,4.9949951-1.4330139
		c1.132019,0.2089844,1.572998,1.6399841,1.9360046,3.0220032c0.3970032,1.5119934,0.2530212,2.6159973,0.40802,3.6350098
		c0.1019897,0.6849976,0.1799927,0.8799744,0.3979797,1.1959839c-0.0169983,0.0240173-0.4179993,0.5440063-0.4339905,0.5679932
		c-0.0209961-0.0220032-0.0400085-0.0390015-0.0029907,0.006012c-0.1600037-0.1570129-0.3730164-0.243988-0.598999-0.243988
		c-0.2320251,0-0.460022,0.0939941-0.6410217,0.2609863c-0.1319885,0.1220093-0.25,0.2860107-0.348999,0.4670105
		c-0.1069946-0.0550232-0.2279968-0.0830078-0.3540039-0.0830078c-0.2029724,0-0.4059753,0.0799866-0.5669861,0.2259827
		c-0.0029907,0.0020142-0.0029907,0.0020142-0.0039978,0.0030212c-0.1329956-0.098999-0.2950134-0.1530151-0.4680176-0.1530151
		c-0.1889954,0-0.375,0.0670166-0.5259705,0.1900024c-0.1410217-0.1229858-0.3210144-0.1900024-0.5110168-0.1900024
		c-0.1730042,0-0.3410034,0.0549927-0.4830017,0.1560059c-0.0050049-0.0039978-0.0090027-0.0069885-0.0119934-0.0119934
		c-0.1459961-0.1430054-0.3389893-0.2200012-0.54599-0.2200012c-0.1370239,0-0.2730103,0.0350037-0.3970032,0.1040039
		c-0.105011-0.1670227-0.2420044-0.3359985-0.4129944-0.5050049c-0.1590271-0.1570129-0.3710022-0.243988-0.5970154-0.243988
		c-0.2309875,0-0.4580078,0.0939941-0.6419983,0.2609863c-0.0660095,0.0629883-0.1319885,0.1359863-0.1900024,0.2189941
		c-0.4360046-1.3659973-0.6759949-2.368988-0.9100037-3.3469849c-0.0820007-0.3370056-0.1619873-0.6679993-0.25-1.0120239
		c-0.2030029-0.8099976-0.4909973-1.5609741-1.2029877-1.5609741c-0.8359985,0-1.1470032,1.0149841-1.3309937,1.6059875
		C76.8067932,58.8670959,76.3817902,61.5000916,76.2707977,63.0980835"/>
	<path class="st0" d="M77.4158783,44.1307068c0-0.5699768,1.5-0.9239807,2.1730042-0.9239807
		c0.6759949,0,2.04599,0.4499817,1.9779968,1.1000061c-0.65802,2.9239807-0.756012,4.5569763-0.9980164,6.4570007
		c-0.2349854,1.8339844-0.8699951,1.7389832-1.539978-0.026001C78.4358826,49.1767273,77.8298798,47.3677368,77.4158783,44.1307068
		 M82.6588593,43.4107361c-0.0049744-0.1730042,0.4980164-0.3650208,0.8340149-0.3650208
		c0.3379822-0.0010071,0.867981,0.177002,0.8739929,0.3869934c-0.006012,0.3900146-0.1679993,0.9510193-0.7179871,1.4930115
		c-0.1020203,0.1010132-0.2470093,0.0880127-0.3860168-0.0369873
		C82.9158783,44.5677185,82.6558685,43.7497253,82.6588593,43.4107361 M84.6208649,43.2597351
		c-0.0019836-0.1080017,0.3099976-0.2270203,0.5180054-0.2270203c0.2070007,0,0.5379944,0.1100159,0.5409851,0.2400208
		c-0.0039978,0.2409973-0.1039734,0.5879822-0.4449768,0.9249878c-0.0639954,0.0620117-0.1549988,0.0549927-0.2390137-0.0230103
		C84.7818756,43.9767151,84.6198578,43.4687195,84.6208649,43.2597351 M85.8378754,43.1717224
		c-0.0050049-0.1090088,0.3070068-0.2269897,0.5149841-0.2279968c0.2080078,0,0.5380249,0.1109924,0.5429993,0.2399902
		c-0.0069885,0.2409973-0.1069946,0.5890198-0.4459839,0.9250183c-0.0650024,0.0609741-0.1539917,0.0559998-0.2380066-0.0240173
		C85.9958649,43.8867188,85.8358612,43.3807068,85.8378754,43.1717224 M87.0518646,43.1717224
		c-0.0039978-0.1090088,0.3080139-0.2269897,0.5169983-0.2279968c0.2090149,0,0.5370178,0.1109924,0.5419922,0.2399902
		c-0.0049744,0.2409973-0.1049805,0.5890198-0.4449768,0.9250183c-0.0650024,0.0609741-0.1540222,0.0559998-0.2380066-0.0240173
		C87.2108612,43.8867188,87.0508575,43.3807068,87.0518646,43.1717224 M95.6638641,44.2577209
		c-0.6059875,2.4630127-1.3999939,4.2680054-2.3529968,5.8710022c-1.230011,2.0660095-1.57901,1.723999-1.4670105,0.4609985
		c0.1500244-1.6919861,0.4410095-3.4140015,0.105011-6.3250122c0-0.5130005,1.1390076-1.0109863,1.8600159-1.0109863
		C94.5298615,43.2537231,95.7448578,43.6807251,95.6638641,44.2577209 M80.6628571,62.7237244
		c0.125,0.5369873-0.9109802,0.8179932-1.4179993,0.8179932c-0.5069733,0-1.6659851-0.20401-1.7289734-0.6730042
		c-0.052002-2.6690063,0.272995-4.1600037,0.5389862-5.447998c0.3080139-1.4580078,0.75-1.5350037,1.1339874-0.0220032
		C79.5838776,58.9657288,79.839859,60.3127136,80.6628571,62.7237244 M88.6288605,62.7247314
		c1.4250183-2.4450073,1.8890076-3.8900146,2.4500122-5.309021c0.4179993-1.0599976,0.8240051-1.3469849,0.947998,0.3890076
		c0.0950012,1.3460083,0.1430054,2.8619995-0.375,4.9320068c-0.1690063,0.4830017-1.1329956,0.7659912-1.6730042,0.7659912
		C89.4348602,63.5027161,88.4228668,63.1577148,88.6288605,62.7247314 M90.3568573,43.0457153
		c0.3390198-0.0010071,0.8680115,0.177002,0.8740234,0.3869934c-0.0079956,0.3900146-0.1690063,0.9510193-0.7200012,1.4930115
		c-0.1020203,0.1010132-0.2480164,0.0880127-0.3850098-0.0369873c-0.3479919-0.3210144-0.6059875-1.1390076-0.6019897-1.4779968
		C89.516861,43.2377319,90.0198822,43.0457153,90.3568573,43.0457153 M88.267868,43.2597351
		c-0.0039978-0.1080017,0.3080139-0.2270203,0.5159912-0.2270203c0.2090149,0,0.5380249,0.1100159,0.5429993,0.2400208
		c-0.0069885,0.2409973-0.1069946,0.5879822-0.447998,0.9249878c-0.0619812,0.0620117-0.1529846,0.0549927-0.2389832-0.0230103
		C88.4258575,43.9767151,88.2648773,43.4687195,88.267868,43.2597351 M86.7878571,63.2047119
		c-0.0039978,0.1130066-0.2849731,0.2070007-0.4639893,0.2070007c-0.178009,0-0.4450073-0.1009827-0.4419861-0.1940002
		c-0.0010071-0.1779785,0.1369934-0.6109924,0.3199768-0.7819824c0.0710144-0.0679932,0.151001-0.072998,0.20401-0.0200195
		C86.6988678,62.7037354,86.7838593,62.9997253,86.7878571,63.2047119 M85.7488556,63.2837219
		c-0.0039978,0.1109924-0.2839966,0.20401-0.4639893,0.20401c-0.178009,0-0.4429932-0.1020203-0.4410095-0.1940002
		c-0.0019836-0.1800232,0.1350098-0.6110229,0.3190002-0.78302c0.072998-0.065979,0.151001-0.071991,0.2050171-0.0189819
		C85.6598663,62.7797241,85.7448578,63.0757141,85.7488556,63.2837219 M84.3288727,62.4917297
		c0.2919922,0.2879944,0.3769836,0.5839844,0.381012,0.7919922c-0.0040283,0.1109924-0.2850037,0.20401-0.4630127,0.20401
		c-0.1790161,0-0.446991-0.1020203-0.4420166-0.1940002c-0.0009766-0.1800232,0.1350098-0.6110229,0.3200073-0.78302
		C84.1968842,62.4447327,84.27388,62.4387207,84.3288727,62.4917297 M83.6708832,63.2047119
		c-0.0040283,0.1130066-0.2860107,0.2070007-0.4640198,0.2070007c-0.1779785,0-0.4440002-0.1009827-0.4389954-0.1940002
		c-0.0029907-0.1779785,0.1340027-0.6109924,0.3190002-0.7819824c0.071991-0.0679932,0.1480103-0.072998,0.2030029-0.0200195
		C83.5808563,62.7037354,83.6658783,62.9997253,83.6708832,63.2047119 M82.5488739,63.0697327
		c-0.0050049,0.1799927-0.4590149,0.3320007-0.7470093,0.3320007s-0.7189941-0.1650085-0.7139893-0.3140259
		c-0.0020142-0.2859802,0.2189941-0.9879761,0.5159912-1.2630005c0.1170044-0.1079712,0.2420044-0.118988,0.3300171-0.0319824
		C82.4038849,62.2567139,82.5418549,62.7367249,82.5488739,63.0697327 M87.4728851,61.824707
		c0.1169739-0.1079712,0.2409973-0.118988,0.3289795-0.0319824c0.4700012,0.4639893,0.6080017,0.9440002,0.6149902,1.2770081
		c-0.0069885,0.1799927-0.4609985,0.3320007-0.7469788,0.3320007c-0.2879944,0-0.7189941-0.1650085-0.7149963-0.3140259
		C86.9528656,62.8017273,87.174881,62.0997314,87.4728851,61.824707"/>
	<path class="st1" d="M113.5496979,102.8229065c-0.1680298-0.8829956-0.3870239-1.7459717-0.4760132-2.0319824
		c-1.3980103-4.5079956-3.8250122-7.9330139-6.3269958-10.5830078c-1.0460205-1.1090088-2.105011-2.0859985-3.105011-2.9459839
		c-4.3429871-3.7310181-6.6629944-5.7750244-6.1679993-12.2730103c0.0110168-0.1430054,0.0209961-0.2860107,0.0350037-0.4349976
		c0.0769958-0.8340149,0.2609863-1.5379944,0.5090027-2.1319885c-1.3880005,1.0549927-2.8869934,1.9849854-4.4079895,2.6689758
		c-0.1560059,0.6700134-0.7230225,2.7610168-1.973999,4.2160034c1.3819885,4.6600037,4.8450012,9.5710144,6.6589966,11.7950134
		c-0.9620056-1.9219971-1.2360229-3.0920105-1.9930115-5.2230225c2.803009,3.6440125,6.1010132,8.7880249,6.4020081,14.1270142
		c-1.7749939-1.875-3.6230164-3.4509888-4.9259949-4.0939941c2.4639893,5.5570068,2.2009888,9.1220093,0.6849976,14.4559937
		c-3.0299988,10.6700134-8.3009949,12.3370056-14.8880005,23.7680054c1.5319824-1.6700134,2.8800049-2.95401,4.4299927-3.927002
		c-3.1480103,3.5010071-6.0799866,9.1749878-6.0360107,14.4849854
		C97.5426788,133.2189331,107.6426849,118.6969299,113.5496979,102.8229065"/>
	<path class="st1" d="M112.3283844,79.2655945c-2.1930237-3.8479919-3.177002-7.039978-6.3510132-10.2189941
		c-0.5639954-0.5639954-1.4760132-1.3999939-2.3680115-2.4750061c-0.6219788,0.9250183-1.2369995,1.6700134-2.1669922,2.6520081
		c0.0339966,0.4030151,0.1409912,1.6830139,0.1700134,2.4020081c0.2379761,6.1380005,3.9879761,9.8940125,8.4440002,13.9379883
		c1.9199829,1.7430115,4.9119873,4.2799988,6.742981,6.8140259c0.4750061-1.86203,0.8970032-3.7390137,1.2709961-5.6260071
		C115.7433624,84.259613,113.4733734,81.2756042,112.3283844,79.2655945"/>
	<path class="st1" d="M110.7778778,71.140686c1.42099,2.7510071,5.1919861,7.6140137,8.1929932,10.4370117
		c0.1929932-1.2789917,0.3659973-2.5589905,0.5169983-3.8429871
		C116.8268585,76.3807068,113.5938568,73.6557007,110.7778778,71.140686"/>
	<path class="st1" d="M39.6111908,75.8029785c-1.0710144-1.164978-1.9890137-2.394989-2.7340088-3.5669861
		c-2.0709991,3.6480103-4.9149914,8.8529968-6.4169903,14.3850098c1.0369873-1.8699951,2.2879925-3.8359985,2.2879925-3.8359985
		c-1.0980053,3.5589905-2.2899914,8.1569824-3.0209942,13.664978c-0.723999,5.4349976-0.9260101,12.5169983-0.2150116,19.6800232
		c2.1420135,3.8029785,4.5799999,7.4889832,7.3339977,11.0279846
		C31.1721821,109.9360046,30.8271809,91.4179993,39.6111908,75.8029785"/>
	<path class="st1" d="M70.0937958,82.6134949c-0.6710052-0.8119812-1.2570038-1.6769714-1.7340088-2.4809875
		c-1.5169983-0.6910095-2.7890015-1.3800049-3.7169952-2.098999c-1.6999969,0.9020081-3.4629974,2.125-5.6150055,3.8190002
		c1.4069977-1.7130127,2.9810028-3.1719971,4.7660065-4.4329834c-0.848999-0.6680298-1.5440063-1.3890076-2.098999-2.132019
		c-1.7310028,0.8179932-3.2750092,1.4410095-5.1170044,2.9049988c1.3580017-1.9799805,2.3990021-2.5910034,4.470993-3.9779968
		c-0.0589905-0.105011-0.2419891-0.3389893-0.2939911-0.4450073c-2.8710022,1.0320129-5.2109985,2.2860107-6.772995,3.6750183
		c-0.8530121-0.8520203-1.8710022-2.2260132-2.7770081-3.6270142c-0.5639954,1.2430115-1.1190033,2.6279907-1.5650024,4.0930176
		c-0.3199921,1.1859741-0.5609894,2.1849976-0.6399994,2.6369934c-0.0070038,0.0220032-0.0139923,0.0449829-0.0220032,0.0650024
		c-0.0349884,0.196991-0.0690002,0.3939819-0.0999908,0.5910034c-0.8880005-0.1289978-2.4820099-0.6159973-3.7900085-1.1880188
		c-0.4769897,3.9819946,0.0540009,9.1150208,1.9450073,14.257019c-0.2050018-1.8080139-0.2220001-2.7790222-0.076004-4.15802
		c0.9029999,3.8869934,1.9140015,6.3059998,3.8460083,8.3340149c2.868988-4.2780151,8.4720001-8.8080139,13.9809875-10.9240112
		c-2.1019897,0.3470154-3.6759949,0.7860107-5.8529968,1.5750122c2.8059998-1.8900146,5.0019989-2.8710022,7.654007-4.2810059
		C67.9987946,84.0645142,69.1977844,83.3045044,70.0937958,82.6134949"/>
	<path class="st0" d="M104.9884796,64.0800781c2.6409912-3.9879761,2.4009705-11.1819763,1.6399841-16.7359924
		c0.5549927,0.2950134,1.0960083,0.6799927,1.6759949,1.2019958c-0.5700073-1.1199951-1.0480042-1.7129822-1.875-2.4729919
		c-0.0279846-0.1829834-0.0570068-0.4639893-0.0960083-0.6579895c0.4920044,0.3479919,0.8610229,0.6369934,1.1980286,1.0050049
		c0.4019775-4.8320007,0.2539978-8.6280212-1.2800293-12.9560242c0,0,0.4940186-0.0759888,0.9420166,0.1029968
		c-0.1059875-0.3109741-0.2650146-0.7669983-0.4609985-1.3119812c-0.6910095,0.375-1.4129944,0.6950073-2.2189941,1.0010071
		c0.1579895,0.8199768,0.2939758,1.664978,0.3989868,2.5090027c-1.367981,0.0019836-2.8619995,0.348999-4.3939819,0.8739929
		c0.0049744-0.0580139,0.0130005-0.1159973,0.0159912-0.1740112c0.0270081-0.7210083,0.0180054-1.3439941-0.0180054-1.901001
		c-2.9219971,0.9179993-5.5010071,1.571991-4.8429871,0.9700012c1.1889954-0.57901,2.4809875-1.1260071,3.8259888-1.6239929
		c0.0920105-0.0329895,0.1789856-0.0700073,0.2709961-0.1019897c0.2120056-0.0760193,0.4249878-0.1480103,0.6380005-0.2200012
		c2.2919922-0.7910156,4.7099915-1.4179993,7.0490112-1.7510071c-0.2980042-0.0599976-0.6060181-0.0899963-0.9150085-0.1060181
		c-0.322998-0.8859863-0.7160034-1.9389954-1.1229858-2.992981c-0.5120239,0.3079834-1.1060181,0.6319885-1.7660217,0.973999
		c0.2010193,0.6730042,0.3980103,1.4219971,0.57901,2.2179871c-1.2489929,0.2579956-2.5589905,0.7250061-3.8860168,1.3059998
		c-0.1359863-0.677002-0.3359985-1.2479858-0.5929871-1.7890015c-2.1659851,0.8450012-3.7409973,1.3359985-3.2449951,0.8150024
		c3.3240051-1.947998,6.0859985-3.3939819,10.0650024-4.4309998c0.0939941-0.0229797,0.1809998-0.0440063,0.2550049-0.0650024
		c-0.4980164-0.052002-1.3010254,0.0020142-1.7550049,0.0809937c-0.1360168-0.3429871-0.2700195-0.6819763-0.4020081-1.0089722
		c-0.0499878-0.1220093-0.3359985-0.8280029-0.3859863-0.9520264l0.3859863,0.0510254
		c-1.7590027-4.8710022-4.427002-9.8260193-8.1480103-13.6000061c1.28302,1.7680054,1.6750183,2.4129944,2.5740051,3.7969971
		c1.8059998,2.8410034,3.9450073,7.6180115,5.0469971,11.928009c-1.6300049,0.4679871-3.1919861,1.3819885-4.8899841,2.4579773
		c-0.1210022-0.2039795-0.2489929-0.4129944-0.3860168-0.6299744c-0.2980042-0.4740295-1.3629761-1.3970032-2.1929932-1.8430176
		c0.2890015,0.6109924,0.401001,1.493988,0.0939941,2.5140076c-0.5480042,1.8259888-1.4129944,2.8519897-2.4400024,4.098999
		c-0.8769836,1.0639954-1.9400024,3.5090027-3.9039917,3.6870117c-0.0130005,0.2019958-0.0180054,0.3880005-0.0180054,0.4979858
		c0,1.1919861,1.3399963,2.79599,2.072998,3.1470032c1.4210205,0.677002,1.677002,0.7269897,3.355011,0.348999
		c1.6820068-0.3850098,2.6090088-1.5,3.1749878-2.2050171c0.4500122-0.5579834,0.8460083-1.2099915,1.1230164-1.9019775
		c-2.9940186,0.7669983-5.7160034,1.2969971-5.0169983,0.7099915c1.2890015-0.553009,2.690979-1.0610046,4.1489868-1.4970093
		c0.0240173-0.0079956,0.0469971-0.0139771,0.0700073-0.0209961c2.4140015-0.7179871,4.9760132-1.2369995,7.42099-1.4169922
		c-0.5279846,0.3129883-1.1089783,0.5610046-1.7309875,0.7829895c0.1549988,1.6650085,0.1629944,3.2630005-0.0480042,4.5690002
		c0.5769958,0.5190125,1.0580139,1.1629944,1.5849915,2.1069946c-0.4059753-0.3409729-0.8110046-0.651001-1.2139893-0.9349976
		c-1.4110107-1.0319824-2.4230042-1.5319824-4.0109863-1.8069763c0.894989,0.4199829,1.6749878,0.9659729,2.3929749,1.5549927
		c-0.0969849,4.2420044-0.6719971,10.3009949-2.0499878,13.3469849c-0.4909973-0.6879883-0.9460144-1.1549988-1.6919861-1.6900024
		c-0.0150146,0.059021-0.1230164,0.2610168-0.1390076,0.3200073c1.04599,1.2330017,1.5959778,2.1130066,2.2219849,3.8300171
		c-0.9899902-1.1440125-1.7999878-2.0020142-2.565979-2.7080078c-1.4760132,4.1959839-3.427002,5.0669861-5.0750122,5.1879883
		c0,0,1.571991,3.2490234,0.1560059,6.3999939c-0.1130066,0.2510071-0.1690063,0.585022-0.2019958,0.9490051
		c0.4179993,0.8500061,0.3029785,1.3600159,0.6139832,2.3760071c2.6190186-1.0939941,5.6860046-4.2739868,7.4790039-6.8079834
		c0.7900085,0.7219849,1.5499878,1.4979858,2.5700073,2.6380005c-0.6000061-1.5470276-1.1239929-2.4060059-2.0159912-3.4580078
		c0.0969849-0.1520081,0.1689758-0.1960144,0.2639771-0.3510132
		C104.000473,62.8320923,104.4164581,63.2171021,104.9884796,64.0800781"/>
	<path class="st1" d="M106.1257782,10.7171021c-2.5339966,0.303009-5.3349915,0.0280151-7.572998-1.1919861
		c1.8900146,0.0589905,3.2860107-0.2789917,6.723999-1.3160095c-1.0509949,0.0859985-11.4660034,0.3919983-17.5440063-1.1650085
		c-2.6609802-1.1879883-11.2789917-4.6209717-16.4679871-1.776001C62.7687836,2.4831238,52.060791,5.3701172,48.9317932,7.7421265
		c-5.6950073,0-11.7070007-0.4110107-15.105011-1.5170288c2.7660065,1.9390259,4.951004,2.2620239,6.6110077,2.6210022
		c-4.1750031,0.1700134-7.1690063-0.4419861-11.6589947-1.4229736c1.4949951,1.4599915,2.572998,2.0639954,4.800993,2.7309875
		c-1.3190002,0.1180115-2.675993,0.0490112-4.1199932-0.2099915c1.7149963,1.4140015,6.0609875,3.7609863,9.7569866,2.1279907
		c1.0680084-0.4700012,4.4690094-2.2900085,7.348999-2.6119995c-1.5889893,0.8540039-4.121994,3.1489868-5.5599976,4.7990112
		c-0.0499878,0.0809937-0.0999908,0.1629944-0.147995,0.2469788c1.326004-0.940979,2.8659973-1.6820068,4.4069977-1.9679871
		c-2.3079987,1.7149963-3.3130035,3.4909973-3.4069977,5.3729858c0.8070068-0.8639832,1.427002-1.7559814,2.3439941-2.0419922
		c0.2170105-0.0679932,0.3960114,0.1660156,0.576004,0.5660095c0.3320007,0.4709778,0.5690002,1.5740051,1.0169983,2.5870056
		c0.4869995,1.0149841,1.1630096,1.9109802,2.2290039,2.0269775c0.2559967,0.0270081,0.522995,0.072998,0.7969971,0.125
		c-1.1940002-1.2509766-1.4140015-2.5409851-0.8549957-3.3880005c0.2339935-0.3529968,0.5449982-1.1879883,1.3130035-1.8840027
		c-0.480011,0.0050049-0.9340057,0.0160217-1.2369995-0.4059753c-0.2519989-0.3460083-0.4100037-0.7929993-0.5270081-1.2030029
		c-0.1179962-0.4089966-0.5299988-1.1450195-0.4179993-1.5310059c0.9960022,0.0100098,1.9629974,0.2999878,2.9430084,0.0180054
		c1.5159912-0.434021,1.1239929-1.973999,2.9419861-3.2539978c0.1440125,0.3789978,0.2030029,0.7559814,0.2130127,1.1329956
		c0.7899933-0.4490051,2.048996-1.0249939,3.1039886-1.3520203c0.6040039-0.1879883,1.3100128-0.3539734,1.8580017-0.3259888
		c0.9049988,0.0509949,1.8410034,0.4140015,2.6930084,0.7149963c1.1239929,0.3959961,2.048996,1.0650024,2.9219971,1.8139954
		c2.6049957,0.651001,4.5050049,2.3000183,6.3889923,4.1270142c0.4300079,0.447998,0.6679993,0.8160095,0.5850067,1.4029846
		c0.1719971,0.1130066,0.345993,0.2190247,0.5189972,0.3099976c1.1139984,0.5760193,1.4129944,1.8010254,1.4129944,2.3560181
		c0,0.0889893-0.0039978,0.196991-0.0179901,0.3139954c2.8509979-1.6210022,5.2369995-2.5920105,8.140976-1.2950134
		c-2.7049866-0.2049866-5.3479767,1.1890259-7.5469818,3.0690002c-1.4680023,1.2540283-4.5039978,4.0190125-6.7890015,4.1290283
		c-0.223999-0.9940186,0.1360016-1.506012,0.8670044-2.2000122c0.9499969-0.7430115,1.9160004-1.4729919,2.8829956-2.1459961
		c-0.5269928-0.1130066-1.1060028-0.1020203-1.7350006-0.0429993c-0.8170013,1.1260071-2.0249939,1.7599792-2.7949982,2.1309814
		c-2.673996,1.2140198-4.0359955,1.7730103-9.095993,1.3830261c-3.2170105-0.2480164-5.5769958,0.2599792-7.2750092,0.2599792
		c-1.7029877,0-2.5540009-0.3859863-3.5289917-1.2330017c-0.9710083-0.8500061-1.4120026-2.0979919-1.897995-3.5529785
		c-0.1000061,4.34198,1.098999,15.1089783,5.5319977,17.5619812c0.7050018-0.4979858,2.0549927-0.8659973,3.2419891-0.8509827
		c-1.7389984,0.8359985-3.5970001,2.5039978-4.6279907,4.5449829c4.0209961-3.5019836,7.0659943-4.3850098,12.0769958-4.4020081
		c-2.0789948,3.5690002-2.5339966,6.6330261-2.4499969,9.6650085c0.0509949,1.8930054,0.302002,3.348999,0.7039948,4.5329895
		c0.7910004,2.5160217,2.1260071,5.0840149,3.7859955,6.973999c-0.3999939-0.9189758-0.7519989-1.8429871-1.0469971-2.7509766
		h0.0010071c1.1849976,1.2609863,2.5919952,2.5799866,4.0839996,4.617981
		c1.8950043,2.6029968,3.1699982,2.9880066,4.5169983,6.598999c0.0970001-1.4539795,1.8199921-1.4889832,1.7890015-3.0599976
		c-0.2579956-1.0039978-0.6809998-2-1.397995-3.4329834c-1.3600006-2.7160034-6.0340118-12.1069946-6.2290039-17.8480225
		c-0.0670013-1.9879761,1.2189941-3.1199951,1.6549988-3.9909973c0.2919922-0.5849915,0.298996-1.1369934,0.1860046-1.6949768
		c-2.3970032-0.57901-5.1130066-1.3970032-6.8280029-2.1419983c1.9369965-0.2170105,4.0619965-0.0890198,6.2339935,0.2529907
		c-0.2399902-0.776001-0.4019928-1.631012-0.177002-2.644989c0.0110016-0.0429993,0.0240021-0.085022,0.0350037-0.1290283
		c-2.0939941-0.6419983-3.9420013-1.269989-5.7649994-2.0059814c2.0500031-0.1270142,4.1710052,0.1289978,6.3079987,0.6059875
		c0.3939972-0.7509766,0.9380035-1.5,1.5850067-2.2369995c-3.6040039-1.2510071-6.2779999-2.446991-7.9140015-3.289978
		c3.04599,0.0549927,6.1429901,0.8579712,9.173996,1.9679871c0.6799927-0.6570129,1.496994-1.3500061,2.352005-2.0069885
		c0.7849884-0.6200256,1.6360016-1.4820251,2.4379883-2.0510254c2.4550018-1.696991,5.7870026-3.868988,8.6580048-2.0479736
		c-0.4710083,0.0229797-0.9710083,0.0589905-1.4819946,0.1289978c-1.6940002,0.1799927-0.6870117,2.6600037,1.2279968,4.6340027
		c1.0369873,1.0699768,2.0429993,2.5949707,3.242981,4.3139954c0.7969971,1.1349792,0.875,1.4859924,1.7520142,1.7519836
		c1.493988,0.4550171,3.1069946,1.1809998,2.7590027,2.0979919c-0.2529907,0.6650085-1.3410034,0.3850098-1.1190186,1.1920166
		c0.473999,1.7219849,1.7140198,2.0579834,2.756012,1.8599854c0.1730042-0.0509949,0.3439941-0.098999,0.5050049-0.1429749
		c0.1640015-0.0610046,0.3169861-0.1350098,0.4549866-0.2140198c0.4990234-0.3320007,0.7170105-0.8540039,1.256012-1.7049866
		c0.2160034-0.5270081-0.1640015-0.4960022-0.1640015-0.9460144c0-0.3129883,0.5780029-1.0339966,1.3580017-1.6940002
		c0.9649963-0.8169861,1.5690002-2.4459839,1.5690002-3.1479797c0-0.8840027,0.0220032-1.4730225-0.3600159-2.1010132
		c-1.4909973-2.1109924-5.4259949-4.5069885-5.9099731-4.8739929c-1.3400269-1.0180054-2.6110229-1.1610107-4.0460205-1.2590027
		c0.7430115-0.677002,1.3590088-0.625,1.9360046-0.4330139c-0.4349976-0.4279785-0.6589966-0.664978-1.0019836-0.9029846
		c-1.2130127-0.8359985-2.5890198-1.1289978-4.309021-1.2350159c1.901001-0.8779907,2.9810181-0.821991,4.6080017,0.2669983
		l-0.4119873-0.3569946c-0.3309937-0.67099,0.0759888-1.3469849,0.29599-1.7059937
		c-0.243988-0.5069885-0.2009888-0.9889832-0.0650024-1.4129944c0.3980103-1.0840149,0.7359924-1.8850098,1.1660156-2.4760132
		c-0.8070068-1.2369995-1.9240112-2.539978-1.65802-3.0690002c0.1740112-0.3509827,0.4250183-0.7059937,0.947998-0.8059998
		c0.3140259-0.065979,2.0280151,0.1000061,2.8659973,0.3330078c1.8000183,0.5010071,3.1040039,0.9660034,4.1240234,1.6220093
		c-0.1170044-0.1180115-0.2420044-0.2350159-0.3710022-0.3510132c-1.0010071-0.802002-2.2080078-1.6080017-3.7200012-2.4369812
		c1.8370056,0.8199768,4.0409851,1.822998,5.29599,2.4559937c2.4299927,1.223999,4.3300171,3.1199951,8.5620117,2.8710022
		c-1.0960083-0.230011-2.8410034-1.0460205-4.5150146-2.2460022
		C100.1147919,11.2971191,102.2767792,11.9351196,106.1257782,10.7171021 M59.8487854,28.3081055
		c-1.5159912,1.1109924-3.8379974,2.0339966-6.0809937,1.6100159c-0.2960052,0.9329834-0.1699982,2.572998,0.5339966,4.473999
		c-3.7879944-1.6930237-6.076004-4.5410156-6.3190002-6.6820068C50.4157867,26.5421143,55.5667877,28.2611084,59.8487854,28.3081055
		 M91.4987946,29.6121216c0.9799805,0.052002,2.4549866,0.0139771,3.3289795-0.4219971
		c0.0480042,0.6439819-2.321991,1.7079773-2.8299866,1.7409973c-0.5580139,0.0329895-1.1730042-0.3990173-1.7050171-0.5299988
		c-0.6949768-0.1670227-1.4179993-0.3310242-1.8549805-0.4030151c-0.3510132-0.0559998-0.8340149-0.2229919-0.8870239-0.7129822
		C88.8807831,29.3531189,90.1697845,29.5411072,91.4987946,29.6121216 M62.1497803,5.9961243
		c3.8330078-0.7460022,9.0570068-0.20401,10.9570007,1.2559814c1.4930115-1.052002,4.102005-1.7319946,8.5309906-0.9979858
		c-3.6789856,0.2509766-4.696991,0.4700012-5.5499878,1.1219788c1.0910034-0.2449951,2.2720032-0.3079834,4.3370056,0.1790161
		c-2.4320068,0.1719971-5.4609985,0.8639832-5.4519958,2.2420044c-1.6290131-1.1880188-5.1230011-2.2050171-8.2779999-2.2050171
		c1.594986-0.4759827,2.7939911-0.4549866,3.7419891-0.2160034C68.4707947,6.4591064,66.7617798,6.0771179,62.1497803,5.9961243
		 M78.4297943,14.1860962c-1.7960052-1.8729858-4.0420074-3.1149902-8.4130096-3.84198
		c2.3789978-0.4200134,5.6800079,0.1149902,7.2610016,1.0859985c1.6990051-1.3370056,3.4609985-1.6640015,5.5220032-1.3710022
		C80.806778,10.650116,78.0237885,12.2781067,78.4297943,14.1860962"/>
</g>
</svg>
