<?xml version="1.0" encoding="utf-8"?>
<!-- Generator: Adobe Illustrator 16.0.4, SVG Export Plug-In . SVG Version: 6.00 Build 0)  -->
<!DOCTYPE svg PUBLIC "-//W3C//DTD SVG 1.1//EN" "http://www.w3.org/Graphics/SVG/1.1/DTD/svg11.dtd">
<svg version="1.1" id="Layer_1" xmlns="http://www.w3.org/2000/svg" xmlns:xlink="http://www.w3.org/1999/xlink" x="0px" y="0px"
	 width="211.067px" height="243.864px" viewBox="0 0 211.067 243.864" enable-background="new 0 0 211.067 243.864"
	 xml:space="preserve">
<path fill="#A30046" d="M3.084,68.956V34.243c0-3.876,0-6.644-3.083-9.409h21.192c-3.007,2.766-3.083,5.533-3.083,9.409
	L18.109,69.35c2.926,0.951,5.691,1.424,8.618,1.424c3.952,0,7.276-1.186,10.833-3.635l-2.845,11.303H0.001
	C3.007,75.598,3.084,72.75,3.084,68.956"/>
<path fill="#A30046" d="M58.818,78.442H37.629c3.004-2.845,3.084-5.693,3.084-9.486V34.243c0-3.876,0-6.643-3.084-9.409h21.189
	c-3.002,2.766-3.082,5.533-3.082,9.409v34.713C55.736,72.749,55.815,75.598,58.818,78.442"/>
<path fill="#A30046" d="M59.363,51.558c0-7.352,3.397-14.863,9.569-20.399c5.535-4.901,12.807-7.593,20.712-7.593
	c17.954,0,30.365,11.626,30.365,28.073c0,7.352-3.399,15.022-9.566,20.478c-5.535,4.983-12.81,7.592-20.798,7.592
	C71.855,79.708,59.363,67.927,59.363,51.558 M90.123,71.881c8.302,0,13.915-6.327,13.915-17.793c0-13.6-6.165-21.981-14.862-21.981
	c-8.145,0-13.842,6.328-13.842,17.711C75.333,63.498,81.501,71.881,90.123,71.881"/>
<path fill="#A30046" d="M123.536,65V36.217c0-3.792-0.077-6.878-4.271-11.384h16.524l24.354,32.815v-18.74v-2.45
	c0-3.64-0.313-7.12-3.795-11.625l15.341,0.001c-2.924,4.823-3.163,8.378-3.163,11.86v2.214v40.88
	c-11.625-1.345-15.494-6.881-20.4-13.285l-16.21-21.112V65v3.163c0,4.112,0.317,7.117,3.561,10.28h-15.66
	C123.536,74.409,123.536,70.617,123.536,65"/>
<path fill="#A30046" d="M188.372,71.011c5.06,0,8.144-2.609,8.145-5.933c0-5.059-5.533-6.481-13.047-10.355
	c-7.434-3.796-11.306-9.252-11.306-15.579c0-9.092,7.354-15.578,19.686-15.578c4.587,0,8.86,0.872,13.445,2.532v9.012
	c-4.507-2.291-8.146-3.636-11.152-3.636c-4.271,0-7.034,2.373-7.034,5.22c0,4.428,5.693,6.008,14.945,11.071
	c6.168,3.398,9.014,8.062,9.014,14.547c0,10.043-8.306,16.999-21.111,16.999c-5.3,0-10.438-1.028-15.896-2.846l-2.766-11.388
	C177.537,68.876,182.836,71.011,188.372,71.011"/>
<path fill="#0055A3" d="M38.946,15.195V3.574c0-1.298-0.027-2.225-1.031-3.15h6.669c4.5,0,6.778,1.588,6.778,4.236
	c0,1.562-0.926,2.806-2.7,3.573c2.408,0.714,3.681,2.303,3.681,4.686c0,1.403-0.504,2.701-1.43,3.706
	c-1.378,1.458-2.966,1.748-5.27,1.748h-7.728C38.919,17.42,38.946,16.468,38.946,15.195 M44.744,7.28
	c1.138,0,1.851-0.793,1.851-2.144c0-1.139-0.713-2.013-1.799-2.013c-0.134,0-0.397,0.026-0.766,0.08v4.024
	C44.347,7.28,44.584,7.28,44.744,7.28 M45.087,15.779c1.589,0,2.675-1.245,2.675-2.938c0-1.907-1.086-3.099-2.702-3.099
	c-0.238,0-0.583,0.054-1.031,0.105v5.826C44.532,15.752,44.876,15.779,45.087,15.779"/>
<path fill="#0055A3" d="M56.055,18.373c1.006-0.953,1.033-1.905,1.033-3.178V3.574c0-1.298,0-2.225-1.033-3.15h6.989
	c4.635,0,6.964,1.562,6.964,4.792c0,1.933-1.06,3.31-3.284,4.368l3.256,5.561c0.502,0.846,1.271,1.852,2.383,2.99l-2.992,0.292
	c-0.238,0.027-0.476,0.027-0.715,0.027c-1.986,0-3.044-0.98-4.209-3.231l-2.329-4.552v4.526c0,1.272,0.026,2.225,1.031,3.178H56.055
	z M65.056,5.797c0-1.642-0.953-2.673-2.542-2.673c-0.132,0-0.264,0-0.396,0.025v6.117C64.05,8.762,65.056,7.544,65.056,5.797"/>
<path fill="#0055A3" d="M81.471,18.373h-7.096c1.008-0.953,1.034-1.905,1.034-3.178V3.574c0-1.298,0-2.224-1.034-3.151h7.096
	c-1.007,0.927-1.033,1.853-1.033,3.151v11.621C80.438,16.468,80.463,17.42,81.471,18.373"/>
<path fill="#0055A3" d="M90.79,15.884c1.694,0,2.727-0.874,2.727-1.984c0-1.695-1.853-2.172-4.368-3.469
	c-2.487-1.271-3.786-3.098-3.786-5.215C85.362,2.17,87.825,0,91.956,0c1.534,0,2.963,0.292,4.5,0.846v3.02
	c-1.508-0.77-2.727-1.219-3.732-1.219c-1.43,0-2.356,0.793-2.356,1.747c0,1.482,1.906,2.012,5.003,3.707
	c2.064,1.139,3.018,2.701,3.018,4.871c0,3.363-2.778,5.691-7.067,5.691c-1.775,0-3.496-0.343-5.322-0.953l-0.927-3.811
	C87.163,15.168,88.936,15.884,90.79,15.884"/>
<path fill="#0055A3" d="M102.631,15.195V3.574c0-1.298-0.027-2.225-1.033-3.15h6.672c4.501,0,6.777,1.588,6.777,4.236
	c0,1.562-0.926,2.806-2.7,3.573c2.411,0.714,3.679,2.303,3.679,4.686c0,1.403-0.501,2.701-1.427,3.706
	c-1.378,1.458-2.965,1.748-5.27,1.748h-7.731C102.604,17.42,102.631,16.468,102.631,15.195 M108.431,7.28
	c1.138,0,1.854-0.793,1.854-2.144c0-1.139-0.716-2.013-1.8-2.013c-0.134,0-0.399,0.026-0.769,0.08v4.024
	C108.032,7.28,108.271,7.28,108.431,7.28 M108.773,15.779c1.589,0,2.675-1.245,2.675-2.938c0-1.907-1.086-3.099-2.701-3.099
	c-0.238,0-0.581,0.054-1.031,0.105v5.826C108.219,15.752,108.562,15.779,108.773,15.779"/>
<path fill="#0055A3" d="M119.211,15.698l4.21-12.045c0.16-0.478,0.398-0.927,0.398-1.51c0-0.608-0.318-1.084-0.874-1.72h6.354
	l5.083,14.721c0.45,1.271,1.139,2.408,1.984,3.229h-7.782c0.609-0.689,0.954-1.139,0.954-1.854c0-0.37-0.054-0.688-0.133-0.899
	l-0.901-2.569h-5.398l-0.85,2.463c-0.133,0.424-0.238,0.769-0.238,1.085c0,0.635,0.293,1.218,0.849,1.774h-5.269
	C118.312,17.525,118.867,16.679,119.211,15.698 M127.656,10.536l-1.825-5.533l-1.853,5.533H127.656z"/>
<path fill="#0055A3" d="M139.068,13.872V4.235c0-1.27-0.025-2.303-1.432-3.812h5.536l8.153,10.987V5.136V4.314
	c0-1.218-0.106-2.382-1.271-3.891h5.135c-0.978,1.614-1.058,2.807-1.058,3.971v0.742v13.687c-3.892-0.45-5.188-2.304-6.83-4.448
	l-5.428-7.068v6.564v1.06c0,1.377,0.106,2.382,1.191,3.441h-5.24C139.068,17.021,139.068,15.752,139.068,13.872"/>
<path fill="#0055A3" d="M160.01,15.195V3.574c0-1.298,0-2.224-1.031-3.151h10.509v3.733c-0.899-0.847-1.562-1.032-2.567-1.032
	h-1.827v4.475h3.441v3.441c-0.424-0.582-1.085-0.9-1.934-0.9h-1.508v5.4c0.662,0.134,1.324,0.239,1.985,0.239
	c1.801,0,3.177-0.318,4.501-1.324l-0.953,3.917h-11.647C159.983,17.42,160.01,16.467,160.01,15.195"/>
<path fill="#FDBE57" d="M100.811,62.208c0,0-14.049-1.802-28.528,4.008c0,0,1.925,2.139,1.683,3.565c0,0-20.063,4.42-27.352,16.916
	c0,0,2.884,0.238,3.606,2.139c0,0-15.382,9.979-15.864,20.195c0,0,5.77,1.663,2.643,4.277c-3.123,2.615-13.218,6.892-13.699,12.831
	c0,0,6.22-0.369,4.567,5.465c-0.57,2.012-1.795,7.08-1.795,14.01c0,57.939,79.651,98.252,79.651,98.252s79.736-40.312,79.736-98.252
	c-0.017-1.395-0.384-13.753-4.249-20.425c0,0,1.29-0.877,2.644-0.715c0,0-0.564-6.082-7.394-13.604
	c-3.058-3.37-3.994-9.257,0.184-9.679c0,0-0.474-3.633-8.573-4.954c-1.955-0.319-2.193-0.238-3.349-2.141
	c-1.053-1.737-1.804-5.744-0.474-8.279c0,0-3.135-1.285-5.465,0.035c0,0-6.656-14.598-14.828-16.735c0,0-0.12,1.385-1.381,2.184
	c0,0-10.337-11.771-20.412-12.141c0,0,0.093,1.849-0.846,3.163c0,0-11.124-3.371-20.739-3.016
	C100.578,59.305,101.457,61.006,100.811,62.208"/>
<path fill="#A30046" d="M49.037,114.205c0,0-3.276,1.638-8.383,1.989c0,0,3.236,2.534,9.046,2.455
	C49.7,118.649,49.192,116.389,49.037,114.205"/>
<path fill="#A30046" d="M182.783,149.241c-2.788-25.328-15.042-35.708-15.042-35.708c5.393-0.42,9.612,3.956,9.612,3.956
	c-8.683-16.857-17.646-20.513-21.49-21.294c5.508,3.425,9.339,12.161,4.368,27.992c-5.124-8.839-10.238-11.201-10.238-11.201
	c2.769-1.566,7.106,0.843,7.106,0.843c-3.371-8.189-11.684-7.948-11.684-7.948c3.493-3.132,9.273-0.964,9.273-0.964
	c-6.809-6.639-17.582-3.845-17.582-3.845s5.462-7.016,13.389-6.583c1.196,0.065,2.414,0.328,3.594,0.803
	c1.299-4.613,5.9-5.975,5.9-5.975c-7.714-2.287-16.802,3.613-16.802,3.613c3.668-8.434,2.708-16.622,2.708-16.622
	c-6.019,16.064-14.076,23.121-14.076,23.121c7.355-14.425-1.26-32.906-1.26-32.906c2.962,19.299-6.59,29.63-6.59,29.63
	c1.677-23.236-8.46-30.449-8.46-30.449c7.642,11.774,1.286,28.695,1.286,28.695C112.273,70.889,92.819,66.25,92.819,66.25
	c19.104,11.657,16.258,34.972,16.258,34.972c-3.587-19.026-18.675-26.746-18.675-26.746c9.124,8.656,10.487,23.314,10.487,23.314
	C86.972,69.68,62.253,76.738,62.253,76.738c23.51,2.144,28.969,21.248,28.969,21.248C76.757,78.999,56.951,84.808,56.951,84.808
	C71.96,85.744,77.732,97.05,77.732,97.05c-19.222-14.738-36.22,4.132-36.22,4.132c5.439-1.803,7.524,1.209,7.524,1.209
	c-5.888,2.729-8.383,7.29-8.383,7.29c5.459-1.637,8.265-0.545,8.265-0.545c0.043-1.443,0.936-11.697,9.358-14.152
	c9.29-2.71,15.985,6.12,15.985,6.12c-12.086-2.573-17.466,3.822-17.466,3.822c6.473-2.145,9.163,1.014,9.163,1.014
	c-9.241,0.35-11.648,7.888-11.648,7.888c4.952-2.456,7.125-0.793,7.125-0.793c-12.807,12.866-28.097,8.442-28.097,8.442
	c11.703,7.641,26.122,3.527,26.122,3.527c-12.196,8.986-27.867,6.168-27.867,6.168c15.69,8.979,24.54,5.268,24.54,5.268
	c-6.316,9.071-25.576,8.525-25.576,8.525c11.93,7.72,25.576,3.431,25.576,3.431c-3.606,5.478-11.229,6.239-11.229,6.239
	c7.836,3.567,13.1,1.87,13.1,1.87c-6.159,6.063-19.789,3.457-19.789,3.457c10.549,8.591,24.468,5.433,24.468,5.433
	c-14.133,9.883-29.165,0.948-29.165,0.948c10.685,11.411,30.114,10.36,30.114,10.36c-7.441,5.145-16.563,3.13-16.563,3.13
	c7.564,6.283,13.535,5.99,13.535,5.99c-8.422,3.641-18.774-0.75-18.774-0.75c8.825,10.849,25.113,10.299,25.113,10.299
	c-5.275,3.513-14.815,1.626-14.815,1.626c13.616,9.159,25.476,7.048,25.476,7.048c-10.73,4.256-18.972,1.626-18.972,1.626
	c13.779,7.385,22.104,6.685,22.104,6.685c-4.816,3.605-9.34,2.335-9.34,2.335s9.611,7.742,16.253,12.672
	c11.565,7.897,18.077,11.277,18.077,11.277c36.389-20.587,33.789-31.711,33.789-31.711c2.704,2.391,3.445,5.788,3.445,5.788
	c12.671-10.519,14.075-24.946,14.075-24.946c3.039,5.733-0.258,14.242-0.258,14.242c14.643-15.994,9.478-31.85,9.478-31.85
	c4.367,1.56,4.993,11.826,4.993,11.826c15.052-26.004,0.953-46.321,0.953-46.321C177.268,137.246,182.783,149.241,182.783,149.241"
	/>
<path fill="#7C0040" d="M182.783,149.241c-2.788-25.328-15.042-35.708-15.042-35.708c5.393-0.42,9.612,3.956,9.612,3.956
	c-8.683-16.857-17.646-20.513-21.49-21.294c5.508,3.425,9.339,12.161,4.368,27.992c-5.124-8.839-10.238-11.201-10.238-11.201
	c2.769-1.566,7.106,0.843,7.106,0.843c-3.371-8.189-11.684-7.948-11.684-7.948c3.493-3.132,9.273-0.964,9.273-0.964
	c-6.809-6.639-17.582-3.845-17.582-3.845c-1.718,0.315-2.289,0.462-2.289,0.462s-8.656-1.208-17.388,1.754
	c-10.31,3.498-11.083,14.856-11.719,14.856s-1.444-11.358-11.752-14.856c-8.733-2.962-17.388-1.754-17.388-1.754
	s5.317,1.182,5.219,2.983c-0.061,1.136-1.902,1.461-3.895,1.891c-1.001,0.215-5.03,1.208-7.044,3.3c0,0,4.583-0.718,5.184,0.572
	c0.734,1.573-4.568,4.328-10.858,6.615c0,0,2.814-0.167,3.509,1.404c0.916,2.066-1.305,4.743-2.194,6.003
	c-9.528,13.49-5.993,24.616-1.516,32.417c3.034,5.283,12.295,20.081,12.295,20.081s-1.78,3.535-1.385,8.352
	c0.519,6.341,0.519,9.305,3.404,12.682c1.018,1.192,3.509,4.523,3.197,7.798c-0.408,4.295,0.937,8.5,5.537,11.696
	c0,0,0.625-1.559,1.794-1.872c0,0,1.262,2.083,6.003,4.602c5.959,3.167,9.424,6.384,9.806,18.533
	c0.062,0.033,0.097,0.052,0.097,0.052c36.389-20.587,33.789-31.711,33.789-31.711c2.704,2.391,3.445,5.788,3.445,5.788
	c12.671-10.519,14.075-24.946,14.075-24.946c3.039,5.733-0.258,14.242-0.258,14.242c14.643-15.994,9.478-31.85,9.478-31.85
	c4.367,1.56,4.993,11.826,4.993,11.826c15.052-26.004,0.953-46.321,0.953-46.321C177.268,137.246,182.783,149.241,182.783,149.241"
	/>
<path fill="#FDBE57" d="M150.475,146.021c1.1-5.942,0.242-14.389-5.52-21.719c-0.608-0.775-4.356-5.324-6.841-8.283
	c-1.425-1.698-3.713-3.855-3.272-5.133c0.732-2.128,5.694-1.179,5.694-1.179c-1.79-2.053-5.443-2.832-7.043-3.301
	c-1.725-0.506-3.835-0.753-3.896-1.89c-0.096-1.8,5.223-2.983,5.223-2.983s-8.657-1.208-17.39,1.753
	c-10.309,3.498-11.081,14.855-11.718,14.855c-0.636,0-1.444-11.357-11.752-14.855c-8.734-2.962-17.39-1.753-17.39-1.753
	s5.318,1.183,5.22,2.983c-0.061,1.136-1.902,1.461-3.894,1.89c-1.001,0.217-5.03,1.209-7.045,3.301c0,0,4.582-0.718,5.183,0.571
	c0.735,1.574-4.567,4.328-10.857,6.616c0,0,2.812-0.167,3.508,1.404c0.916,2.066-1.305,4.745-2.194,6.004
	c-9.528,13.49-5.993,24.615-1.516,32.416c3.034,5.284,12.295,20.08,12.295,20.08c1.989-4.093,5.575-4.892,5.575-4.892
	c-2.393,1.451-3.673,3.771-4.341,6.096c1.399-0.143,2.815-0.22,4.251-0.22c3.951,0,7.772,0.556,11.391,1.592
	c0.362,0.104,0.934,0.584,0.699,1.347c-0.235,0.768-1.012,0.774-1.334,0.669c-4.003-1.312-8.28-2.023-12.723-2.023
	c-6.004,0-11.706,1.297-16.841,3.624l0.129,0.373c4.313-1.868,9.021-2.99,13.967-3.211c-0.138,0.924-0.199,1.801-0.217,2.575
	c1.613-0.219,3.259-0.333,4.93-0.333c3.375,0,6.644,0.457,9.749,1.314c0.37,0.102,0.93,0.57,0.738,1.301
	c-0.199,0.753-1.003,0.851-1.308,0.753c-3.513-1.141-7.259-1.757-11.147-1.757c-5.471,0-10.662,1.221-15.316,3.401l0.124,0.363
	c3.79-1.688,7.926-2.725,12.274-2.965c0.037,0.531,0.202,1.878,0.307,2.53c-0.005,0.001-0.01,0.002-0.016,0.002
	c1.501-0.217,3.035-0.331,4.596-0.331c2.796,0,5.506,0.361,8.092,1.036c0.383,0.1,0.962,0.534,0.772,1.264
	c-0.222,0.85-1.019,0.866-1.336,0.767c-3.003-0.938-6.196-1.442-9.504-1.434c-4.938,0.014-9.613,1.167-13.775,3.206l0.124,0.356
	c3.496-1.621,7.351-2.596,11.41-2.775c0.182,0.996,0.353,1.89,0.438,2.391c0.785,4.638,5.476,6.183,8.706,4.65
	c0.233-0.11,11.716-5.586,12.092-5.756c3.184-1.449,5.493-4.479,5.95-8.084c0.457,3.604,2.767,6.635,5.95,8.084
	c0.376,0.17,11.86,5.646,12.091,5.756c3.232,1.532,7.922-0.013,8.707-4.65c0.105-0.622,0.264-1.464,0.429-2.391
	c4.061,0.178,7.919,1.153,11.418,2.775l0.122-0.356c-4.163-2.039-8.835-3.192-13.773-3.206c-3.318-0.009-6.521,0.498-9.53,1.442
	c-0.31,0.097-1.048,0.052-1.298-0.698c-0.236-0.711,0.349-1.235,0.717-1.33c2.599-0.683,5.323-1.047,8.132-1.047
	c1.55,0,3.071,0.113,4.562,0.326c0.023-0.152,0.251-1.548,0.337-2.527c4.343,0.242,8.478,1.278,12.262,2.965l0.125-0.363
	c-4.654-2.181-9.845-3.401-15.315-3.401c-3.886,0-7.632,0.615-11.144,1.755c-0.307,0.099-1.081,0.023-1.296-0.712
	c-0.22-0.746,0.343-1.234,0.707-1.336c3.11-0.859,6.384-1.318,9.763-1.318c1.688,0,3.347,0.117,4.973,0.339
	c-0.011-0.794-0.073-1.661-0.219-2.579c4.932,0.225,9.627,1.347,13.928,3.209l0.128-0.373c-5.135-2.327-10.836-3.624-16.84-3.624
	c-4.453,0-8.739,0.716-12.752,2.035c-0.313,0.101-1.127,0.024-1.325-0.73c-0.183-0.698,0.333-1.186,0.684-1.287
	c3.628-1.043,7.46-1.602,11.424-1.602c1.449,0,2.878,0.077,4.287,0.223c-0.003,0-0.009,0-0.012-0.001
	c-0.122-0.408-0.259-0.82-0.418-1.237c-1.918-5.003-6.788-6.115-6.788-6.115s2.485-2.942,0.543-7.679l-2.589-6.145
	c0,0,4.367,3.472,10.502,3.596C144.775,160.637,149.42,151.721,150.475,146.021"/>
<path fill="#FDBE57" d="M102.282,210.627c0,0-1.814,0.943-2.662,3.156c0,0-2.344-1.543-2.59-4.208c0,0-2.443,0.936-3.399,3.238
	c0,0-2.557-1.022-2.545-4.009c0,0-1.698,0.998-2.562,3.044c0,0.004-2.936-3.604-2.612-7.192c0.429-4.734,4.171-6.277,4.717-6.55
	c0.545-0.273,9.196-4.405,9.625-4.586c1.589-0.668,3.423-1.146,5.419-1.146c1.995,0,3.829,0.478,5.417,1.146
	c0.431,0.181,9.08,4.312,9.626,4.586c0.546,0.272,4.308,1.812,4.717,6.55c0.304,3.509-2.378,6.901-2.613,7.192
	c0,0-0.679-1.817-2.562-3.044c0,0-0.307,2.79-2.543,4.009c0,0-0.743-2.102-3.4-3.238c0,0-0.045,2.341-2.589,4.208
	c0,0-0.625-2.001-3.104-3.156c0,0-0.193,2.958-3.441,4.868C105.18,215.495,104.374,211.558,102.282,210.627"/>
<path fill="#FFE09A" d="M141.599,133.458c-0.083-0.214-0.242-0.336-0.454-0.364l-0.187-0.497h-0.006
	c0.131-0.095,0.396-0.354,0.336-0.886c-0.078-0.703-0.621-0.961-1.079-1.053c-3.002-0.6-4.598-1.771-5.58-2.47
	c-0.984-0.699-1.678-1.039-2.9-1.039c-3.768,0-10.864,5.522-13.009,5.522c-0.72,0-1.093-0.524-1.181-0.666
	c-0.005-0.016-0.013-0.028-0.018-0.044c-2.55,3.57-1.039,7.05-0.003,9.585c0.239,0.583,4.378,10.693,4.561,11.136l0.007,0.03
	c0,0,1.023-0.626,1.079-2.028c0.066-1.65,1.742-5.399,5.913-5.394c4.503,0.006,8.188-1.769,9.518-6.784
	c0.201-0.756,0.818-3.08,2.71-4.269C141.544,134.088,141.734,133.81,141.599,133.458"/>
<path fill="#FFE09A" d="M65.514,137.909c1.097-5.215,4.574-4.787,4.788-4.815H70.3l0.188-0.498h0.006
	c-0.132-0.094-0.395-0.354-0.336-0.885c0.078-0.702,0.62-0.961,1.079-1.053c3.001-0.6,4.598-1.771,5.581-2.47
	c0.985-0.699,1.677-1.039,2.899-1.039c3.769,0,10.864,5.521,13.008,5.521c0.72,0,1.093-0.523,1.181-0.665
	c0.006-0.016,0.012-0.028,0.018-0.043c2.55,3.57,1.039,7.049,0.002,9.584c-0.238,0.583-4.378,10.693-4.559,11.136l-0.008,0.029
	l-4.219,10.26c-1.924,4.451,0.545,7.681,0.545,7.681c-4.502,0.006-9.557-4.186-16.485-15.505
	C65.045,148.361,64.762,141.484,65.514,137.909"/>
<path fill="#7C0040" d="M117.521,131.962c0.77,2.152,2.723,2.18,3.914,1.827c1.075-0.315,5.559-1.764,7.913-2.694
	c2.354-0.932,2.97-0.502,4.183,0.037c3.566,1.584,7.427,1.465,7.427,1.465l0.188,0.499c-2.971,1.24-3.856,2.527-5.345,4.947
	c-1.419,2.306-4.24,4.165-7.609,4.165c-2.609,0-3.493-1.088-4.783-0.646c-0.717,0.247-1.462,0.869-1.717,2.361
	c-0.594,3.475,1.967,7.36,0.396,8.78c0,0-4.325-10.561-4.569-11.156C116.482,139.012,114.973,135.532,117.521,131.962"/>
<path fill="#7C0040" d="M116.676,172.861c-0.559-0.641-1.375-1.046-2.291-1.046c-1.679,0-3.041,1.361-3.041,3.041
	c0,0.431,0.09,0.838,0.251,1.208l-5.874,3.704l-5.882-3.709c0.158-0.369,0.247-0.775,0.247-1.203c0-1.68-1.361-3.041-3.042-3.041
	c-0.913,0-1.728,0.404-2.286,1.04l-2.649-1.67c0,0-3.492-2.282-3.652-4.422c-0.062-0.85,0.515-1.566,1.531-0.148
	c0.425,0.596,0.913,1.338,2.274,1.338c0.938,0,2.478-1.443,5.529-1.443c4.512,0,4.921,2.04,7.924,2.04s3.411-2.04,7.924-2.04
	c3.051,0,4.592,1.443,5.528,1.443c1.361,0,1.85-0.742,2.275-1.338c1.015-1.418,1.593-0.701,1.53,0.148
	c-0.16,2.14-3.652,4.422-3.652,4.422L116.676,172.861z"/>
<path fill="#7C0040" d="M93.924,131.962c-0.77,2.152-2.722,2.18-3.915,1.827c-1.074-0.315-5.557-1.764-7.911-2.695
	c-2.354-0.931-2.971-0.501-4.184,0.038c-3.565,1.584-7.426,1.465-7.426,1.465l-0.187,0.499c2.97,1.24,3.855,2.527,5.345,4.947
	c1.417,2.306,4.239,4.165,7.608,4.165c2.609,0,3.494-1.088,4.783-0.646c0.717,0.247,1.462,0.869,1.717,2.361
	c0.594,3.475-3.725,10.604-1.873,12.39c0,0,5.801-14.17,6.046-14.766C94.963,139.012,96.473,135.532,93.924,131.962"/>
<path fill="#FFFFFF" d="M128.533,134.21c0,0.421-0.341,0.765-0.763,0.765c-0.423,0-0.765-0.344-0.765-0.765
	c0-0.422,0.342-0.767,0.765-0.767C128.192,133.443,128.533,133.788,128.533,134.21"/>
<path fill="#FFFFFF" d="M128.213,139.749c3.446,0,6.266-2.66,6.532-6.036c-0.48-0.156-0.964-0.336-1.443-0.549
	c-0.868-0.387-1.956-0.547-2.985-0.425c0.286,0.435,0.452,0.953,0.452,1.513c0,1.528-1.236,2.768-2.767,2.768
	c-1.477,0-2.68-1.158-2.759-2.615c-1.268,0.494-2.06,0.763-3.18,1.05C122.986,137.959,125.388,139.749,128.213,139.749"/>
<path fill="#FFFFFF" d="M82.911,134.21c0,0.421,0.341,0.765,0.764,0.765c0.422,0,0.764-0.344,0.764-0.765
	c0-0.422-0.341-0.767-0.764-0.767C83.252,133.443,82.911,133.788,82.911,134.21"/>
<path fill="#FFFFFF" d="M83.233,139.749c-3.447,0-6.268-2.66-6.534-6.036c0.48-0.156,0.965-0.336,1.443-0.549
	c0.868-0.387,1.958-0.547,2.986-0.425c-0.285,0.435-0.453,0.953-0.453,1.513c0,1.528,1.238,2.766,2.766,2.766
	c1.478,0,2.682-1.156,2.76-2.613c1.27,0.494,2.06,0.763,3.18,1.05C88.46,137.959,86.058,139.749,83.233,139.749"/>
<polyline fill="none" points="211.067,0 0,0 0,243.864 "/>
<line fill="none" x1="211.067" y1="243.864" x2="211.067" y2="0"/>
</svg>
