<?xml version="1.0" encoding="UTF-8" standalone="no"?>
<svg
   xmlns:dc="http://purl.org/dc/elements/1.1/"
   xmlns:cc="http://creativecommons.org/ns#"
   xmlns:rdf="http://www.w3.org/1999/02/22-rdf-syntax-ns#"
   xmlns:svg="http://www.w3.org/2000/svg"
   xmlns="http://www.w3.org/2000/svg"
   xmlns:sodipodi="http://sodipodi.sourceforge.net/DTD/sodipodi-0.dtd"
   xmlns:inkscape="http://www.inkscape.org/namespaces/inkscape"
   width="179.76401"
   height="117.3"
   version="1.1"
   id="svg16"
   sodipodi:docname="Gold Coast Suns AFL Logo.svg"
   inkscape:version="0.92.2 (5c3e80d, 2017-08-06)">
  <metadata
     id="metadata22">
    <rdf:RDF>
      <cc:Work
         rdf:about="">
        <dc:format>image/svg+xml</dc:format>
        <dc:type
           rdf:resource="http://purl.org/dc/dcmitype/StillImage" />
        <dc:title></dc:title>
      </cc:Work>
    </rdf:RDF>
  </metadata>
  <defs
     id="defs20" />
  <sodipodi:namedview
     pagecolor="#ffffff"
     bordercolor="#666666"
     borderopacity="1"
     objecttolerance="10"
     gridtolerance="10"
     guidetolerance="10"
     inkscape:pageopacity="0"
     inkscape:pageshadow="2"
     inkscape:window-width="1366"
     inkscape:window-height="745"
     id="namedview18"
     showgrid="false"
     fit-margin-top="0"
     fit-margin-left="0"
     fit-margin-right="0"
     fit-margin-bottom="0"
     inkscape:zoom="1.18"
     inkscape:cx="89.764"
     inkscape:cy="58.489"
     inkscape:window-x="-8"
     inkscape:window-y="-8"
     inkscape:window-maximized="1"
     inkscape:current-layer="svg16" />
  <g
     id="g14"
     style="fill:none"
     transform="translate(-10.236,-41.189)">
    <path
       d="M 75.236,90.61 A 46.252,46.252 0 0 1 70.116,87.938 36.596,36.596 0 0 1 64.77,84 a 26.747,26.747 0 0 1 -4.31,-4.854 19.616,19.616 0 0 1 -2.897,-6.35 16.846,16.846 0 0 1 -0.32,-6.49 18.43,18.43 0 0 1 2.263,-6.45 c 0.014,-0.024 0.024,-0.048 0.036,-0.07 l 0.052,-0.08 a 25.01,25.01 0 0 1 4.084,-5.212 33.99,33.99 0 0 1 5.314,-4.256 44.01,44.01 0 0 1 5.14,-2.892 52.381,52.381 0 0 1 5.32,-2.176 64.699,64.699 0 0 1 4.68,-1.43 62.677,62.677 0 0 1 4.706,-1.023 65.72,65.72 0 0 1 4.172,-0.618 74.99,74.99 0 0 1 4.325,-0.374 72.522,72.522 0 0 1 3.99,-0.112 h 0.02 a 73.625,73.625 0 0 1 8.38,0.49 h 0.06 c 0.62,0.075 1.237,0.16 1.85,0.251 a 67.17,67.17 0 0 0 -4.414,-0.675 70.088,70.088 0 0 0 -4.138,-0.36 73.792,73.792 0 0 0 -4.266,-0.13 h -0.021 a 72.404,72.404 0 0 0 -12.424,1.086 c -1.6,0.291 -3.163,0.63 -4.687,1.026 a 58.93,58.93 0 0 0 -4.653,1.394 53.557,53.557 0 0 0 -5.284,2.177 44.204,44.204 0 0 0 -5.128,2.861 33.8,33.8 0 0 0 -5.283,4.215 24.675,24.675 0 0 0 -4.053,5.157 c -0.026,0.048 -0.064,0.098 -0.093,0.15 a 18.336,18.336 0 0 0 -2.253,6.394 16.812,16.812 0 0 0 0.317,6.437 19.426,19.426 0 0 0 2.885,6.287 26.635,26.635 0 0 0 4.291,4.811 36.541,36.541 0 0 0 5.32,3.9 46.49,46.49 0 0 0 5.094,2.65 53.458,53.458 0 0 0 4.725,1.838 40.48,40.48 0 0 1 -2.334,-0.961 z"
       id="path2"
       inkscape:connector-curvature="0"
       style="fill:#0079c1" />
    <path
       d="m 140.687,68.589 c 0,12.159 -17.611,22 -39.338,22 -21.726,0 -39.337,-9.848 -39.337,-22 0,-12.152 17.611,-22 39.337,-22 21.727,0 39.338,9.85 39.338,22 z"
       id="path4"
       inkscape:connector-curvature="0"
       style="fill:#e02112" />
    <path
       d="m 99.428,63.792 v 0.053 a 12.044,12.044 0 0 0 -0.954,-0.31 21.564,21.564 0 0 0 -1.511,-0.334 22.494,22.494 0 0 0 -1.98,-0.239 40.072,40.072 0 0 0 -3.525,-0.145 h -6.914 c -0.146,0 -0.286,0 -0.42,0.014 -0.133,0.015 -0.286,0 -0.434,0 -3.376,0 -4.875,1.002 -5.53,3.69 -0.139,0.607 -0.238,1.22 -0.299,1.839 l -0.281,2.58 a 14.116,14.116 0 0 0 -0.045,2.305 c 0,0.103 0,0.198 0.011,0.29 0.117,3.25 2.659,3.25 5.346,3.25 h 7.214 a 9.865,9.865 0 0 0 1.547,-0.104 c 2.122,-0.344 3.55,-0.747 4.027,-3.176 0.017,-0.072 0.03,-0.144 0.038,-0.217 l 0.217,-2.124 H 82.954 l 0.195,-2.346 h 15.897 l -0.476,5.18 a 10.068,10.068 0 0 1 -0.44,2.098 c -0.373,1.102 -0.85,1.862 -1.39,2.199 -0.524,0.31 -1.1,0.523 -1.699,0.631 -0.79,0.158 -1.593,0.254 -2.398,0.286 -0.716,0.039 -1.56,0.062 -2.744,0.067 h -8.872 c -2.493,-0.026 -4.143,-0.355 -5.188,-1.046 -0.782,-0.52 -1.304,-1.581 -1.463,-2.99 a 10.33,10.33 0 0 1 0.016,-2.2 l 0.673,-6.166 0.014,-0.079 v -0.03 c 0.162,-1.45 0.51,-2.585 1.06,-3.484 a 5.157,5.157 0 0 1 3.02,-2.327 c 1.146,-0.343 2.622,-0.512 4.486,-0.512 h 9.56 c 0.496,0 0.98,0.019 1.567,0.057 0.592,0.04 1.182,0.12 1.764,0.238 a 6.29,6.29 0 0 1 1.273,0.391 c 0.375,0.151 0.713,0.382 0.99,0.677 0.367,0.387 0.576,1.095 0.629,1.984 z m 43.076,12.18 a 22.325,22.325 0 0 1 -3.815,5.367 31.74,31.74 0 0 1 -5.369,4.482 41.755,41.755 0 0 1 -5.41,3.052 51.337,51.337 0 0 1 -5.652,2.286 57.986,57.986 0 0 1 -5.007,1.43 c -1.692,0.406 -3.38,0.747 -5.023,1.007 a 61.818,61.818 0 0 1 -4.451,0.546 64.278,64.278 0 0 1 -4.58,0.264 A 62.437,62.437 0 0 1 99.02,94.396 69.571,69.571 0 0 1 90.292,93.56 56.82,56.82 0 0 1 85.579,92.618 60.53,60.53 0 0 1 80.97,91.326 54.75,54.75 0 0 1 78.812,90.556 48.25,48.25 0 0 1 75.802,89.338 46.392,46.392 0 0 1 70.83,86.775 35.168,35.168 0 0 1 65.688,82.985 25.51,25.51 0 0 1 61.602,78.38 18.3,18.3 0 0 1 58.9,72.47 15.776,15.776 0 0 1 58.443,68.732 15.46,15.46 0 0 1 58.607,66.51 c 0.325,-2.1 1.035,-4.12 2.096,-5.96 l 0.019,-0.034 a 23.62,23.62 0 0 1 3.924,-5.03 32.986,32.986 0 0 1 5.1,-4.094 43.443,43.443 0 0 1 4.987,-2.799 51.16,51.16 0 0 1 5.179,-2.11 61.67,61.67 0 0 1 4.575,-1.385 63.976,63.976 0 0 1 8.69,-1.607 70.353,70.353 0 0 1 4.243,-0.362 68.744,68.744 0 0 1 3.913,-0.112 h 0.019 c 1.361,0 2.775,0.043 4.21,0.131 1.307,0.076 2.658,0.19 4.032,0.35 h 0.04 c 1.536,0.182 3.08,0.42 4.592,0.716 1.554,0.298 3.1,0.648 4.575,1.046 a 57.955,57.955 0 0 1 5.245,1.67 50.02,50.02 0 0 1 5.212,2.307 39.934,39.934 0 0 1 5.626,3.51 29.308,29.308 0 0 1 4.768,4.467 22.284,22.284 0 0 1 2.313,3.276 c 0.49,0.86 0.91,1.756 1.259,2.682 a 15.809,15.809 0 0 1 1.032,5.558 c 0,0.126 0,0.271 -0.014,0.433 0,0.082 0,0.165 -0.012,0.239 a 16.415,16.415 0 0 1 -1.726,6.57 z m -0.439,-7.374 a 14.524,14.524 0 0 0 -1.256,-5.82 19.512,19.512 0 0 0 -4.182,-5.921 29.546,29.546 0 0 0 -5.135,-4.034 41.114,41.114 0 0 0 -5.624,-2.933 51.387,51.387 0 0 0 -4.907,-1.81 58.423,58.423 0 0 0 -4.768,-1.268 63.117,63.117 0 0 0 -7.977,-1.266 63.47,63.47 0 0 0 -3.457,-0.238 70.613,70.613 0 0 0 -3.431,-0.088 h -0.143 a 71.44,71.44 0 0 0 -3.288,0.086 71.087,71.087 0 0 0 -7.08,0.696 64.954,64.954 0 0 0 -3.999,0.737 c -1.392,0.3 -2.758,0.646 -4.053,1.025 a 49.94,49.94 0 0 0 -4.768,1.65 43.763,43.763 0 0 0 -4.818,2.252 33.892,33.892 0 0 0 -5.29,3.546 23.31,23.31 0 0 0 -4.34,4.646 15.883,15.883 0 0 0 -2.691,6.325 13.222,13.222 0 0 0 -0.191,1.8 c -0.027,0.28 -0.038,0.563 -0.033,0.844 h 9.16 l -0.187,2.341 h -8.711 c 0.089,0.457 0.209,0.964 0.36,1.522 l 0.09,0.283 a 17.452,17.452 0 0 0 3.076,5.536 25.055,25.055 0 0 0 4.465,4.256 35.535,35.535 0 0 0 5.188,3.235 44.547,44.547 0 0 0 4.714,2.096 c 1.49,0.57 3.073,1.087 4.708,1.54 1.366,0.379 2.737,0.715 4.07,0.984 a 69.182,69.182 0 0 0 7.705,1.104 67.16,67.16 0 0 0 3.791,0.217 c 0.806,0.026 1.562,0.038 2.298,0.038 h 1.238 a 69.902,69.902 0 0 0 7.698,-0.543 59.687,59.687 0 0 0 4.394,-0.715 c 1.53,-0.303 3.037,-0.66 4.482,-1.057 a 53.998,53.998 0 0 0 5.262,-1.752 44.435,44.435 0 0 0 5.3,-2.477 32.95,32.95 0 0 0 5.657,-3.917 l 0.067,-0.06 2.176,-2.145 h -26.983 a 22.172,22.172 0 0 1 -2.384,-0.117 8.344,8.344 0 0 1 -2.594,-0.642 c -1.495,-0.693 -2.174,-2.329 -2.022,-4.858 l 0.012,-0.148 c 0,-0.167 0.017,-0.327 0.031,-0.477 l 0.675,-6.199 v -0.016 c 0,-0.034 0,-0.067 0.02,-0.108 v -0.03 a 10.936,10.936 0 0 1 0.369,-1.855 c 0.462,-1.531 1.235,-2.554 2.422,-3.21 a 8.208,8.208 0 0 1 2.954,-1.018 21.6,21.6 0 0 1 2.808,-0.16 h 9.587 c 2.21,0 3.781,0.253 4.797,0.773 0.913,0.463 1.351,1.269 1.416,2.637 a 11.281,11.281 0 0 0 -0.885,-0.298 c -1.74,-0.5 -4.129,-0.753 -7.1,-0.753 h -7.867 c -1.652,0 -3.357,0.14 -4.487,1.838 a 6.285,6.285 0 0 0 -0.877,2.286 15.63,15.63 0 0 0 -0.21,1.43 l -0.284,2.585 c 0,0.114 -0.021,0.238 -0.03,0.334 v 0.133 c -0.036,0.471 -0.043,0.944 -0.022,1.416 0.012,0.21 0.016,0.396 0.012,0.563 -0.024,1.054 0.238,1.876 0.81,2.45 0.849,0.874 2.146,0.993 3.312,0.99 0.293,0 0.572,0 0.848,-0.016 0.277,-0.017 0.477,-0.015 0.694,-0.015 h 26.876 l 0.406,-0.686 a 14.965,14.965 0 0 0 2.086,-6.676 v -0.105 c 0.023,-0.257 0.04,-0.498 0.04,-0.763 z"
       id="path6"
       inkscape:connector-curvature="0"
       style="fill:#ffdd00" />
    <path
       d="M 100.803,63.713 C 100.734,62.481 100.41,61.53 99.85,60.888 a 4.277,4.277 0 0 0 -1.471,-1.023 7.674,7.674 0 0 0 -1.552,-0.476 14.858,14.858 0 0 0 -1.95,-0.253 c -0.618,-0.04 -1.13,-0.062 -1.657,-0.062 h -9.575 c -2.007,0 -3.605,0.188 -4.885,0.572 a 6.583,6.583 0 0 0 -3.795,2.928 c -0.66,1.075 -1.076,2.412 -1.262,4.074 l -0.682,6.254 a 11.92,11.92 0 0 0 -0.016,2.503 c 0.21,1.852 0.93,3.228 2.074,3.986 1.278,0.844 3.176,1.254 5.96,1.278 h 8.857 a 47.28,47.28 0 0 0 2.813,-0.071 c 0.877,-0.036 1.75,-0.14 2.611,-0.313 a 6.52,6.52 0 0 0 2.146,-0.813 c 0.82,-0.515 1.475,-1.5 1.957,-2.923 0.256,-0.78 0.426,-1.586 0.505,-2.403 l 0.627,-6.682 H 81.874 l -0.422,5.106 h 12.964 l -0.064,0.596 v 0.029 L 94.34,73.25 c -0.29,1.514 -0.841,1.762 -2.897,2.09 a 8.228,8.228 0 0 1 -1.325,0.089 H 82.88 c -3.312,0 -3.91,-0.289 -3.965,-1.926 0,-0.093 0,-0.194 -0.017,-0.296 -0.044,-0.699 -0.03,-1.4 0.038,-2.096 l 0.284,-2.58 c 0.051,-0.561 0.141,-1.119 0.27,-1.668 0.443,-1.826 1.153,-2.637 4.188,-2.637 0.18,0 0.346,0 0.492,-0.017 0.145,-0.016 0.238,0 0.362,0 h 6.914 c 1.22,0 2.334,0.046 3.41,0.14 0.714,0.063 1.339,0.137 1.866,0.227 0.453,0.077 0.89,0.174 1.37,0.303 0.363,0.107 0.628,0.189 0.83,0.267 0.233,0.09 0.46,0.196 0.677,0.317 l 1.14,0.634 0.062,-1.299 c 0.02,-0.361 0.02,-0.723 0.002,-1.085 z m -1.378,0.13 A 12.044,12.044 0 0 0 98.472,63.533 21.564,21.564 0 0 0 96.96,63.198 22.494,22.494 0 0 0 94.981,62.96 40.072,40.072 0 0 0 91.455,62.815 h -6.914 c -0.145,0 -0.286,0 -0.42,0.014 -0.133,0.014 -0.285,0 -0.433,0 -3.376,0 -4.876,1.001 -5.531,3.69 -0.138,0.606 -0.238,1.22 -0.298,1.839 l -0.282,2.58 a 14.116,14.116 0 0 0 -0.045,2.305 c 0,0.102 0,0.198 0.012,0.29 0.117,3.25 2.658,3.25 5.345,3.25 h 7.217 a 9.865,9.865 0 0 0 1.547,-0.105 c 2.122,-0.343 3.55,-0.746 4.027,-3.175 0.017,-0.072 0.03,-0.144 0.038,-0.217 l 0.217,-2.125 H 82.954 l 0.195,-2.346 h 15.897 l -0.476,5.181 a 10.068,10.068 0 0 1 -0.44,2.098 c -0.373,1.101 -0.85,1.862 -1.39,2.198 -0.524,0.31 -1.1,0.524 -1.699,0.632 -0.79,0.158 -1.593,0.254 -2.398,0.286 -0.716,0.038 -1.56,0.062 -2.744,0.067 H 81.027 C 78.534,79.251 76.884,78.922 75.839,78.23 75.057,77.71 74.535,76.65 74.376,75.24 a 10.33,10.33 0 0 1 0.016,-2.2 l 0.673,-6.165 0.014,-0.079 v -0.031 c 0.162,-1.45 0.51,-2.584 1.06,-3.483 a 5.157,5.157 0 0 1 3.02,-2.327 c 1.146,-0.343 2.622,-0.513 4.486,-0.513 h 9.56 c 0.496,0 0.98,0.02 1.567,0.058 0.592,0.04 1.182,0.12 1.764,0.238 a 6.29,6.29 0 0 1 1.273,0.391 c 0.375,0.15 0.713,0.382 0.99,0.677 0.347,0.389 0.567,1.097 0.62,1.986 v 0.053 l 0.006,-0.003 z m 37.192,-6.986 a 29.546,29.546 0 0 0 -5.135,-4.034 41.114,41.114 0 0 0 -5.614,-2.933 51.387,51.387 0 0 0 -4.907,-1.81 58.423,58.423 0 0 0 -4.768,-1.268 63.117,63.117 0 0 0 -7.977,-1.266 63.47,63.47 0 0 0 -3.457,-0.238 70.463,70.463 0 0 0 -3.431,-0.088 h -0.143 a 71.44,71.44 0 0 0 -3.288,0.086 71.087,71.087 0 0 0 -7.08,0.696 64.954,64.954 0 0 0 -3.999,0.737 c -1.392,0.3 -2.758,0.646 -4.053,1.025 a 49.287,49.287 0 0 0 -4.768,1.65 43.763,43.763 0 0 0 -4.818,2.252 33.892,33.892 0 0 0 -5.29,3.546 23.31,23.31 0 0 0 -4.34,4.646 15.883,15.883 0 0 0 -2.691,6.325 13.222,13.222 0 0 0 -0.191,1.8 c -0.027,0.28 -0.038,0.563 -0.033,0.844 h 9.16 l -0.187,2.341 h -8.711 c 0.089,0.457 0.209,0.964 0.36,1.522 l 0.09,0.283 a 17.452,17.452 0 0 0 3.076,5.536 25.055,25.055 0 0 0 4.465,4.256 35.535,35.535 0 0 0 5.188,3.235 44.547,44.547 0 0 0 4.714,2.096 53.147,53.147 0 0 0 4.708,1.54 c 1.366,0.379 2.737,0.715 4.07,0.984 a 69.182,69.182 0 0 0 7.705,1.104 67.16,67.16 0 0 0 3.791,0.217 c 0.81,0.026 1.562,0.038 2.298,0.038 h 1.238 a 69.902,69.902 0 0 0 7.698,-0.543 59.687,59.687 0 0 0 4.394,-0.715 c 1.53,-0.303 3.037,-0.66 4.482,-1.057 a 53.998,53.998 0 0 0 5.262,-1.752 44.821,44.821 0 0 0 5.3,-2.477 32.95,32.95 0 0 0 5.657,-3.917 l 0.067,-0.06 2.176,-2.145 h -26.983 a 22.172,22.172 0 0 1 -2.384,-0.117 8.344,8.344 0 0 1 -2.594,-0.642 c -1.495,-0.693 -2.174,-2.329 -2.022,-4.858 l 0.012,-0.148 c 0,-0.167 0.017,-0.327 0.031,-0.477 l 0.675,-6.199 v -0.016 c 0,-0.034 0,-0.067 0.02,-0.108 v -0.03 a 10.936,10.936 0 0 1 0.369,-1.855 c 0.476,-1.531 1.235,-2.554 2.422,-3.21 a 8.208,8.208 0 0 1 2.954,-1.018 21.6,21.6 0 0 1 2.808,-0.16 h 9.587 c 2.21,0 3.781,0.253 4.797,0.773 0.913,0.463 1.351,1.269 1.416,2.637 -0.274,-0.11 -0.572,-0.205 -0.885,-0.298 -1.74,-0.5 -4.129,-0.753 -7.1,-0.753 h -7.867 c -1.652,0 -3.357,0.14 -4.487,1.838 a 6.285,6.285 0 0 0 -0.877,2.286 15.63,15.63 0 0 0 -0.21,1.43 l -0.284,2.585 c 0,0.114 -0.021,0.238 -0.03,0.334 v 0.133 c -0.036,0.471 -0.043,0.944 -0.022,1.416 0.012,0.21 0.016,0.396 0.012,0.563 -0.024,1.054 0.238,1.876 0.81,2.45 0.849,0.874 2.146,0.99 3.312,0.99 0.293,0 0.572,0 0.848,-0.016 0.277,-0.017 0.477,-0.015 0.694,-0.015 h 26.876 l 0.406,-0.686 a 14.965,14.965 0 0 0 2.086,-6.676 v -0.105 c 0.016,-0.238 0.033,-0.476 0.033,-0.741 a 14.524,14.524 0 0 0 -1.256,-5.82 19.512,19.512 0 0 0 -4.175,-5.943 z m 4.03,12.397 v 0.112 a 13.67,13.67 0 0 1 -1.908,6.058 h -26.11 c -0.239,0 -0.477,0 -0.737,0.017 -0.26,0.016 -0.537,0.012 -0.806,0.012 -0.825,0 -1.829,-0.065 -2.324,-0.57 -0.296,-0.305 -0.434,-0.78 -0.418,-1.457 v -0.641 c -0.02,-0.416 -0.015,-0.834 0.015,-1.25 v -0.138 c 0,-0.097 0.016,-0.193 0.028,-0.295 l 0.286,-2.592 c 0.05,-0.477 0.115,-0.906 0.191,-1.304 a 4.935,4.935 0 0 1 0.68,-1.793 c 0.681,-1.032 1.668,-1.223 3.337,-1.223 h 7.885 c 2.841,0 5.104,0.239 6.72,0.701 0.497,0.136 0.977,0.326 1.43,0.568 l 1.133,0.622 0.065,-1.292 V 64.55 c 0.043,-1.456 -0.136,-3.516 -2.172,-4.551 -1.216,-0.62 -2.99,-0.923 -5.424,-0.923 h -9.563 c -1,-0.009 -2,0.048 -2.992,0.17 a 9.625,9.625 0 0 0 -3.438,1.192 c -1.523,0.841 -2.5,2.117 -3.075,4.022 -0.133,0.453 -0.24,0.914 -0.322,1.38 -0.024,0.174 -0.067,0.432 -0.098,0.694 v 0.074 a 0.691,0.691 0 0 0 -0.014,0.097 l -0.67,6.2 c -0.024,0.19 -0.033,0.366 -0.043,0.555 v 0.143 c -0.238,3.924 1.4,5.533 2.816,6.198 0.96,0.415 1.98,0.672 3.023,0.76 0.84,0.088 1.686,0.13 2.532,0.127 h 23.538 a 31.947,31.947 0 0 1 -5.18,3.545 42.835,42.835 0 0 1 -5.138,2.401 54.257,54.257 0 0 1 -5.126,1.707 61.504,61.504 0 0 1 -4.378,1.028 60.79,60.79 0 0 1 -4.29,0.691 70.573,70.573 0 0 1 -3.732,0.372 c -1.25,0.093 -2.54,0.143 -3.815,0.167 h -0.288 a 62.277,62.277 0 0 1 -3.173,-0.026 67.243,67.243 0 0 1 -11.263,-1.295 67.096,67.096 0 0 1 -3.972,-0.953 53.759,53.759 0 0 1 -4.594,-1.5 43.26,43.26 0 0 1 -4.568,-2.031 34.298,34.298 0 0 1 -4.99,-3.1 24.02,24.02 0 0 1 -4.213,-4.024 15.952,15.952 0 0 1 -2.834,-5.093 h 8.218 l 0.41,-5.1 h -9.212 c 0.033,-0.354 0.074,-0.695 0.136,-1.027 a 14.605,14.605 0 0 1 2.465,-5.779 22.172,22.172 0 0 1 4.081,-4.37 33.006,33.006 0 0 1 5.078,-3.395 41.586,41.586 0 0 1 4.68,-2.19 51.646,51.646 0 0 1 4.652,-1.603 54.699,54.699 0 0 1 3.965,-1.004 57.334,57.334 0 0 1 3.914,-0.715 68.029,68.029 0 0 1 3.421,-0.427 c 1.18,-0.116 2.354,-0.245 3.508,-0.288 1.153,-0.043 2.221,-0.086 3.24,-0.086 h 0.126 c 1.056,0 2.146,0.029 3.369,0.09 1.113,0.05 2.253,0.132 3.385,0.24 1.307,0.128 2.623,0.292 3.877,0.495 a 60.15,60.15 0 0 1 3.936,0.746 c 1.578,0.348 3.14,0.76 4.642,1.233 a 50.622,50.622 0 0 1 4.768,1.766 40.32,40.32 0 0 1 5.43,2.83 28.521,28.521 0 0 1 4.893,3.841 18.231,18.231 0 0 1 3.888,5.5 13.053,13.053 0 0 1 1.145,5.27 c 0.014,0.211 0,0.421 -0.024,0.643 z m 3.869,-6.559 a 20.346,20.346 0 0 0 -1.345,-2.884 23.727,23.727 0 0 0 -2.46,-3.486 30.538,30.538 0 0 0 -4.992,-4.678 40.69,40.69 0 0 0 -5.827,-3.63 49.28,49.28 0 0 0 -5.352,-2.385 57.99,57.99 0 0 0 -5.381,-1.723 66.375,66.375 0 0 0 -4.676,-1.07 62.325,62.325 0 0 0 -4.691,-0.716 h -0.06 a 73.625,73.625 0 0 0 -8.38,-0.491 h -0.02 c -1.287,0 -2.622,0.038 -3.99,0.112 -1.369,0.074 -2.861,0.202 -4.325,0.374 -1.464,0.172 -2.847,0.37 -4.172,0.618 a 62.677,62.677 0 0 0 -4.706,1.022 55.971,55.971 0 0 0 -4.68,1.43 52.381,52.381 0 0 0 -5.327,2.158 44.01,44.01 0 0 0 -5.147,2.892 33.99,33.99 0 0 0 -5.307,4.256 25.01,25.01 0 0 0 -4.089,5.212 c 0,0.019 -0.028,0.047 -0.052,0.08 -0.024,0.034 -0.022,0.046 -0.036,0.07 a 18.43,18.43 0 0 0 -2.262,6.451 16.781,16.781 0 0 0 -0.177,2.423 c 0,1.37 0.168,2.736 0.496,4.067 a 19.616,19.616 0 0 0 2.902,6.349 26.747,26.747 0 0 0 4.31,4.854 36.596,36.596 0 0 0 5.345,3.938 c 1.65,0.998 3.36,1.89 5.121,2.673 0.913,0.41 1.922,0.82 3.088,1.254 0.653,0.238 1.43,0.527 2.21,0.787 a 58.9,58.9 0 0 0 4.718,1.32 63.09,63.09 0 0 0 4.818,0.966 c 1.416,0.238 2.88,0.415 4.34,0.558 1.527,0.15 3.06,0.238 4.558,0.296 0.8,0.026 1.602,0.038 2.384,0.038 0.543,0 1.125,0 1.876,-0.029 a 71.836,71.836 0 0 0 4.668,-0.27 67.937,67.937 0 0 0 4.53,-0.557 67.189,67.189 0 0 0 5.133,-1.03 60.686,60.686 0 0 0 5.128,-1.471 53.826,53.826 0 0 0 5.805,-2.341 43.376,43.376 0 0 0 5.589,-3.16 33.273,33.273 0 0 0 5.614,-4.684 23.479,23.479 0 0 0 4.053,-5.705 17.769,17.769 0 0 0 1.867,-7.112 c 0,-0.076 0,-0.155 0.012,-0.238 0,-0.163 0.017,-0.334 0.017,-0.501 a 17.194,17.194 0 0 0 -1.128,-6.037 z m -0.274,6.473 c 0,0.081 0,0.165 -0.012,0.239 a 16.415,16.415 0 0 1 -1.726,6.56 22.325,22.325 0 0 1 -3.815,5.367 31.74,31.74 0 0 1 -5.369,4.487 41.755,41.755 0 0 1 -5.41,3.052 51.337,51.337 0 0 1 -5.652,2.286 57.986,57.986 0 0 1 -5.007,1.43 c -1.692,0.406 -3.38,0.747 -5.023,1.007 a 61.818,61.818 0 0 1 -4.451,0.546 64.278,64.278 0 0 1 -4.58,0.264 A 60.555,60.555 0 0 1 99.02,94.394 67.878,67.878 0 0 1 90.292,93.56 56.82,56.82 0 0 1 85.579,92.618 60.53,60.53 0 0 1 80.97,91.326 54.75,54.75 0 0 1 78.812,90.556 46.873,46.873 0 0 1 75.806,89.338 46.013,46.013 0 0 1 70.83,86.775 35.168,35.168 0 0 1 65.688,82.985 25.51,25.51 0 0 1 61.602,78.38 18.3,18.3 0 0 1 58.9,72.47 15.342,15.342 0 0 1 58.607,66.51 c 0.325,-2.1 1.035,-4.12 2.096,-5.96 l 0.019,-0.034 a 23.62,23.62 0 0 1 3.924,-5.03 32.986,32.986 0 0 1 5.1,-4.094 43.443,43.443 0 0 1 4.987,-2.799 51.16,51.16 0 0 1 5.179,-2.11 60.553,60.553 0 0 1 4.575,-1.385 63.976,63.976 0 0 1 8.69,-1.607 70.353,70.353 0 0 1 4.243,-0.362 68.744,68.744 0 0 1 3.913,-0.112 h 0.019 c 1.361,0 2.775,0.043 4.21,0.131 1.307,0.072 2.658,0.19 4.032,0.35 h 0.043 a 60.59,60.59 0 0 1 4.589,0.716 c 1.554,0.298 3.1,0.646 4.575,1.044 a 58.727,58.727 0 0 1 5.245,1.683 c 1.78,0.668 3.52,1.438 5.212,2.308 a 39.934,39.934 0 0 1 5.626,3.51 29.308,29.308 0 0 1 4.768,4.467 22.284,22.284 0 0 1 2.313,3.276 c 0.489,0.856 0.91,1.749 1.259,2.67 a 15.809,15.809 0 0 1 1.032,5.558 c 0,0.126 -0.005,0.271 -0.014,0.433 z"
       id="path8"
       inkscape:connector-curvature="0"
       style="fill:#ffffff" />
    <path
       d="m 36.824,101.392 c -0.518,-6.394 -3.918,-8.244 -6.805,-8.244 -4.12,0 -6.39,2.677 -6.39,7.314 0,12.676 25.971,18.756 25.971,38.954 0,12.264 -8.244,19.073 -20.198,19.073 -11.852,0 -18.653,-9.482 -19.166,-20.61 l 12.161,-1.753 c 0.513,7.52 3.505,11.234 7.63,11.234 4.432,0 7.419,-2.37 7.419,-6.8 0,-14.74 -25.97,-18.655 -25.97,-39.986 0,-11.851 7.214,-18.55 19.788,-18.55 4.942,0 8.86,1.754 11.849,4.639 3.297,3.194 5.245,7.832 5.872,13.396 z m 56.939,31.048 -0.1,6.254 c 0,12.776 -7.42,19.788 -19.58,19.788 -12.162,0 -19.581,-7.01 -19.581,-19.788 l 0.27,-47.468 12.556,5.164 -0.05,42.818 c 0,5.46 2.167,8.142 6.804,8.142 4.637,0 6.802,-2.682 6.802,-8.142 l 0.112,-39.242 12.874,2.227 c 0.103,0.202 9.582,0.994 9.582,0.994 v 2.334 c -6.804,0.308 -9.803,-0.16 -9.803,8.91 z m 50.81,6.768 -0.11,8.66 c 0,6.801 4.12,7.004 11.337,7.312 v 2.58 c 0,0 -10.924,0 -11.336,-0.31 h -11.127 l -16.276,-43.413 -0.208,1.018 v 42.394 H 105.31 v -54.403 l 18.759,-3.397 8.651,25.956 h 0.21 V 96.614 l 11.535,-4.215 0.11,46.81 z"
       id="path10"
       inkscape:connector-curvature="0"
       style="fill:#e02112" />
    <path
       d="m 177.221,101.392 c -0.515,-6.394 -3.915,-8.244 -6.8,-8.244 -4.121,0 -6.386,2.677 -6.386,7.314 0,12.676 25.965,18.756 25.965,38.954 0,12.264 -8.244,19.073 -20.198,19.073 -11.85,0 -18.651,-9.482 -19.166,-20.61 l 12.159,-1.753 c 0.517,7.52 3.505,11.234 7.63,11.234 4.431,0 7.414,-2.37 7.414,-6.8 0,-14.74 -25.966,-18.655 -25.966,-39.986 0,-11.851 7.215,-18.55 19.788,-18.55 4.945,0 8.862,1.754 11.852,4.639 3.297,3.194 5.257,7.832 5.872,13.396 z"
       id="path12"
       inkscape:connector-curvature="0"
       style="fill:#e02112" />
  </g>
</svg>
