<svg width="31" height="36" viewBox="0 0 31 36" version="1.1" xmlns="http://www.w3.org/2000/svg"><title>569059CC-CC7C-495E-9BDF-4FBBB4B32FC6</title><g stroke="none" stroke-width="1" fill="none" fill-rule="evenodd"><g fill="#FFF"><path d="M25.593 22.396c.144-.385.288-.782.42-1.18m1.678-6.44c.263-1.392.486-2.82.682-4.308-8.352-1.85-19.012.31-25.764 3.3-1.915 10.105 2.99 18.372 9.99 22.17.197-.075.38-.15.565-.223l.21-.087c4.038-1.688 7.08-4.27 9.348-7.622"/><path d="M26.025 21.23c.682-2 1.233-4.147 1.68-6.443"/><path d="M22.734 27.994c1.128-1.676 2.072-3.538 2.86-5.586"/></g><path d="M29.815 5.763c-.394-.112-.748-.087-.748-.347 0-.187.184-.273.446-.273.302 0 .603.11.865.248l.17-1.005c-.274-.15-.668-.31-1.192-.31-.787 0-1.68.372-1.68 1.39 0 .745.46 1.13.932 1.29.42.138.853.088.853.35 0 .173-.183.297-.458.297-.354 0-.735-.162-1.062-.373l-.302 1.03c.393.223.905.422 1.47.422.877 0 1.756-.472 1.756-1.465-.013-.782-.577-1.117-1.05-1.254zm-9.31-2.88c.08.013.158.013.223 0l.21.67h.944l-.38-.992c.183-.173.3-.42.3-.732 0-.633-.458-1.03-1.257-1.042-.25-.013-.67 0-.93.012v2.756h.89v-.67zm0-1.427c.04 0 .092 0 .144.012.117.025.25.112.25.348 0 .186-.106.323-.237.36-.053.012-.118.012-.17.012v-.732h.012zm-1.18 1.403h-1.127v-.386h.8v-.608h-.8V1.48h1.05V.787h-1.942V3.54h2.02v-.68zM2.608 13.77c-1.915 10.103 2.99 18.37 9.99 22.168.197-.075.38-.15.565-.223C6.54 32.127 2.017 24.307 3.827 14.75c5.966-2.644 15.144-4.58 22.775-3.376-5.677-.546-14.633.856-20.585 3.053-.354.124-.735.26-1.115.397 0 0-.262 1.03-.367 2.67l.42-.113c7.264-1.873 14.92-2.78 22.736-2.618.263-1.39.486-2.817.682-4.307-8.365-1.837-19.025.335-25.764 3.314zm20.65-7.46c0 1.315.997 2.22 2.335 2.22.747 0 1.258-.284 1.652-.545v-2.06l-1.783-.013v.968h.694v.447c-.118.075-.288.15-.51.15-.538 0-1.01-.435-1.01-1.168 0-.72.445-1.217 1.035-1.23.316 0 .565.125.75.31l.405-1.017c-.315-.174-.747-.335-1.245-.335-1.272-.013-2.32.956-2.32 2.27zm-8.653-2.173v4.27c.3.012.537.025.84.025 1.953 0 2.844-.745 2.844-2.16 0-1.452-.853-2.147-2.36-2.172-.512.012-.945.025-1.325.037zm1.377 1.055c.065 0 .13-.012.196 0 .354.037.748.298.748 1.08 0 .732-.367 1.03-.72 1.092-.08.013-.16.013-.224.013V5.192zM3.67 7.152c0-.594-.38-.93-.8-1.04.393-.163.603-.485.603-.883 0-.485-.315-1.118-1.9-1.118-.355 0-.788 0-1.39.025v4.27c.445.025.8.037 1.336.037 1.35.013 2.15-.422 2.15-1.29zM1.545 5.168c.066-.012.158-.012.236 0 .16.013.382.075.382.323 0 .21-.17.298-.394.335-.052 0-.13.013-.223 0v-.658zm.263 2.235h-.263v-.758c.053-.012.145-.012.236-.012.25.012.434.15.434.397-.013.26-.197.36-.406.372zM18.604 6.31c0 1.39.983 2.258 2.19 2.258 1.232 0 2.163-.93 2.163-2.27 0-1.404-1.01-2.248-2.176-2.248-1.18 0-2.176.882-2.176 2.26zm2.976 0c0 .694-.327 1.18-.8 1.18-.47 0-.786-.486-.786-1.18 0-.72.315-1.18.8-1.18.472 0 .786.472.786 1.18zm1.417-4.16l.812 1.404h.812V.786h-.89v1.44l-.814-1.44h-.826V3.54h.89V2.15h.015zM5.95 8.53c.984 0 1.863-.607 1.863-1.81V4.136H6.45v2.656c0 .36-.224.57-.512.57-.302 0-.51-.21-.51-.57V4.137h-1.39v2.62c0 1.29 1.02 1.774 1.913 1.774zM4.903 23.067c.066.373.17.757.25 1.13 6.542-1.34 13.57-2.01 20.44-1.8.145-.385.29-.782.42-1.18-7.054-.26-14.41.386-21.11 1.85zM7.708 3.554l.433-1.688.447 1.675H9.4l.773-2.754h-.84l-.406 1.7-.472-1.7H7.8l-.446 1.7L6.948.798h-.866l.84 2.756h.786zm7.762 0h.88V1.48h.76V.787h-2.4v.695h.76v2.074zm-8.13 25.83c1.076 1.763 2.532 3.438 4.17 4.83.577.483 1.194.954 1.862 1.414 4.04-1.688 7.08-4.27 9.35-7.622-2.938-.012-5.888.137-8.812.435-2.216.224-4.42.547-6.57.944zM13.44 2.896c-.223 0-.472-.112-.682-.236l-.197.658c.262.15.576.273.943.273.577 0 1.14-.31 1.14-.942 0-.51-.366-.72-.667-.807-.25-.074-.486-.05-.486-.223 0-.124.118-.173.29-.173.196 0 .392.074.563.16l.105-.644c-.17-.1-.433-.2-.774-.2-.51 0-1.088.237-1.088.895 0 .47.3.732.603.83.274.088.55.063.55.225 0 .11-.118.186-.302.186zM8.31 4.136v4.27h2.82V7.34H9.688V4.137H8.31zm3.148 0v4.27h2.82V7.34h-1.443V4.137h-1.377zm.865-1.277h-1.127v-.386h.8v-.608h-.8V1.48h1.05V.787h-1.942V3.54h2.006v-.68h.013z" fill="#20539D"/><path d="M11.563 15.98c-2.373.408-4.72.917-7.028 1.525-.092 1.465-.066 3.4.367 5.56 3.12-.68 6.294-1.178 9.532-1.5 3.83-.373 7.697-.497 11.578-.348.682-2 1.233-4.146 1.68-6.442-5.482-.112-10.884.31-16.13 1.204z" fill="#BD002B"/><path d="M19.732 27.324c0 .012-.013.012-.013.025-.12.172-.355.458-.605.718 1.207-.05 2.4-.062 3.62-.062 1.14-1.675 2.084-3.55 2.87-5.598-4.916-.15-9.78.137-14.553.795v.012c.17.273.34.497.445.646.236.323.053.547.08.708.025.15-.067.596.065 1.068-.145.173-.433.384-.59.707-.263.56-.315 1.03-.145 1.738-.04.25-.052.497-.026.72 1.797-.247 3.607-.446 5.43-.583 0 0 0-.012.013-.012.472-.534.524-.844.708-1.59.132-.682.263-.545.59-.917.237-.273.263-.534.184-.98h.04c1.507-.125 1.953-.36 2.36-.448.865-.174.786.348.8.472-.014.223-.184.67-.512 1.23 0 .024-.223.582-.76 1.352z" fill="#C8C8DF"/><path d="M26.655 18.834c-.08-.596-.184-1.155-.394-1.59-.392-.818-1.35-1.787-2.162-2.457-5.22.112-10.345.695-15.315 1.725-.065.224-.118.447-.144.633.025.063.078.174.13.286-.026.3.118 1.02.236 1.354-.065.136-.065.248-.04.372.053.162.368.41.55.497 0 0 .067 1.315 1.182 1.924-.066.186-.105.335-.118.47 5.06-.73 10.253-1.016 15.458-.818.25-.746.486-1.503.71-2.285-.04-.037-.067-.074-.093-.11z" fill="#9D192E"/><g><path d="M14.657 9.748c-.34-.174-.76-.348-1.31-.41-.59.186-1.18.52-1.574.732-.21.435-.603 1.465-.617 1.65.132 0 .328-.01.59-.086-.104.1-.21.21-.34.385-.446.16-1.076.384-1.705.707-.17.136-.353.36-.42.595-.038.112-.025.236.08.31.066.05.157.088.25.112h.012c-.065.36.066.857.21 1.093-.052.074-.105.186-.157.31-.144.36-.29.87-.354 1.23l.132.284c-.026.3.118 1.02.236 1.354-.066.137-.066.25-.04.373.053.16.368.41.55.496 0 0 .067 1.316 1.18 1.924-.104.31-.143.497-.143.695 0 .013.013.037.026.05.106.26.29.583.473.856.17.26.354.51.46.658.235.323.13.596.117.757-.026.162-.09.547.04 1.018-.145.175-.433.386-.59.71-.263.557-.315 1.03-.145 1.736-.157.93.17 1.825.958 2.098.432.15.773.162.944.112.46.05.852-.124 1.1-.286.38-.235.866-.31 1.365-.893.196-.224.577-.348 1.05-.882.47-.533.536-.844.707-1.588.13-.683.26-.547.59-.92.235-.272.26-.533.182-.98h.04c1.507-.124 1.953-.36 2.36-.446.865-.173.786.348.8.472-.014.224-.184.67-.512 1.23 0 0-.223.558-.747 1.327 0 .012-.013.012-.013.024-.25.385-1.128 1.316-1.364 1.328-.918.037-1.613.41-2.045 1.266-.563.162-1.27.72-1.376 1.602 0 .012-.066.508.236.856.092.112.275.21.38.335.144.162.38.2.525.25.275.074.577.012.944-.125.444-.174 1.244.373 2.32.373 1.166-.013 2.11-.025 2.346.198.643.608 1.535-.012 1.535-.012.486-.348.63-.88.682-1.117.223-1.03.053-1.08-.026-1.85-.08-.77.276-1.402.407-1.675.695-1.353 2.202-2.36 2.95-4.692.708-2.222.46-4.432-.643-5.698-.078-.595-.13-.695-.34-1.142-.5-1.055-1.928-2.346-2.807-2.954-.393-.534-1.01-1.08-1.455-1.365-.013-.05-.026-.086-.04-.136l-.157-.31c-.104-.15-.248-.286-.484-.46-.157-.11-.498-.31-.747-.334.09-.125.156-.348.156-.485-.655-.682-1.73-1.017-2.44-1.613-.68 0-1.572.05-2.41.186-.29.15-.552.298-.814.546-.29.062-.826.15-1.115.224z" fill="#213270"/><path d="M12.77 10.703c.196-.124.917-.533 1.39-.732-.17-.086-.775-.21-1.142-.235-.236.062-.655.248-.93.422.183.124.59.41.68.546zm2.517 11.27c.105.013.682.063 1.022.15-.132-.236-.328-.56-1.207-.77-.197-.037-.315 0-.485-.05-.642-.16-1.062-.06-1.062-.06-.774.148-1.364-.113-1.823-.262.04.162.066.373.158.535.473.496.76.93.92 1.03.313.198.497.583.523.707-.21-.21-.38-.298-.67-.422.014.348.04.547.106.782.052.224-.145.646-.184.993.183-.15.34-.186.38-.372.105-.608.406-1.018 1.206-1.303.512-.187 1.088-.187 1.377-.087.104.062.523-.124.904-.037 0 0-.25-.336-.918-.534-.38-.112-1.088-.21-1.574-.2.38-.11.97-.123 1.325-.098zm-1.207 5.35c.158-.186-.118-.41-.196-.558-.13-.248-.472-.434-.682-.198-.197.21-.13.52.092.645.537.323.786.112.786.112zM13.267 29c.407-.125.368-.3.368-.3-.04-.098-.25-.147-.368-.197-.196-.1-.432.037-.42.236.027.172.224.31.42.26zm-1.18-18.334c-.262.26-.354.397-.46.633.42-.137.683-.3.854-.398-.117-.087-.26-.2-.393-.236zM14.29 26.69c.302-.806.13-.955-.537-1.414-.59-.41-1.194-.087-1.548.533-.262.47-.196.93.027 1.352.118.224.393.472.734.522.315.05.8.05.367-.21-.08-.04-.17-.076-.262-.125-.17-.1-.288-.275-.327-.473-.026-.2.04-.397.17-.546.118-.123.263-.186.42-.186.262 0 .498.174.643.373.026.025.052.062.078.1.17.223.236.074.236.074zm.944-13.032c-.144.012-.262-.087-.328-.21-.157.135-.327.26-.472.334.223-.013.708-.025.958-.038.485-.05.616-.31.63-.41 0-.098.012-.272-.12-.446-.183.025-.248.025-.445.037l-.013.013c.066.074.118.173.118.285.013.224-.13.422-.328.435zm-5.218.16c-.066.262.078.547.25.67.143-.098.366-.222.536-.297-.04-.01-.09-.06-.144-.11-.026.11-.092.186-.183.198-.13.025-.25-.1-.276-.273-.014-.062 0-.124.012-.174-.078 0-.144 0-.196-.01zm1.888 3.588s-.092.037-.21.112c-.38.174-.63.397-.787.707-.013.025-.013.038-.026.062 0 0 .512 3.08 2.78 2.11.525-.124 1.47-.037 2.046-.384-.078.223-.223.236-.367.36.366.074.484.198.773.012.328-.21.262-.124.59.025.328.16.918.46 1.43.422.26-.05.458-.186.602-.323-.17-.026-.406-.137-.524-.224-.275-.2-.222-.497-.432-.894l-.197-.21c-.445.334-.825.483-1.402.645.223-.274.42-.41.708-.584.158-.1.394-.298.577-.472l-.17-.57c-.105-.074-.21-.16-.302-.26-.68-.236-1.297-.335-1.966-.435l-.262.25c-.223-.287-.668-.66-1.167-.907-.183-.063-.42-.137-.642-.174-.026-.224-.184-.67-.34-.944-.08.162-.29.51-.38.907-.316.012-.696.062-1.063.173-.118.025-.223.062-.276.087-.04-.1-.223-.347-.406-.546-.053-.06-.105-.135-.158-.185l.722.298c.3-.1.576-.15.773-.186.105-.013.21-.025.302-.038.144-.31.524-.82.524-.82.33.236.552.56.735 1.043.21-.224.5-.422.787-.534.512-.212 1.47-.41 1.888-.286.118.595.617 1.19.892 1.737.157.237.3.672.3.672l-.13-1.664.63 2.086s.878 1.402 1.547 1.54c.196-.05.38-.113.51-.175.263-.15.63-.535.84-.92.026-.074.065-.248.104-.434.027-.124.04-.31.04-.422.13.273.196.534.262.918-.066.336-.223.733-.407 1.118.353-.174.68-1.03.84-1.316.17-.298.51-.894.667-1.527 0-.074-.013-.16-.04-.26-.156-.497-.405-1.155-.576-1.602.172.236.33.447.46.658.184.298.34.608.498 1.018.013.535 0 1.13-.118 1.714.013-.013.892-.683 1.534-1.663.367-.558.787-1.365.5-2.532-.133-.546-1.01-1.452-1.496-1.75-.026-.012-.053-.025-.08-.05l-.09-.223c-.027-.037-.394-.546-.774-.794-.184-.123-.734-.384-1.062-.446l-.315.012c-.262 0-.682.025-1.075.062-1.023-.546-1.888-.844-2.675-1.017-.105.05-.197.1-.288.137.05-.198.13-.372.3-.51 0 0 1.14.386 1.823.746.262.025 1.298.025 1.77-.087.065-.05.092-.174.105-.26-.118-.174-.55-.36-1.22-.72-.354-.2-.708-.472-.708-.472s-.262-.025-.524-.013c-.197 0-1.298.088-1.508.163-.04.012-.197.074-.21.074-.236.075-.472.224-.747.46-.104.062-.248.124-.42.186-.523.16-1.31.36-1.546.447-.354.136-.983.484-.983.484l-.747.893c-.157.187-.288.36-.367.497-.51.16-1.193.447-1.52.658-.08.05-.198.21-.145.26.053.05.132.1.198.112.13.013.236.013.314.013.026 0 .053 0 .08-.013.064.112.17.26.34.31 0 0 .157.013.354 0 .065 0 .144-.012.21-.012.157-.074.406-.323.485-.41.093-.11.224-.297.407-.546.197-.236.603-.558.997-.82.157-.086.59-.31 1.167-.508-.314.137-1.245.88-1.52 1.24-.158.225-.184.41-.223.572.013.05.092.187.25.31.26-.012.917-.21 1.18-.248.484-.16.825-.595 1.06-.88.303-.013 1.378-.026 1.89-.137.183.074.602.384.97.757-.223-.15-.564-.273-.866-.348-.117.025-.497.05-.655.087.027.386-.13.622-.34.845.222-.012.59.013 1.048 0 .722.15 1.285.77 1.285.77-.55-.472-1.468-.497-1.468-.497-.643-.062-1.678.025-2.386.112.17.15.432.596.642.956-.485-.497-.8-.633-1.324-.844-.525-.174-1.154-.187-1.43-.187-.262.013-.576.063-.576.063-1.246.335-1.993 1.055-2.177 1.7.012.16.13.31.274.434.014.26.105.795.25 1.08l-.08.075c-.052.037-.104.087-.117.124-.053.075-.053.212-.026.31.014.026.027.088.066.125 0 0 .13.15.42.062 0 0 .38-.198.773-.347.104-.075.314-.137.524-.174zm4.248-6.008c-.013 0-.04.013-.052.013l.21.1c-1.22.062-2.138.608-2.138.608.407-.347.8-.583 1.18-.72 0 0 .93-.223 1.836-.136-.42.012-.643.05-1.036.136zm2.295.075c.983.236 1.612.46 1.993.67.367.51.682 1.03.84 1.552-.75-.92-1.548-1.676-2.833-2.222zm-7.75 3.364c.42-.2.918-.31 1.443-.25l.052.1c-.262.175-.695.758-.76.894-.118.05-.538.126-.63.113-.065-.21-.144-.645-.104-.856zm11.578 7.57c.13-.036.25-.073.34-.11-.012-.795-.327-1.28-.97-1.688-.642.532-1.087.892-1.612 1.153-.275.136-.577.248-.983.347-.223.05-.42.1-.616.125.432-.112.865-.385 1.18-.683.13-.124.25-.248.327-.36-.13.124-.3.223-.484.285-.105.038-.21.05-.328.062.066-.038.145-.087.197-.125.315-.223.498-.51.577-.906-.275.434-.67.67-1.01.682 0 0-.013 0-.013.012-.29.187-.696.298-.997.31-.826.025-1.088.063-1.088.063.09.11.485.794.55 1.08.433.16.813.595.997.82 1.036-.063 2.137-.336 3.03-.572-.54-.075-.998.136-1.667.05.525-.05.997-.187 1.22-.25.406-.123.433-.495-.197-.955.734.112 1.272.31 1.547.658zm-9.217 5.723c.026 0 .065 0 .09.013.015-.037-.05-.087-.208-.1-.394-.024-.748-.285-.905-.72-.197.385-.066 1.18.236 1.503.198.21.486.285.525.248-.157-.087-.262-.236-.275-.41-.013-.136.026-.26.13-.36.12-.11.263-.174.408-.174zm4.353-3.922c.106.062.276.2.38.174 0 0 .185-.075.054-.46-.053-.173-.302-.26-.46-.173-.183.098-.17.36.027.458zm-2.215-.012c-.275.174-.118.51.118.67.144.087.34.385.55.26 0 0 .263-.21-.012-.756-.09-.224-.406-.323-.655-.174zm1.927-.62c.092-.075.223-.113.354-.113h.08c-.617-.46-1.614-.434-1.89-.21-.025-.013-.065-.025-.09-.038-.198-.062-1.024-.186-1.535.224-.523.433-.89 1.128-.21 1.625.46.335.906.57 1.417.16.04-.024-.157-.16-.288-.36-.158-.148-.237-.347-.237-.52 0-.174.092-.335.262-.435.118-.074.262-.11.393-.11.197 0 .38.073.512.21.04.024.08.062.118.1.472.545.34-.063.197-.36-.08-.15-.17-.262-.276-.35.157.026.353.15.47.287.12.15.198.347.355.496.17.162.25.112.262.013-.04-.05-.052-.112-.065-.174-.04-.16.026-.335.17-.447zm1.626 4.927s-.84.012-1.272.794c0 0-.04.087-.09.236-.028 0-.054.013-.08.013-.865.21-1.285.918-1.298 1.352 0 .224.013.51.157.61-.013-.076-.013-.15 0-.225.04-.16.158-.298.302-.372.065-.024.144-.05.21-.05.144 0 .288.063.393.175.052.062.092.124.118.186.065-.01.092-.098.065-.21-.09-.323-.118-.596.027-1.018-.027.373 0 .87.406 1.18 0 0 .13.074.184.037-.026-.088-.053-.187-.08-.312-.025-.186.04-.384.172-.533.13-.15.327-.236.537-.236h.025c.197 0 .354.086.46.235.13.186.143.484.04.732-.015.025-.028.075-.04.124.13.014.288 0 .42-.11 0 0 .576-.336.458-1.85.013.012-.105-.918-1.115-.757zm-.236 1.986c-.288-.014-.498.235-.46.483.093.596.42.645.42.645.25 0 .25-.347.33-.51.104-.247.05-.62-.29-.62zm-1.94.706c-.158.1-.197.336-.066.46.302.285.46.173.46.173.078-.075.025-.274.025-.398-.012-.198-.248-.335-.418-.236zm.354-4.778c.09-.57.773-1.775 0-.993-.446.446-.866.583-1.377.906-.722.46-.263.994-.38 1.33-.054.148-.014.073-.21.297-.33.41-.88.496-.617.645.262.15.3 0 .524-.037.144-.025.328-.15.393-.298.092-.248.263-.658.774-.807.51-.15.787-.47.892-1.042zm10.725-5.524c0-.447 0-.583-.143-1.192-.328-1.353-1.35-2.705-2.413-3.748.604.285 1.023.57 1.482 1.216-.092-.93-1.167-2.32-2.11-2.98.248.473.327.945.34 1.38.013.396-.066.88-.144 1.178-.158.584-.328 1.217-.853 1.688-.394.286-.813.658-1.194.894l-.63.46c-.392.31-.694.583-.825.905.394-.31 1.18-1.017 1.994-1.216-.17.148-.42.396-.93.78.21.05.366.175.51.41.25.385.315.956.223 1.503.433-.2 1.075-1.18 1.18-1.962.053-.396.105-.644.105-.644s.04.16.08.596c.064.88-.29 1.837-.67 2.445-.197.31-.564.434-.72.645-.158.21-.106.36-.158.708-.08.558-.617.98-.315.956.196-.013.615 0 .8.173-.368-.112-1.273.148-1.72.806-.13.186-.418.658-.418.658s-.34.608-.997 1.154c-.446.385-.367.41-.275.435.013 0 .026.012.04.012.563-.26.982-.583 1.205-.82.13-.135.21-.21.21-.21s-.04.1-.144.26c-.21.31-.366.597-.904.994 1.52-.287 2.636.78 2.793 1.8.327.085.64.222.812.483.367-.683.157-1.502.118-2.135-.04-.522.118-1.266.51-2.036-.104.422-.17.82-.182 1.18.236-.708 1.114-1.49 1.73-2.123.67-.647 1.14-1.677 1.285-2.47.197-1.007.223-1.963-.38-3.55.38.433.59.88.708 1.364zm-6.542 9.98c-.314-.1-.498.223-.485.496.013.162-.118.497.118.57 0 0 .33.063.63-.47.132-.224.014-.51-.262-.596zm1.94-.298c-.26-.162-.497-.21-.655-.2v-.086c-.013-.496-.46-1.49-1.612-1.477-.485 0-.63.435-.68.757-.067.46-.08 1.006-.067 1.142.026.162 0 .397.158.534.08.062.197.112.21.012.013-.173.053-.397.158-.508.105-.112.262-.21.42-.21.052 0 .09 0 .144.01.21.05.393.187.485.373.09.174.105.41.026.596-.04.086-.08.16-.13.235 0 .025.012.037.025.05.184.024.498-.112.616-.286.144-.212.21-.473.236-.77.184.21.118.707.092.868-.026.125-.066.348.013.484.053.112.184.15.25.112v-.012c-.04-.137 0-.286.09-.41.093-.112.224-.198.368-.21.08-.013.144 0 .223.024.157.05.25.174.315.335.027.076.04.15.027.225.052.024.092-.025.118-.125.197-.695-.38-1.19-.826-1.464zm.303 1.29c-.183-.086-.406.063-.393.274.013.124-.04.322.053.397 0 0 .157.1.432-.21.13-.15.066-.373-.09-.46zm-8.26-15.614c.17.1.446.31.616.533.027-.037.066-.074.092-.136-.118-.1-.42-.41-.524-.572-.223.037-.656.112-1.01.21-.092.038-.223.113-.275.138.13.1.43.273.812.36.144-.212.236-.41.288-.534zm-.066 1.005c.236.025.945.112 1.508.21-.183-.123-.432-.47-.55-.632-.105.124-.197.248-.34.373-.08-.15-.303-.41-.565-.534-.053.15-.144.298-.223.434-.236-.062-.538-.21-.708-.323-.052.013-.118.05-.13.063.21.1.55.273.838.533l.17-.123z" fill="#FFF"/></g></g></svg>