<?xml version="1.0" encoding="utf-8"?>
<!-- Generator: Adobe Illustrator 19.2.1, SVG Export Plug-In . SVG Version: 6.00 Build 0)  -->
<svg version="1.1" id="Layer_1" xmlns="http://www.w3.org/2000/svg" xmlns:xlink="http://www.w3.org/1999/xlink" x="0px" y="0px"
	 viewBox="0 0 27.2810059 27.1026001" width="317.26686059" height="315.192074628" style="enable-background:new 0 0 27.2810059 27.1026001;" xml:space="preserve">
<style type="text/css">
	.st0{clip-path:url(#SVGID_2_);fill:#A2ACB4;}
	.st1{clip-path:url(#SVGID_2_);fill:#2A0D54;}
	.st2{clip-path:url(#SVGID_2_);fill:#FFFFFF;}
	.st3{clip-path:url(#SVGID_2_);}
</style>
<g>
	<defs>
		<rect id="SVGID_1_" width="27.2810059" height="27.1019897"/>
	</defs>
	<clipPath id="SVGID_2_">
		<use xlink:href="#SVGID_1_"  style="overflow:visible;"/>
	</clipPath>
	<path class="st0" d="M13.6394958,0.0004883c-4.2920074,0-7.1529999,0.7150269-7.1529999,0.7150269v2.375v10.1080017
		c0,1.118988,0.1359863,1.9909973,1.4309998,2.8369751c0.6519928,0.427002,5.7220001,3.7360229,5.7220001,3.7360229
		s5.0699921-3.309021,5.7220001-3.7360229c1.2949982-0.8459778,1.4309998-1.7179871,1.4309998-2.8369751V3.0905151v-2.375
		C20.7924957,0.7155151,17.931488,0.0004883,13.6394958,0.0004883"/>
	<path class="st1" d="M20.3632965,13.1987915c0,0.5340271-0.0330048,0.9690247-0.1960144,1.3540039
		c-0.1769867,0.4179993-0.5069885,0.7750244-1.0399933,1.1240234c-0.5639954,0.367981-4.4819946,2.9249878-5.4880066,3.5820007
		c-1.0059967-0.6570129-4.9229889-3.2140198-5.4869995-3.5820007c-0.5329895-0.348999-0.8639984-0.7060242-1.0410004-1.1240234
		c-0.1619873-0.3849792-0.1959991-0.8199768-0.1959991-1.3540039V2.9998169
		c0.9500122-0.1870117,3.4110107-0.5960083,6.723999-0.5960083c3.3140106,0,5.7740021,0.4089966,6.7240143,0.5960083V13.1987915z"/>
	<polygon class="st2" points="10.921402,12.9126892 10.921402,13.7706909 15.0853882,13.7706909 16.3573914,12.6806946 
		16.3573914,9.5677185 15.0853882,8.4776917 14.3544006,8.4776917 14.3544006,9.3367004 14.7683868,9.3367004 15.4993896,9.9627075 
		15.4993896,12.2857056 14.7683868,12.9126892 12.4953918,12.9126892 12.4953918,9.3367004 12.9243927,9.3367004 
		12.9243927,8.4776917 10.921402,8.4776917 10.921402,9.3367004 11.6363983,9.3367004 11.6363983,12.9126892 	"/>
	<path class="st2" d="M13.210495,12.6264038h0.8579865V7.7624207h3.1470032V6.9044189h-3.1470032V6.5674133
		c0.5480042-0.1799927,0.9430084-0.6950073,0.9430084-1.302002c0-0.7579956-0.6150055-1.3720093-1.371994-1.3720093
		c-0.7570038,0-1.3710022,0.6140137-1.3710022,1.3720093c0,0.6069946,0.394989,1.1220093,0.9420013,1.302002v0.3370056h-3.1470032
		v0.8580017h3.1470032V12.6264038z M13.6394958,4.7373962c0.2909851,0,0.5279999,0.23703,0.5279999,0.5280151
		c0,0.2900085-0.2370148,0.5270081-0.5279999,0.5270081c-0.2910004,0-0.5280151-0.2369995-0.5280151-0.5270081
		C13.1114807,4.9744263,13.3484955,4.7373962,13.6394958,4.7373962"/>
	<path class="st2" d="M17.6450958,11.7599792v1.1730042c0,0.4089966-0.1060028,0.5890198-0.4870148,0.8370056
		c-0.2489929,0.1620178-2.2069855,1.4240112-3.0889893,1.9930115v-1.7059937H13.210083v1.7059937
		c-0.8819885-0.5690002-2.8399963-1.8309937-3.0899963-1.9930115C9.73909,13.5220032,9.6340942,13.34198,9.6340942,12.9329834
		v-1.1730042H8.7750854v1.4450073c0,0.3919983,0.0650024,0.7579956,0.6200104,1.1159973
		c0.5549927,0.3580017,4.243988,2.7400208,4.243988,2.7400208s3.6900024-2.382019,4.2450104-2.7400208
		c0.5549927-0.3580017,0.618988-0.723999,0.618988-1.1159973v-1.4450073H17.6450958z"/>
	<path class="st1" d="M9.0625,1.9025879V1.0545959c0.2549896-0.0319824,0.5099945-0.0619812,0.7659912-0.0879822v0.1829834
		C9.6544952,1.1676025,9.4814911,1.186615,9.3084869,1.2076111v0.1589966
		C9.4324951,1.3526001,9.5554962,1.337616,9.6794891,1.3246155v0.1429749
		C9.5554962,1.4805908,9.4324951,1.4945984,9.3084869,1.509613v0.1689758
		c0.1730042-0.019989,0.3460083-0.039978,0.5200043-0.0579834v0.1940002C9.5724945,1.8406067,9.3174896,1.8706055,9.0625,1.9025879"
		/>
	<path class="st1" d="M10.7964935,1.7535706c-0.1830139,0.0140076-0.3390045-0.0269775-0.4630127-0.0949707
		c0.0330048-0.052002,0.0660095-0.105011,0.098999-0.1570129c0.1180115,0.0599976,0.2510071,0.0929871,0.3690033,0.0839844
		c0.1269989-0.0099792,0.178009-0.0569763,0.178009-0.1069946c0-0.1430054-0.6040039-0.0090027-0.6040039-0.3169861
		c0-0.1530151,0.1699982-0.2919922,0.4219971-0.3120117c0.1820068-0.0140076,0.3159943,0.0350037,0.4219971,0.1080017
		c-0.0379944,0.0469971-0.076004,0.0930176-0.1139984,0.1400146c-0.0890045-0.0550232-0.2059937-0.0880127-0.3139954-0.0800171
		c-0.1130066,0.0090027-0.1800079,0.053009-0.1800079,0.1040039c0,0.1360168,0.6100006,0.0180054,0.6100006,0.3200073
		C11.2214813,1.6065979,11.0384827,1.7345886,10.7964935,1.7535706"/>
	<path class="st1" d="M12.2144928,0.9840698v0.65802c-0.0830078,0.0029907-0.1660004,0.0069885-0.2490082,0.0109863V0.9940796
		c-0.1040039,0.0050049-0.2089996,0.0110168-0.3130035,0.0159912V0.8210754
		c0.2910004-0.0159912,0.5830078-0.0289917,0.8740082-0.0379944v0.1900024
		C12.4224854,0.9760742,12.3184814,0.980072,12.2144928,0.9840698"/>
	<path class="st1" d="M12.8188934,1.6235962V1.4416199c0.0599976-0.0010071,0.1209869-0.0030212,0.1809998-0.0039978v0.1819763
		C12.9398804,1.6206055,12.878891,1.6226196,12.8188934,1.6235962"/>
	<path class="st1" d="M14.1225891,1.6173706v-0.743988c0.0779877,0.0010071,0.1129913-0.04599,0.1129913-0.1019897
		c0.0390015,0,0.0769958,0.0010071,0.1150055,0.0019836v0.8480225C14.2745819,1.6193848,14.1985779,1.6183777,14.1225891,1.6173706"
		/>
	<path class="st1" d="M15.289093,1.6789856C15.1350861,1.6719971,15.016098,1.625,14.9150848,1.54599
		c0.0340118-0.0440063,0.0670013-0.0879822,0.1000061-0.1309814c0.0769958,0.0559998,0.1710052,0.0909729,0.2599945,0.0959778
		c0.1480103,0.006012,0.2140045-0.0769958,0.2140045-0.1990051V1.2630005
		c-0.0639954,0.0529785-0.1389923,0.0849915-0.2429962,0.0809937c-0.2080078-0.0090027-0.3310089-0.1180115-0.3310089-0.2640076
		V1.0629883c0-0.1640015,0.1520081-0.2980042,0.3870087-0.2869873c0.2449951,0.0109863,0.4089966,0.1759949,0.4089966,0.4140015
		v0.0979919C15.7110901,1.5279846,15.5490875,1.690979,15.289093,1.6789856 M15.4880981,1.1219788
		c0-0.0879822-0.0660095-0.164978-0.1890106-0.17099c-0.1089935-0.0050049-0.1730042,0.0429993-0.1730042,0.1190186v0.0149841
		c0,0.0750122,0.0570068,0.1279907,0.1680145,0.1329956c0.0859985,0.0039978,0.144989-0.0220032,0.1940002-0.0619812V1.1219788z"/>
	<path class="st1" d="M16.6076965,1.7622986c-0.154007-0.0130005-0.2720032-0.0650024-0.3730011-0.1470032
		c0.0339966-0.0429993,0.0670013-0.0849915,0.1000061-0.1279907c0.0759888,0.0589905,0.1699982,0.098999,0.2589874,0.1059875
		c0.1480103,0.0119934,0.2140045-0.0690002,0.2140045-0.1910095V1.353302
		c-0.0630035,0.0509949-0.1380005,0.0799866-0.2429962,0.071991c-0.2070007-0.0169983-0.3300018-0.1289978-0.3300018-0.276001
		V1.1333008c0-0.1650085,0.1519928-0.2929993,0.3860016-0.2740173c0.2440033,0.0200195,0.4079895,0.1910095,0.4079895,0.4290161
		v0.0979919C17.0286865,1.6262817,16.867691,1.7832947,16.6076965,1.7622986 M16.8067017,1.2122803
		c0-0.0879822-0.0660095-0.1679993-0.1880035-0.1779785c-0.1100006-0.0079956-0.1740112,0.0359802-0.1740112,0.1130066v0.0149841
		c0,0.0750122,0.0580139,0.1300049,0.1680145,0.1390076c0.0859985,0.0069885,0.1459961-0.0169983,0.1940002-0.0549927V1.2122803z"/>
	<path class="st1" d="M18.0974884,1.6894836v0.196991c-0.0740051-0.0099792-0.1470032-0.0179749-0.220993-0.0269775V1.6634827
		c-0.1530151-0.0180054-0.306015-0.0350037-0.4580078-0.0499878V1.4664917
		c0.1569977-0.1520081,0.3139954-0.303009,0.470993-0.4530029c0.0690002,0.0079956,0.1390076,0.0159912,0.2080078,0.0249939
		v0.4899902c0.0449982,0.0050049,0.0890045,0.0110168,0.1349945,0.0160217v0.1619873
		C18.1864929,1.7005005,18.1424866,1.6954956,18.0974884,1.6894836 M17.8764954,1.2394714
		c-0.0800018,0.0780029-0.1600037,0.1560059-0.2400055,0.2350159c0.0800018,0.0090027,0.1600037,0.0180054,0.2400055,0.0270081
		V1.2394714z"/>
	<polygon class="st3" points="6.4870911,21.6298828 7.4210815,21.6298828 7.4210815,21.9368896 6.8260803,21.9368896 
		6.8260803,22.1169128 7.4050903,22.1169128 7.4050903,22.4179077 6.8260803,22.4179077 6.8260803,22.8449097 6.4870911,22.8449097 
			"/>
	<path class="st3" d="M8.5878906,22.4806824H8.3678894v0.3640137H8.0368805v-1.2149963h0.6170044
		c0.4340057,0,0.5079956,0.1899719,0.5079956,0.4179993c0,0.1509705-0.0379944,0.3119812-0.2350006,0.3889771l0.2220001,0.40802
		H8.7848816L8.5878906,22.4806824z M8.6418915,22.1986694c0.1309967,0,0.1769867-0.0259705,0.1769867-0.13797
		c0-0.1160278-0.0429993-0.1420288-0.1779938-0.1420288h-0.272995v0.2799988H8.6418915z"/>
	<polygon class="st3" points="9.7531891,21.6298828 10.7201843,21.6298828 10.7201843,21.9368896 10.0921783,21.9368896 
		10.0921783,22.0838928 10.7041779,22.0838928 10.7041779,22.3808899 10.0921783,22.3808899 10.0921783,22.5509033 
		10.726181,22.5509033 10.726181,22.8449097 9.7531891,22.8449097 	"/>
	<polygon class="st3" points="11.4066925,21.6298828 11.8506775,21.6298828 12.1226807,22.3529053 12.3966827,21.6298828 
		12.8396912,21.6298828 12.8396912,22.8449097 12.5076904,22.8449097 12.5076904,22.1398926 12.2356873,22.8449097 
		11.9816895,22.8449097 11.7136841,22.1448975 11.7136841,22.8449097 11.4066925,22.8449097 	"/>
	<path class="st3" d="M13.826889,21.6214905h0.345993l0.4900055,1.2229919h-0.352005L14.2498779,22.6875h-0.5179901
		l-0.0599976,0.1569824h-0.3310089L13.826889,21.6214905z M14.1418915,22.4084778l-0.151001-0.3869934l-0.1500092,0.3869934
		H14.1418915z"/>
	<polygon class="st3" points="15.1302032,21.6298828 15.4942017,21.6298828 15.9671936,22.2728882 15.9671936,21.6298828 
		16.2921906,21.6298828 16.2921906,22.8449097 15.9792023,22.8449097 15.4541931,22.1348877 15.4541931,22.8449097 
		15.1302032,22.8449097 	"/>
	<polygon class="st3" points="17.196701,21.9364929 16.7936859,21.9364929 16.7936859,21.6295166 17.9406891,21.6295166 
		17.9406891,21.9364929 17.5376892,21.9364929 17.5376892,22.8445129 17.196701,22.8445129 	"/>
	<polygon class="st3" points="18.4406891,21.6298828 18.7796783,21.6298828 18.7796783,22.5509033 19.3516846,22.5509033 
		19.3516846,22.8449097 18.4406891,22.8449097 	"/>
	<polygon class="st3" points="19.8188934,21.6298828 20.7858887,21.6298828 20.7858887,21.9368896 20.1578827,21.9368896 
		20.1578827,22.0838928 20.7698822,22.0838928 20.7698822,22.3808899 20.1578827,22.3808899 20.1578827,22.5509033 
		20.7928925,22.5509033 20.7928925,22.8449097 19.8188934,22.8449097 	"/>
	<path class="st1" d="M21.6973877,26.1062012l0.5319977-0.4429932v-1.1199951l-0.4819946-0.4819946h-2.4380035v0.6079712h0.4259949
		v0.8520203v0.9729919h-0.4259949v0.6080017h1.0350037v-0.9729919h0.6299896l0.6690063,0.9729919h0.7689972v-0.6080017h-0.4490051
		L21.6973877,26.1062012z M21.4953918,24.6691895l0.1259918,0.1260071v0.5830078l-0.1710052,0.1430054h-1.1059875v-0.8520203
		H21.4953918z"/>
	<path class="st1" d="M1.7662811,24.0605774v0.6090088h0.4260101v1.8240051H1.7662811v0.6090088h2.3160095l0.7249908-0.7260132
		v-1.5899963l-0.7249908-0.7260132H1.7662811z M4.199295,26.1245728l-0.3690033,0.3690186H2.800293v-1.8240051h1.0299988
		l0.3690033,0.368988V26.1245728z"/>
	<path class="st1" d="M6.1897888,24.060791L5.464798,24.7868042v1.5899963l0.7249908,0.7250061H7.537796l0.7249908-0.7250061
		v-1.5899963L7.537796,24.060791H6.1897888z M7.6548004,26.1247864l-0.3690033,0.3690186H6.4417877l-0.368988-0.3690186v-1.0869751
		l0.368988-0.3690186h0.8440094l0.3690033,0.3699951V26.1247864z"/>
	<polygon class="st1" points="25.5142975,25.0339966 25.5142975,24.5429993 25.0322876,24.0610046 23.4422913,24.0610046 
		22.9592896,24.5429993 22.9592896,25.4030151 23.4422913,25.8860168 24.7802887,25.8860168 24.9062958,26.0120239 
		24.9062958,26.3680115 24.7802887,26.4940186 23.6942902,26.4940186 23.5682831,26.3680115 23.5682831,26.1289978 
		22.9592896,26.1289978 22.9592896,26.6200256 23.4422913,27.1020203 25.0322876,27.1020203 25.5142975,26.6200256 
		25.5142975,25.7600098 25.0322876,25.2770081 23.6942902,25.2770081 23.5682831,25.151001 23.5682831,24.7950134 
		23.6942902,24.6690063 24.7802887,24.6690063 24.9062958,24.7950134 24.9062958,25.0339966 	"/>
	<polygon class="st1" points="9.6080933,24.0608826 8.8830872,24.7868958 8.8830872,26.3768921 9.6080933,27.1018982 
		10.9560852,27.1018982 11.6820831,26.3768921 11.6820831,25.9468994 11.0730896,25.9468994 11.0730896,26.1249084 
		10.7040863,26.4938965 9.8600922,26.4938965 9.4910889,26.1249084 9.4910889,25.0379028 9.8600922,24.6688843 
		10.7040863,24.6688843 11.0730896,25.0389099 11.0730896,25.2168884 11.6820831,25.2168884 11.6820831,24.7868958 
		10.9560852,24.0608826 	"/>
	<polygon class="st1" points="15.2949982,24.6691895 15.2949982,24.0612183 14.6909943,24.0612183 13.2879944,25.3242188 
		13.2879944,24.0612183 12.2539978,24.0612183 12.2539978,24.6691895 12.6789856,24.6691895 12.6789856,26.4942017 
		12.2649841,26.4942017 12.2649841,27.1022034 13.2879944,27.1022034 13.2879944,26.143219 13.6829834,25.7872009 
		14.6539917,27.1022034 15.2949982,27.1022034 15.2949982,26.4942017 14.9609833,26.4942017 14.1369934,25.3782043 
		14.923996,24.6691895 	"/>
	<polygon class="st1" points="15.9032898,24.6691895 16.3902893,24.6691895 16.3902893,26.4942017 15.9032898,26.4942017 
		15.9032898,27.1022034 18.6402893,27.1022034 18.6402893,26.1902161 18.0322876,26.1902161 18.0322876,26.4942017 
		16.9982758,26.4942017 16.9982758,25.8851929 17.971283,25.8851929 17.971283,25.2771912 16.9982758,25.2771912 
		16.9982758,24.6691895 18.0322876,24.6691895 18.0322876,24.9732056 18.6402893,24.9732056 18.6402893,24.0612183 
		15.9032898,24.0612183 	"/>
</g>
</svg>
