<?xml version="1.0" encoding="utf-8"?>
<!-- Generator: Adobe Illustrator 19.2.1, SVG Export Plug-In . SVG Version: 6.00 Build 0)  -->
<svg version="1.1" id="Layer_1" xmlns="http://www.w3.org/2000/svg" xmlns:xlink="http://www.w3.org/1999/xlink" x="0px" y="0px"
	 width="52.9509888px" height="45.4462891px" viewBox="0 0 52.9509888 45.4462891"
	 enable-background="new 0 0 52.9509888 45.4462891" xml:space="preserve">
<g>
	<path fill="#F47920" d="M25.7589111,15.1769409l-0.6760254,0.9380493
		c-0.3790283,0.5409546-1.0029907,0.8670044-1.6660156,0.8670044h-6.1040039l3.1560059-4.4100342
		c0.3840332-0.5239868,0.9979858-0.8369751,1.6459961-0.8369751h14.4490356L44.9628906,0H23.2799072
		C14.9129028,0,8.1308594,6.782959,8.1308594,15.1489868c0,8.3670044,6.7820435,15.1480103,15.1490479,15.1480103
		l10.8239746-15.1230469L25.7589111,15.1769409z"/>
	<path fill="#F47920" d="M52.9509888,40.5343018c0-1.1300049-0.6119995-1.6309814-1.6669922-1.9279785
		c-2.4470215-0.6860352-3.5040283-0.9819946-3.6890259-1.0369873c-0.1119995-0.0370483-0.2039795-0.0930176-0.2039795-0.2410278
		V35.734314c0-0.1110229,0.0739746-0.1849976,0.1859741-0.1849976h2.4830322c0.1110229,0,0.1849976,0.0739746,0.1849976,0.1849976
		v1.0380249h2.632019v-1.632019c0-1.1290283-0.90802-2.0380249-2.0390015-2.0380249h-4.0770264
		c-1.1300049,0-2.0390015,0.9089966-2.0390015,2.0380249v2.7620239c0,1.1299438,0.6300049,1.6119995,1.7230225,1.9279785
		c2.2990112,0.6489868,3.2810059,0.9259644,3.5969849,1.0200195c0.1480103,0.0359497,0.2399902,0.1099854,0.2399902,0.2399902
		v1.723999c0,0.1109619-0.072998,0.1849976-0.1849976,0.1849976h-2.5949707c-0.1110229,0-0.1849976-0.0740356-0.1849976-0.1849976
		v-1.0570068h-2.632019v1.6499634c0,1.1300049,0.90802,2.0390015,2.0390015,2.0390015h4.1889648
		c1.1300049,0,2.0380249-0.9089966,2.0380249-2.0390015V40.5343018z M34.9569702,35.5493164h3.1870117v9.8969727h2.6870117
		v-9.8969727h3.1879883v-2.4470215h-9.0620117V35.5493164z M34.0139771,33.1022949h-2.5949707v7.2280273l-4.1140137-7.2280273
		h-2.5950317v12.3439941h2.5950317v-7.1919556l4.1140137,7.1919556h2.5949707V33.1022949z M18.6229858,36.5123291
		l1.1129761,4.1149902h-2.223999L18.6229858,36.5123291z M19.9769897,33.1022949h-2.7069702l-4.0400391,12.3439941h2.742981
		l0.7410278-2.4469604h3.7999878l0.7780151,2.4469604h2.742981L19.9769897,33.1022949z M12.552002,33.1022949H9.8649902v12.3439941
		h2.6870117V33.1022949z M4.059021,41.0532837h1.7419434v1.7610474c0,0.1109619-0.0739746,0.1849976-0.1849976,0.1849976h-2.742981
		c-0.1110229,0-0.1859741-0.0740356-0.1859741-0.1849976V35.734314c0-0.1110229,0.0749512-0.1849976,0.1859741-0.1849976h2.723999
		c0.1110229,0,0.1860352,0.0739746,0.1860352,0.1849976v1.2600098h2.6309814v-1.8540039
		c0-1.1290283-0.9069824-2.0380249-2.0380249-2.0380249H2.0379639C0.90802,33.1022949,0,34.0112915,0,35.1403198v8.2669678
		c0,1.1300049,0.90802,2.0390015,2.0379639,2.0390015h4.3560181c1.1309814,0,2.0390015-0.9089966,2.0390015-2.0390015v-4.6889648
		H4.059021V41.0532837z"/>
</g>
</svg>
