<?xml version="1.0" encoding="windows-1252"?>
<!-- Generator: Adobe Illustrator 18.1.1, SVG Export Plug-In . SVG Version: 6.00 Build 0)  -->
<!DOCTYPE svg PUBLIC "-//W3C//DTD SVG 1.1//EN" "http://www.w3.org/Graphics/SVG/1.1/DTD/svg11.dtd">
<svg version="1.1" id="Layer_1" xmlns="http://www.w3.org/2000/svg" xmlns:xlink="http://www.w3.org/1999/xlink" x="0px" y="0px" viewBox="0 0 557.6 631.4" width="297.172825662" height="336.504523176" enable-background="new 0 0 557.6 631.4" xml:space="preserve">
<g>
	<path fill="#FFFFFF" d="M503.5,311.4L476,288.4c9.7-26.6,11.7-51.2,12.6-61.3c-25.6-10.6-43.1-18-74.9-27.7l-19.6-5.7   c5.1,6.3,10.3,12.8,15.7,19.6l1.6,2l-4.2,46.4l-0.3,2.8l-2.6,1c-3.3,1.3-6.7,2.6-10,3.9c-2.1-1.7-4.3-3.4-6.4-5.2   c0.6-0.4,1-0.7,1.4-1c4-1.6,8.1-3.2,12.1-4.8l0.3-0.1l0-0.4c0.9-11.6,1.9-23.8,3-37.5l0.2-2.3l-0.2-0.2   c-9.8-11.7-18.8-22.5-27.3-32.9c-0.3-0.4-0.6-0.7-0.9-1.1c-1.1-1.3-2.1-2.6-3.2-3.9c-0.3-0.3-0.5-0.6-0.8-0.9   c-0.1-0.2-0.3-0.4-0.4-0.5c-1-1.2-2-2.5-3-3.7c-0.4-0.4-0.7-0.9-1.1-1.3c-2.7-3.3-5.3-6.5-7.8-9.6c-0.3-0.4-0.7-0.8-1-1.2   c-0.9-1.2-1.9-2.3-2.8-3.5c-0.4-0.5-0.8-1-1.2-1.5c-0.9-1.1-1.8-2.2-2.7-3.4c-0.3-0.4-0.7-0.9-1-1.3c-1.2-1.5-2.4-3.1-3.6-4.6   c2.9-5.1,5.8-10.3,8.7-15.4l0.2-0.4l-2.5-2.3c-11.2-10.5-16.3-13.3-23.3-17c3.7-3.2,14.4-13.4,21.3-26.3   c11.1-21,12.6-39.6,7.8-61.8c-1.7-7.5-3.5-11.9-4.6-11.8c0,0-0.2-0.1-0.6,0.3c-3.5,4.5-7.1,8.9-10.7,13.4   c-3.5,5.1-7,10.1-10.5,15.2c-3,2.2-11.4,8.5-21.3,19.3l0.7-4.6l-10.5,16.3c-6.1,8-11.9,17.3-16.2,27.7l-3,0.6l-0.2,0l-4.4,1   l2.5,2.2c-3.5-0.1-11.1-0.2-11.1-0.2l-1.4,3.6c-3.9-0.2-11.1-2-11.1-2l-0.9,2.7c-5.8-6.7-15.7-17.6-29.6-26.8   c-1.1-0.7-2.2-1.4-3.3-2.1c-1-0.6-1.9-1.2-2.9-1.7l0,0c-0.7-0.4-1.4-0.8-2.1-1.2L195.7,63l0.3,3.4c-17.8-6.1-36.9-8.8-57.2-8.8   c-8.9,0-17,0.1-26.3,1.4c-1.8,0.2-4.2,0.5-4.7,2.3c-0.5,1.8,0.2,3.6,1.7,4.6c6.9,4.8,13.8,9.6,20.7,14.4c1.5,2,5.2,6.8,7,10.8   c7.2,15.6,22.7,41.2,83.7,64.5c-2.5,6-4.1,11.2-5.2,16.1c-0.8,3.5-1.3,6.9-1.8,10.4c-1.5-2.5-3.1-5.2-4.1-6.8c0,0,0,0,0,0.1   c0,0,0,0,0,0c0,0,0,0.1,0,0.2c0,0,0,0,0,0c0,0.1,0,0.2-0.1,0.4c0,0,0,0,0,0c-0.1,0.3-0.1,0.7-0.2,1.1c0,0,0,0.1,0,0.1   c0,0.2-0.1,0.4-0.1,0.6c0,0.1,0,0.2-0.1,0.3c0,0.1,0,0.1,0,0.2c-1.6,7.7-6.2,29.1-10.3,51.4l-90,66.4l22-18.2l54.9-45.4   c-2.1,1.6-1.8,1.3,5.2-4.3l7.7-43.1c-6.3,1-12.6,2-19,3.3C140,199.1,100.1,212.3,68,225c0,0,0,0.1,0,0.2c-2,0.8-4,1.6-6,2.4   c2.1,0.2,4.1,0.3,6.2,0.5c1,10.9,2.7,30.6,11,55.1l-32.8,28.3H9.8v245.3l13,9.5c26.7-15.3,95.9-38.7,95.9-38.7l-0.1,35l10.7,7.5   l87.2,0c26.9,26.2,50.7,46.2,52.1,47.2l16,0l51.6-45.7l2-1.6l89.3,0.2l10.9-7.5v-35.4c45,10.8,97.2,39.1,97.2,39.1l12.4-8.3V311.4   H503.5z"/>
	<g>
		<path fill="none" d="M273.8,121.1L273.8,121.1c0.1,0.1,0.1,0.1,0.2,0.1C274,121.2,273.9,121.2,273.8,121.1z"/>
		<path fill="none" d="M310.7,103c0.1,0,0.2,0.1,0.3,0.1c1.8,0.6,4.6,1.6,8.1,3.1c3.5-2.7,11.6-10.5,19.1-21    c12.8-17.8,19.1-36.9,14.7-57.3l-0.1-0.3c0-0.2-0.5-1.6-0.8-2.3c-1.4,1.4-2.9,3.2-4.1,4.7l-1.2,1.5c-3.4,4.7-6.9,9.3-10.3,13.9    c-0.1,0.1-0.3,0.3-0.4,0.5c-0.1,0.1-0.2,0.3-0.4,0.6C333,51.3,309.8,93.6,310.7,103z"/>
		<g>
			<path fill="#C4D1E5" d="M161.8,269.2c-6.7,3.9-25.8,14.9-38,21.9c23.2-6.6,46.2-13.3,68.8-20c0.7-5.9,1.6-12.7,2.8-19.8     c-10.1,6.2-20.4,12.5-30.8,18.8C164.7,263,161.8,269.2,161.8,269.2z"/>
			<path fill="#C4D1E5" d="M343.4,84c12.5-18.2,16.6-37.7,12.2-57.9c0,0,0-0.1,0-0.2c-0.5-1.7-0.9-2.4-1.1-2.7     c-0.6,0.4-1.5,1.1-2.4,2c0.2,0.7,0.8,2.1,0.8,2.3l0.1,0.3c4.4,20.4-1.9,39.6-14.7,57.3c-7.5,10.4-15.6,18.3-19.1,21     c0.6,0.3,1.3,0.6,1.9,0.9C323.3,105.5,334.2,97.4,343.4,84z"/>
			<path fill="#C4D1E5" d="M335,150.5c14.1,18.5,30.2,35.9,45.3,54.8c4.7,5.6,8.6,11.1,13.4,16.8c0.3-0.1,0.6-0.2,0.9-0.3l0.6-1.7     c-19.2-25.2-35.8-47.7-50.9-68.6l-2.7-3.8c0,0,2.9-9.1,4.3-13.6c-21.9-19.7-40.3-23.8-40.5-23.8c-3.6-0.8-7.6-1.3-11.8-1.3     c-0.1,0-0.1,0-0.2,0c-2.3,0-4.3,0.1-5.5,0.3c-1.2,0.1-2,0.2-2,0.2l-0.3,0.1l-0.7,0.1c-6.8,1.6-15.5,3.2-22.4,4.7     c4.7,3,6.5,3.5,11.3,6.5l0,0.1c0.1,0,0.1,0.1,0.2,0.1c1.1,0.5,2,1,2.6,1.6c1.4,0.9,1.8,1,3,1.9l1.5,0.2     c-3.1-4.5-10.8-12.5,9.3-15.4c0.1,0-0.1,0,0,0c6.2-1.4,41.5,13.2,47,27L335,150.5z"/>
			<path fill="#C4D1E5" d="M127.1,65.4c15.4,1.5,61.4,4.1,94.9,27.6c2.8,1.7,20.5,13.2,31.6,24.3c0.1,0,0.3,0,0.4,0     c-14.2-17.7-50.4-52.7-113-52.7c-5.5,0-11.2,0.3-16.9,0.8L127.1,65.4z"/>
			<path fill="#C4D1E5" d="M222,218c0.4,0.9,1.1,2.1,1.6,2.9l0.5-0.2c0.2,0.2,0.2,0.3,0.4,0.6c0.2,0.3,0.5,0.7,0.8,1.1     c0.9,1.3,1.6,2.1,1.7,2.2l0.1,0.1c0,0,0.1,0.1,0.1,0.1c4.7,5.7,14.6,15.3,29,16.3c1.5,0.2,2.9,0.3,4.3,0.3c3.3,0,6.4-0.7,9.3-1.8     c-11.1-0.8-15.5-25.1-16.9-35l-0.7-0.2c-2.5,26.9-29.7,19.6-23.1-46.3c-7.8,13.1-11.8,25.7-11.7,37.7v0.1l-1.5,6.7     c0,0.2-0.1,0.5-0.2,0.8l-0.7,0c0.3,4,1.1,7.6,2.3,10.9c0,0,3.3,8.7,6.3,11.4c-0.7-1.1-1-1.8-1-1.8c-0.3-1.8-0.5-3.6-0.8-5.5     L222,218z"/>
			<path fill="#C4D1E5" d="M336.1,45.9c-0.5,0.6-1.1,1.2-1.9,2c-2.9,2.4-5.9,5-8.8,7.9c-10.1,9.7-23.8,25.3-32.4,44.8     c0.2,0,0.5,0,0.7,0c0.6,0,1.3,0,1.9,0c0.1,0,0.2,0,0.3,0c0.3-0.6,0.7-1.3,1.2-2c5.7-9.6,18.6-30.9,27-36.7     c0,0.1-19.5,29.5-20.4,39.4c0,0,0,0,0.1,0c1.3,0.2,2.5,0.4,3.6,0.7c0,0,1.2,0.3,3.4,1c-0.9-9.3,22.3-51.7,24.9-56.5     C335.9,46.2,336,46.1,336.1,45.9z"/>
			<path fill="#C4D1E5" d="M377,271.2c-2.3,1.4-4.6,2.5-6.7,3.6c14,6.4,28.2,12.9,42.5,19.2l5.1,2.3c0.2,0.1,0.5,0.2,0.7,0.3     C405.5,288.7,391.8,280.3,377,271.2z"/>
			<path fill="#C4D1E5" d="M203.5,240.8c0.1-0.1,0.2-0.1,0.3-0.2L203.5,240.8C203.5,240.8,203.5,240.8,203.5,240.8z"/>
			<path fill="#C4D1E5" d="M341.5,196.5L341.5,196.5c-2.9-4-5.7-7.9-8.5-11.8c6.2,13.7,20.7,38.3,27.3,50.8l8.7,2.3l-10.9-18.3     C353.9,213.5,345.4,202.2,341.5,196.5z"/>
			<g>
				<path fill="none" d="M368.1,173.5c0.3,0.4,0.7,0.9,1.1,1.3C368.8,174.4,368.4,173.9,368.1,173.5z"/>
				<path fill="none" d="M359.3,162.7c0.3,0.4,0.7,0.8,1,1.2C360,163.5,359.6,163.1,359.3,162.7z"/>
				<path fill="none" d="M372.6,179c-0.1-0.2-0.3-0.4-0.4-0.5C372.3,178.7,372.4,178.8,372.6,179L372.6,179z"/>
				<path fill="none" d="M224.2,79.7c-1-0.6-1.9-1.2-2.9-1.7l0,0C222.3,78.5,223.3,79.1,224.2,79.7z"/>
				<path fill="none" d="M351.6,153c0.3,0.4,0.7,0.9,1,1.3C352.3,153.9,351.9,153.5,351.6,153z"/>
				<path fill="none" d="M355.3,157.7c0.4,0.5,0.8,1,1.2,1.5C356.1,158.7,355.7,158.2,355.3,157.7z"/>
				<path fill="#C4D1E5" d="M224.2,79.7c1.1,0.7,2.2,1.4,3.3,2.1C226.4,81.1,225.3,80.4,224.2,79.7z"/>
				<path fill="#C4D1E5" d="M221.3,78l-2.1-1.2C219.9,77.2,220.6,77.6,221.3,78L221.3,78z"/>
				<path fill="#C4D1E5" d="M356.5,159.2c0.9,1.2,1.9,2.3,2.8,3.5C358.4,161.5,357.4,160.3,356.5,159.2z"/>
				<path fill="#C4D1E5" d="M360.3,163.9c2.6,3.2,5.2,6.4,7.8,9.6C365.4,170.3,362.8,167.1,360.3,163.9z"/>
				<path fill="#C4D1E5" d="M369.2,174.8c1,1.2,2,2.4,3,3.7C371.1,177.2,370.1,176,369.2,174.8z"/>
				<path fill="#C4D1E5" d="M352.6,154.3c0.9,1.1,1.8,2.2,2.7,3.4C354.4,156.6,353.5,155.4,352.6,154.3z"/>
				<path fill="#C4D1E5" d="M347.9,148.4c1.2,1.5,2.4,3,3.6,4.6C350.3,151.5,349.1,150,347.9,148.4z"/>
				<path fill="#C4D1E5" d="M209.4,178.1c0-0.1,0-0.2,0.1-0.3C209.4,177.9,209.4,178,209.4,178.1z"/>
				<path fill="#C4D1E5" d="M209.6,177.3C209.6,177.2,209.6,177.2,209.6,177.3C209.6,177.2,209.6,177.2,209.6,177.3z"/>
				<path fill="#C4D1E5" d="M373.4,180c1.1,1.3,2.1,2.6,3.2,3.9C375.5,182.6,374.4,181.3,373.4,180z"/>
				<path fill="#C4D1E5" d="M510.5,303.2c0,0,12.5-44.2,13-67.7l-11.4-26c0,0-77.2-20.7-128.3-28.6c-9.4-11.8-18.2-22.8-26.2-33.4      l7.4-13.3l1.7-3.1c-10.7-11.3-23.8-20.3-23.8-20.3c3.9-3.7,7.5-8.1,11.2-13.3c15.5-21.5,19.5-48,14.2-72.7l-0.1-0.3      C362,3,358.2,0,355,0c0,0-1.8-0.2-3.5,1.7c-6.3,8.1-12.7,16.1-18.9,23.9c-2.6,3.4-5.2,6.8-7.9,10.1c-2.1,1.6-7.1,5.8-13.3,12.1      l0.2-4.2l-11,16.1c-7.3,8.8-14.8,19.6-20.6,31.9l-2,4.5l-11-2.4l-3.2,6.8l-3.4-4.3c-5.6-5.9-14.6-14.4-26.7-22.6      c-4-2.7-8.1-5.1-12.3-7.4c-14.1-8.8-29.1-14.8-29.1-14.8l0.3,2.6c-15.3-4.8-31.5-7.3-48.5-7.5c-0.8,0-1.6,0-2.5,0      c-8.1,0-16.5,0.5-25.1,1.6l-3.3,0.3c-5.3,0.6-14.3,2.1-21.4,6.3c0,0-2.2,1.8-2.1,2.8c-0.7,2.8,0,3.8,8.4,11      c3.9,3.4,9.9,8.2,16.2,12l2.7,2.2c2.7,2.2,5.4,4.4,8.1,6.5c2.2,2.9,4,5.7,4.8,7.5c7.3,16,23.4,39.8,79.4,63.1l-1.3,7.5l-4.9-5      l-0.5,1.9l-1.6,9.1c-9.9,1.7-89.4,16-156.5,38.5l-11.7,26c0,0,7.9,46.3,13.3,64.3H0v258.1l25.9,17.7c0,0,51.8-26.4,84.6-36.9      l-0.1,27.4l16.4,11.4h78.3c0,0,40.5,38.6,57.8,51.8h26.5c0,0,51.1-45.4,58.6-51.9l82.4-0.2l16.1-11.3v-28.2c0,0,41.4,12,86.5,38      l24.7-17.6V303.2H510.5z M548.1,558.1l-12.4,8.3c0,0-52.2-28.3-97.2-39.1v35.4l-10.9,7.5l-89.3-0.2l-2,1.6l-51.6,45.7l-16,0      c-1.4-1.1-25.3-21.1-52.1-47.2l-87.2,0l-10.7-7.5l0.1-35c0,0-69.2,23.3-95.9,38.7l-13-9.5V311.4h36.7l32.8-28.3      c-8.2-24.5-10-44.2-11-55.1c-2.1-0.2-4.2-0.4-6.2-0.5c2-0.8,4-1.6,6-2.4c0-0.1,0-0.1,0-0.2c32.1-12.7,72-25.8,111.8-36.5      c6.3-1.3,12.7-2.4,19-3.3l-7.7,43.1c-7,5.6-7.3,5.9-5.2,4.3L131,277.9l-22,18.2l90-66.4c3.6-19.5,7.6-38.3,9.6-47.8      c0.3-1.4,0.5-2.6,0.8-3.6c0-0.1,0-0.2,0-0.2c0-0.1,0-0.2,0.1-0.3c0-0.2,0.1-0.4,0.1-0.6c0,0,0-0.1,0-0.1      c0.1-0.5,0.2-0.8,0.2-1.1c0,0,0,0,0,0c0-0.1,0.1-0.3,0.1-0.4c0,0,0,0,0,0c0-0.1,0-0.1,0-0.2c0,0,0,0,0,0c0,0,0-0.1,0-0.1      c1,1.7,2.6,4.3,4.1,6.8c0.4-3.6,1-7,1.8-10.4c1.1-5,2.7-10.1,5.2-16.1c-61.1-23.3-76.6-48.9-83.7-64.5c-1.9-4-5.5-8.9-7-10.8      c-6.9-4.8-13.8-9.6-20.7-14.4c-1.5-1-2.1-2.9-1.7-4.6c0.5-1.8,2.9-2.1,4.7-2.3c9.3-1.3,17.4-1.4,26.3-1.4      c20.3,0,39.4,2.7,57.2,8.8l-0.3-3.4l23.5,13.7l2.1,1.2l0,0c1,0.6,1.9,1.1,2.9,1.7c1.1,0.7,2.2,1.4,3.3,2.1      c13.9,9.2,23.8,20.1,29.6,26.8l0.9-2.7c0,0,7.2,1.8,11.1,2l1.4-3.6c0,0,7.5,0.2,11.1,0.2l-2.5-2.2l4.4-1l0.2,0l3-0.6      c4.3-10.3,10.1-19.7,16.2-27.7l10.5-16.3l-0.7,4.6c9.9-10.8,18.3-17.1,21.3-19.3c3.5-5,7-10.1,10.5-15.2      c3.6-4.5,7.1-8.9,10.7-13.4c0.4-0.3,0.6-0.3,0.6-0.3c1.1-0.1,2.8,4.3,4.6,11.8c4.8,22.2,3.4,40.8-7.8,61.8      c-6.8,12.9-17.6,23.2-21.3,26.3c7,3.7,12.1,6.5,23.3,17l2.5,2.3l-0.2,0.4c-2.9,5.2-5.8,10.3-8.7,15.4c1.2,1.5,2.4,3,3.6,4.6      c0.3,0.4,0.7,0.9,1,1.3c0.9,1.1,1.8,2.2,2.7,3.4c0.4,0.5,0.8,1,1.2,1.5c0.9,1.2,1.9,2.3,2.8,3.5c0.3,0.4,0.7,0.8,1,1.2      c2.6,3.2,5.2,6.4,7.8,9.6c0.3,0.4,0.7,0.9,1.1,1.3c1,1.2,2,2.4,3,3.7c0.1,0.2,0.3,0.4,0.4,0.5c0.3,0.3,0.5,0.6,0.8,0.9      c1.1,1.3,2.1,2.6,3.2,3.9c0.3,0.4,0.6,0.7,0.9,1.1c1.2,1.5,2.4,2.9,3.6,4.4c0.2,0.3,0.4,0.5,0.6,0.8h0c7.3,8.8,14.9,18,23,27.7      l0.2,0.2l-0.2,2.3c-1.1,13.7-2.1,26-3,37.5l0,0.4l-0.3,0.1c-4,1.6-8.1,3.2-12.1,4.8c-0.3,0.2-0.8,0.6-1.4,1      c2.1,1.7,4.3,3.4,6.4,5.2c3.3-1.3,6.6-2.6,10-3.9l2.6-1l0.3-2.8l4.2-46.4l-1.6-2c-5.4-6.7-10.6-13.3-15.7-19.6l19.6,5.7      c31.9,9.7,49.3,17.1,74.9,27.7c-0.9,10.1-2.9,34.7-12.6,61.3l27.4,23.1h44.6V558.1z"/>
				<path fill="#C4D1E5" d="M209.9,175.7C209.9,175.7,209.9,175.7,209.9,175.7C209.9,175.7,209.9,175.7,209.9,175.7z"/>
				<path fill="#C4D1E5" d="M209.8,176.1C209.8,176.1,209.8,176.1,209.8,176.1C209.8,176.1,209.8,176.1,209.8,176.1z"/>
				<path fill="#C4D1E5" d="M209.9,175.5C209.9,175.5,209.9,175.5,209.9,175.5C209.9,175.5,209.9,175.5,209.9,175.5z"/>
			</g>
			<path fill="#C4D1E5" d="M231.3,295.1c4.6-8,26-42.6,58-43.3c11.6,4.4,15.6,19.8,16.7,24.8l0.6,0c2.2-10.2,3.2-16.9,3.5-20.9     c-0.2-0.1-0.4-0.2-0.7-0.3c-5.6-3.2-11.3-4.7-15.4-5.4c-0.4-0.1-0.8-0.1-1.2-0.2c-2.7-0.4-4.4-0.5-4.4-0.5l0.1-0.3l1.8-4.1     l-12,2.8l-15.1,3.5l0.9-3.7c-14.6-2.4-15.5-2.8-25-7.2l-0.1,0l-0.7-0.3l-0.1,0c-0.5-0.2-0.9-0.5-1.3-0.7     c-2.1,18.3-4.3,36.9-6.7,56.1L231.3,295.1z"/>
		</g>
		<path fill="#FCFCFC" d="M321.5,252.8c0,0.3,0,0.5,0,0.5S321.6,253.1,321.5,252.8z"/>
		<path fill="#F7F7F7" d="M276.7,122.8c-0.6-0.6-1.5-1.1-2.6-1.6C274.9,121.8,275.8,122.3,276.7,122.8z"/>
	</g>
	<g>
		<path fill="#1A3B8E" d="M154.8,516.4c-1,7.7-2,15.3-3.1,22.7c-1.2-7.2-2.3-14.3-3.5-21.3c-4.6,1.1-9.2,2.3-13.8,3.5    c0,12.4,0,24.8,0,37.1c3.4,0,6.8,0,10.2,0c0-6.9-0.1-13.9-0.1-20.8c1.2,6.8,2.3,13.7,3.5,20.8c2.6,0,5.2,0,7.8,0    c1-7.4,2.1-14.9,3.1-22.6c0.1,7.5,0.2,15.1,0.2,22.6c3.4,0,6.8,0,10.2,0c-0.2-15-0.4-30-0.6-45    C164.1,514.4,159.4,515.4,154.8,516.4z"/>
		<path fill="#1A3B8E" d="M189.7,550.7c-0.1-4.6-0.1-9.2-0.2-13.8c2.1-0.1,4.1-0.3,6.2-0.4c0-2.7-0.1-5.3-0.1-8    c-2.1,0.2-4.1,0.3-6.2,0.5c-0.1-3.6-0.1-7.2-0.2-10.8c2.3-0.3,4.5-0.5,6.8-0.8c0-2.7-0.1-5.3-0.1-8c-5.9,0.8-11.7,1.6-17.5,2.5    c0.2,15.5,0.4,31.1,0.7,46.6c5.9,0,11.7,0,17.6,0c0-2.7-0.1-5.3-0.1-8C194.2,550.6,192,550.6,189.7,550.7z"/>
		<path fill="#1A3B8E" d="M223.7,550.1c-2.3,0-4.6,0.1-6.9,0.1c-0.2-14.3-0.4-28.7-0.5-43.1c-3.6,0.3-7.2,0.7-10.7,1.1    c0.2,16.8,0.5,33.6,0.7,50.4c5.8,0,11.7,0,17.6,0C223.7,555.7,223.7,552.9,223.7,550.1z"/>
		<path fill="#1A3B8E" d="M257.7,508.9c-1.5-1.4-2.9-2.7-4.4-4.1c-6.9,0.2-13.8,0.6-20.6,1c0.2,17.6,0.3,35.2,0.5,52.7    c6.8,0,13.6,0,20.4,0c1.4-1.4,2.9-2.8,4.3-4.2c0-7.3-0.1-14.7-0.1-22c-0.8-0.8-1.6-1.7-2.4-2.5c0.8-0.8,1.6-1.7,2.4-2.5    C257.8,521.1,257.8,515,257.7,508.9z M243.6,513.9c0.7,0,1.5-0.1,2.2-0.1c0.3,0.4,0.7,0.8,1,1.3c0,3.3,0,6.6,0.1,9.9    c-0.3,0.3-0.7,0.6-1,0.9c-0.7,0-1.5,0-2.2,0.1C243.7,521.9,243.7,517.9,243.6,513.9z M246.1,549.9c-0.7,0-1.5,0-2.2,0    c0-5.1-0.1-10.2-0.1-15.2c0.7,0,1.5,0,2.2-0.1c0.3,0.4,0.7,0.8,1,1.2c0,4.4,0.1,8.8,0.1,13.2C246.8,549.3,246.5,549.6,246.1,549.9    z"/>
		<path fill="#1A3B8E" d="M271.9,504.4c-1.4,1.4-2.9,2.9-4.3,4.3c0,15.2,0.1,30.4,0.1,45.7c1.4,1.4,2.8,2.8,4.2,4.3    c5.4,0,10.8,0,16.2,0c1.4-1.4,2.9-2.8,4.3-4.2c0.1-15.2,0.1-30.4,0.2-45.6c-1.4-1.4-2.9-2.9-4.3-4.3    C282.8,504.3,277.3,504.3,271.9,504.4z M281.7,548.9c-0.3,0.3-0.7,0.6-1,0.9c-0.4,0-0.8,0-1.2,0c-0.4-0.3-0.7-0.6-1.1-0.9    c0-11.6,0-23.2,0-34.9c0.4-0.3,0.7-0.6,1.1-0.9c0.4,0,0.8,0,1.2,0c0.3,0.3,0.7,0.6,1,0.9C281.7,525.7,281.7,537.3,281.7,548.9z"/>
		<path fill="#1A3B8E" d="M302.5,504.7c-0.1,16.5-0.2,33.1-0.3,49.6c1.4,1.4,2.8,2.8,4.2,4.2c5.4,0,10.8,0,16.2,0    c1.4-1.4,2.9-2.8,4.3-4.1c0.2-16.1,0.4-32.3,0.5-48.4c-3.6-0.3-7.2-0.5-10.8-0.7c-0.1,14.6-0.3,29.2-0.4,43.7    c-0.3,0.3-0.7,0.5-1,0.8c-0.4,0-0.8,0-1.1,0c-0.4-0.3-0.7-0.6-1.1-0.8c0.1-14.6,0.2-29.3,0.4-43.9    C309.7,505,306.1,504.9,302.5,504.7z"/>
		<path fill="#1A3B8E" d="M337.3,506.8c-0.2,17.3-0.4,34.5-0.7,51.8c3.6,0,7.2,0,10.7,0c0.1-7.3,0.2-14.6,0.3-22    c0.7,0,1.5,0.1,2.2,0.1c0.3,0.3,0.7,0.6,1,0.8c-0.1,7-0.2,14-0.3,21c3.6,0,7.2,0,10.7,0c0.1-7.6,0.2-15.2,0.3-22.8    c-0.9-0.9-1.8-1.7-2.8-2.6c0.9-0.7,1.9-1.4,2.8-2.1c0.1-5.9,0.2-11.8,0.3-17.8c-1.4-1.5-2.8-2.9-4.2-4.4    C351,508.1,344.1,507.4,337.3,506.8z M351,527.8c-0.3,0.2-0.7,0.5-1,0.7c-0.7,0-1.5-0.1-2.2-0.1c0.1-4.1,0.1-8.2,0.2-12.3    c0.7,0.1,1.5,0.1,2.2,0.2c0.3,0.3,0.7,0.6,1,0.9C351.1,520.7,351.1,524.3,351,527.8z"/>
		<path fill="#1A3B8E" d="M386.2,532c-1.5-6.4-3-12.9-4.5-19.6c-3.3-0.6-6.6-1.1-9.8-1.6c-0.2,15.9-0.5,31.9-0.7,47.8    c3.3,0,6.7,0,10,0c0.1-6.4,0.2-12.7,0.3-19.1c1.5,6.5,3.1,12.8,4.6,19.1c3.3,0,6.5,0,9.8,0c0.2-14.5,0.4-29,0.5-43.5    c-3.3-0.7-6.6-1.3-9.9-1.9C386.3,519.5,386.2,525.8,386.2,532z"/>
		<path fill="#1A3B8E" d="M405.6,558.7c5.8,0,11.7,0,17.6,0c0-2,0-4,0-6c-2.3-0.1-4.5-0.2-6.8-0.3c0-3.7,0-7.4,0.1-11.1    c2,0.2,4.1,0.5,6.1,0.7c0-2,0-4.1,0-6.1c-2-0.3-4-0.7-6.1-1c0-2.9,0-5.8,0-8.7c2.2,0.5,4.5,1,6.7,1.5c0-2,0-4,0-6    c-5.7-1.6-11.4-3-17.2-4.3C405.8,531.1,405.7,544.9,405.6,558.7z"/>
	</g>
	<path fill="#1A3B8E" d="M312.6,177.1c-16.7,10.2-30.3,6.3-33.5,5.2l-0.2,0.3c7.3,7.4,9.4,17.7,9.9,21.5l0.5,0.1   c1.2-2.9,5.3-8,9.8-12.9l-6.5,0l14.5-8.3c2.6-2.7,4.7-4.7,5.6-5.6L312.6,177.1z"/>
	<g>
		<path fill="#1A3B8E" d="M413.7,199.4c31.9,9.7,49.3,17.1,74.9,27.7c-0.9,10.1-2.9,34.7-12.6,61.3c6.5,5.7,13.1,11.3,20.3,17.1    c13.7-40.5,13.2-67.7,14-69.3c-3.1-6.1-6.3-12.2-9.9-18.3c-31.1-10-53.8-16.5-92.7-25L413.7,199.4z"/>
		<path fill="#1A3B8E" d="M192.8,278.8c1.4-4,4-12.9,6.3-21.3c1.4-5.2,2.9-10.9,4.5-16.7c0,0,0,0,0,0c3.9-14.8,7.8-30.5,10.5-41    c0.2,1.1,0.3,2.2,0.6,3.3l0.4,0l0.7,0c0.1-0.3,0.1-0.5,0.2-0.8l1.5-6.7v-0.1c-0.1-12,3.9-24.7,11.7-37.7c0.7-1.1,1.4-2.3,2.1-3.4    l0.1-0.2l-0.8-6.8l-0.3-0.1c-69.3-25.6-81.1-51.5-85-60.1c-2.5-5.4-7.5-11.8-8.5-13.1c-0.2-0.3-0.5-0.6-0.9-0.8    c-2.9-2-5.7-4-8.5-6c-1-0.7-2-1.4-3-2.1c5.7-0.5,11.4-0.8,16.9-0.8c62.6,0,98.7,35,113,52.7c0.1,0,0.3,0,0.4,0c0.1,0,0.2,0,0.3,0    c0,0,0.1,0,0.1,0c5,0.4,14,1.8,19,3.9l0,0l0-0.1c-4.8-3-6.5-3.5-11.3-6.5c6.8-1.6,15.5-3.2,22.4-4.7l0.7-0.1l0.3-0.1    c0.1,0,0.8-0.1,2-0.2c1.2-0.1,3.2-0.2,5.5-0.3c0.1,0,0.1,0,0.2,0c4.2,0,8.2,0.4,11.8,1.3c0.2,0,18.6,4.1,40.5,23.8    c-1.4,4.4-4.3,13.6-4.3,13.6l2.7,3.8c15,20.9,31.7,43.3,50.9,68.6l-0.6,1.7c-0.3,0.1-0.6,0.2-0.9,0.3c-4.2,1.3-10.9,3.2-14.8,3.5    c-0.1,0-0.1,0-0.2,0c-2.2,0-2.3-0.4-6.1-2.5c-1.3-0.7-2.7-1.5-4-2.2l-3.1-1.8L331.6,181l0.1,2.1c0.4,0.5,0.8,1.1,1.2,1.6    c2.8,4,5.6,7.8,8.5,11.8l0,0c3.9,5.7,12.4,17,16.6,23l10.9,18.3l17.9,6.9c-1.6,4.8-2.4,7.9-4,12.8l-10.7,6.8    c-1.3,0.9-2.6,1.6-4,2.3c-6.9,3-7.2,2.7-7.2,2.7c-1.1,0.3-1.7,0.4-2.8,0.5l-0.4-0.3l-22.2-16.4l-8.2-6.3l-1.6-1.2    c-1.1,1.1-2.1,2.1-3,3c-0.3,0.3-0.7,0.7-1,1c-0.1,1.3-0.1,2.5-0.1,3.2c0,0,0,0,0,0c0,0,0,0.1,0,0.1c0,0.3,0,0.5,0,0.5    c-11.5-7.5-33.8-18-33.8-18c-1-4,0.9-7.9,1.7-9.3c-0.2-0.2-0.3-0.4-0.5-0.6l-0.6-1.2c-0.7,1-8,11.1-18.8,15.2    c-2.9,1.1-6,1.8-9.3,1.8c-1.4,0-2.8-0.1-4.3-0.3c-14.4-1-24.3-10.6-29-16.3c0,0-0.1-0.1-0.1-0.1l-0.1-0.1    c-0.1-0.1-0.7-0.8-1.7-2.2c-0.3-0.4-0.6-0.8-0.8-1.1c-0.2-0.3-0.2-0.3-0.4-0.6l-0.5,0.2c-0.5-0.9-1.1-2-1.6-2.9l-0.2,0.2    c0.3,1.8,0.5,3.6,0.8,5.5c0,0,0.3,0.7,1,1.8c0.5,0.8,1.3,1.9,2.3,3.2c3.2,4,6.5,7.8,11.3,10.5c0.4,0.2,0.9,0.5,1.3,0.7l0.1,0    l0.7,0.3l0.1,0c9.5,4.4,10.4,4.8,25,7.2l-0.9,3.7l15.1-3.5l12-2.8l-1.8,4.1l-0.1,0.3c0,0,1.7,0.1,4.4,0.5c0.4,0.1,0.8,0.1,1.2,0.2    c4,0.7,9.7,2.3,15.4,5.4c0.2,0.1,0.4,0.2,0.7,0.3c1.8,0.8,3.4,1.7,4.7,2.6c1.2,3.7,2.5,8,2.6,8.2l1.1,4.9l1.8,0.9    c0.2,0.1,19.9,6.9,33.8,6.9c0.9,0,1.7,0,2.5-0.1c1.3-0.1,2.8-0.4,4.4-0.8c2.8-0.7,6-1.9,9.4-3.6c2.1-1,4.4-2.2,6.7-3.6    c14.7,9.1,28.5,17.5,41.6,25.4c6.6,4,13,7.9,19.4,11.6l0.2,0.1l3.2-1.3l-0.8-0.6c-7-5.5-14-11.2-21-16.8    c-8.3-6.6-16.8-13.4-25.3-20.3c-2.1-1.7-4.3-3.4-6.4-5.2c0.6-0.4,1-0.7,1.4-1c4-1.6,8.1-3.2,12.1-4.8l0.3-0.1l0-0.4    c0.9-11.6,1.9-23.8,3-37.5l0.2-2.3l-0.2-0.2c-21.9-26.1-40.2-48.4-56.9-69.4c2.9-5.1,5.8-10.3,8.7-15.4l0.2-0.4l-2.5-2.3    c-11.2-10.5-16.3-13.3-23.3-17c3.7-3.2,14.4-13.4,21.3-26.3c11.1-21,12.6-39.6,7.8-61.8c-1.7-7.5-3.5-11.9-4.6-11.8    c0,0-0.2-0.1-0.6,0.3c-3.5,4.5-7.1,8.9-10.7,13.4c-3.5,5.1-7,10.1-10.5,15.2c-3,2.2-11.4,8.5-21.3,19.3l0.7-4.6l-10.5,16.3    c-6.1,8-11.9,17.3-16.2,27.7l-3,0.6l-0.2,0l-4.4,1l2.5,2.2c-3.5-0.1-11.1-0.2-11.1-0.2l-1.4,3.6c-3.9-0.2-11.1-2-11.1-2l-0.9,2.7    c-5.8-6.7-15.7-17.6-29.6-26.8c-2-1.3-4.1-2.6-6.2-3.8l0,0l-2.1-1.2L195.7,63l0.3,3.4c-17.8-6.1-36.9-8.8-57.2-8.8    c-8.9,0-17,0.1-26.3,1.4c-1.8,0.2-4.2,0.5-4.7,2.3c-0.5,1.8,0.2,3.6,1.7,4.6c6.9,4.8,13.8,9.6,20.7,14.4c1.5,2,5.2,6.8,7,10.8    c7.2,15.6,22.7,41.2,83.7,64.5c-4.3,10.3-6,17.9-7,26.6c-1.5-2.5-3.1-5.2-4.1-6.8c0.1-0.1-5.8,26.4-10.9,54.3l-90,66.4    c1.9,0,3.9,0,5.8,0c1.9-1,5.1-2.8,8.9-5c12.2-6.9,31.4-18,38-21.9c0,0,3-6.2,2.7,0.9c10.4-6.3,20.6-12.6,30.8-18.8    c-1.1,7.1-2.1,13.9-2.8,19.8c-0.2,2.2-0.7,6-0.9,7.9L192.8,278.8z M319.1,106.2c-3.5-1.5-6.3-2.6-8.1-3.1c-0.1,0-0.2-0.1-0.3-0.1    c-2.2-0.7-3.4-1-3.4-1c-1.1-0.3-2.3-0.5-3.6-0.7c0,0,0,0-0.1,0c0.9-9.9,20.4-39.4,20.4-39.4c-8.3,5.8-21.3,27.1-27,36.7    c-0.4,0.7-0.8,1.4-1.2,2c-0.1,0-0.2,0-0.3,0c-0.7,0-1.3,0-1.9,0c-0.2,0-0.5,0-0.7,0c8.6-19.5,22.3-35.1,32.4-44.8    c2.9-2.8,5.9-5.5,8.8-7.9c0.8-0.8,1.4-1.4,1.9-2c0.1-0.2,0.3-0.3,0.4-0.5c3.4-4.6,6.9-9.3,10.3-13.9L348,30    c1.2-1.6,2.8-3.3,4.1-4.7c0.9-0.9,1.7-1.6,2.4-2c0.2,0.3,0.6,0.9,1.1,2.7c0,0.1,0,0.1,0,0.2c4.5,20.2,0.4,39.7-12.2,57.9    c-9.2,13.4-20.1,21.5-22.3,23.1C320.4,106.8,319.8,106.5,319.1,106.2z M390.8,254.5l2.7-5.6l0.3-0.6l0.4-0.8l2.1-4.2l3.3-6.9    l-1.7,17l-8,2.9L390.8,254.5z M351.5,270.5c-13.7,0-26.7-4-28.1-5c-0.5-1.5-0.4-5.1-0.4-8.1c0.1,0,0.1,0,0.2,0c0,0,0,0,0,0    c2.1,0.5,4.1,0.9,6,1.4c14.5,3.8,22.6,8.3,26.9,10.9c0.2,0.1,0.4,0.2,0.6,0.3C354.8,270.6,351.5,270.5,351.5,270.5z"/>
	</g>
	<path fill="#1A3B8E" d="M289.3,142.9l2.6,7.3l-4.5-3.9c-6.5-5.3-14.2-9.6-22.9-12.8c-2.6,0.2-4.9,0.5-6.4,0.7   c4.3,2,8.3,4.5,11.8,7.6c2.5,2.3,7.9,7.8,4.5,10.9c-1.4,0.7-2.3,0.3-3.2-0.1l-0.4,0.4c0.4,0.4,1.5,1.1,2,1.4   c2.5,1.8,5.2,4.4,7.3,6.6c-0.3-3,1.6-4.5,4.1-5.6c-1-2-2.6-3.3-4-4.7c2.6,0.9,5.7,3.5,8.1,5.6c-1.5,0.8-2.5,1-3.3,2   c-6.5,8,11.6,15.7,14.2,5.5c1.4,0.4,2.8,0.8,4.3,1c-0.4,0.6-2.4,1.2-3.2,0.8c0.7,7.6-8,11.1-15.9,10.6l0.2,0.4   c6.8,2.9,19-2.6,23.8-7.5c0.8-0.8,1.5-2.3,2.5-2.8c0.6-0.3,2.3,0.6,3.5,1c2.8-1.5,11.8-6.3,17.8-9.6l-2.6,0.1   c-8,2.1-17.4,2.9-23.2,1.3c-6.5-2.2-15.4-14.3-16.8-16.2L289.3,142.9z M296.2,163c-0.7,1.1-1.5,2.3-3.7,2.2   c1.3-0.8,1.1-2.7,1.5-4.1C296.1,162,296.2,163,296.2,163z"/>
	<g>
		<path fill="#1A3B8E" d="M85,404.8c-5.7-25.8-11.4-52.3-17.1-79.8c-12,0-24.1,0-36.1,0c0,71.8,0,143.6,0,215.4    c11.9-5.7,23.8-11,35.8-15.7c0.1-27.5,0.2-55,0.3-82.5c5.8,26.1,11.5,51.4,17.2,75.9c11.8-4.2,23.7-7.9,35.6-11.2    c0.4-60.7,0.8-121.4,1.3-182c-12.2,0-24.4,0-36.6,0C85.3,351.6,85.2,378.2,85,404.8z"/>
		<path fill="#1A3B8E" d="M152.2,324.9c-5.2,4.6-10.4,9.2-15.5,14c-0.4,50-0.7,100.1-1.1,150.1c5.1,3.5,10.2,6.9,15.4,10.4    c19.8-4.3,39.6-7.6,59.5-9.9c5.3-4.9,10.6-9.7,15.9-14.4c0.2-45.8,0.4-91.6,0.6-137.4c-5.2-4.2-10.4-8.5-15.6-12.8    C191.6,324.9,171.9,324.9,152.2,324.9z M186.9,462.8c-1.2,1-2.5,2.1-3.7,3.1c-1.4,0.2-2.8,0.4-4.2,0.6c-1.3-0.7-2.6-1.4-3.9-2.1    c0.2-36.4,0.5-72.8,0.7-109.1c1.3-0.9,2.6-1.9,3.9-2.8c1.4,0,2.8-0.1,4.2-0.1c1.2,0.9,2.4,1.7,3.7,2.5    C187.3,390.9,187.1,426.8,186.9,462.8z"/>
		<path fill="#1A3B8E" d="M332.2,412.2c-3.4-2.8-6.9-5.6-10.3-8.3c3.4-2.4,6.8-4.9,10.2-7.3c-0.1-19.6-0.2-39.2-0.2-58.9    c-5.2-4.3-10.5-8.6-15.7-12.8c-24.9,0-49.7,0-74.6,0c-0.2,54-0.3,107.9-0.5,161.9c13.2-0.8,26.5-1.2,39.7-1.2    c0-23.2,0-46.4,0-69.5c2.7,0,5.4,0,8.2,0c1.2,0.9,2.5,1.7,3.7,2.6c0,22.4,0,44.7,0.1,67.1c13.3,0.3,26.5,1,39.7,2.1    C332.4,462.6,332.3,437.4,332.2,412.2z M289,389.9c-2.7,0-5.4,0-8.1,0c0-12.9,0-25.9,0-38.8c2.7,0,5.4,0,8.1,0    c1.2,0.8,2.4,1.7,3.7,2.5c0,11.3,0,22.5,0,33.8C291.5,388.2,290.3,389.1,289,389.9z"/>
		<path fill="#1A3B8E" d="M338.6,324.9c0,8.9,0.1,17.8,0.1,26.6c8.3,0.1,16.6,0.3,24.9,0.5c0.3,46.5,0.6,93,0.8,139.6    c13.2,1.9,26.4,4.2,39.5,7c-0.3-48.5-0.7-97-1-145.4c8.3,0.3,16.6,0.6,24.9,1c-0.1-9.7-0.1-19.5-0.2-29.2    C397.9,324.9,368.3,324.9,338.6,324.9z"/>
		<path fill="#1A3B8E" d="M487.3,324.9c0.1,25.7,0.2,51.5,0.3,77.2c-4-0.6-8-1.2-12-1.7c-0.1-25.2-0.3-50.4-0.4-75.5    c-13,0-26,0-39,0c0.4,60.6,0.8,121.3,1.3,182.1c13,3.6,25.9,7.7,38.7,12.3c-0.2-29.1-0.3-58.2-0.4-87.2c4,0.8,8,1.6,11.9,2.5    c0.1,29.7,0.2,59.5,0.4,89.2c12.8,5,25.5,10.5,38.2,16.6c0-71.8,0-143.6,0-215.4C513.3,324.9,500.3,324.9,487.3,324.9z"/>
	</g>
	<path fill="#1A3B8E" d="M285.1,602.5l-5,3.5l-39-35.9l-24.6,0c28.6,28.2,50.7,46.1,52.1,47.2l16,0l53.6-47.3h-9L285.1,602.5z"/>
	<path fill="#1A3B8E" d="M79.2,283.1c-8.2-24.5-10-44.2-11-55.1c-2.1-0.2-4.2-0.4-6.2-0.5c2-0.8,4-1.6,6-2.4c0-0.1,0-0.1,0-0.2   c32.1-12.7,72-25.8,111.8-36.5c1.3-1.8,2.6-3.5,3.9-5.2c-44.9,8.9-91.3,20.7-127.6,32.4c-3.6,6.1-6.8,12.3-10,18.3   c0.8,1.7,0,25.4,13,66.2C66.2,294.5,72.7,288.8,79.2,283.1z"/>
	<path fill="#1A3B8E" d="M154.5,92.1c43.6,44.4,67.8,47.4,78.5,45.5c-2.7-1.8-9.2-4.6-11.9-6.4c2.7,0,5.4,0,8.2,0   c-1.3-1.5-2.7-3-4-4.5c3.6,1,7.1,1.9,10.7,2.8c-6.1-7.1-14.4-13-23.4-18l-26.9-9.5l3.2-0.9c-16.3-5.9-29.8-8.6-33.2-9.3L154.5,92.1   z"/>
</g>
</svg>