<?xml version="1.0" encoding="UTF-8" standalone="no"?>
<svg id="Layer_1" height="365.45599" viewBox="0 0 272.00003 365.45599" width="272.00003" xmlns="http://www.w3.org/2000/svg">
   <path id="path8" d="m2 2v236.81174a46.72073 46.72073 0 0 0 18.406674 37.01658l115.593346 87.62768 115.59334-87.6059a46.72073 46.72073 0 0 0 18.40668-37.01657v-236.83353z" fill="#008aab" stroke-width=".7258153"/>
   <path id="path10" d="m9.7081628 9.708159v229.103581a38.983539 38.983539 0 0 0 15.3509922 30.89796l110.940865 84.07844 110.94086-84.07844a38.983539 38.983539 0 0 0 15.35099-30.89796v-229.103581z" fill="#fff" stroke-width=".7258153"/>
   <rect id="rect12" height="216.17682" stroke-width=".7258153" width="227.78259" x="22.112341" y="22.105083"/>
   <polygon id="polygon14" points="358.19 382.25 326.36 406.37 326.36 340.85 358.19 340.85" transform="matrix(.72581527 0 0 .72581527 -45.453803 1.2741846)"/>
   <polygon id="polygon16" points="312.05 417.22 280.23 441.34 280.23 340.85 312.05 340.85" transform="matrix(.72581527 0 0 .72581527 -45.453803 1.2741846)"/>
   <polygon id="polygon18" points="219.77 441.34 187.95 417.22 187.95 340.85 219.77 340.85" transform="matrix(.72581527 0 0 .72581527 -45.453803 1.2741846)"/>
   <polygon id="polygon20" points="173.63 406.37 141.81 382.25 141.81 340.85 173.63 340.85" transform="matrix(.72581527 0 0 .72581527 -45.453803 1.2741846)"/>
   <path id="path22" d="m24.028498 248.66831h23.059145v22.17366l-14.516307-11.01061a26.434192 26.434192 0 0 1-8.542838-11.16305z" stroke-width=".7258153"/>
   <polygon id="polygon24" points="234.09 340.85 265.91 340.85 265.91 452.18 250 464.24 234.09 452.18" transform="matrix(.72581527 0 0 .72581527 -45.453803 1.2741846)"/>
   <path id="path26" d="m239.45047 259.83136l-14.51631 11.01061v-22.17366h23.05916a26.434192 26.434192 0 0 1-8.54285 11.16305z" stroke-width=".7258153"/>
   <path id="path28" d="m130.19349 191.51762l-1.53146.33387a.28306796.28306796 0 0 1-.34839-.225l-.10888-.85646a.36290764.36290764 0 0 1  .0871-.3121l2.51132-2.10486h1.21937a.31935873.31935873 0 0 1  .3121.32662v11.1848a.32661688.32661688 0 0 1-.3121.33388h-1.50244a.33387502.33387502 0 0 1-.32662-.33388z" fill="#fff" stroke-width=".7258153"/>
   <path id="path30" d="m136.54438 194.11604v-.0508a3.2734269 3.2734269 0 0 1-1.80002-2.70003c0-1.93792 1.67663-3.18633 3.7815-3.18633 2.10486 0 3.85408 1.24841 3.85408 3.18633a3.3677829 3.3677829 0 0 1-1.79276 2.68552v.0653c.78387.3992 2.10486 1.41535 2.10486 2.90327 0 1.90163-1.60405 3.346-4.16618 3.346-2.56214 0-4.0936-1.45163-4.0936-3.346 0-1.50971 1.61857-2.67827 2.11212-2.90327zm2.01777 4.47828a1.6984077 1.6984077 0 0 0 1.81453-1.60405 1.8145382 1.8145382 0 1 0-3.62907 0 1.712924 1.712924 0 0 0  1.81454 1.60405zm1.58953-7.14202a1.5387284 1.5387284 0 0 0-1.62582-1.45163 1.516954 1.516954 0 0 0-1.54599 1.45163c0 .78388.4863 1.39356 1.58228 1.65486 1.06694-.21774 1.58953-.90727 1.58953-1.66938z" fill="#fff" stroke-width=".7258153"/>
   <path id="path32" d="m144.4848 199.67579l4.53635-9.4356h-4.60167a.34839133.34839133 0 0 1-.33388-.33387v-1.22663a.34113318.34113318 0 0 1  .33388-.32662h7.25815a.34113318.34113318 0 0 1  .32662.32662v.12338l-5.18959 10.92352a.64597559.64597559 0 0 1-.59516.47178h-1.29195c-.20323 0-.43549-.0508-.43549-.33388z" fill="#fff" stroke-width=".7258153"/>
   <path id="path34" d="m152.29457 194.27572c0-3.81779 1.60406-6.09685 4.39119-6.09685 2.78713 0 4.39117 2.27906 4.39117 6.09685 0 3.81779-1.60404 6.09685-4.39117 6.09685-2.78713 0-4.39119-2.27906-4.39119-6.09685zm6.49605 0c0-2.5839-.72582-4.04279-2.10486-4.04279-1.37906 0-2.11212 1.45163-2.11212 4.04279 0 2.59116.76936 4.0428 2.11212 4.0428 1.34276 0 2.10486-1.44438 2.10486-4.0428z" fill="#fff" stroke-width=".7258153"/>
   <path id="path36" d="m146.9308 56.01517h-66.876624v14.414698h9.10898v82.409062h-9.10898v14.41469h18.145379l5.356525-14.41469v0-20.43896h43.69408l-5.35652-14.40744h-38.32305v-47.562662h43.36021a23.763192 23.763192 0 0 1 21.00509 34.897192l5.92991 15.93164a38.170625 38.170625 0 0 0-26.94226-65.24353z" fill="#fff" stroke-width=".7258153"/>
   <polygon id="polygon38" fill="#fff" points="185.62 275.82 232.41 275.82 232.41 255.97 219.56 255.97 227.39 234.92 296.31 234.92 304.14 255.97 291.29 255.97 291.29 275.82 338.08 275.82 338.08 255.97 325.32 255.97 271.15 110.39 252.54 110.39 237.47 150.89 258.66 150.89 261.85 142.31 288.92 215.07 234.77 215.07 243.88 190.59 222.7 190.59 198.37 255.97 185.62 255.97" transform="matrix(.72581527 0 0 .72581527 -45.453803 1.2741846)"/>
</svg>
