<?xml version="1.0" encoding="utf-8"?>
<!-- Generator: Adobe Illustrator 19.2.1, SVG Export Plug-In . SVG Version: 6.00 Build 0)  -->
<svg version="1.1" id="Layer_1" xmlns="http://www.w3.org/2000/svg" xmlns:xlink="http://www.w3.org/1999/xlink" x="0px" y="0px"
	 viewBox="0 0 203.0302887 196.1940308" width="321.689970708" height="310.858308016" style="enable-background:new 0 0 203.0302887 196.1940308;" xml:space="preserve">
<style type="text/css">
	.st0{clip-path:url(#SVGID_2_);fill:#FFFFFF;}
	.st1{clip-path:url(#SVGID_2_);}
	.st2{clip-path:url(#SVGID_2_);fill:#ED1B2F;}
	.st3{clip-path:url(#SVGID_4_);}
</style>
<g>
	<defs>
		<rect id="SVGID_1_" width="203.030014" height="196.1940308"/>
	</defs>
	<clipPath id="SVGID_2_">
		<use xlink:href="#SVGID_1_"  style="overflow:visible;"/>
	</clipPath>
	<path class="st0" d="M180.7200165,160.0147095c0,4.0460205-3.2820129,7.3300171-7.32901,7.3300171
		s-7.32901-3.2839966-7.32901-7.3300171c0-4.0489502,3.2820129-7.3309937,7.32901-7.3309937
		S180.7200165,155.9657593,180.7200165,160.0147095"/>
	<path class="st0" d="M183.2613068,86.9680176c0,0,0.8849792,10.559021,1.3359985,17.5010376
		c1.901001-1.6080322,3.848999-3.2559814,3.848999-3.2559814c10.5209961-8.8670044,10.5209961-8.8670044,12.5809937-7.4560547
		l2.0029907,1.375l-0.7969971,2.2980347c-9.2330017,26.492981-21.4330139,45.2559814-30.0469971,56.3309937
		c-0.6409912,0.8239746-15.7090149,20.1099854-20.9909973,19.21698l-2.2709961-0.3850098l-0.4649963-2.8589478l0.1059875,0.7039795
		c-0.8710022-2.2260132-9.9700012-13.4320068-11.2900085-14.8800049l-2.0679932-2.2600098l2.131012-2.2039795
		c28.2980042-27.8029785,39.7460022-65.1270142,39.8599854-65.5010376c0,0,0.8120117-2.447998,1.1629944-4.3289795
		C180.2483063,82.3040771,182.9912872,82.8230591,183.2613068,86.9680176"/>
	<path class="st1" d="M171.9142914,162.2962646h0.776001v-1.7399902h0.6139832c0.4130249,0,0.6990051,0.0499878,0.8650208,0.1409912
		c0.276001,0.1700439,0.414978,0.5060425,0.414978,1.0150146v0.3510132l0.0150146,0.1389771l0.0109863,0.0510254
		l0.0110168,0.0429688h0.7309875l-0.026001-0.052002l-0.0409851-0.230957l-0.0140076-0.3270264v-0.3220215l-0.2380066-0.6859741
		c-0.1619873-0.2319946-0.4159851-0.3779907-0.7599792-0.434021l0.6359863-0.2139893
		c0.2929993-0.1820068,0.4370117-0.4749756,0.4370117-0.867981c0-0.5549927-0.2290039-0.9260254-0.6830139-1.1160278
		c-0.2600098-0.1049805-0.6600037-0.157959-1.20401-0.157959h-1.5449829V162.2962646z M174.1312714,159.9182739
		c-0.1659851,0.0650024-0.4109802,0.0969849-0.7399902,0.0969849h-0.7009888v-1.5969849h0.6619873
		c0.4320068,0,0.7430115,0.0549927,0.9389954,0.1610107c0.1960144,0.1129761,0.2929993,0.3280029,0.2929993,0.6500244
		C174.5842743,159.5682983,174.4322968,159.7952881,174.1312714,159.9182739 M176.3782806,157.2692871
		c-0.7819824-0.7819824-1.7299805-1.1719971-2.8460083-1.1719971c-1.1059875,0-2.0489807,0.3900146-2.8269958,1.1719971
		c-0.7839966,0.7839966-1.1799927,1.7290039-1.1799927,2.8339844c0,1.1160278,0.3919983,2.0650024,1.1700134,2.848999
		c0.7789917,0.7910156,1.7249756,1.1849976,2.8369751,1.1849976c1.1160278,0,2.0640259-0.3939819,2.8460083-1.1849976
		c0.7850037-0.7879639,1.1790161-1.7359619,1.1790161-2.848999
		C177.5572968,158.9953003,177.1632843,158.0492554,176.3782806,157.2692871 M175.9803009,157.65625
		c0.67099,0.6790161,1.0099792,1.493042,1.0099792,2.4470215c0,0.9620361-0.3389893,1.78302-1.0099792,2.4650269
		c-0.6720276,0.6749878-1.4910278,1.0130005-2.4480286,1.0130005c-0.9579773,0-1.7749939-0.3380127-2.4429932-1.0130005
		c-0.6679993-0.6820068-1.0039978-1.5029907-1.0039978-2.4650269c0-0.9539795,0.3380127-1.7680054,1.0079956-2.4470215
		c0.677002-0.6749878,1.4869995-1.0169678,2.4389954-1.0169678
		C174.4892731,156.6392822,175.3042755,156.9812622,175.9803009,157.65625"/>
	<polygon class="st0" points="159.1500092,150.2661133 135.2060089,153.2981567 148.1039886,174.7751465 172.1580048,170.7231445 
		161.0579987,150.2511597 	"/>
	<path class="st0" d="M19.7723999,86.9680176c0,0-0.8830109,10.559021-1.3350067,17.5010376
		c-1.8999939-1.6080322-3.848999-3.2559814-3.848999-3.2559814C4.0673981,92.3460693,4.0673981,92.3460693,2.0074005,93.757019
		l-2.0070038,1.375l0.8009949,2.2980347c9.2330017,26.492981,21.4360046,45.2559814,30.0500031,56.3309937
		c0.6389923,0.8239746,15.7059937,20.1099854,20.9880066,19.21698l2.2719879-0.3850098l0.4640045-2.8589478l-0.1040039,0.7039795
		c0.8670044-2.2260132,9.9710083-13.4320068,11.2879944-14.8800049l2.0639954-2.2600098l-2.1239929-2.2039795
		c-28.3019867-27.8029785-39.75-65.1270142-39.8629913-65.5010376c0,0-0.8150024-2.447998-1.1630096-4.3289795
		C22.7863922,82.3040771,20.0453949,82.8230591,19.7723999,86.9680176"/>
	<polygon class="st0" points="41.8432007,151.930542 28.9021912,169.2585449 52.6401978,173.1885986 67.824173,153.2975464 
		42.7761993,150.4015503 	"/>
	<path class="st0" d="M157.1374054,151.0280151c-23.7050171,17.2660522-46.3230286,18.7369995-54.9460144,18.5690308
		l-0.67099,0.210022l-0.6690063-0.210022c-8.6210022,0.1679688-31.2390137-1.3029785-54.9409943-18.5690308l-2.5890045-1.8849487
		l-14.417984,20.1159668l1.8419952,1.9060059c0.9909973,1.0250244,24.7630005,25.0289917,70.7749939,25.0289917
		c46.0130005,0,69.7879944-24.0039673,70.776001-25.0289917l1.8439941-1.9039917l-14.4179993-20.117981L157.1374054,151.0280151z"/>
	<path class="st0" d="M172.7379913,0.0005493H27.9069977l-0.654007,2.3060303
		C27.0129852,3.1546021,4.3169861,87.6365967,99.5809784,161.0605469l1.9389954,1.4940186l1.9400024-1.4940186
		C198.7309723,87.640564,176.0349884,3.1546021,175.7939911,2.3065796l-0.6600037-2.3060303H172.7379913z"/>
	<path class="st1" d="M181.8044891,110.9596558l-1.5970154-24.4549561c0,0-10.9400024,38.0670166-40.1990051,66.8120117
		l10.7160034,17.3839722c1.4230042-1.367981,30.6400146-23.1329956,48.4769897-74.3189697L181.8044891,110.9596558z"/>
	<path class="st1" d="M139.8944855,153.3023071l0.0509949-0.0480347
		c14.617981-14.3649902,24.6629944-31.0599976,31.053009-44.1619873
		c6.3909912-13.1049805,9.1159973-22.5900269,9.1219788-22.6119995l0.1759949,0.0180054l1.5840149,24.2799683l17.5079956-14.6799927
		l-0.1040039,0.3110352c-17.8399963,51.2049561-47.0839844,72.9939575-48.4979858,74.3529663l-0.0830078,0.0790405
		L139.8944855,153.3023071z M150.7424774,170.5612793c2.1959839-1.9379883,30.6839905-23.7009888,48.2669983-73.9019775
		l-17.1499939,14.3689575l-0.1350098,0.1110229l-1.5750122-24.1290283
		c-1.3769836,4.4840088-12.7119751,39.447998-40.0279846,66.3190308L150.7424774,170.5612793z M181.8044891,110.958252
		l0.0869751-0.0059814L181.8044891,110.958252z"/>
	<polygon class="st0" points="159.1725922,153.4421997 167.1155853,168.0872192 150.8145905,169.9152222 140.5145721,153.571228 	
		"/>
	<path class="st1" d="M140.3888092,153.4988403l18.7819824-0.1279907v0.0709839l0.0639954-0.0349731l7.9930115,14.7369995
		l-16.473999,1.8079834L140.3888092,153.4988403z M140.6388092,153.6378174l10.1659851,16.2040405l16.1950073-1.81604
		l-7.8710022-14.5139771L140.6388092,153.6378174z"/>
	<path class="st2" d="M21.1968079,110.9596558l1.595993-24.4549561c0,0,11.4199982,38.1079712,40.6759949,66.855957
		c-0.0769958-0.0130005-12.071991,14.3980103-12.071991,16.3730469c0,1.9759521-29.7580109-22.1660156-47.5950012-73.3519897
		L21.1968079,110.9596558z"/>
	<path class="st1" d="M3.7169952,96.409668l-0.1070099-0.3029785l17.5070038,14.6679688l1.5859985-24.2769775l0.1740112-0.0200195
		c0.0129852,0.0220337,2.8519897,9.5209961,9.3629913,22.6329956c6.5079956,13.1150513,16.6719971,29.8200073,31.2899933,44.1849976
		l-0.006012,0.0060425l0.0230103,0.0150146l0.0020142,0.0019531l-0.0820007,0.0610352l0.0499878,0.0509644
		c-0.0039978,0.0050049-0.0140076,0.0150146-0.026001,0.0289917c-0.0239868,0.026001-0.0610046,0.06604-0.1069946,0.1190186
		c-0.0910034,0.1049805-0.2250061,0.2590332-0.3919983,0.4580078c-0.3370056,0.3969727-0.8110046,0.96698-1.3789978,1.6569824
		c-1.1360168,1.3810425-2.6409912,3.243042-4.1430054,5.1660156c-3.0039978,3.8289795-6.0039978,7.9719849-5.9839935,8.8729858
		c0,0.1170044-0.1100006,0.1990356-0.2169952,0.1990356C49.0359955,169.8876953,20.9129944,145.6856689,3.7169952,96.409668
		 M51.2689972,169.751709c0.0390015-0.0120239,0.0269928,0,0.0390015-0.019043
		c0.0670013-2.0009766,10.8129883-15.0379639,12.0479736-16.3590088
		c-27.3499756-26.901001-39.0979767-61.9519653-40.5059814-66.3789673l-1.5639954,23.9699707l-0.0130005,0.1740112
		L3.9949951,96.6616821C21.1309967,145.6746826,49.2909851,169.7976685,51.2689972,169.751709 M21.1959991,110.9596558
		l0.0579987-0.0719604L21.1959991,110.9596558z"/>
	<rect x="43.9179993" y="153.3210449" class="st1" width="19.451004" height="0.1790161"/>
	<polygon class="st0" points="44.558197,153.5829468 35.7261963,168.0869751 50.554184,168.6589966 62.8861847,153.6389771 	"/>
	<path class="st0" d="M101.520401,172.7769165c0-0.1959839-27.7870178,2.4490356-57.4820099-19.1809692l-11.0079956,15.3619995
		c0,0,23.2949982,24.0599976,68.4900055,24.0599976c45.1959839,0,68.4919739-24.0599976,68.4919739-24.0599976
		l-11.0059814-15.3619995C129.310379,175.2259521,101.520401,172.5809326,101.520401,172.7769165"/>
	<path class="st1" d="M32.9668884,169.0187378l-0.0529938-0.0559692l11.1039886-15.493042l0.0730133,0.0510254
		c24.7469788,18.0280151,48.1640015,19.1790161,55.2519836,19.1790161c1.0400085,0,1.723999-0.026001,2.0209961-0.026001
		c0.07901,0,0.125,0,0.1679993,0.0079956c0,0,0,0,0,0.0009766c0.007019-0.0020142,0.0130005-0.0050049,0.0190125-0.0089722
		c0.0319824-0.0020142,0.0700073-0.0040283,0.1229858-0.0040283c0.2969971,0,0.9819946,0.0300293,2.0220032,0.0300293
		c7.0870056,0,30.5100098-1.151001,55.257019-19.1790161l0.0699768-0.0529785l11.1040039,15.4949951l-0.0509949,0.0559692
		c-0.0100098,0.0100098-23.3259888,24.0879822-68.5549927,24.0879822
		C56.2928925,193.10672,32.974884,169.0287476,32.9668884,169.0187378 M50.3688965,180.9077148
		c11.4609833,6.0090332,28.5699921,12.0200195,51.1519928,12.0200195c22.5809937,0,39.6889954-6.0109863,51.1499939-12.0200195
		c10.8529968-5.6889648,16.6279907-11.3599854,17.2250061-11.9599609l-10.9100037-15.2280273
		c-24.7650146,18.0050049-48.1920166,19.1560059-55.2900085,19.1560059c-1.0440063,0-1.7349854-0.0280151-2.0220032-0.0280151
		c-0.071991,0-0.1159973,0.0040283-0.1159973,0.0040283l-0.026001-0.0750122h-0.0229797l-0.0200195,0.0800171l-0.0169983-0.0020142
		c-0.0209961,0-0.0570068-0.0029907-0.1080017-0.0029907c-0.289978,0-0.9809875,0.0239868-2.0209961,0.0239868
		c-7.1000061,0-30.5230103-1.1539917-55.2849884-19.1569824l-10.9109955,15.2290039
		C33.7548828,169.5507202,39.5238953,175.2237549,50.3688965,180.9077148"/>
	<path class="st1" d="M129.9200897,183.8529053c2.5889893-0.7919922,2.3009949-3.3809814,1.6659851-5.7399902
		c-0.6459961-2.3829956-1.7980042-4.6829834-4.7810059-3.7699585l-2.6309814,0.8039551l2.9299927,9.5680542L129.9200897,183.8529053
		z"/>
	<path class="st1" d="M105.8306122,182.1262207c0.1219788,2.7740479,0.5609741,5.4430542,3.4869995,5.3430176
		c2.9159851-0.1019897,3.1849976-2.7999878,3.098999-5.5700073c-0.0640259-2.2919922-0.5200195-4.9790039-3.4390259-4.8720093
		C106.0045929,177.1292725,105.7505951,179.8322754,105.8306122,182.1262207"/>
	<path class="st1" d="M95.7172089,186.019043c0.7119751-0.855957,0.8869934-3.2919922,0.9129944-3.9889526
		c0.0799866-2.2930298-0.1830139-4.9980469-3.1560059-5.1000366c-2.9230042-0.1009521-3.3649902,2.5770264-3.4460144,4.8720093
		c-0.065979,2.7750244,0.1820068,5.4639893,3.1029968,5.5679932c0.7369995,0.026001,1.5860291-0.2389526,2.0250244-0.6499634
		l1.0899963,0.9719849l0.5799866-0.6730347L95.7172089,186.019043z"/>
	<path class="st0" d="M30.309906,3.1769409c0,0-23.45401,82.4130249,71.2099762,155.3690186
		C196.1858978,85.5899658,172.7378998,3.1769409,172.7378998,3.1769409H30.309906z"/>
	<path class="st1" d="M101.4654999,158.6167603C38.1414948,109.8157959,27.6414948,56.770752,27.6445007,26.9787598
		c0-14.7659912,2.5769958-23.8219604,2.5800018-23.8269653l0.0169983-0.0650024h142.5620117l0.019989,0.0650024
		c0,0.0050049,2.572998,9.0570068,2.572998,23.8169556c0.0029907,29.7920532-10.4949951,82.8430176-73.821991,131.6480103
		l-0.0559998,0.0410156L101.4654999,158.6167603z M27.8235016,26.9787598
		c0.0019989,29.7420044,10.470993,82.6959839,73.6950073,131.4530029
		C164.7484894,109.6717529,175.217514,56.7107544,175.217514,26.96875c0-14.0299683-2.3200073-22.8659668-2.5510254-23.7030029
		H30.3784943C30.1555023,4.1027832,27.8235016,12.9437866,27.8235016,26.9787598 M30.3095093,3.2657471V3.1767578V3.2657471z"/>
	<path class="st1" d="M101.4654999,158.6165161C42.8174896,113.4135742,29.4774933,64.5705566,27.8304901,33.9345703
		l0.1790009-0.0090332c1.6470032,30.585022,14.9490051,79.3439941,73.5110016,124.5059814
		c58.5610046-45.1619873,71.867981-93.9209595,73.5660095-124.5059814l0.1779785,0.0090332
		c-1.697998,30.6359863-15.0419922,79.4790039-73.6900024,124.6819458l-0.0559998,0.0420532L101.4654999,158.6165161z"/>
	<polygon class="st1" points="89.0995941,33.9314575 114.0095673,33.9314575 114.0095673,148.3125 101.5205841,158.5465088 
		89.0995941,148.338501 	"/>
	<path class="st1" d="M89.0873871,148.338562V33.9315796h0.0119934v-0.0130005l24.9219971,0.0130005l-0.0050049,114.3869629
		l-12.5049744,10.2350464L89.0873871,148.338562z M89.1063995,148.3295288l12.4049988,10.2070313l12.4859924-10.223999
		l0.0109863-114.3690186H89.1113739L89.1063995,148.3295288z"/>
	<path class="st2" d="M175.1214142,33.9314575c1.0099792-18.8129883-2.3840027-30.7549438-2.3840027-30.7549438H30.3094177
		c0,0-3.4000092,11.9419556-2.3899994,30.7549438H175.1214142z"/>
	<path class="st1" d="M27.8336029,34.0205688l-0.0059967-0.0839844c-0.131012-2.4349976-0.1860046-4.7540283-0.1860046-6.9459839
		c0-14.7720337,2.5800018-23.8340454,2.5820007-23.8389893l0.0179901-0.0650024h142.5629883l0.0190125,0.0650024
		c0,0.0049438,2.572998,9.0609741,2.572998,23.8269653c0,2.1970215-0.0559998,4.5180054-0.1860046,6.9580078l-0.0050049,0.0839844
		H27.8336029z M175.1205902,33.9315796v-0.0900269V33.9315796z M175.0355988,33.8415527
		c0.1269836-2.4039917,0.1819763-4.6959839,0.1819763-6.8629761c0-14.0349731-2.3209839-22.875-2.5509949-23.7130127H30.3786011
		c-0.2230072,0.8380127-2.5579987,9.6830444-2.5579987,23.7250366c0,2.1640015,0.0540009,4.4500122,0.1819916,6.8509521H175.0355988
		z"/>
	<path class="st1" d="M49.7116089,168.4562378c-1.2370148,2.4870605-2.1470032,5.0320435,0.4579926,6.3600464
		c2.602005,1.3239746,4.1369934-0.9000244,5.4129944-3.3649902c1.0570068-2.0410156,1.9570007-4.6070557-0.647995-5.9320068
		C52.2846069,164.1692505,50.7496033,166.4122925,49.7116089,168.4562378"/>
	<path class="st0" d="M63.5643158,12.7923584h2.75V8.9223633h-9.7929993v3.8699951h2.6309967v8.1340332h4.4120026V12.7923584z
		 M105.0593109,23.2793579c-1.678009,0-3.0420227,1.3359985-3.0420227,3.0090332
		c0,1.677002,1.3640137,3.0780029,3.0420227,3.0780029c1.6759949,0,3.0429993-1.401001,3.0429993-3.0780029
		C108.1023102,24.6153564,106.7353058,23.2793579,105.0593109,23.2793579 M54.3503113,9.9953613
		c-1.4799957-1.3949585-4.4790039-2.2909546-6.6380005-2.2909546c-4.0930023,0-7.0930023,2.7539673-7.0930023,6.1679688
		c0,3.1879883,2.2920074,4.5239868,5.4150085,5.6149902c1.9049988,0.632019,4.2249908,1.2300415,4.2249908,3.3590088
		c0,1.5820313-1.1920013,2.9719849-3.1279907,2.9719849c-2.0320129,0-3.7390137-1.4190063-4.3840027-3.0029907l-3.0599976,2.5390015
		c1.6759949,2.375,4.1239929,4.0120239,7.4759979,4.0120239c4.9639893,0,7.996994-2.9200439,7.996994-7.0419922
		c0-6.901001-9.6409912-5.4540405-9.6409912-8.9180298c0-1.3369751,1.4529877-2.3179932,2.9639893-2.3179932
		c1.5839996,0,2.7440033,0.6530151,3.6439972,1.690979L54.3503113,9.9953613z M86.6512909,17.6513672l-0.0610046-8.5410156
		h-4.5749817V29.366394h4.5749817v-9.1080322l7.5559998,9.1080322h5.881012l-9.3919983-10.9070435l8.8919983-9.348999h-5.6300049
		L86.6512909,17.6513672z M61.3863068,23.2793579c-1.6730042,0-3.0429993,1.3359985-3.0429993,3.0090332
		c0,1.677002,1.3699951,3.0780029,3.0429993,3.0780029c1.6749878,0,3.0480042-1.401001,3.0480042-3.0780029
		C64.4343109,24.6153564,63.0612946,23.2793579,61.3863068,23.2793579 M130.8722992,23.2793579
		c-1.6759949,0-3.0419922,1.3359985-3.0419922,3.0090332c0,1.677002,1.3659973,3.0780029,3.0419922,3.0780029
		c1.6749878,0,3.0409851-1.401001,3.0409851-3.0780029C133.9132843,24.6153564,132.547287,23.2793579,130.8722992,23.2793579
		 M165.8272858,23.2793579c-1.6719971,0-3.0429993,1.3359985-3.0429993,3.0090332
		c0,1.677002,1.3710022,3.0780029,3.0429993,3.0780029c1.6740112,0,3.0420227-1.401001,3.0420227-3.0780029
		C168.8693085,24.6153564,167.501297,23.2793579,165.8272858,23.2793579 M159.5253143,9.6413574
		c-1.4869995-0.7379761-3.1800232-1.157959-4.9030151-1.157959c-6.4460144,0-10.848999,4.9719849-10.848999,10.5960083
		c0,5.473999,4.5799866,10.2869873,10.7609863,10.2869873c1.78302,0,3.3860168-0.5010376,4.9910278-1.184021v-4.6040039
		c-1.1960144,1.2369995-3.03302,2.1030273-4.8720093,2.1030273c-3.9989929,0-6.447998-3.3410034-6.447998-6.6830444
		c0-3.4140015,2.3630066-6.8329468,6.4779968-6.8329468c1.8359985,0,3.6459961,0.789978,4.8420105,2.1019897V9.6413574z
		 M128.5813141,12.4333496V8.9713745h-11.8150024V29.366394h4.6429749V20.385376h6.7290039v-3.4630127h-6.7290039v-4.4890137
		H128.5813141z"/>
	<polygon class="st1" points="43.5429077,170.5522461 46.1159058,166.590271 48.9098969,168.4072876 49.454895,167.5692749 
		46.6609039,165.7522583 48.4449005,162.9972534 51.457901,164.9522705 52.0028992,164.1142578 48.059906,161.557251 
		42.6128998,169.9472656 	"/>
	<path class="st0" d="M54.5462952,170.9515991c-1.3220062,2.5770264-2.2840118,3.8100586-3.9250031,2.9740601
		c-1.6410065-0.8380127-1.2050018-2.342041,0.0999908-4.9220581c0.9960022-1.9909668,2.1920013-3.3929443,3.7109985-2.6199951
		C56.0022888,167.1876221,55.5722809,168.9736328,54.5462952,170.9515991"/>
	<path class="st1" d="M57.4532013,173.475647l1.7979736,0.7220459c1.2060242,0.4890137,1.2590027,1.4320068,0.8840027,2.3590088
		c-0.2489929,0.6199951-0.6119995,1.8099976-0.6300049,2.4949951l1.1970215,0.4819946l0.0870056-0.210022l-0.125-0.7260132
		c0.1829834-0.730957,0.394989-1.4359741,0.6380005-2.1449585c0.3499756-1.2950439,0.2089844-1.8030396-0.9450073-2.394043
		l0.0090027-0.0279541c1.1349792,0.2839966,2.1159973-0.2230225,2.5999756-1.2969971
		c0.9220276-2.1130371-0.1099854-3.1190186-2.0509949-3.9070435l-2.3869781-0.9649658l-3.7510071,9.2769775l1.026001,0.4169922
		L57.4532013,173.475647z"/>
	<path class="st0" d="M59.1777039,169.2075195l1.4479828,0.5840454c0.6920166,0.2789917,1.927002,0.8200073,1.3049927,2.4279785
		c-0.625,1.6300049-1.9899902,1.164978-2.4809875,0.9780273l-1.6210022-0.651001L59.1777039,169.2075195z"/>
	<polygon class="st1" points="64.5547943,171.375 66.9557648,172.3450317 63.5807648,180.6970215 64.6067657,181.1100464 
		67.9807892,172.7610474 70.3807831,173.7290039 70.7557831,172.8030396 64.9297943,170.4520264 	"/>
	
		<rect x="65.4981918" y="177.2678375" transform="matrix(0.3091123 -0.9510255 0.9510255 0.3091123 -120.4046021 189.9026489)" class="st1" width="10.005105" height="1.1071434"/>
	<path class="st1" d="M72.2016144,181.1853027c-0.3690186,1.7470093,0.6089783,2.8400269,2.3849792,3.2180176
		c1.7780151,0.3790283,3.1130066-0.2219849,3.4859924-1.9719849l1.5800171-7.4229736l-1.0840149-0.2330322l-1.4960022,7.0360107
		c-0.151001,0.7700195-0.5419922,1.9819946-2.2789917,1.6149902c-1.7330017-0.3670044-1.6049805-1.6380005-1.4259949-2.4030151
		l1.4960022-7.0349731l-1.0859985-0.2310181L72.2016144,181.1853027z"/>
	<path class="st1" d="M86.3917084,179.1306152c0.4959717-1.8209839-0.4040222-2.9799805-2.1920166-3.355957
		c-1.5929871-0.342041-2.9490051,0.473999-3.2940063,2.0910034c-0.2089844,0.9689941-0.1380005,1.7999878,0.6889954,2.4679565
		c0.460022,0.3810425,1.2650146,0.8410034,1.7550049,1.1670532c0.9140015,0.5869751,1.5100098,0.7269897,1.1960144,2.2129517
		c-0.2460022,1.1490479-1.1350098,1.5460205-2.2330017,1.31604c-1.632019-0.3470459-1.7090149-1.3210449-1.3500061-2.7550049
		l-1.0830078-0.2310181c-0.0969849,0.5230103-0.2779846,1.3029785-0.1699829,1.8280029
		c0.2879944,1.4030151,1.3789978,1.9199829,2.3429871,2.1259766c1.8779907,0.3990479,3.2720032-0.4379883,3.6650085-2.2890015
		c0.2770081-1.2929688,0.0780029-2.0189819-1.631012-3.105957c-0.4779968-0.3070068-0.947998-0.6090088-1.4279785-0.9140015
		c-0.5740051-0.3710327-0.7850037-0.848999-0.6440125-1.5300293c0.1600037-0.756958,0.5400085-1.7119751,2.1210022-1.3779907
		c1.0830078,0.2340088,1.4639893,1.1160278,1.1730042,2.1190186L86.3917084,179.1306152z"/>
	<path class="st0" d="M94.3545074,186.0385132c-0.4120178,0.2780151-0.7720032,0.335022-1.2140198,0.3310547
		c-1.7089844-0.0060425-2.072998-1.8600464-1.9809875-4.0890503c0.1159973-2.8909912,0.4620056-4.4140015,2.3049927-4.3519897
		c1.8389893,0.06604,2.0799866,1.6119995,2.0029907,4.5029907c-0.0220032,1.06604-0.3110046,2.4730225-0.5539856,2.8520508
		l-0.9039917-0.7790527l-0.6150208,0.7130127L94.3545074,186.0385132z"/>
	<path class="st1" d="M98.3097076,184.9577026c-0.0640259,1.7850342,1.0899963,2.6950073,2.9059753,2.7560425
		c1.8150024,0.0670166,3.03302-0.7609863,3.0930176-2.5490112l0.2639771-7.5859985l-1.1059875-0.0369873l-0.2510071,7.1870117
		c-0.0130005,0.7879639-0.1889954,2.0479736-1.9649963,1.9859619c-1.7749939-0.0599976-1.8649902-1.3330078-1.8259888-2.1170044
		l0.2569885-7.1900024l-1.1090088-0.0369873L98.3097076,184.9577026z"/>
	<path class="st0" d="M111.2719879,181.9644165c0.0899963,2.8960571-0.1500244,4.4380493-1.9930115,4.5
		c-1.8389893,0.06604-2.1849976-1.4559937-2.2969971-4.3519897c-0.0930176-2.223999,0.2720032-4.0249634,1.9769897-4.0839844
		C110.7209625,177.9654541,111.2119598,179.7364502,111.2719879,181.9644165"/>
	<polygon class="st1" points="118.6581879,186.1762085 118.0861664,181.4892578 121.3931732,181.0822144 121.2741852,180.0932617 
		117.9601593,180.4952393 117.5631866,177.2402344 121.1221771,176.8042603 121.002182,175.8092651 116.3411713,176.3842163 
		117.5591583,186.314209 	"/>
	<polygon class="st1" points="124.7479095,185.0179443 122.6618805,175.2259521 121.5808868,175.4589844 123.6638947,185.2469482 	
		"/>
	<path class="st0" d="M125.5271149,175.7762451l1.6949768-0.5149536c1.7070007-0.5220337,2.4609985,0.8369751,3.20401,2.9959717
		c0.9769897,2.8280029,0.696991,4.1810303-0.8619995,4.6569824l-1.697998,0.5210571L125.5271149,175.7762451z"/>
	<polygon class="st1" points="139.5596161,180.9612427 139.2686005,180.005249 135.5156097,181.1512451 134.4355927,177.6172485 
		137.9326019,176.5482788 137.6415863,175.5892944 134.1436005,176.6602783 133.1725922,173.4953003 136.9036102,172.3572998 
		136.6085968,171.399292 131.8235931,172.8622437 134.7526093,182.4312744 	"/>
	<polygon class="st1" points="145.9358063,178.300354 145.5627899,177.3703613 141.7777863,178.9043579 138.4027863,170.5523682 
		137.3767853,170.9653931 141.1248016,180.2423706 	"/>
	
		<rect x="145.11763" y="167.9807892" transform="matrix(0.890962 -0.4540778 0.4540778 0.890962 -62.6647758 85.0088043)" class="st1" width="1.1107223" height="10.0084724"/>
	<path class="st1" d="M149.4427948,174.0014038c0.8109741,1.592041,2.2659912,1.8240356,3.8849792,1
		c1.6150208-0.8239746,2.2780151-2.1359863,1.4630127-3.7299805l-3.4440002-6.7639771l-0.9880066,0.5020142l3.2669983,6.4089966
		c0.3699951,0.6959839,0.8259888,1.8880005-0.7539978,2.690979c-1.5830078,0.8070068-2.2749939-0.2609863-2.625-0.9710083
		l-3.2640076-6.4049683l-0.9849854,0.5019531L149.4427948,174.0014038z"/>
	<path class="st1" d="M158.3008881,163.2276001c-0.9070129-1.6509399-2.3590088-1.8609619-3.9110107-0.8919678
		c-1.381012,0.8629761-1.7900085,2.3950195-0.9120178,3.8010254c0.5180054,0.8319702,1.1490173,1.3859863,2.2080078,1.2929688
		c0.6000061-0.0469971,1.4940186-0.2730103,2.072998-0.3850098c1.0679932-0.2069702,1.5920105-0.5219727,2.3999939,0.7670288
		c0.6190186,0.9949951,0.2610168,1.901001-0.6949768,2.4939575c-1.4129944,0.8840332-2.1430054,0.2390137-2.8840027-1.0449829
		l-0.9420166,0.5859985c0.2980042,0.4470215,0.7109985,1.132019,1.1500244,1.4370117
		c1.1819763,0.8079834,2.3259888,0.4240112,3.1629944-0.1060181c1.6279907-1.0119629,2.0509949-2.5830078,1.0449829-4.1889648
		c-0.6959839-1.1190186-1.3459778-1.5029907-3.3299866-1.0960083c-0.5570068,0.1109619-1.1060181,0.2160034-1.6620178,0.3309937
		c-0.6739807,0.1339722-1.1579895-0.065979-1.5269775-0.6539917c-0.4089966-0.6550293-0.8009949-1.6069946,0.5709839-2.4639893
		c0.9360046-0.5859985,1.8300171-0.2130127,2.3139954,0.7099609L158.3008881,163.2276001z"/>
	<path class="st1" d="M154.2989044,159.5168457l0.0529785-0.1519775l3.0370178,1.0139771l-0.052002,0.1520386
		L154.2989044,159.5168457z M45.5709076,160.3788452l3.0369873-1.0139771l0.0510101,0.1519775l-3.0370026,1.0140381
		L45.5709076,160.3788452z"/>
</g>
<g>
	<defs>
		<path id="SVGID_3_" d="M27.9259949,33.9380493c1.655014,30.5979614,14.9730072,79.4169922,73.5980072,124.6049805
			c58.625-45.1879883,71.9440002-94.007019,73.6560059-124.6049805H27.9259949z"/>
	</defs>
	<clipPath id="SVGID_4_">
		<use xlink:href="#SVGID_3_"  style="overflow:visible;"/>
	</clipPath>
	<polygon class="st3" points="174.9716949,62.1468506 167.3476715,86.1668701 35.0236969,86.1668701 26.4136963,62.1468506 	"/>
	<path class="st3" d="M35.0137939,86.1705322L26.412796,62.1345215h148.5579834v0.0120239l0.0110168,0.0020142
		l-7.6340027,24.0289917L35.0137939,86.1705322z M35.0227966,86.1535034l132.3139801,0.0100098l7.6170044-24.0050049
		L26.4237823,62.1425171L35.0227966,86.1535034z"/>
</g>
</svg>
