<?xml version="1.0" encoding="utf-8"?>
<!-- Generator: Adobe Illustrator 16.0.4, SVG Export Plug-In . SVG Version: 6.00 Build 0)  -->
<!DOCTYPE svg PUBLIC "-//W3C//DTD SVG 1.1//EN" "http://www.w3.org/Graphics/SVG/1.1/DTD/svg11.dtd">
<svg version="1.1" id="Layer_1" xmlns="http://www.w3.org/2000/svg" xmlns:xlink="http://www.w3.org/1999/xlink" x="0px" y="0px"
	 width="223.718px" height="148.319px" viewBox="0 0 223.718 148.319" enable-background="new 0 0 223.718 148.319"
	 xml:space="preserve">
<path fill="#FFFFFF" d="M89.717,134.054c-0.093-0.026-0.173-0.033-0.269-0.033s-0.199,0-0.302,0l-49.4,0.007l11.759-16.853
	l-5.888,1.194l3.989-4.36l-6.787,1.666l4.431-5.311c0.06-0.066,2.32-2.768,5.924-5.449c3.561-2.648,8.739-5.516,14.573-5.449
	c2.267,0.026,19.229,0,25.943,0h1.005l0.793-3.877c0.03-0.139,1.593-7.752,8.048-14.517c-1.971,0.239-4.288,0.578-6.88,1.062
	c-8.4,1.566-19.571,4.64-30.719,10.646l-6.651,3.578c0,0,4.64-8.636,6.608-11.702c1.958-3.061,4.839-7.242,8.526-11.742
	c6.219-7.593,14.845-16.235,25.346-21.877c-2.051-0.438-4.58-0.916-7.517-1.334c-8.559-1.228-20.577-2.031-34.379-0.312l-5.957,0.75
	l3.972-4.5c0.083-0.093,3.538-3.989,9.694-8.237c3.91-2.695,8.941-5.549,14.908-7.64c-4.474-0.637-10.069-1.321-16.352-1.865
	c-15.94-1.374-36.128-1.785-53.479,1.905l-2.393,0.464l-8.081,1.998L0,31.855l8.908-6.146C9.004,25.643,35.481,7.356,71.845,1.668
	c36.457-5.702,82.81,1.288,122.224,51.554c0.836,0.564,3.246,2.23,6.349,4.852c3.837,3.246,8.771,7.978,13.112,13.939
	c8.689,11.935,15.138,29.046,5.071,48.646l-2.423,4.713l-3.013-8.669l-5.271,17.331h-12.17l-1.155,1.566
	c-0.007,0.79-0.126,1.998-0.487,3.883c-0.913,4.746-6.163,8.848-12.373,8.835c-8.257-0.021-42.317,0-54.053,0
	c-5.712,0-8.679-2.456-9.512-5.987c-0.412-1.766-0.239-3.591,0.086-5.091c-2.466-0.192-7.444,0.869-7.444,0.869l2.506-1.56
	c-2.403-0.054-7.434,0.902-7.434,0.902l5.257-3.405L89.717,134.054z M98.335,99.459l1.235-0.007h12.312
	c0.398-2.303,1.188-5.874,2.658-9.272c-0.401,0.146-0.826,0.299-1.261,0.471c-4.069,1.521-9.343,3.896-14.284,7.269l-2.257,1.54
	H98.335z M139.851,99.466h27.067c-8.821-2.615-16.833-2.781-22.939-2.197c-3.577,0.345-6.992,1.148-9.518,1.858
	c-0.372,0.106-0.737,0.213-1.089,0.325h4.02L139.851,99.466z M130.216,93.804c-3.481,1.58-7.514,3.604-10.48,5.648h9.362
	l0.212-2.124C129.319,97.222,129.473,95.769,130.216,93.804"/>
<path fill="#002B5C" d="M121.321,134.93c-1.526-0.152-3.853,0.08-3.853,0.08c2.015-1.327,2.571-1.467,2.691-1.48
	c-3.744,0.054-5.801,0.83-5.801,0.83c1.245-1.102,2.432-1.938,3.504-2.582l-24.974,0.007l0.647-1.447c0,0-2.253,1.414-4.387,1.414
	l-45.046,0.006l12.512-17.935l-4.617,0.937l4.338-4.739l-7.341,1.805c0,0,8.513-10.201,18.728-10.089c2.267,0.026,19.242,0,25.966,0
	c8.771,0,9.196,1.998,9.213,2.271c-0.023-2.098-2.313-2.29-2.313-2.29h36.796l2.462,0.02h44.127l30.307,3.498l-8.067,26.53
	l-11.636,0.007l-2.323,3.146c0,0,0.269,0.67-0.401,4.135c-0.667,3.479-4.796,7.01-10.139,6.996c-8.258-0.02-42.321,0-54.054,0
	C117.528,146.048,120.243,137.545,121.321,134.93"/>
<path fill="#FFD200" d="M136.08,130.364l-1.752,5.091c-0.545-0.729-1.331-1.354-2.479-1.36c-1.517,0-3.189,1.148-3.727,2.602
	c-0.551,1.467,0.338,2.608,1.858,2.608c1.165,0.007,2.27-0.471,3.368-1.234l-2.015,4.998c-0.949,0.372-2.9,0.524-3.81,0.524
	c-3.979-0.007-5.983-2.974-4.563-6.783c0.441-1.188,1.155-2.304,2.051-3.279c-1.463,0.054-3.375,0.232-3.375,0.232
	c2.539-1.507,3.966-1.739,4.514-1.759c-3.721-0.086-5.708,0.518-5.708,0.518c5.027-2.423,9.418-3.418,13.723-2.622
	C134.849,129.986,135.496,130.145,136.08,130.364 M126.15,132.003l0.256,0.007C126.406,132.01,126.326,131.997,126.15,132.003"/>
<path fill="#002B5C" d="M10.192,27.581c0,0,104.575-72.224,182.318,27.333c0,0,43.134,27.593,24.074,64.703l-4.013-11.536
	c0,0-17.553-0.245-39.875-9.027c-22.318-8.774-41.126-1.507-41.126-1.507s0.501-5.011,4.766-8.774c0,0-20.062,7.527-22.571,13.547
	c0,0,1.002-10.54,5.768-16.056c0,0-11.536,2.761-21.817,9.776c0,0,2.257-11.031,12.788-17.795c0,0-22.82,0.246-45.64,12.532
	c0,0,16.299-30.341,41.627-40.377c0,0-20.812-6.77-48.899-3.259c0,0,13.289-15.047,34.356-17.802
	C91.947,29.34,45.554,20.061,10.192,27.581"/>
<path fill="#E21937" d="M67.305,104.909h0.803l1.583,0.007l8.028,0.007l0.979,14.662l3.926-12.758
	c0.073-0.411,0.096-0.855-0.057-1.194c-0.318-0.71-1.082-0.75-1.082-0.75l4.145,0.04l6.508,0.006c7.321,0,12.25,2.769,11.204,9.539
	l2.336-7.58c0.083-0.419,0.113-0.896-0.046-1.241c-0.319-0.711-1.082-0.751-1.082-0.751l4.148,0.033l13.812,0.007l-1.935,6.293
	l-7.395-0.007l-0.677,2.197l6.754,0.006l-1.836,5.98l-6.757-0.006l-0.697,2.257l7.653,0.006l-1.935,6.286l-16.484-0.007l2.788-9.066
	c-2.659,5.608-8.437,9.066-14.752,9.066l-7.985-0.007h-3.126h-6.16l0.083-2.874h-6.627l-1.586,2.868h-9.283l10.524-15.665
	l0.037-0.08c0.381-0.77,0.587-1.413,0.657-1.938c-2.34-0.146-5.672,1.082-5.672,1.082c1.6-1.162,3.302-2.124,5.048-2.828
	c-1.889-1.348-7.255,0.624-7.255,0.624C59.446,106.555,63.389,104.909,67.305,104.909 M94.048,116.737
	c0.996-3.232-0.538-4.606-3.74-4.606h-0.544l-2.741,8.907h0.544C90.483,121.044,93.119,119.757,94.048,116.737 M66.674,119.598
	h3.521l0.226-4.056c0.04-0.982,0.192-1.991,0.332-2.968L66.674,119.598z M138.958,112.562l0.179-0.379
	c0.382-0.77,0.588-1.413,0.654-1.938c-2.337-0.146-5.676,1.082-5.676,1.082c1.606-1.162,3.309-2.124,5.052-2.828
	c-1.886-1.348-7.252,0.624-7.252,0.624c4.112-3.026,8.121-4.215,13.696-4.215c3.917,0,2.052,0.007,2.052,0.007h6.133l1.291,19.693
	l6.04-19.653h8.636l3.939,0.006h6.462c6.829,0,11.579,2.417,11.337,8.251l1.619-5.283l0.269-0.823
	c0.113-0.472,0.173-1.029-0.003-1.427c-0.322-0.704-1.085-0.751-1.085-0.751l4.145,0.047h13.83l-1.932,6.286h-7.395l-0.677,2.19
	l6.75,0.006l-1.835,5.987h-6.754l-0.697,2.25l7.653,0.007l-1.932,6.286l-16.491-0.007l2.41-7.865
	c-2.881,4.898-8.265,7.865-14.115,7.858l-11.108-0.007l6.582-21.405c0.033-0.319,0.017-0.638-0.1-0.89
	c-0.176-0.398-0.502-0.591-0.75-0.671l-7.062,22.973l-7.514-0.007h-1.258l-8.025-0.006l0.08-2.868h-6.628l-1.59,2.868h-5.582
	l-3.693-0.007l-12.446-0.007l7.083-23.013l8.771,0.007l-4.806,15.625l6.355,0.007L138.958,112.562z M182.068,116.777
	c0.996-3.232-0.537-4.613-3.736-4.613l-0.498-0.007l-2.784,8.914l0.537,0.007C178.504,121.078,181.14,119.796,182.068,116.777
	 M142.728,119.631h3.521l0.223-4.062c0.043-0.976,0.195-1.984,0.335-2.961L142.728,119.631z"/>
<path fill="#004B8D" d="M39.085,19.131c0,0,90.832-41.299,149.013,39.978c0,0,35.531,25.097,28.203,47.518
	c0,0-0.886-5.323-2.665-9.989c-1.778-4.659-28.425-26.869-55.294-31.535l4.215,12.884l0.893-7.772c0,0,13.321,17.769,45.079,30.201
	c0,0-2.442,4.44-23.537-2.888c-21.098-7.328-29.314-10.441-39.085-8.881c0,0,7.102-5.775,17.762-4.222c0,0-12.436-6.22-36.861,2.217
	c0,0,6.438-6.883,14.211-7.772c0,0-10.883-2.881-32.199,7.328c0,0,11.991-11.769,23.095-13.322c0,0-25.319-4.44-51.747,5.55
	c0,0,9.771-17.988,45.305-30.64c0,0-23.76-7.553-53.967-6.219c0,0,19.326-11.549,41.532-10.215
	C113.038,31.351,88.167,15.806,39.085,19.131"/>
<path fill="#004B8D" d="M141.954,23.559c0.684,0.239-15.555-10.521-37.054-12.12c-21.502-1.606-46.205,2.509-46.205,2.509
	S101.697,9.374,141.954,23.559"/>
<path fill="#32619C" d="M214.463,91.037c0,0-8.694-14.868-18.525-22.88l-9.84-7.999l1.145,5.715
	C187.242,65.873,203.714,78.226,214.463,91.037"/>
<path fill="#32619C" d="M141.954,23.559c0.684,0.239-15.555-10.521-37.054-12.12c-21.502-1.606-46.205,2.509-46.205,2.509
	S101.697,9.374,141.954,23.559"/>
<path fill="#32619C" d="M94.283,36.236c1.543-0.577,17.643-7.7,36.348,1.208C130.631,37.444,114.196,34.026,94.283,36.236"/>
<path fill="#FFD200" d="M162.129,42.516c-0.205,0.066-7.606,3.106-4.666,8.98c2.575,5.151,12.22,3.817,12.678-2.854"/>
<path fill="#002B5C" d="M164.532,44.022c0,0-11.865-2.131-19.13-2.197c0,0,9.03,2.529,11.42,6.299
	C156.822,48.125,157.467,42.356,164.532,44.022"/>
<path fill="#002B5C" d="M171.531,49.014c0,0,1.431,4.341-1.5,6.479c-2.934,2.13-12.229,4.122-13.899-5.41
	c0,0,3.117,6.524,10.047,3.929c6.933-2.602,0.202-9.837,0.202-9.837L171.531,49.014z"/>
<path fill="#002B5C" d="M167.164,46l-3.432-4.122l-2.798,4.002c0,0-1.397,1.799-0.202,3.398c1.201,1.6,2.399,2.602,5.001,1.4
	C168.335,49.479,167.164,46,167.164,46"/>
<path fill="#E21937" d="M163.168,43.199c-0.152,0.046-5.403,2.197-3.349,6.452c2.045,4.248,8.396,2.695,9.094-2.051
	c0.7-4.752-1.042-1.334-1.042-1.334s-1.809,5.974-5.43,3.737c-3.213-1.978-0.073-6.107,2.572-5.403
	C167.665,45.297,163.168,43.199,163.168,43.199"/>
<path fill="#002B5C" d="M177.018,57.935c0,0,1.434-17.669-32.415-23.185C144.603,34.75,169.703,46.398,177.018,57.935"/>
<path fill="#FFD200" d="M142.058,134.844c-0.372,0.996-1.252,1.115-2.081,1.115h-0.352l0.846-2.271h0.385
	C141.729,133.696,142.442,133.822,142.058,134.844 M147.079,134.698c1.258-3.365-0.933-4.646-4.079-4.652l-5.19-0.014l-1.68-0.02
	c0,0,0.295-0.007,0.412,0.292c0.076,0.206,0.013,0.518-0.051,0.743l-4.609,12.346l4.965,0.007l1.597-4.288h0.096l0.621,4.295
	l5.851,0.014l-1.417-4.348c-0.133-0.392-0.368-0.604-0.551-0.804l0.036-0.1C145.193,137.566,146.325,136.716,147.079,134.698"/>
<path fill="#FFD200" d="M154.52,134.26c1.612,0,2.17,1.188,1.643,2.608c-0.571,1.521-2.034,2.562-3.571,2.562
	c-1.536-0.007-2.22-1.049-1.652-2.576C151.47,135.435,152.91,134.253,154.52,134.26 M156.162,129.866
	c-4.241-0.013-8.741,2.708-10.308,6.903c-1.601,4.295,0.905,6.87,5.163,6.877c4.259,0.013,8.679-2.549,10.278-6.837
	C162.862,132.607,160.4,129.873,156.162,129.866"/>
<path fill="#FFD200" d="M161.29,130.085l-0.1,13.368l4.314,0.013l3.295-5.25c0.412-0.657,0.767-1.321,1.079-2.012h0.169
	l-1.118,7.269l4.424,0.014l9.946-13.389l-5.273-0.026l-3.541,5.669c-0.468,0.756-0.866,1.572-1.231,2.35h-0.109l1.078-7.999
	l-3.869-0.013l-3.568,5.535c-0.521,0.797-0.945,1.646-1.347,2.463h-0.109l1.218-7.998L161.29,130.085z"/>
<path fill="#FFD200" d="M176.529,142.484c1.288,0.764,3.153,1.229,4.912,1.229c3.021,0.006,6.645-1.561,7.836-4.746
	c0.846-2.271-0.303-3.372-2.28-3.837l-1.052-0.252c-0.355-0.093-0.96-0.159-0.773-0.657c0.206-0.551,0.912-0.71,1.357-0.71
	c1.092,0.007,1.908,0.451,2.565,1.016l2.648-3.412c-1.075-0.796-2.396-1.175-3.989-1.182c-3.04-0.006-6.718,1.759-7.899,4.932
	c-0.783,2.091,0.469,3.213,2.323,3.552l0.953,0.179c0.432,0.093,1.078,0.146,0.853,0.743c-0.223,0.611-1.095,0.797-1.596,0.797
	c-1.165,0-2.052-0.551-2.709-1.228l-0.183-0.192L176.529,142.484z"/>
<path fill="#FFD200" d="M145.728,111.195c0,0-4.287,7.427-4.702,8.117c-0.296,0.491-0.667,2.005,1.268,2.005h4.925l-0.985-1.334
	h-4.245l4.551-7.72L145.728,111.195z"/>
<path fill="#FFD200" d="M176.51,111.181l0.916,0.804l-2.871,9.398c0,0,1.179,0.365,4.932-0.631c0,0-7.327,3.804-6.076-0.172
	C174.604,116.79,174.856,115.98,176.51,111.181"/>
<path fill="#FFD200" d="M199.622,109.548c0,0-1.076,3.564-1.222,4.062c-0.097,0.352-0.425,1.327,1.062,1.327h5.513l-0.916,3.159
	l0.866,1.043l1.604-5.297h-6.773l0.905-2.974L199.622,109.548z"/>
<path fill="#FFD200" d="M197.04,117.866c0,0-1.029,3.491-1.175,3.989c-0.1,0.352-0.425,1.327,1.062,1.327h6.389l-0.913,3.159
	l0.804,1.042l1.6-5.297h-7.587l0.863-2.894L197.04,117.866z"/>
<path fill="#FFD200" d="M145.768,105.374h7.471c0,0,1.348,20.198,1.36,20.331c0.044,0.418,0.392,0.803,0.837,0.85
	c0,0-2.194,0.624-2.37-1.779c-0.183-2.402-1.071-18.16-1.071-18.16l-7.007,0.007L145.768,105.374z"/>
<path fill="#FFD200" d="M123.499,105.374l0.604,1.241h5.363c0,0-4.238,13.335-4.434,13.933c-0.203,0.604,0.285,1.871,1.55,1.871
	h7.212l-0.82-1.294h-6.475l4.852-15.751H123.499z"/>
<path fill="#FFE592" d="M136.827,130.191l0.408,0.591c0,0,4.683,0.007,6.724,0.007c1.769,0,3.548,1.818,2.496,4.454
	c0,0,1.221-1.786,0.591-3.266c-0.595-1.407-1.926-1.687-3.04-1.732C142.675,130.191,136.827,130.191,136.827,130.191"/>
<path fill="#FFE592" d="M134.252,134.871l-0.548-1.022l1.055-2.927c0,0-1.825-0.524-4.965-0.266
	c-3.604,0.299-7.294,1.255-7.294,1.255s6.707-3.412,13.238-1.381L134.252,134.871z"/>
<path fill="#FFE592" d="M127.939,135.037c0,0-1.461,2.058-0.913,3.617c0.548,1.554,3.037,1.945,4.793,1.129l-1.357,3.219
	l0.739-0.179l1.646-4.195c0,0-1.44,1.075-3.087,0.909c-1.639-0.166-2.787-1.513-1.652-3.404L127.939,135.037z"/>
<path fill="#FFE592" d="M125.158,132.547c-0.266,0-1.819,0.711-1.819,0.711s2.111-0.326,3.27-0.326"/>
<path fill="#FFD200" d="M140.195,108.686c-0.454,0-2.811,1.294-2.811,1.294s3.266-0.764,5.24-0.764"/>
<polygon fill="#FFE592" points="138.294,138.807 137.959,137.877 136.256,142.491 136.718,143.127 "/>
<path fill="#FFE592" d="M142.2,138.017l1.636,4.64l0.926,0.584c0,0-1.347-4.056-1.46-4.328
	C143.083,138.416,142.2,138.017,142.2,138.017"/>
<path fill="#FFE592" d="M139.877,132.78c0,0-1.079,2.741-1.079,3.206c0,0.458,0.037,0.737,1.136,0.737
	c0.922-0.007,1.483-0.631,1.483-0.631s-1.514,0.186-2.034,0l0.905-2.675L139.877,132.78z"/>
<path fill="#FFE592" d="M151.536,134.293c0,0-2.228,1.652-1.869,4.096c0.355,2.449,2.938,2.004,5.251,1.114
	c0,0-1.869,0.133-2.493,0.087c-0.623-0.047-2.416-0.306-1.825-2.669c0.133-0.53,0.823-1.334,0.823-1.334L151.536,134.293z"/>
<path fill="#FFE592" d="M149.953,132.01c0,0,1.825-1.514,4.185-1.825c2.356-0.312,5.917-0.358,7.385,2.628l-0.801,0.173
	c0,0-1.467-2.356-5.386-2.356C151.42,130.629,149.953,132.01,149.953,132.01"/>
<path fill="#FFE592" d="M161.416,130.198l0.242,0.584l3.919,0.007c0,0-1.111,7.348-1.121,7.76c-0.03,1.049,1.062-0.319,1.062-0.319
	s-0.491,0.386-0.342-0.444c0.063-0.332,1.182-7.594,1.182-7.594L161.416,130.198z"/>
<path fill="#FFE592" d="M170.427,130.198l0.209,0.584l2.618,0.007c0,0-0.973,7.348-0.982,7.76c-0.026,1.049,1.062-0.319,1.062-0.319
	s-0.488,0.386-0.339-0.444c0.06-0.332,1.035-7.594,1.035-7.594L170.427,130.198z"/>
<polygon fill="#FFE592" points="165.438,143.267 165.063,142.571 169.483,135.449 169.819,136.045 "/>
<polygon fill="#FFE592" points="173.268,143.221 172.979,142.763 179.932,133.384 179.849,134.413 "/>
<path fill="#FFE592" d="M178.112,130.198l4.969-0.007c0,0-1.763,2.038-1.391,2.085c0.375,0.039,0.853-0.193,0.853-0.193
	s-1.809,1.076-1.479,0.127c0.331-0.949,0.896-1.447,0.896-1.447l-3.491,0.007L178.112,130.198z"/>
<path fill="#FFE592" d="M183.027,131.698c0,0,0.923-1.002,3.279-1.46c2.067-0.398,4.361,0.318,5.088,0.963l-2.25,2.946l-0.236-0.796
	l1.404-1.865C190.312,131.486,187.562,129.846,183.027,131.698"/>
<path fill="#FFE592" d="M184.604,133.888c0,0-0.933,0.883,0.066,1.321c0.949,0.418,1.745,0.624,2.777,0.909
	c1.626,0.444,1.806,2.734-0.793,5.503c0,0,1.875-0.777,2.539-3.173c0.537-1.952-0.903-2.769-2.174-3.073
	c-0.856-0.199-2.35-0.451-2.088-1.029L184.604,133.888z"/>
<polygon fill="#FFD200" points="161.369,105.374 169.374,105.374 162.518,127.371 161.366,126.381 167.416,106.615 161.827,106.601 
	"/>
<path fill="#FFFFFF" d="M164.556,46.232c0,0-2.064,0.83-2.138,2.084c0,0-1.089-1.706,0.737-3.086L164.556,46.232z"/>
<path fill="#FFD200" d="M135.23,107.676c0,0,3.634-2.303,10.537-2.303l0.939,1.261C146.707,106.634,139.037,106.475,135.23,107.676"
	/>
<path fill="#FFD200" d="M69.502,111.195c0,0-4.291,7.427-4.706,8.117c-0.295,0.491-0.664,2.005,1.268,2.005h4.929l-0.989-1.334
	h-4.245l4.55-7.72L69.502,111.195z"/>
<path fill="#FFD200" d="M69.539,105.374h7.467c0,0,1.354,20.198,1.364,20.331c0.043,0.418,0.395,0.803,0.84,0.85
	c0,0-2.197,0.624-2.373-1.779c-0.179-2.402-1.072-18.16-1.072-18.16l-7.006,0.007L69.539,105.374z"/>
<path fill="#FFD200" d="M63.966,108.686c-0.455,0-2.811,1.294-2.811,1.294s3.269-0.764,5.244-0.764"/>
<path fill="#FFD200" d="M59.001,107.676c0,0,3.634-2.303,10.541-2.303l0.936,1.261C70.478,106.634,62.808,106.475,59.001,107.676"/>
<path fill="#FFD200" d="M193.764,105.367c0.196,0.213,0.382,0.584,0.286,1.241h14.064l-0.989,3.073l0.946,1.281l1.726-5.596H193.764
	z"/>
<path fill="#FFD200" d="M111.727,109.548c0,0-1.076,3.564-1.221,4.062c-0.097,0.352-0.425,1.327,1.062,1.327h5.513l-0.916,3.159
	l0.866,1.043l1.604-5.297h-6.774l0.906-2.974L111.727,109.548z"/>
<path fill="#FFD200" d="M109.145,117.866c0,0-1.029,3.491-1.175,3.989c-0.1,0.352-0.425,1.327,1.062,1.327h6.389l-0.913,3.159
	l0.804,1.042l1.6-5.297h-7.587l0.863-2.894L109.145,117.866z"/>
<path fill="#FFD200" d="M105.869,105.367c0.199,0.213,0.382,0.584,0.286,1.241h14.065l-0.985,3.073l0.942,1.281l1.726-5.596H105.869
	z"/>
<path fill="#FFD200" d="M190.376,109.701c-1.729-3.484-5.875-4.327-9.485-4.327h-10.046c0.202,0.199,0.401,0.577,0.312,1.241H181.7
	c4.673,0,9.488,2.888,8.536,10.348C190.236,116.962,191.729,112.429,190.376,109.701"/>
<path fill="#FFD200" d="M88.509,111.108l0.916,0.811l-2.871,9.392c0,0,1.178,0.365,4.932-0.631c0,0-7.328,3.811-6.076-0.165
	C86.604,116.717,86.856,115.908,88.509,111.108"/>
<path fill="#FFD200" d="M102.375,109.634c-1.729-3.484-5.874-4.327-9.485-4.327H82.844c0.202,0.199,0.401,0.577,0.312,1.234h10.544
	c4.673,0,9.488,2.895,8.536,10.354C102.235,116.896,103.729,112.363,102.375,109.634"/>
</svg>
