<?xml version="1.0" encoding="UTF-8" standalone="no"?>
<!-- Generator: Adobe Illustrator 23.0.3, SVG Export Plug-In . SVG Version: 6.00 Build 0)  -->

<svg
   xmlns:dc="http://purl.org/dc/elements/1.1/"
   xmlns:cc="http://creativecommons.org/ns#"
   xmlns:rdf="http://www.w3.org/1999/02/22-rdf-syntax-ns#"
   xmlns:svg="http://www.w3.org/2000/svg"
   xmlns="http://www.w3.org/2000/svg"
   xmlns:sodipodi="http://sodipodi.sourceforge.net/DTD/sodipodi-0.dtd"
   xmlns:inkscape="http://www.inkscape.org/namespaces/inkscape"
   x="0px"
   y="0px"
   width="242.92741"
   height="307.80728"
   viewBox="0 0 425.20054 538.59063"
   xml:space="preserve"
   version="1.1"
   id="svg144"
   sodipodi:docname="Collingwood_Football_Club_Logo_(2017–present).svg"
   inkscape:version="0.92.2 (5c3e80d, 2017-08-06)"><metadata
     id="metadata150"><rdf:RDF><cc:Work
         rdf:about=""><dc:format>image/svg+xml</dc:format><dc:type
           rdf:resource="http://purl.org/dc/dcmitype/StillImage" /><dc:title></dc:title></cc:Work></rdf:RDF></metadata><defs
     id="defs148" /><sodipodi:namedview
     pagecolor="#ffffff"
     bordercolor="#666666"
     borderopacity="1"
     objecttolerance="10"
     gridtolerance="10"
     guidetolerance="10"
     inkscape:pageopacity="0"
     inkscape:pageshadow="2"
     inkscape:window-width="1366"
     inkscape:window-height="745"
     id="namedview146"
     showgrid="false"
     fit-margin-top="0"
     fit-margin-left="0"
     fit-margin-right="0"
     fit-margin-bottom="0"
     inkscape:zoom="0.67428571"
     inkscape:cx="121.46402"
     inkscape:cy="153.90278"
     inkscape:window-x="-8"
     inkscape:window-y="-8"
     inkscape:window-maximized="1"
     inkscape:current-layer="svg144" /><g
     id="Layer_1"
     transform="translate(-36.819681,-36.923877)"><g
       id="g120"><g
         id="g28"><path
           d="m 76.553,500.754 -0.262,0.322 c -0.557,0.687 -1.215,0.755 -1.902,0.198 l -16.23,-13.177 c -0.687,-0.557 -0.755,-1.215 -0.198,-1.901 l 0.262,-0.323 c 0.557,-0.687 1.216,-0.755 1.902,-0.197 l 16.231,13.176 c 0.686,0.558 0.754,1.216 0.197,1.902 z"
           id="path2"
           inkscape:connector-curvature="0"
           style="fill:#aa9767" /><path
           d="m 97.387,528.12 c -2.966,4.77 -7.156,4.613 -11.837,1.702 l -0.088,-0.056 c -4.681,-2.911 -6.701,-6.556 -3.707,-11.369 L 93.29,499.85 c 2.856,-4.592 7.156,-4.612 11.837,-1.701 l 0.088,0.055 c 4.681,2.911 6.563,6.777 3.707,11.369 l -3.516,5.652 -5.123,-3.186 3.021,-4.857 c 1.346,-2.164 0.698,-3.485 -0.936,-4.502 -1.634,-1.016 -3.105,-1.013 -4.452,1.151 l -10.547,16.957 c -1.346,2.163 -0.698,3.485 0.936,4.501 1.634,1.017 3.105,1.014 4.452,-1.15 l 3.488,-5.608 5.123,3.187 z"
           id="path4"
           inkscape:connector-curvature="0" /><path
           d="m 132.26,512.88 0.377,0.177 c 4.991,2.341 7.36,5.864 5.02,10.855 l -9.273,19.777 c -2.34,4.991 -6.564,5.424 -11.555,3.083 l -0.377,-0.177 c -4.991,-2.341 -7.36,-5.863 -5.02,-10.855 l 9.273,-19.776 c 2.362,-5.039 6.564,-5.424 11.555,-3.084 z m -13.368,29.001 c 1.79,0.839 3.323,0.754 4.427,-1.601 l 8.479,-18.082 c 1.104,-2.354 0.189,-3.588 -1.601,-4.427 -1.789,-0.839 -3.323,-0.754 -4.427,1.601 l -8.479,18.082 c -1.104,2.355 -0.188,3.588 1.601,4.427 z"
           id="path6"
           inkscape:connector-curvature="0" /><path
           d="m 155.659,561.497 -14.512,-4.97 11.792,-34.436 5.706,1.954 -10.04,29.319 8.806,3.016 z"
           id="path8"
           inkscape:connector-curvature="0" /><path
           d="m 185.157,569.116 -14.931,-3.52 8.353,-35.43 5.871,1.385 -7.112,30.165 9.06,2.136 z"
           id="path10"
           inkscape:connector-curvature="0" /><path
           d="m 199.987,571.7 5.298,-36.017 5.969,0.878 -5.298,36.018 z"
           id="path12"
           inkscape:connector-curvature="0" /><path
           d="m 223.058,574.586 1.901,-36.348 6.023,0.314 6.457,22.884 1.176,-22.484 5.504,0.288 -1.901,36.348 -5.712,-0.299 -6.708,-24.041 -1.236,23.626 z"
           id="path14"
           inkscape:connector-curvature="0" /><path
           d="m 277.616,567.118 c 0.336,5.606 -3.173,7.9 -8.676,8.23 l -0.415,0.025 c -5.502,0.33 -9.258,-1.477 -9.597,-7.135 l -1.308,-21.803 c -0.323,-5.398 3.173,-7.9 8.676,-8.23 l 0.415,-0.025 c 5.503,-0.33 9.273,1.736 9.597,7.135 l 0.312,5.191 -6.021,0.361 -0.255,-4.257 c -0.156,-2.596 -1.549,-3.241 -3.521,-3.123 -1.972,0.118 -3.279,0.926 -3.123,3.521 l 1.195,19.934 c 0.155,2.596 1.549,3.241 3.521,3.123 1.972,-0.118 3.278,-0.926 3.123,-3.521 l -0.324,-5.398 -3.529,0.211 -0.306,-5.087 9.552,-0.572 z"
           id="path16"
           inkscape:connector-curvature="0" /><path
           d="m 319.387,567.936 -5.566,1.064 -9.284,-23.635 0.091,25.393 -5.771,1.104 -12.454,-34.676 5.822,-1.113 7.845,24.97 -0.286,-26.415 5.312,-1.016 9.479,24.657 -1.92,-26.103 5.516,-1.055 z"
           id="path18"
           inkscape:connector-curvature="0" /><path
           d="m 336.638,524.811 0.396,-0.131 c 5.232,-1.732 9.374,-0.803 11.106,4.43 l 6.863,20.731 c 1.732,5.232 -1.036,8.45 -6.269,10.182 l -0.396,0.131 c -5.232,1.732 -9.374,0.804 -11.106,-4.429 l -6.863,-20.732 c -1.748,-5.283 1.037,-8.45 6.269,-10.182 z m 10.233,30.243 c 1.875,-0.621 2.93,-1.737 2.113,-4.205 l -6.275,-18.955 c -0.817,-2.469 -2.33,-2.734 -4.205,-2.113 -1.876,0.621 -2.931,1.736 -2.113,4.205 l 6.275,18.955 c 0.816,2.468 2.329,2.734 4.205,2.113 z"
           id="path20"
           inkscape:connector-curvature="0" /><path
           d="m 365.821,513.245 0.377,-0.177 c 4.995,-2.33 9.217,-1.891 11.548,3.104 l 9.234,19.79 c 2.331,4.994 -0.044,8.513 -5.038,10.843 l -0.377,0.177 c -4.995,2.33 -9.217,1.891 -11.548,-3.104 l -9.234,-19.79 c -2.353,-5.042 0.044,-8.513 5.038,-10.843 z m 13.689,28.842 c 1.791,-0.836 2.708,-2.067 1.608,-4.423 l -8.443,-18.094 c -1.1,-2.356 -2.632,-2.444 -4.423,-1.608 -1.79,0.836 -2.708,2.066 -1.608,4.423 l 8.443,18.094 c 1.1,2.355 2.633,2.444 4.423,1.608 z"
           id="path22"
           inkscape:connector-curvature="0" /><path
           d="m 405.78,500.204 11.084,17.846 c 2.908,4.683 0.969,8.459 -3.714,11.367 l -7.907,4.91 -19.205,-30.922 7.907,-4.911 c 4.683,-2.908 8.927,-2.973 11.835,1.71 z m -9.213,2.906 -2.606,1.618 13.607,21.911 2.606,-1.619 c 1.679,-1.043 2.443,-2.374 1.071,-4.583 l -10.096,-16.256 c -1.371,-2.209 -2.903,-2.114 -4.582,-1.071 z"
           id="path24"
           inkscape:connector-curvature="0" /><path
           d="m 440.619,485.875 0.263,0.322 c 0.557,0.687 0.488,1.345 -0.197,1.902 l -16.231,13.176 c -0.686,0.558 -1.345,0.489 -1.901,-0.197 l -0.263,-0.323 c -0.557,-0.687 -0.488,-1.345 0.198,-1.902 l 16.23,-13.176 c 0.686,-0.556 1.344,-0.488 1.901,0.198 z"
           id="path26"
           inkscape:connector-curvature="0"
           style="fill:#aa9767" /></g><g
         id="g118"><g
           id="g106"><path
             d="m 458.752,289.23 c -1.924,-2.141 -4.51,-3.553 -7.312,-4.034 2.635,-5.327 4.513,-11.374 5.601,-18.055 0.782,-4.802 -1.188,-9.544 -5.141,-12.373 -0.566,-0.407 -1.162,-0.764 -1.783,-1.069 0.863,-3.517 1.417,-7.232 1.65,-11.084 0.292,-4.858 -2.148,-9.379 -6.371,-11.796 -0.042,-0.025 -0.084,-0.048 -0.126,-0.072 0.663,-3.343 0.988,-6.895 0.967,-10.596 -0.025,-4.865 -2.756,-9.215 -7.127,-11.352 -0.95,-0.464 -1.942,-0.803 -2.968,-1.014 -0.101,-1.845 -0.312,-3.729 -0.631,-5.632 -0.805,-4.798 -4.197,-8.653 -8.848,-10.061 -0.574,-0.175 -1.159,-0.307 -1.75,-0.399 -0.236,-3.573 -0.981,-7.266 -2.226,-11.02 -1.355,-4.081 -4.655,-7.175 -8.827,-8.276 -0.25,-0.066 -0.504,-0.092 -0.758,-0.098 v -4.752 l -1.09,-0.979 c -6.774,-6.081 -68.868,-59.414 -162.282,-59.414 -16.957,0 -32.827,1.743 -47.524,4.606 2.769,-7.213 6.426,-13.961 13.094,-18.625 l 0.387,-0.271 10.012,-12.512 c 11.794,-8.71 27.614,-19.209 45.934,-23.878 l 0.313,-0.08 0.292,-0.139 c 1.56,-0.745 2.166,-1.87 2.398,-2.682 0.515,-1.793 -0.401,-3.231 -0.911,-4.035 l -0.357,-0.671 -0.613,-0.448 c -6.455,-4.698 -14.21,-5.925 -20.942,-6.701 -6.793,-0.848 -13.694,-1.277 -20.511,-1.277 -6.584,0 -13.244,0.401 -19.808,1.192 -7.465,-2.239 -18.777,-4.802 -31.435,-4.802 -11.495,0 -21.482,2.129 -29.729,6.349 -8.084,4.298 -10.924,11.971 -13.206,18.137 -1.143,3.086 -2.223,6.006 -3.701,7.713 -18.124,17.13 -25.61,36.591 -33.534,57.194 -1.161,3.018 -2.331,6.062 -3.481,8.968 l -1.51,3.332 c -4.461,9.877 -10.573,23.405 -17.401,31.936 l -0.286,0.357 -0.418,0.992 c -2.184,5.176 -4.903,11.652 -4.121,20.17 -0.163,0.042 -0.331,0.063 -0.492,0.111 -4.656,1.409 -8.048,5.264 -8.853,10.062 -0.318,1.903 -0.529,3.787 -0.631,5.632 -1.024,0.212 -2.016,0.55 -2.968,1.014 -4.371,2.139 -7.102,6.489 -7.127,11.352 -0.021,3.701 0.305,7.252 0.967,10.596 -0.042,0.023 -0.084,0.047 -0.126,0.072 -4.223,2.417 -6.664,6.938 -6.371,11.797 0.233,3.851 0.787,7.566 1.65,11.083 -0.619,0.304 -1.214,0.659 -1.779,1.065 -3.955,2.833 -5.926,7.576 -5.144,12.376 1.09,6.682 2.967,12.729 5.6,18.057 -2.801,0.481 -5.389,1.892 -7.31,4.032 -3.253,3.618 -4.155,8.674 -2.357,13.194 1.815,4.564 3.966,8.762 6.415,12.533 -1.378,0.839 -2.59,1.94 -3.571,3.263 -2.895,3.907 -3.318,9.026 -1.102,13.362 2.836,5.538 6.091,10.477 9.707,14.73 -0.94,0.787 -1.767,1.708 -2.443,2.737 -2.677,4.065 -2.814,9.201 -0.358,13.399 3.638,6.229 7.773,11.657 12.328,16.188 -0.832,0.903 -1.528,1.925 -2.071,3.048 -2.115,4.383 -1.575,9.492 1.412,13.333 5.874,7.552 12.368,13.666 19.365,18.234 -1.883,1.681 -3.25,3.919 -3.874,6.491 -1.146,4.729 0.457,9.608 4.183,12.735 6.517,5.467 13.239,9.769 20.066,12.846 -2.516,2.199 -4.088,5.336 -4.293,8.811 -0.286,4.857 2.161,9.371 6.386,11.783 9.74,5.563 19.455,9.144 28.989,10.702 -1.86,2.552 -2.719,5.748 -2.316,9.021 0.596,4.828 3.818,8.828 8.409,10.44 10.083,3.537 19.84,5.331 28.998,5.331 h 0.021 c 6.047,0 11.969,-0.792 17.604,-2.355 0.128,-0.035 0.244,-0.096 0.365,-0.146 0.982,1.336 2.096,2.441 3.395,3.16 19.165,9.865 39.612,14.461 64.347,14.465 10e-4,0 10e-4,0 0.002,0 24.775,-0.005 45.244,-4.603 64.493,-14.515 1.231,-0.676 2.3,-1.702 3.243,-2.953 0.124,0.05 0.243,0.111 0.374,0.147 5.447,1.459 11.184,2.197 17.053,2.197 9.169,0 18.933,-1.794 29.02,-5.331 4.589,-1.612 7.812,-5.612 8.409,-10.443 0.401,-3.273 -0.458,-6.466 -2.316,-9.018 9.533,-1.557 19.246,-5.139 28.988,-10.702 3.651,-2.083 5.964,-5.739 6.344,-9.827 2.548,0.069 4.994,0.192 7.285,0.436 l 18.285,4.164 -0.691,-4.741 c -1.005,-6.888 -3.918,-13.841 -6.635,-19.735 l -0.127,-0.274 -0.173,-0.247 c -0.705,-0.996 -1.406,-2.092 -2.123,-3.219 3.722,-3.127 5.324,-8.005 4.178,-12.732 -0.622,-2.569 -1.988,-4.805 -3.865,-6.484 6.976,-4.554 13.467,-10.67 19.356,-18.242 2.985,-3.84 3.527,-8.949 1.412,-13.333 -0.543,-1.123 -1.24,-2.147 -2.071,-3.048 4.555,-4.531 8.69,-9.959 12.327,-16.186 2.457,-4.203 2.32,-9.339 -0.355,-13.399 -0.677,-1.029 -1.504,-1.952 -2.447,-2.74 3.616,-4.25 6.872,-9.189 9.711,-14.732 2.214,-4.334 1.792,-9.453 -1.103,-13.36 -0.98,-1.323 -2.193,-2.424 -3.571,-3.263 2.448,-3.769 4.598,-7.967 6.415,-12.533 1.795,-4.517 0.893,-9.573 -2.359,-13.19 z"
             id="path30"
             inkscape:connector-curvature="0"
             style="fill:#ffffff" /><path
             d="m 177.684,453.24 c -0.188,0.923 -0.372,1.859 -0.535,2.86 0.162,-1.001 0.344,-1.943 0.535,-2.86 z m 0.493,-2.17 c -0.078,0.32 -0.16,0.627 -0.234,0.957 0.076,-0.328 0.156,-0.64 0.234,-0.957 z m -0.456,35.519 c -0.204,-0.98 -0.398,-1.989 -0.572,-3.059 0.174,1.07 0.369,2.077 0.572,3.059 z m 2.092,7.256 c 0.08,0.202 0.161,0.399 0.242,0.594 -0.082,-0.194 -0.162,-0.393 -0.242,-0.594 z m -1.885,-6.307 c 0.146,0.655 0.302,1.281 0.462,1.893 -0.161,-0.61 -0.315,-1.24 -0.462,-1.893 z m 0.721,2.881 c 0.205,0.721 0.424,1.398 0.649,2.055 -0.226,-0.655 -0.443,-1.338 -0.649,-2.055 z m 142.852,-38.385 c -0.073,-0.324 -0.153,-0.624 -0.229,-0.938 0.077,0.311 0.156,0.617 0.229,0.938 z m 0.794,4.067 c -0.162,-0.999 -0.346,-1.934 -0.534,-2.855 0.19,0.915 0.372,1.855 0.534,2.855 z m -0.575,30.503 c 0.204,-0.986 0.4,-1.998 0.575,-3.074 -0.175,1.076 -0.37,2.089 -0.575,3.074 z m -3.021,9.352 c 0.005,-0.01 0.011,-0.02 0.016,-0.03 -0.005,0.01 -0.01,0.02 -0.016,0.03 z m 0.634,-1.383 c 0.098,-0.229 0.193,-0.465 0.287,-0.704 -0.095,0.238 -0.189,0.476 -0.287,0.704 z m 0.785,-2.015 c 0.233,-0.673 0.457,-1.374 0.668,-2.115 -0.212,0.739 -0.434,1.444 -0.668,2.115 z m 0.931,-3.111 c 0.161,-0.612 0.316,-1.24 0.463,-1.895 -0.147,0.655 -0.302,1.285 -0.463,1.895 z"
             id="path32"
             inkscape:connector-curvature="0"
             style="fill:#ffffff" /><path
             d="m 175.926,469.829 c 0.003,-0.295 0.077,-6.662 1.223,-13.728 0.495,-3.05 1.125,-5.695 1.857,-8.019 C 134.783,416.831 86.421,368.992 86.421,309.17 V 175.447 c -3.327,0.649 -6.073,3.021 -7.15,6.262 -1.535,4.628 -2.231,9.034 -2.131,13.217 -1.32,-0.181 -2.684,-0.09 -4.008,0.309 -3.427,1.038 -5.971,3.929 -6.563,7.461 -0.474,2.825 -0.687,5.536 -0.65,8.135 -1.607,-0.104 -3.242,0.186 -4.746,0.921 -3.217,1.574 -5.266,4.836 -5.285,8.418 -0.025,4.795 0.549,8.945 1.512,12.562 -0.801,0.208 -1.583,0.515 -2.322,0.938 -3.11,1.78 -4.94,5.17 -4.724,8.748 0.308,5.099 1.165,9.519 2.365,13.41 -1.368,0.24 -2.692,0.768 -3.862,1.608 -2.913,2.086 -4.39,5.642 -3.813,9.177 1.571,9.641 4.674,16.947 8.42,22.518 -0.438,-0.181 -0.893,-0.347 -1.386,-0.485 -3.446,-0.958 -7.148,0.113 -9.543,2.78 -2.395,2.665 -3.071,6.456 -1.747,9.785 2.456,6.171 5.348,11.191 8.462,15.302 -2.371,0.395 -4.553,1.668 -6.032,3.665 -2.132,2.878 -2.448,6.716 -0.816,9.906 3.645,7.121 7.72,12.683 11.95,17.032 -1.959,0.66 -3.688,1.947 -4.867,3.74 -1.97,2.993 -2.073,6.843 -0.266,9.936 4.544,7.779 9.499,13.638 14.538,18.072 -1.775,0.921 -3.256,2.382 -4.159,4.251 -1.558,3.227 -1.152,7.058 1.047,9.886 7.127,9.165 15.046,15.975 23.623,20.47 -0.15,0.028 -0.297,0.04 -0.449,0.075 -3.495,0.789 -6.24,3.49 -7.084,6.972 -0.845,3.482 0.357,7.141 3.101,9.443 8.679,7.282 17.605,12.35 26.681,15.182 -1.387,0.219 -2.691,0.502 -4.012,1.063 -3.297,1.398 -5.516,4.547 -5.728,8.123 -0.21,3.576 1.626,6.962 4.736,8.738 14.007,7.998 26.363,10.923 36.898,11.148 -1.586,0.528 -3.027,1.081 -4.423,2.001 -2.993,1.97 -4.608,5.468 -4.171,9.024 0.439,3.556 2.854,6.556 6.236,7.741 10.51,3.688 19.788,5.149 27.931,5.148 6.234,0 11.788,-0.867 16.725,-2.238 -1.521,-3.073 -2.718,-7.179 -3.559,-12.359 -1.148,-7.068 -1.222,-13.436 -1.224,-13.703 z"
             id="path34"
             inkscape:connector-curvature="0" /><path
             d="m 456.308,291.425 c -2.394,-2.665 -6.094,-3.741 -9.543,-2.78 -0.493,0.138 -0.948,0.304 -1.386,0.485 3.745,-5.571 6.849,-12.877 8.42,-22.518 0.576,-3.535 -0.901,-7.091 -3.813,-9.177 -1.171,-0.839 -2.495,-1.368 -3.863,-1.608 1.201,-3.891 2.057,-8.311 2.365,-13.41 0.216,-3.578 -1.614,-6.968 -4.724,-8.748 -0.739,-0.424 -1.521,-0.731 -2.322,-0.938 0.963,-3.618 1.537,-7.767 1.512,-12.562 -0.019,-3.582 -2.068,-6.843 -5.285,-8.418 -1.503,-0.734 -3.139,-1.024 -4.746,-0.92 0.037,-2.599 -0.177,-5.31 -0.65,-8.135 -0.592,-3.532 -3.136,-6.423 -6.563,-7.461 -1.323,-0.402 -2.688,-0.494 -4.007,-0.313 0.1,-4.182 -0.596,-8.587 -2.131,-13.213 -1.011,-3.044 -3.493,-5.328 -6.546,-6.133 V 309.17 c 0,59.889 -48.354,107.723 -92.574,138.956 0.728,2.313 1.353,4.944 1.845,7.975 1.148,7.066 1.222,13.433 1.224,13.701 -0.003,0.295 -0.077,6.662 -1.224,13.728 -0.856,5.269 -2.082,9.423 -3.641,12.511 4.804,1.286 10.192,2.086 16.205,2.086 8.142,0 17.424,-1.461 27.931,-5.148 3.382,-1.185 5.797,-4.185 6.236,-7.741 0.438,-3.556 -1.178,-7.054 -4.171,-9.024 -1.396,-0.92 -2.837,-1.473 -4.423,-2.001 10.533,-0.225 22.894,-3.151 36.898,-11.148 3.11,-1.776 4.946,-5.162 4.736,-8.738 -0.212,-3.576 -2.431,-6.725 -5.728,-8.123 -1.347,-0.571 -2.675,-0.856 -4.093,-1.076 8.28,-2.556 17.302,-7.232 26.762,-15.168 2.744,-2.302 3.946,-5.961 3.101,-9.443 -0.844,-3.482 -3.589,-6.183 -7.084,-6.972 -0.149,-0.034 -0.292,-0.045 -0.439,-0.073 7.733,-4.038 15.815,-10.444 23.613,-20.471 2.199,-2.828 2.605,-6.659 1.047,-9.886 -0.903,-1.869 -2.384,-3.33 -4.159,-4.251 5.039,-4.434 9.994,-10.293 14.538,-18.072 1.807,-3.093 1.704,-6.944 -0.266,-9.936 -1.18,-1.794 -2.911,-3.08 -4.872,-3.739 4.233,-4.347 8.309,-9.909 11.956,-17.032 1.632,-3.19 1.315,-7.028 -0.816,-9.906 -1.48,-1.997 -3.661,-3.27 -6.032,-3.665 3.114,-4.112 6.006,-9.131 8.462,-15.302 1.321,-3.331 0.644,-7.122 -1.75,-9.787 z"
             id="path36"
             inkscape:connector-curvature="0" /><g
             id="g82"><path
               d="m 147.024,432.751 c 3.658,-1.545 6.796,-2.033 9.188,-2.129 -5.019,-4.188 -9.974,-8.581 -14.79,-13.171 -10.594,-2.435 -21.029,1.518 -30.826,3.502 -15.785,3.196 -22.22,1.226 -24.702,1.786 29.733,24.946 53.012,13.44 61.13,10.012 z"
               id="path38"
               inkscape:connector-curvature="0"
               style="fill:#aa9767" /><path
               d="m 123.111,408.817 c 4.063,-0.772 7.338,-0.507 9.629,-0.041 -5,-5.233 -9.784,-10.688 -14.246,-16.368 -8.748,-3.123 -18.289,-1.801 -27.004,-1.906 -15.368,-0.184 -20.977,-3.313 -23.405,-3.288 22.737,29.239 46.765,23.173 55.026,21.603 z"
               id="path40"
               inkscape:connector-curvature="0"
               style="fill:#aa9767" /><path
               d="m 105.126,382.529 c 2.549,-0.142 4.684,0.113 6.456,0.497 -3.759,-5.434 -7.2,-11.049 -10.255,-16.838 -7.266,-3.179 -15.504,-3.209 -22.933,-4.288 -14.055,-2.042 -18.811,-5.591 -21.038,-5.864 17.264,29.554 40.012,26.925 47.77,26.493 z"
               id="path42"
               inkscape:connector-curvature="0"
               style="fill:#aa9767" /><path
               d="m 94.315,353.193 c 0.348,0 0.65,0.038 0.983,0.051 -2.157,-5.329 -3.97,-10.786 -5.379,-16.374 -6.266,-2.673 -13.301,-3.183 -19.657,-4.47 -13.107,-2.655 -17.392,-6.24 -19.472,-6.613 14.685,28.687 36.208,27.406 43.525,27.406 z"
               id="path44"
               inkscape:connector-curvature="0"
               style="fill:#aa9767" /><path
               d="m 86.175,325.938 c 0.562,0.053 1.067,0.146 1.58,0.233 -0.677,-4.39 -1.105,-8.85 -1.253,-13.383 -5.926,-4.39 -13.483,-5.493 -20.091,-7.495 -11.505,-3.486 -15.036,-7.058 -16.866,-7.568 10.711,26.917 30.082,27.593 36.63,28.213 z"
               id="path46"
               inkscape:connector-curvature="0"
               style="fill:#aa9767" /><path
               d="m 82.053,298.174 c 1.789,0.576 3.209,1.305 4.368,2.037 v -12.106 c -4.442,-6.486 -11.98,-9.214 -18.227,-12.72 -9.783,-5.49 -12.283,-9.455 -13.848,-10.288 4.349,26.683 21.865,31.196 27.707,33.077 z"
               id="path48"
               inkscape:connector-curvature="0"
               style="fill:#aa9767" /><path
               d="m 81.433,273.792 c 2.326,1.019 3.92,2.269 4.988,3.327 v -11.513 c -3.306,-6.424 -9.916,-9.59 -15.264,-13.348 -8.211,-5.77 -10.078,-9.525 -11.395,-10.408 1.459,24.141 16.641,29.739 21.671,31.942 z"
               id="path50"
               inkscape:connector-curvature="0"
               style="fill:#aa9767" /><path
               d="m 81.23,247.353 c 3.934,2.04 5.168,4.79 5.192,4.844 v -9.229 c -1.806,-6.729 -7.763,-9.942 -12.397,-13.676 -6.369,-5.131 -7.686,-8.285 -8.71,-9.073 -0.105,19.71 11.942,25.074 15.915,27.134 z"
               id="path52"
               inkscape:connector-curvature="0"
               style="fill:#aa9767" /><path
               d="m 85.895,230.15 c 0.194,0.144 0.351,0.29 0.526,0.435 v -12.691 c -1.401,-1.56 -5.917,-10.531 -7.253,-12.02 -4.823,-5.372 -3.174,-3.041 -3.302,-1.618 -2.879,17.159 6.859,23.537 10.029,25.894 z"
               id="path54"
               inkscape:connector-curvature="0"
               style="fill:#aa9767" /><path
               d="m 388.246,420.952 c -9.535,-1.931 -19.675,-5.721 -29.976,-3.679 -4.884,4.666 -9.912,9.13 -15.007,13.381 2.307,0.158 5.214,0.686 8.555,2.097 8.117,3.428 31.396,14.935 61.13,-10.012 -2.482,-0.561 -8.917,1.409 -24.702,-1.787 z"
               id="path56"
               inkscape:connector-curvature="0"
               style="fill:#aa9767" /><path
               d="m 381.222,392.115 c -4.486,5.738 -9.299,11.25 -14.337,16.533 2.236,-0.371 5.206,-0.523 8.845,0.168 8.261,1.57 32.289,7.637 55.026,-21.603 -2.428,-0.025 -8.037,3.104 -23.405,3.288 -8.425,0.102 -17.622,-1.125 -26.129,1.614 z"
               id="path58"
               inkscape:connector-curvature="0"
               style="fill:#aa9767" /><path
               d="m 398.322,365.854 c -3.065,5.854 -6.529,11.529 -10.315,17.021 1.623,-0.293 3.51,-0.468 5.708,-0.346 7.758,0.432 30.506,3.06 47.77,-26.493 -2.227,0.273 -6.983,3.822 -21.038,5.864 -7.155,1.04 -15.059,1.11 -22.125,3.954 z"
               id="path60"
               inkscape:connector-curvature="0"
               style="fill:#aa9767" /><path
               d="m 409.599,336.599 c -1.414,5.67 -3.239,11.208 -5.421,16.612 0.122,-0.002 0.225,-0.018 0.349,-0.018 7.316,0 28.84,1.281 43.525,-27.406 -2.08,0.373 -6.365,3.959 -19.472,6.613 -6.129,1.242 -12.887,1.768 -18.981,4.199 z"
               id="path62"
               inkscape:connector-curvature="0"
               style="fill:#aa9767" /><path
               d="m 449.297,297.725 c -1.829,0.51 -5.361,4.082 -16.866,7.568 -6.381,1.934 -13.649,3.023 -19.478,7.047 -0.133,4.655 -0.556,9.235 -1.246,13.74 0.323,-0.045 0.618,-0.109 0.959,-0.142 6.549,-0.62 25.92,-1.296 36.631,-28.213 z"
               id="path64"
               inkscape:connector-curvature="0"
               style="fill:#aa9767" /><path
               d="m 444.495,265.097 c -1.565,0.833 -4.065,4.798 -13.848,10.288 -5.972,3.352 -13.124,5.994 -17.624,11.884 v 12.558 c 1.043,-0.599 2.289,-1.178 3.764,-1.653 5.844,-1.881 23.36,-6.394 27.708,-33.077 z"
               id="path66"
               inkscape:connector-curvature="0"
               style="fill:#aa9767" /><path
               d="m 439.08,241.849 c -1.317,0.883 -3.184,4.638 -11.395,10.408 -5.035,3.539 -11.196,6.545 -14.661,12.244 v 12.042 c 1.043,-0.917 2.473,-1.914 4.385,-2.752 5.029,-2.202 20.212,-7.8 21.671,-31.942 z"
               id="path68"
               inkscape:connector-curvature="0"
               style="fill:#aa9767" /><path
               d="m 417.612,247.353 c 3.972,-2.06 16.02,-7.424 15.916,-27.134 -1.024,0.788 -2.341,3.942 -8.71,9.073 -4.205,3.388 -9.497,6.35 -11.793,11.893 v 10.014 c 0.71,-1 2.115,-2.564 4.587,-3.846 z"
               id="path70"
               inkscape:connector-curvature="0"
               style="fill:#aa9767" /><path
               d="m 422.976,204.256 c -0.781,0.832 -1.483,3.765 -6.306,9.137 -1.145,1.276 -2.422,2.524 -3.646,3.836 v 12.863 c 3.24,-2.397 12.809,-8.802 9.952,-25.836 z"
               id="path72"
               inkscape:connector-curvature="0"
               style="fill:#aa9767" /><path
               d="m 335.742,473.028 c -4.129,-2.591 -8.194,-5.698 -12.471,-8.478 0.223,3.033 0.247,5.101 0.249,5.251 -0.003,0.295 -0.077,6.662 -1.224,13.728 -0.202,1.246 -0.426,2.429 -0.668,3.554 9.707,2.476 22.191,2.562 38.043,-2.999 -2.263,-1.489 -9.411,-1.945 -23.929,-11.056 z"
               id="path74"
               inkscape:connector-curvature="0"
               style="fill:#aa9767" /><path
               d="m 367.125,448.321 c -10.66,-4.246 -21.663,-11.024 -34.368,-9.255 -4.115,3.165 -8.227,6.159 -12.312,9.045 0.28,0.888 0.542,1.83 0.788,2.824 1.697,0.659 3.542,1.547 5.504,2.829 7.85,5.13 30.046,21.599 65.918,1.116 -2.493,-1.058 -9.606,-0.216 -25.53,-6.559 z"
               id="path76"
               inkscape:connector-curvature="0"
               style="fill:#aa9767" /><path
               d="m 177.149,483.53 c -1.146,-7.066 -1.22,-13.433 -1.223,-13.701 0.002,-0.172 0.029,-2.431 0.28,-5.683 -4.511,2.88 -8.774,6.164 -13.106,8.883 -14.519,9.111 -21.666,9.567 -23.928,11.057 16.168,5.672 28.823,5.462 38.611,2.84 -0.228,-1.079 -0.441,-2.208 -0.634,-3.396 z"
               id="path78"
               inkscape:connector-curvature="0"
               style="fill:#aa9767" /><path
               d="m 179.01,448.069 c -4.014,-2.836 -8.055,-5.777 -12.098,-8.884 -13.056,-2.192 -24.304,4.798 -35.195,9.136 -15.924,6.343 -23.037,5.501 -25.53,6.559 35.872,20.483 58.068,4.015 65.918,-1.116 2.222,-1.452 4.294,-2.402 6.165,-3.073 0.231,-0.921 0.478,-1.794 0.74,-2.622 z"
               id="path80"
               inkscape:connector-curvature="0"
               style="fill:#aa9767" /></g><path
             d="M 229.873,424.773 V 148.176 c -14.415,1.453 -27.634,4.399 -39.538,8.125 v 257.003 c 7.532,5.501 14.989,10.399 21.974,14.684 5.642,-1.426 11.477,-2.502 17.564,-3.215 z"
             id="path84"
             inkscape:connector-curvature="0" /><path
             d="m 348.811,377.363 c 19.507,-22.817 29.38,-46.437 29.38,-70.55 V 193.915 c -3.055,-2.69 -13.284,-11.232 -29.38,-20.289 z"
             id="path86"
             inkscape:connector-curvature="0" /><path
             d="m 121.254,193.899 v 112.915 c 0,24.084 9.872,47.688 29.38,70.503 V 173.48 c -16.156,9.105 -26.35,17.717 -29.38,20.419 z"
             id="path88"
             inkscape:connector-curvature="0" /><path
             d="m 287.169,427.997 c 6.976,-4.276 14.423,-9.164 21.942,-14.652 V 156.399 c -11.927,-3.76 -25.155,-6.735 -39.538,-8.207 v 276.583 c 6.1,0.715 11.945,1.794 17.596,3.222 z"
             id="path90"
             inkscape:connector-curvature="0" /><path
             d="m 316.289,446.298 c -1.167,-2.722 -2.55,-4.581 -4,-5.376 -7.108,-3.658 -14.367,-6.536 -22.115,-8.757 l -7.088,-2.034 6.252,-3.912 c 10.001,-6.254 19.417,-12.854 27.988,-19.616 40.118,-31.648 60.46,-65.222 60.46,-99.79 V 194.101 c -7.788,-6.824 -56.189,-46.516 -128.055,-46.516 -72.553,0 -120.401,39.691 -128.069,46.495 v 112.734 c 0,34.541 20.361,68.114 60.514,99.79 8.515,6.716 17.939,13.308 28.012,19.594 l 6.269,3.912 -7.106,2.034 c -7.788,2.229 -15.085,5.119 -22.307,8.838 -1.35,0.74 -2.716,2.579 -3.877,5.279 l -1.604,3.729 -3.312,-2.345 C 136.323,417.964 86.344,369.809 86.344,308.943 V 167.548 l 1.074,-0.977 c 6.68,-6.081 67.989,-59.416 162.315,-59.416 93.414,0 155.508,53.333 162.282,59.414 l 1.09,0.979 v 141.396 c 0,60.93 -49.974,109.08 -91.897,138.744 l -3.317,2.347 z"
             id="path92"
             inkscape:connector-curvature="0"
             style="fill:#ffffff" /><path
             d="M 249.732,110.441 C 156.987,110.441 97.05,162.244 89.627,169 v 139.943 c 0,58.533 47.234,105.377 90.521,136.02 1.459,-3.395 3.253,-5.731 5.392,-6.905 7.387,-3.804 14.971,-6.803 22.907,-9.075 -9.021,-5.63 -18.74,-12.256 -28.306,-19.802 -40.985,-32.329 -61.765,-66.772 -61.765,-102.369 V 192.621 l 0.471,-0.427 c 5.386,-4.902 54.815,-47.893 130.884,-47.893 75.352,0 125.402,42.995 130.861,47.897 l 0.478,0.429 v 114.187 c 0,35.625 -20.762,70.067 -61.709,102.371 -9.616,7.586 -19.304,14.209 -28.281,19.822 7.9,2.267 15.444,5.255 22.79,9.037 2.166,1.187 3.973,3.541 5.439,6.961 43.284,-30.624 90.51,-77.461 90.51,-136.061 v -139.93 c -6.951,-6.24 -68.002,-58.573 -160.087,-58.573 z"
             id="path94"
             inkscape:connector-curvature="0" /><path
             d="m 412.588,456.526 c -3.223,-0.343 -6.634,-0.508 -10.42,-0.508 -4.618,0 -9.25,0.249 -13.73,0.489 -4.42,0.237 -8.991,0.481 -13.487,0.481 -4.725,0 -8.894,-0.274 -12.746,-0.839 -1.768,-0.276 -2.848,-1.227 -3.716,-1.987 -1.223,-1.074 -2.609,-2.29 -7.778,-2.29 -1.989,0 -4.354,0.197 -7.024,0.587 -1.048,0.094 -1.923,0.133 -2.815,0.133 -6.354,0 -11.62,-1.967 -15.229,-5.689 l -0.549,-0.568 -0.232,-0.753 c -2.253,-7.306 -6.972,-16.662 -10.703,-23.096 -4.261,-4.815 -7.35,-10.104 -10.34,-15.223 -0.576,-0.987 -1.144,-1.957 -1.713,-2.915 -0.28,3.105 -0.749,6.22 -1.891,9.174 -2.92,6.481 -6.113,12.227 -8.577,16.526 l -1.256,2.192 -2.441,-0.652 c -2.513,-0.669 -5.123,-1.278 -7.76,-1.807 l -4.175,-0.837 1.868,-3.826 c 0.792,-1.624 1.518,-3.181 2.107,-4.608 0.278,-0.674 0.595,-1.402 0.929,-2.169 2.023,-4.638 4.522,-10.371 3.053,-15.492 -4.642,-5.785 -5.109,-12.891 -5.559,-19.767 -0.227,-3.445 -0.441,-6.713 -1.165,-9.695 -1.767,-2.231 -2.905,-4.593 -4.007,-6.886 -1.151,-2.394 -2.242,-4.66 -3.97,-6.516 -1.793,-1.121 -4.213,-1.76 -6.697,-1.76 -1.429,0 -2.849,0.21 -4.122,0.612 -0.109,0.057 -0.148,0.094 -0.149,0.094 -0.065,0.326 0.296,1.777 0.512,2.646 0.574,2.305 1.36,5.464 -0.61,8.095 -1.217,1.612 -2.438,2.508 -3.475,3.196 -2.231,7.056 -2.82,14.757 -3.078,20.757 -0.45,4.245 -3.423,7.575 -6.865,11.43 -2.733,3.063 -5.832,6.533 -7.945,10.758 -1.029,2.058 -3.053,5.985 -5.471,10.657 l -0.793,1.533 -1.712,0.217 c -3.127,0.395 -6.232,0.896 -9.226,1.488 l -6.318,1.249 2.698,-5.849 c 1.487,-3.221 2.659,-5.953 3.484,-8.12 1.803,-4.726 1.34,-9.243 0.755,-14.959 -0.201,-1.96 -0.408,-3.993 -0.532,-6.131 -0.035,-3.088 0.694,-5.768 1.397,-8.362 1.143,-4.211 1.77,-6.955 0.225,-9.742 -4.101,-5.714 -6.917,-11.686 -9.643,-17.462 -4.272,-9.058 -8.314,-17.622 -16.939,-24.807 -19.874,-4.465 -37.315,-14.026 -51.846,-28.43 l -0.111,-0.109 -0.1,-0.121 c -13.582,-16.298 -22.746,-32.086 -32.447,-48.802 -7.689,-13.249 -15.64,-26.948 -26.293,-41.671 -0.728,-1.058 -1.464,-1.984 -2.21,-2.931 -1.662,-2.105 -3.548,-4.492 -5.12,-7.797 -7.487,-15.735 -3.065,-26.21 0.163,-33.859 l 0.418,-0.992 0.286,-0.357 c 6.828,-8.531 12.94,-22.059 17.401,-31.936 l 1.51,-3.332 c 1.15,-2.906 2.32,-5.949 3.481,-8.968 7.924,-20.604 15.41,-40.065 33.534,-57.194 1.478,-1.707 2.558,-4.626 3.701,-7.713 2.282,-6.165 5.121,-13.839 13.206,-18.137 8.247,-4.22 18.234,-6.349 29.729,-6.349 12.658,0 23.97,2.563 31.435,4.802 6.564,-0.791 13.224,-1.192 19.808,-1.192 6.817,0 13.718,0.429 20.511,1.277 6.732,0.776 14.486,2.003 20.942,6.701 l 0.613,0.448 0.357,0.671 c 0.51,0.805 1.425,2.242 0.911,4.035 -0.232,0.812 -0.838,1.936 -2.398,2.682 l -0.292,0.139 -0.313,0.08 c -18.319,4.668 -34.14,15.168 -45.934,23.878 l -10.012,12.512 -0.387,0.271 c -9.395,6.571 -12.853,17.259 -16.197,27.596 l -0.307,0.949 c -4.551,14.338 5.909,24.084 16.983,34.402 1.865,1.738 3.71,3.457 5.454,5.178 7.615,4.261 14.377,9.882 21.778,16.244 5.891,5.86 11.536,11.854 16.995,17.651 13.818,14.672 28.105,29.843 44.265,40.909 l 0.253,0.191 c 13.262,11.099 23.558,24.15 33.514,36.771 11.737,14.878 22.821,28.93 38.415,40.163 l 0.223,0.16 5.947,6.012 c 9.874,8.374 17.043,18.713 23.979,28.714 1.138,1.641 2.278,3.288 3.432,4.926 l 0.943,1.397 c 2.968,4.373 6.663,9.818 5.9,15.154 l -0.057,0.397 -0.151,0.37 c -1.069,2.646 -3.789,4.354 -6.928,4.354 -0.7,0 -1.361,-0.089 -1.963,-0.264 -2.932,-0.728 -4.928,-2.093 -6.858,-3.411 -0.996,-0.681 -2.026,-1.387 -3.292,-2.081 l -3.48,-1.844 c -11.748,-6.229 -21.893,-11.61 -33.685,-16.46 -1.05,-0.476 -2.039,-0.965 -3.062,-1.471 -0.856,-0.425 -1.744,-0.864 -2.633,-1.281 1.25,2.11 2.471,4.201 3.5,6.027 l 0.115,0.227 c 2.661,5.721 7.656,12.79 12.057,15.231 l 0.9,0.499 0.455,0.923 c 0.921,1.871 2.347,3.524 3.856,5.277 2.405,2.789 5.104,5.921 5.874,10.356 l 2.417,2.404 c 6.742,6.698 13.714,13.624 19.769,21.198 l 0.193,0.242 4.596,8.693 c 5.751,2.745 9.264,8.263 12.385,13.167 0.801,1.259 1.576,2.48 2.358,3.586 l 0.173,0.247 0.127,0.274 c 2.717,5.894 5.631,12.846 6.635,19.735 l 0.691,4.741 z"
             id="path96"
             inkscape:connector-curvature="0"
             style="fill:#ffffff" /><path
             d="m 420.562,437.589 c -3.817,-5.404 -7.498,-13.394 -14.425,-16.098 l -4.988,-9.435 c -6.869,-8.591 -14.827,-16.22 -22.731,-24.115 -0.563,-6.653 -6.735,-9.966 -9.567,-15.721 -5.203,-2.885 -10.593,-10.589 -13.443,-16.717 -2.223,-3.953 -5.434,-9.273 -7.752,-13.127 4.435,0 9.829,3.269 14.061,5.201 13.103,5.388 24.074,11.359 37.494,18.462 3.914,2.143 5.613,4.249 9.487,5.218 1.342,0.389 4.053,0 4.929,-2.167 0.653,-4.569 -3.587,-10.154 -6.275,-14.198 -8.247,-11.712 -15.789,-23.681 -26.959,-33.116 l -5.856,-5.92 c -29.736,-21.423 -44.036,-53.582 -72.117,-77.081 -22.868,-15.66 -41.312,-38.606 -61.546,-58.779 -6.936,-5.959 -13.937,-11.845 -21.628,-16.082 -12.195,-12.124 -29.666,-24.048 -23.573,-43.247 3.493,-10.774 7.139,-22.803 17.746,-30.223 l 9.985,-12.478 c 14.69,-10.878 30.014,-20.238 47.42,-24.674 1.304,-0.623 0.406,-1.449 0,-2.215 -5.618,-4.089 -12.367,-5.284 -19.415,-6.098 -13.38,-1.669 -26.831,-1.669 -40.201,0 -18.095,-5.548 -42.009,-7.762 -59.332,1.104 -11.084,5.893 -10.849,19.403 -16.085,25.235 -20.306,19.136 -27.038,41.68 -36.391,65.24 -4.482,9.815 -11.409,26.054 -19.335,35.957 -3.264,7.75 -7.492,16.975 -0.466,31.742 2.101,4.417 4.813,6.996 7.026,10.214 24.095,33.306 34.403,61.256 58.601,90.297 14.615,14.484 31.877,23.566 51.008,27.723 15.524,12.516 17.414,29.041 27.877,43.532 3.808,6.58 -1.178,12.957 -1.111,19.687 0.487,8.448 2.331,15.206 -0.433,22.448 -0.928,2.435 -2.172,5.298 -3.571,8.329 3.085,-0.608 6.234,-1.117 9.449,-1.526 2.409,-4.653 4.425,-8.565 5.451,-10.613 4.822,-9.648 13.848,-15.136 14.465,-20.862 0.341,-7.905 1.173,-15.661 3.599,-22.731 1.246,-0.839 2.396,-1.448 3.607,-3.051 2.412,-3.221 -3.462,-9.64 1.66,-11.924 4.578,-1.523 10.26,-0.971 14.147,1.662 4.222,4.3 5.057,9.977 8.864,14.421 2.634,9.631 -0.134,21.487 6.663,29.385 2.559,7.415 -1.775,15.394 -3.882,20.52 -0.612,1.481 -1.366,3.105 -2.193,4.794 2.697,0.54 5.352,1.158 7.961,1.854 2.967,-5.179 5.828,-10.46 8.363,-16.078 2.09,-5.41 1.661,-11.851 2.495,-17.747 6.177,8.253 9.976,17.919 17.187,25.959 4.043,6.935 8.852,16.555 11.168,24.067 4.102,4.23 10.229,5.009 15.211,4.594 16.973,-2.479 16.438,3.212 19.469,3.688 16.418,2.41 32.735,-1.543 50.45,0.384 l 13.801,3.141 c -0.95,-6.511 -3.809,-13.283 -6.369,-18.835 z M 196.784,52.466 c 1.799,-1.872 4.65,-2.149 6.937,-1.944 v 1.383 c -1.128,1.444 -3.607,3.399 -6.101,2.216 -0.422,-0.482 -1.103,-0.896 -0.836,-1.655 z m -1.112,28.83 c 6.015,-13.069 7.154,-11.008 16.085,-9.979 3.892,-0.575 6.167,-3.051 8.315,-5.821 l -0.553,-0.836 c -5.056,1.176 -10.046,5.06 -15.516,2.771 -2.158,-1.595 -2.642,-4.227 -1.945,-6.654 4.708,-5.683 15.46,-0.704 21.142,-5.141 1.838,-2.288 -2.852,-3.171 -3.957,-4.006 -1.036,-0.554 -3.045,0.138 -3.045,-1.661 2.075,-1.596 5.259,-0.783 7.698,-0.972 3.97,-0.041 9.375,-2.058 9.489,1.246 0,5.892 -9.96,7.91 -8.872,11.92 1.447,2.703 4.185,1.486 6.374,0.558 5.397,-2.359 9.837,-7.072 15.525,-8.873 1.174,-0.278 1.874,0.349 1.946,1.39 v 0.828 c -15.313,7.973 -29.464,18.996 -43.807,29.389 -2.641,1.546 -5.201,3.12 -8.32,2.217 -2.283,-1.384 -0.339,-4.228 -0.559,-6.376 z m -57.384,10.815 c 2.698,4.02 -9.359,6.028 -1.105,7.763 1.542,6.251 -9.641,7.968 -13.872,12.475 0.148,0.762 -0.188,2.054 1.395,1.664 3.872,-0.345 9.594,-6.93 10.533,-3.604 0.827,4.506 -4.367,4.988 -6.937,6.654 -3.192,1.524 -7,3.325 -8.588,6.929 -0.624,1.769 2.147,1.181 3.049,0.833 3.322,-0.971 7.881,-6.569 9.147,-4.715 0.55,1.733 -0.762,3.398 -1.946,4.715 -4.569,3.464 -11.984,2.771 -14.141,9.15 -0.2,1.609 2.707,2.495 4.442,1.667 2.907,-1.32 6.715,-7.375 8.312,-4.994 0.695,2.078 -0.97,4.157 -2.769,5.268 -7.903,7.07 -16.227,13.097 -25.779,16.08 -1.188,-1.665 -0.218,-3.881 0.268,-5.541 7.002,-20.867 16.224,-40.828 28.28,-59.611 2.57,-2.981 8.113,-5.061 10.819,-1.39 -0.147,4.022 -5.826,3.051 -6.385,6.656 1.605,1.248 3.548,0.001 5.277,0.001 z m 45.751,-34.657 c -2.271,0.241 -7.012,-3.397 -8.882,0.555 -0.829,2.289 0.833,6.376 -2.495,6.931 -1.939,0.207 -4.618,0.08 -4.708,-1.944 -0.487,-2.698 -0.609,-5.759 1.111,-8.037 1.716,-3.674 6.521,-6.188 11.796,-5.272 2.276,0.458 4.57,2.057 5.671,4.993 0.479,1.732 -0.864,2.329 -2.493,2.774 z m 37.364,121.656 -0.838,-3.046 c 8.177,4.368 15.979,10.35 22.748,17.463 7.283,6.557 15.565,17.341 15.525,18.578 -1.306,1.075 -6.865,-5.059 -11.378,-4.99 -2.834,0.672 0.828,4.715 -1.387,5.541 -2.988,1.097 -17.396,-5.611 -22.728,-13.031 0.763,-0.342 2.407,-0.311 2.214,-1.384 0.722,-1.213 -5.576,-3.354 -4.707,-5.547 0,0 1.44,1.226 2.493,0.832 2.633,-2.492 -4.763,-5.158 -0.558,-7.205 0.217,-2.496 -2.617,-4.341 -3.582,-6.071 0.609,-0.373 1.573,-0.516 2.198,-1.14 z m 75.747,118.447 c -2.844,-2.355 -5.397,-5.475 -8.872,-6.374 -1.482,0.17 -1.29,1.282 -1.29,1.905 1.727,2.494 8.282,3.461 6.282,6.412 -4.507,2.772 -8.452,-2.359 -12.473,-4.162 -12.413,-9.565 -24.325,-20.794 -36.043,-31.327 -3.022,-2.889 -5.331,-6.742 -4.439,-7.486 0.671,-0.927 5.275,1.904 6.813,2.672 1.541,0.771 1.508,-1.009 1.508,-1.009 -10.405,-11.37 -30.224,-19.341 -29.115,-37.151 0.278,-1.458 1.451,-2.844 2.773,-3.607 4.043,-3.095 37.162,7.107 51.018,15.251 14.967,8.039 28.279,21.418 37.979,35.762 0.147,0.694 0.35,1.391 0.285,2.22 -0.906,1.439 -3.022,0.088 -4.992,-1.386 -2.422,-1.662 -4.58,-3.883 -7.213,-4.988 l -0.826,0.829 c 5.617,7.349 17.584,11.991 17.52,22.385 l -1.734,0.192 c -4.96,-3.28 -9.759,-7.741 -14.96,-9.546 -1.319,0.623 0,1.665 0.551,2.22 5.16,3.667 10.559,7.325 15.533,11.644 1.112,1.525 1.379,3.671 0.828,5.545 h -1.661 c -4.155,-2.979 -7.61,-5.626 -13.031,-7.76 -1.1,2.215 1.378,3.291 3.883,4.986 3.848,2.156 12.51,4.661 8.865,9.15 -6.792,5.334 -12.522,-2.765 -17.189,-6.377 z m 75.437,95.094 c -4.914,-1.106 -8.108,-6.307 -12.189,-9.426 -2.159,-2.499 -3.821,-5.196 -5.832,-7.761 -1.134,-0.55 -1.9,0.029 -1.94,1.388 -2.077,7.112 11.64,19.891 16.635,30.21 0.971,2.706 2.779,5.757 1.673,8.6 -2.711,1.596 -10.951,-0.316 -13.068,-1.088 -4.814,-2.885 -7.598,-14.999 -13.836,-22.758 -1.248,-0.618 -1.173,-2.49 -2.765,-2.212 -2.014,1.803 0.201,3.881 0.265,5.827 1.747,4.355 5.615,8.17 5.275,13.026 l -2.492,-0.283 c -5.281,-7.205 -9.849,-14.966 -15.833,-21.625 -2.499,1.878 0,4.441 0,6.66 2.16,5.543 6.185,10.255 6.949,16.354 0,1.94 -2.571,0.967 -3.61,0.832 -9.992,-9.286 -13.039,-22.456 -21.353,-32.994 -1.252,-0.066 -1.671,1.113 -2.223,1.945 1.663,9.355 8.112,16.774 7.211,27.166 -0.492,0.276 -0.694,1.108 -1.389,0.837 -6.235,-9.086 -16.014,-19.202 -9.712,-31.053 3.196,-10.121 -5.111,-19.617 -0.267,-29.387 3.12,-3.258 7.691,-2.777 11.92,-2.219 2.15,-2.914 1.047,-7.35 5.27,-9.149 3.604,-2.433 9.226,-1.388 12.765,0.554 13.664,16.913 24.963,34.793 38.274,51.845 0.067,1.597 2.28,3.537 0.272,4.711 z"
             id="path98"
             inkscape:connector-curvature="0" /><path
             d="m 249.693,516.535 c -24.735,-0.005 -45.182,-4.601 -64.347,-14.465 -9.418,-5.21 -9.923,-29.459 -9.95,-32.209 0.027,-2.819 0.532,-27.129 9.855,-32.251 19.242,-9.907 39.71,-14.507 64.492,-14.517 24.749,0.01 45.191,4.605 64.335,14.461 9.437,5.176 9.943,29.464 9.97,32.216 -0.027,2.819 -0.532,27.129 -9.86,32.251 -19.249,9.912 -39.718,14.51 -64.493,14.515 0,-10e-4 0,-10e-4 -0.002,-10e-4 z"
             id="path100"
             inkscape:connector-curvature="0"
             style="fill:#ffffff" /><path
             d="m 312.575,440.476 c -18.652,-9.603 -38.627,-14.089 -62.829,-14.097 -24.257,0.008 -44.231,4.493 -62.911,14.113 -6.481,3.557 -8.084,22.384 -8.153,29.337 0.069,6.921 1.669,25.723 8.17,29.319 18.679,9.615 38.648,14.098 62.843,14.103 24.251,-0.005 44.226,-4.491 62.913,-14.111 6.483,-3.559 8.088,-22.385 8.157,-29.338 -0.07,-6.926 -1.675,-25.753 -8.19,-29.326 z"
             id="path102"
             inkscape:connector-curvature="0" /><path
             d="m 308.135,449.534 c -0.312,-0.698 -0.858,-1.264 -1.543,-1.602 -16.82,-8.315 -34.882,-12.192 -56.844,-12.202 -21.994,0.01 -40.079,3.887 -56.911,12.207 -0.689,0.338 -1.237,0.911 -1.548,1.612 -1.725,3.885 -3.186,12.913 -3.258,20.189 0.072,7.35 1.54,16.484 3.274,20.359 0.312,0.696 0.858,1.264 1.544,1.602 16.835,8.32 34.896,12.195 56.843,12.2 0.001,0 0.001,0 0.002,0 21.982,-0.005 40.066,-3.882 56.909,-12.202 0.689,-0.341 1.237,-0.911 1.547,-1.614 1.726,-3.887 3.188,-12.913 3.259,-20.189 -0.069,-7.353 -1.538,-16.485 -3.274,-20.36 z m -2.985,39.216 c -16.362,8.083 -34.045,11.859 -55.456,11.864 -21.374,-0.005 -39.034,-3.779 -55.389,-11.859 -1.383,-3.093 -2.914,-11.491 -2.988,-19.049 0.073,-7.338 1.597,-15.719 2.975,-18.824 16.357,-8.083 34.037,-11.857 55.457,-11.867 21.384,0.01 39.045,3.784 55.386,11.862 1.385,3.092 2.916,11.491 2.99,19.049 -0.071,7.337 -1.596,15.719 -2.975,18.824 z"
             id="path104"
             inkscape:connector-curvature="0"
             style="fill:#ffffff" /></g><g
           id="g116"><path
             d="m 226.653,482.669 v 2.888 h -14.022 v -2.888 h 5.636 v -25.798 l -5.636,2.246 v -3.071 l 6.324,-2.567 h 2.519 v 29.189 h 5.179 z"
             id="path108"
             inkscape:connector-curvature="0"
             style="fill:#ffffff" /><path
             d="m 245.522,459.894 v 3.944 c 0,2.015 -0.457,4.672 -3.345,5.041 3.024,0.504 3.345,3.802 3.345,5.545 v 4.72 c 0,4.213 -2.108,6.78 -6.507,6.78 h -1.42 c -4.399,0 -6.507,-2.567 -6.507,-6.78 v -4.72 c 0,-1.742 0.321,-5.041 3.345,-5.545 -2.886,-0.369 -3.345,-3.026 -3.345,-5.041 v -3.944 c 0,-4.213 2.108,-6.78 6.507,-6.78 h 1.42 c 4.399,0 6.507,2.567 6.507,6.78 z m -3.207,0.552 c 0,-3.209 -1.466,-4.492 -3.575,-4.492 h -0.871 c -2.108,0 -3.575,1.284 -3.575,4.492 v 3.436 c 0,2.705 1.466,3.664 3.575,3.664 h 0.871 c 2.108,0 3.575,-0.959 3.575,-3.664 z m 0,13.608 c 0,-2.701 -1.466,-3.664 -3.575,-3.664 h -0.871 c -2.108,0 -3.575,0.963 -3.575,3.664 v 4.537 c 0,3.209 1.466,4.492 3.575,4.492 h 0.871 c 2.108,0 3.575,-1.284 3.575,-4.492 z"
             id="path110"
             inkscape:connector-curvature="0"
             style="fill:#ffffff" /><path
             d="m 255.69,476.3 v 2.474 c 0,3.254 1.101,4.31 3.713,4.31 2.612,0 3.711,-1.056 3.711,-4.31 v -7.698 c -0.733,1.146 -2.2,1.925 -4.535,1.925 -3.666,0 -6.371,-1.881 -6.371,-6.093 v -7.198 c 0,-4.489 2.155,-6.597 7.011,-6.597 h 0.093 c 4.856,0 7.011,2.108 7.011,6.597 v 19.615 c 0,4.489 -2.017,6.597 -6.875,6.597 h -0.091 c -4.858,0 -6.873,-2.108 -6.873,-6.597 V 476.3 Z m 7.423,-9.988 v -6.048 c 0,-3.254 -1.237,-4.31 -3.849,-4.31 -2.612,0 -3.849,1.056 -3.849,4.31 v 6.048 c 0,2.701 1.511,3.802 3.849,3.802 2.153,0 3.849,-1.101 3.849,-3.802 z"
             id="path112"
             inkscape:connector-curvature="0"
             style="fill:#ffffff" /><path
             d="m 272.188,459.711 c 0,-4.489 2.382,-6.597 6.966,-6.597 h 0.091 c 4.582,0 6.964,2.108 6.964,6.597 v 4.537 c 0,3.298 -2.75,5.272 -6.048,7.974 -3.162,2.612 -4.858,4.261 -4.858,6.783 v 3.713 h 10.906 v 2.839 h -14.113 v -6.645 c 0,-4.078 2.886,-6.507 6.369,-9.257 2.933,-2.336 4.537,-3.575 4.537,-5.727 v -3.664 c 0,-2.981 -1.375,-4.31 -3.895,-4.31 -2.52,0 -3.757,1.328 -3.757,4.31 v 4.078 h -3.162 z"
             id="path114"
             inkscape:connector-curvature="0"
             style="fill:#ffffff" /></g></g></g></g><g
     id="GUIDES"
     transform="translate(-36.819681,-36.923877)"><g
       id="g123" /><g
       id="g125" /><g
       id="g127" /><g
       id="g129" /><g
       id="g131" /><g
       id="g133" /><g
       id="g135" /><g
       id="g137" /><g
       id="g139" /><g
       id="g141" /></g></svg>