<?xml version="1.0" encoding="utf-8"?>
<!-- Generator: Adobe Illustrator 19.1.0, SVG Export Plug-In . SVG Version: 6.00 Build 0)  -->
<svg version="1.1" id="Layer_1" xmlns="http://www.w3.org/2000/svg" xmlns:xlink="http://www.w3.org/1999/xlink" x="0px" y="0px"
	 viewBox="0 0 270.693 222.059" width="349.143790677" height="286.414946134" style="enable-background:new 0 0 270.693 222.059;" xml:space="preserve">
<style type="text/css">
	.st0{fill-rule:evenodd;clip-rule:evenodd;fill:#010101;}
	.st1{fill-rule:evenodd;clip-rule:evenodd;fill:#CC2031;}
	.st2{fill:#CC2031;}
	.st3{fill:#BDBEC0;}
	.st4{fill:#D2D3D4;}
	.st5{fill-rule:evenodd;clip-rule:evenodd;fill:#939598;}
	.st6{fill:#939598;}
	.st7{fill:#010101;}
	.st8{display:none;fill:none;}
</style>
<polygon class="st0" points="0,0 0,76.861 130.775,217.416 135.081,222.059 139.337,217.358 270.693,75.087 270.693,0 "/>
<polygon class="st1" points="6.523,6.789 6.523,65.485 29.383,61.567 29.383,53.464 14.93,55.296 14.93,35.529 27.94,35.529 
	27.94,26.645 14.93,26.645 14.93,15.671 29.691,15.671 29.691,6.789 "/>
<polygon class="st2" points="38.809,6.789 38.809,27.434 55.31,41.801 55.31,49.022 46.337,51.103 46.337,44.944 38.51,38.406 
	38.51,59.996 63.13,56.077 63.13,37.1 46.337,23.251 46.337,15.671 55.31,15.671 55.31,21.421 62.84,27.692 62.84,6.789 "/>
<polygon class="st2" points="72.392,6.789 72.392,27.692 87.154,40.504 87.154,49.668 79.333,49.589 79.333,44.419 72.392,38.148 
	72.392,56.464 94.394,56.464 94.394,35.792 79.639,22.992 79.639,15.671 87.154,15.671 87.154,20.112 94.7,26.386 94.7,6.789 "/>
<polygon class="st2" points="112.661,35.269 126.237,35.269 126.237,26.386 112.661,26.386 112.661,15.407 127.115,15.407 
	127.115,6.789 104.26,6.789 104.26,56.336 116.167,56.336 127.923,47.557 112.661,47.564 "/>
<polygon class="st2" points="135.805,44.557 135.805,6.521 143.062,6.521 154.29,33.964 154.29,6.789 161.813,6.789 161.813,56.441 
	151.961,56.441 142.756,28.475 142.756,49.2 "/>
<polygon class="st2" points="238.575,60.914 238.575,6.521 246.38,6.521 256.818,38.632 256.818,6.789 264.349,6.789 
	264.349,64.887 255.067,63.463 246.105,28.475 246.105,61.962 "/>
<path class="st2" d="M170.769,56.184V6.789h26.936c0,0,0.291,10.714-2.316,24.04c-2.917,14.89-8.104,25.355-8.104,25.355H170.769z
	 M179.155,15.671V47.29h3.208c0,0,4.048-11.761,5.206-19.856c1.161-8.101,0.88-11.763,0.88-11.763H179.155z"/>
<path class="st1" d="M207.764,56.36c0,0-4.795-11.156-4.795-25.016c0-13.841,4.922-24.555,4.922-24.555H226.7
	c0,0,4.926,12.27,4.926,26.119s-5.782,26.321-5.782,26.321L207.764,56.36z M219.96,48.975c0,0,2.976-8.191,2.976-17.057
	c0-8.862-3.152-16.247-3.152-16.247h-4.958c0,0-3.168,6.861-3.168,15.731c0,8.867,2.974,16.823,2.974,16.823L219.96,48.975z"/>
<polygon class="st2" points="265.297,73.757 135.032,213.445 5.57,74.264 62.783,64.839 117.432,64.839 134.862,52.078 
	152.866,64.839 207.246,64.839 "/>
<path class="st3" d="M82.48,131.212L35.907,83.859l14.738-2.493l52.373,26.144c-1.445,1.66-3.276,3.82-5.205,6.257
	c0.002-0.003,0.005-0.006,0.006-0.009L48.168,86.745l46.572,31.038c0.037-0.05,0.075-0.099,0.112-0.149
	c-0.374,0.508-0.749,1.023-1.12,1.543c-2.669,3.714-4.668,7.665-6.07,10.876L82.48,131.212z"/>
<path class="st4" d="M134.863,193.303c0,0-2.935-4.672-6.343-11.123c1.033-0.758,2.966-1.664,6.343-1.664
	c3.067,0,5.168,0.8,6.478,1.561c-3.428,6.503-6.388,11.226-6.388,11.226H134.863z"/>
<path class="st3" d="M177.63,141.685l-6.216-1.549l-12.03,3.111l-3.869-5.056c0,0-0.774,10.869-6.61,27.16
	c-1.734,4.857-4.073,9.909-6.34,14.361c-1.403-1.142-3.998-2.708-7.703-2.708c-3.634,0-6.394,1.383-7.829,2.3
	c-2.203-4.351-4.455-9.242-6.135-13.953c-5.827-16.291-6.6-27.16-6.6-27.16l-3.887,5.056l-12.026-3.111l-6.218,1.549l-3.103-2.72
	c0,0,2.733-9.311,8.538-17.459c5.828-8.152,12.414-15.134,12.414-15.134l11.262,5.822c0,0,2.331-5.055,4.652-9.311
	c2.329-4.272,4.273-8.152,4.273-8.152L94.12,80.939h30.649l2.329,3.692l7.764-7.432h0.09l7.754,7.432l2.329-3.692h30.66
	l-36.099,13.792c0,0,1.941,3.88,4.277,8.152c2.324,4.256,4.646,9.311,4.646,9.311l11.254-5.822c0,0,6.602,6.982,12.422,15.134
	c5.821,8.148,8.531,17.459,8.531,17.459L177.63,141.685z"/>
<path class="st3" d="M182.143,130.052c-1.41-3.211-3.409-7.162-6.062-10.875c-0.336-0.472-0.675-0.936-1.017-1.398l46.556-31.035
	l-49.624,27.013c0.096,0.124,0.196,0.255,0.294,0.38c-2.042-2.591-3.984-4.883-5.503-6.628l51.737-26.064l15.385,2.413
	l-46.58,47.353L182.143,130.052z"/>
<path class="st5" d="M143.012,111.034l4.412,6.611l15.275-8.032c-1.765-2.006-2.926-3.241-2.926-3.241l-11.254,5.823
	c0,0-2.321-5.056-4.645-9.312c-2.337-4.272-4.278-8.151-4.278-8.151l3.096-10.109l-7.739-7.424h-0.09v45.177L143.012,111.034z"/>
<path class="st6" d="M265.297,73.757L135.033,213.445L5.57,74.264l57.213-9.425h54.649l17.43-12.761l18.003,12.761h54.381
	L265.297,73.757z M206.755,70.668h-58.621l-13.272-9.318l-13.286,9.318H63.355l-45.603,8.069l117.214,126.11L252.965,77.601
	L206.755,70.668z"/>
<path class="st5" d="M179.039,134.251l-3.043,2.772l-5.822-1.933l-10.86,2.716l-6.596-8.539l-0.773,9.698l-5.054-1.942l2.33,10.482
	c0,0-2.33,4.659-5.433,8.148c-2.13,2.395-6.416,4.056-8.925,4.861v32.789h0.09c0,0,9.221-14.705,13.952-27.952
	c5.837-16.291,6.61-27.16,6.61-27.16l3.87,5.056l12.03-3.112l6.216,1.55l3.096-2.72
	C180.727,138.965,180.176,137.073,179.039,134.251"/>
<path class="st6" d="M42.243,82.771l52.496,35.012c2.992-4.064,6.078-7.748,8.278-10.273L50.644,81.367L42.243,82.771z"/>
<path class="st5" d="M175.066,117.783c0.34,0.467,0.678,0.927,1.015,1.394c0.533,0.754,1.049,1.532,1.543,2.296l43.997-34.728
	L175.066,117.783z"/>
<polygon class="st3" points="134.863,61.35 134.863,52.078 117.432,64.823 121.697,70.354 "/>
<polygon class="st3" points="206.755,70.668 206.862,70.684 206.862,64.839 152.284,64.839 152.203,64.615 147.9,69.991 
	148.134,70.668 "/>
<polygon class="st3" points="134.863,204.718 17.752,78.737 62.784,70.789 62.784,64.84 5.57,74.264 134.863,213.27 "/>
<path class="st7" d="M133.718,148.546c-4.412-0.483-7.273-3.759-8.675-5.87l-0.936,3.983c0.599,1.548,3.718,8.832,9.611,9.691
	V148.546z"/>
<path class="st7" d="M145.101,143.515c-1.959,2.047-5.12,4.583-9.045,5.03v7.785c4.772-0.694,8.425-5.43,10.142-8.124
	L145.101,143.515z"/>
<path class="st0" d="M134.863,190.587c0,0,2.62-3.984,3.289-5.24c0.692-1.261,1.176-2.226,1.176-2.226s-0.549-0.487-2.241-0.873
	c-1.646-0.404-2.227-0.277-2.227-0.277L134.863,190.587z"/>
<path class="st7" d="M241.861,81.576l-24.481-4.038l-52.552,26.894l-4.669-3.492l-8.923,3.878l-3.878-7.376l47.355-20.566h-50.839
	l-8.922-7.378h-0.089l-8.933,7.378H75.103l47.343,20.566l-3.883,7.376l-8.926-3.878l-4.659,3.492L50.424,77.61l-22.888,4.239
	l51.823,55.562l6.215-1.162l-1.547,6.594l5.432,5.056l9.302-2.717l8.934,3.492c0,0,4.651,9.31,11.245,21.73
	c6.604,12.425,15.923,27.164,15.923,27.164h0.089c0,0,9.302-14.739,15.898-27.164c6.599-12.42,11.245-21.73,11.245-21.73
	l8.929-3.492l9.314,2.717l5.442-5.056l-1.556-6.594l6.217,1.162L241.861,81.576z M82.48,131.211L35.906,83.858l14.738-2.492
	l52.374,26.143c-1.445,1.66-3.276,3.82-5.205,6.257c0.002-0.003,0.005-0.006,0.006-0.009L48.167,86.744l46.572,31.038
	c0.038-0.05,0.076-0.099,0.113-0.149c-0.375,0.509-0.75,1.023-1.12,1.544c-2.669,3.713-4.668,7.664-6.07,10.875L82.48,131.211z
	 M134.863,193.303c0,0-2.936-4.672-6.343-11.123c1.032-0.758,2.966-1.664,6.343-1.664c3.067,0,5.167,0.799,6.478,1.56
	c-3.428,6.504-6.389,11.227-6.389,11.227H134.863z M177.63,141.685l-6.215-1.55l-12.031,3.112l-3.869-5.056
	c0,0-0.773,10.869-6.61,27.16c-1.733,4.857-4.073,9.909-6.34,14.361c-1.403-1.143-3.998-2.709-7.702-2.709
	c-3.635,0-6.395,1.384-7.83,2.301c-2.203-4.351-4.454-9.243-6.134-13.953c-5.828-16.291-6.601-27.16-6.601-27.16l-3.887,5.056
	l-12.026-3.112l-6.218,1.55l-3.103-2.72c0,0,2.733-9.311,8.538-17.459c5.828-8.152,12.414-15.134,12.414-15.134l11.262,5.822
	c0,0,2.331-5.055,4.652-9.311c2.33-4.272,4.274-8.152,4.274-8.152L94.12,80.939h30.649l2.329,3.692l7.765-7.432h0.089l7.754,7.432
	l2.33-3.692h30.659l-36.099,13.792c0,0,1.941,3.88,4.278,8.152c2.324,4.256,4.645,9.311,4.645,9.311l11.254-5.822
	c0,0,6.602,6.982,12.422,15.134c5.821,8.148,8.531,17.459,8.531,17.459L177.63,141.685z M182.143,130.052
	c-1.41-3.211-3.409-7.162-6.062-10.875c-0.336-0.472-0.675-0.936-1.017-1.398l46.556-31.035l-49.624,27.013
	c0.096,0.124,0.196,0.255,0.294,0.38c-2.042-2.591-3.984-4.883-5.503-6.628l51.737-26.064l15.385,2.413l-46.58,47.353
	L182.143,130.052z"/>
<polyline class="st8" points="-13.514,230.802 283.473,230.802 283.473,-9.245 -13.514,-9.245 -13.514,230.802 "/>
</svg>
