<?xml version="1.0" encoding="utf-8"?>
<!-- Generator: Adobe Illustrator 19.2.1, SVG Export Plug-In . SVG Version: 6.00 Build 0)  -->
<svg version="1.1" id="Layer_1" xmlns="http://www.w3.org/2000/svg" xmlns:xlink="http://www.w3.org/1999/xlink" x="0px" y="0px"
	 viewBox="0 0 283.7079773 309.1765137" width="302.923192966" height="330.116684104" style="enable-background:new 0 0 283.7079773 309.1765137;" xml:space="preserve">
<style type="text/css">
	.st0{fill:#002B5C;}
	.st1{fill:#FFFFFF;}
</style>
<g>
	<path class="st0" d="M100.9725952,269.4823914H81.5965881v-11.7869873c0-3.427002-0.2090149-5.5690002-0.6239929-6.4129944
		c-0.4130249-0.855011-1.3220215-1.2810059-2.7340088-1.2810059c-1.5930176,0-2.6069946,0.5209961-3.0360107,1.5540161
		c-0.428009,1.0339966-0.6430054,3.2659912-0.6430054,6.697998v31.5130005c0,3.2939758,0.2149963,5.446991,0.6430054,6.4499817
		c0.4290161,1.0119934,1.3980103,1.5110168,2.8999939,1.5110168c1.4430237,0,2.381012-0.5030212,2.8270264-1.5169983
		c0.4429932-1.006012,0.6669922-3.3720093,0.6669922-7.0960083v-8.5379944h19.3760071v2.6459961
		c0,7.0159912-0.5450134,11.9909973-1.6340027,14.9299927c-1.0870056,2.9320068-3.4960022,5.5-7.2290039,7.7109985
		c-3.7230225,2.2090149-8.3190002,3.3070068-13.776001,3.3070068c-5.6750183,0-10.3560181-0.928009-14.0390015-2.8009949
		c-3.6790161-1.8659973-6.1159973-4.4590149-7.3199921-7.7590027c-1.1970062-3.3110046-1.7949982-8.2839966-1.7949982-14.9299927
		v-19.8000183c0-4.8819885,0.1849976-8.5419922,0.5549927-10.9880066c0.3659973-2.4429932,1.4660034-4.7919922,3.2899933-7.0529785
		c1.8230133-2.2620239,4.3589935-4.0380249,7.594986-5.3370056c3.2380066-1.29599,6.95401-1.947998,11.1620178-1.947998
		c5.6990051,0,10.4100037,1.0079956,14.125,3.0140076c3.7099915,2.0019836,6.151001,4.5019836,7.3160095,7.4989929
		c1.1689758,2.993988,1.75,7.651001,1.75,13.973999V269.4823914z"/>
	<path class="st0" d="M140.4888916,239.9946289l11.1169739,67.7379761h-19.8099976l-1.0419922-12.1869812h-6.9370117
		l-1.1129761,12.1869812h-20.0859985l9.8509827-67.7379761H140.4888916z M130.2388916,283.5516052
		c-0.9620056-7.6679993-1.9400024-17.1539917-2.9370117-28.4559937c-1.95401,12.9790039-3.1879883,22.4649963-3.6940002,28.4559937
		H130.2388916z"/>
	<polygon class="st0" points="187.9571838,239.9942932 187.9571838,254.9073181 176.4131775,254.9073181 176.4131775,307.734314 
		157.0311584,307.734314 157.0311584,254.9073181 145.5821838,254.9073181 145.5821838,239.9942932 	"/>
	<path class="st0" d="M227.9173889,260.509491h-17.9830017v-5.04599c0-2.3509827-0.2369995-3.8500061-0.6930237-4.492981
		c-0.4589844-0.6440125-1.2269897-0.9690247-2.3059998-0.9690247c-1.1669922,0-2.0469971,0.4370117-2.6499939,1.302002
		c-0.5960083,0.8680115-0.8959961,2.1880188-0.8959961,3.9510193c0,2.2709961,0.3340149,3.9759827,1.0039978,5.1259766
		c0.631012,1.1500244,2.45401,2.5270081,5.4609985,4.1400146c8.6289978,4.6459961,14.0559998,8.4580078,16.2950134,11.446991
		c2.2389832,2.9830017,3.3589783,7.8040161,3.3589783,14.4470215c0,4.8309937-0.6269836,8.3919983-1.8619995,10.6779785
		c-1.2449951,2.2950134-3.6470032,4.2140198-7.2039795,5.7590027c-3.552002,1.5499878-7.7030029,2.3250122-12.4200134,2.3250122
		c-5.1839905,0-9.6029968-0.8910217-13.2680054-2.6820068c-3.6619873-1.7869873-6.0639954-4.0620117-7.1989746-6.8269958
		c-1.1340027-2.7680054-1.7010193-6.6889954-1.7010193-11.7740173v-4.4389954h17.9790039v8.2690125
		c0,2.5539856,0.256012,4.1789856,0.7659912,4.9150085c0.5020142,0.7319946,1.4020081,1.0899963,2.6910095,1.0899963
		c1.2990112,0,2.2520142-0.4609985,2.8850098-1.3850098c0.6269836-0.9230042,0.9449768-2.2900085,0.9449768-4.1119995
		c0-3.9949951-0.5959778-6.6149902-1.7909851-7.8450012c-1.2179871-1.2290039-4.2409973-3.276001-9.0589905-6.1440125
		c-4.8200073-2.894989-8.0169983-4.9969788-9.5780029-6.3099976c-1.5650024-1.3150024-2.8659973-3.1299744-3.8919983-5.446991
		c-1.0299988-2.3120117-1.5440063-5.2739868-1.5440063-8.8739929c0-5.196991,0.730011-8.9880066,2.1889954-11.3880005
		c1.4559937-2.4049988,3.8110046-4.2820129,7.0660095-5.6369934c3.2529907-1.3560181,7.1779785-2.0320129,11.7779846-2.0320129
		c5.0320129,0,9.3160095,0.7390137,12.8659973,2.2200012c3.5429993,1.4809875,5.8880005,3.3450012,7.0400085,5.5950012
		c1.1489868,2.25,1.7220154,6.0690002,1.7220154,11.4620056V260.509491z"/>
	<path class="st1" d="M5.8999786,84.4439697c16.4179993,73.7310181,67.8489838,134.2610168,135.9550018,163.2250061
		c68.098999-28.9639893,119.5329895-89.493988,135.9529724-163.2250061
		C265.3769531,77.3930054,256.986969,64.052002,256.986969,48.742981c0-10.3009644,3.802002-19.7109985,10.0740051-26.914978
		C227.9649658,7.7059937,185.8029785,0,141.8399658,0C97.8809814,0,55.7229767,7.7009888,16.6299744,21.8150024
		C22.9099731,29.0209961,26.713974,38.4349976,26.713974,48.742981C26.713974,64.052002,18.3239746,77.3930054,5.8999786,84.4439697
		"/>
	<path class="st0" d="M261.868988,48.7431641c0-9.75,3.868988-18.5899658,10.1419983-25.0909424
		c-1.6430054-0.6230469-3.2940063-1.2280273-4.9490051-1.8240356c-6.2720032,7.2039795-10.0760193,16.6140137-10.0760193,26.914978
		c0,15.309021,8.3919983,28.6500244,20.8210144,35.7010498c-16.4200134,73.730957-67.8519897,134.2599487-135.9509888,163.2249451
		C73.7499695,218.7041626,22.318985,158.1751709,5.9009857,84.4442139
		c12.423996-7.0510254,20.8139954-20.3920288,20.8139954-35.7010498c0-10.3079834-3.8039856-19.7219849-10.0839996-26.9279785
		c-1.6539917,0.598999-3.3089905,1.2009888-4.9519958,1.8240356c6.2839966,6.5009766,10.1529999,15.3469849,10.1529999,25.1039429
		c0,14.8780518-8.9879913,27.651001-21.8319855,33.1970215c16.2049866,79.3029785,69.9459839,144.940979,141.8559875,177.5439758
		c71.901001-32.6029968,125.6429749-98.2409973,141.8519897-177.5439758
		C270.8609619,76.394165,261.868988,63.6212158,261.868988,48.7431641"/>
	<path class="st0" d="M45.5911865,68.7266235c-1.4490051-0.9969482-3.9810028-2.25-3.7400055-3.05896
		c0.5690002-1.8930054,14.1060028-1.9400024,16.6139984,7.8989868c2.0599976,8.0839844,4.2109985,18.3569946,8.8569946,20.0300293
		c4.8930054,1.7609863,7.8099976,0,9.927002-1.4660034c0,0,7.5329895-6.3320313,13.9389954-6.4550171
		c5.6409912-0.1069946,9.6560059,1.6279907,14.5410156,4.2329712c0,0,9.4099731,5.8580322,16.026001,5.6400146
		c6.6199951-0.21698,10.414978-4.0150146,13.5649719-6.0750122c3.1430054-2.0619507,11.7310181-7.3150024,17.2460022-4.664978
		c2.7130127,1.302002,0.5429993,5.3170166-0.5419922,7.2680054c-0.7319946,1.3220215-3.6059875,7.335022,1.3040161,9.4379883
		c6.6809998,2.8649902,25.0599976-15.8389893,40.2479858-15.8389893c6.4110107,0,13.9349976,6.4550171,13.9349976,6.4550171
		c2.1150208,1.4660034,5.0450134,3.2550049,9.927002,1.4660034c4.6289978-1.6970215,7.1069946-12.2590332,8.7929993-19.7720337
		c2.2790222-10.1549683,15.6790161-9.9309692,15.8269958-8.1380005c0.0760193,0.8740234-1.9389954,1.9440308-3.4359741,2.8400269
		c-1.6010132,0.9599609-1.6940002,1.3729858,1.4429932,2.367981c7.0310059,2.2280273,13.8599854,4.7360229,20.2689819,7.2979736
		c-6.367981-8.125-10.177002-18.3459473-10.177002-29.4489746c0-11.039978,3.7680054-21.210022,10.0690002-29.3170166
		C223.0681763,6.831665,183.2531738,0.0006714,141.8411865,0.0006714c-41.40802,0-81.2210083,6.8249512-118.3710022,19.414978
		c6.3059998,8.1080322,10.0759888,18.2839966,10.0759888,29.3280029c0,11.0720215-3.7869873,21.2730103-10.1269989,29.3870239
		c6.4930115-2.618042,13.3860016-5.1410522,20.2880096-7.2360229
		C46.9861755,69.8996582,46.6481781,69.4526367,45.5911865,68.7266235"/>
	<path class="st0" d="M173.5261841,181.9985046c-2.2730103,2.6180115-10.7640076,15.65802-14.5170288,20.1160278
		c-3.8190002,4.5279846-9.8659973,8.9019775-17.1819763,8.9019775c-7.3190002,0-13.3670044-4.3739929-17.1860046-8.9019775
		c-3.7520142-4.4580078-12.2449951-17.4980164-14.5169983-20.1160278
		c-4.5440063-5.2399902-11.4550171-5.0509949-23.4680176-2.1139832c-7.1219788,1.743988-13.9570007,4.0669861-20.1439819,6.5079956
		c20.9769897,22.8309937,46.5830078,41.3479919,75.3540039,54.0130005
		c28.7599792-12.6589966,54.3599854-31.1669922,75.3309937-53.9889832
		c-6.2070007-2.4520264-13.0620117-4.7820129-20.2030029-6.5320129
		C184.9811707,176.9475098,178.071167,176.7585144,173.5261841,181.9985046"/>
	<path class="st0" d="M217.0990601,104.3000488c-5.9559937-1.6730347-9.6360168-2.7410278-14.1119995-3.4770508
		c-3.6589966-0.6009521-6.6600037,1.6210327-7.4530029,4.9390259c-1.151001,4.8309937-4.4760132,11.901001-13.2910156,13.3690186
		c-12.5579834,2.09198-15.5939941-8.2890015-18.7279968-7.2919922c0,0,4.4840088-4.1550293,11.4790039-8.2449951
		c-0.4239807,1.0799561-0.7279968,2.2859497-0.7279968,3.5599976c0,4.6139526,3.875,8.355957,3.875,8.355957
		s3.868988-3.7420044,3.868988-8.355957c0-2.4560547-1.0959778-4.65802-2.1229858-6.1870117
		c7.6090088-4.1610107,15.1520081-5.0400391,15.1520081-5.0400391s-8.2910156-4.6259766-22.6670227,3.0530396
		c-3.901001,2.0859985-8.5789795,4.7080078-14.8049927,10.1660156c-1.4769897,1.2979736-6.6439819,5.2489624-5.8710022,10.8929443
		c0.4470215,3.2750244,4.3179932,5.552002,2.3640137,7.973999c-1.7120056,2.1170044-4.9150085-1.2119751-12.2330017-1.2119751
		c-7.321991,0-10.5249939,3.3289795-12.2350159,1.2119751c-1.9539795-2.4219971,1.9140015-4.6989746,2.3640137-7.973999
		c0.7730103-5.6439819-4.3940125-9.5949707-5.8710022-10.8929443c-6.2260132-5.4580078-10.9039917-8.0800171-14.8049927-10.1660156
		c-14.3770142-7.6790161-22.6669922-3.0530396-22.6669922-3.0530396s7.5429993,0.8790283,15.1489868,5.0400391
		c-1.0239868,1.5289917-2.1199951,3.730957-2.1199951,6.1870117c0,4.6139526,3.867981,8.355957,3.867981,8.355957
		s3.8760071-3.7420044,3.8760071-8.355957c0-1.2740479-0.3039856-2.4800415-0.7319946-3.5599976
		c6.9960022,4.0899658,11.4830017,8.2449951,11.4830017,8.2449951c-3.1369934-0.9970093-6.1700134,9.3839722-18.7279968,7.2919922
		c-8.8160095-1.4680176-12.1400146-8.5380249-13.2910156-13.3690186c-0.7929993-3.3179932-3.7939758-5.539978-7.4579773-4.9390259
		c-4.4779968,0.7360229-8.1570129,1.8040161-14.1159973,3.4770508
		c-16.7360077,4.6929932-31.3460083,10.4729614-42.5169983,15.5019531
		c5.4099884,13.0980225,12.0130005,25.5700073,19.6809998,37.2880249c3.1129913-1.4490051,6.04599-2.7260132,8.4529877-3.6100159
		c7.0550079-2.5969849,15.1790009-6.2609863,28.4470062-0.1229858
		c14.0669861,6.5009766,25.3309937,19.1409912,25.3309937,19.1409912c0.7919922-0.4970093,0.553009-2.2950134-0.2179871-3.7799988
		c-1.3600159-2.6180115-4.4190063-5.6409912-6.0990295-7.3250122c-8.6109924-8.6089783-0.7209778-9.5319824,2.3940125-9.5039978
		c5.4580078,0.0469971,11.0979919,2.0320129,11.0979919,2.0320129c-8.4169922-8.428009-32.9579773-8.7879944-32.9579773-8.7879944
		c17.4339905-4.7710266,38.8609924,5.4960022,38.8609924,5.4960022
		c-17.2799988-15.3649902-55.0440063-11.6809998-55.0440063-11.6809998
		c28.1600037-7.7610168,53.6929932,5.2479858,53.6929932,5.2479858
		c-13.164978-11.6960144-35.664978-12.4839783-35.664978-12.4839783c24.1789856-2.697998,41.2509766,9.243988,46.5819702,16.1529846
		c4.2110291,5.4620056,5.2780151,7.302002,5.651001,8.0019836c0.4130249,0.7730103,2.1660156,4.0150146,0.2150269,6.2929993
		c-1.9520264,2.2750244-6.2950134,1.8450012-6.2950134,1.8450012s-1.2980042,5.3170166-0.9750061,7.3760071
		c0,0-2.4949951-1.6279907-2.9279785-7.3760071c0,0-3.4700012-0.5429993-6.2910156-2.2779846
		c-2.821991-1.7330017-7.2739868-4.5549927-9.4419861-2.4930115c-2.1679993,2.0580139,0.3249817,5.3130188,1.4119873,6.9410095
		c1.0849915,1.6279907,14.9670105,25.5799866,17.1950073,28.8070068C129.7560425,198.8059998,134.2810669,203,141.8270569,203
		c7.5440063,0,12.0709839-4.1940002,14.7019958-8.0179749c2.2260132-3.2270203,16.1069946-27.1790161,17.1900024-28.8070068
		c1.0880127-1.6279907,3.5830078-4.8829956,1.4129944-6.9410095c-2.1659851-2.0619812-6.617981,0.7600098-9.4410095,2.4930115
		c-2.8199768,1.7349854-6.289978,2.2779846-6.289978,2.2779846c-0.4330139,5.7480164-2.928009,7.3760071-2.928009,7.3760071
		c0.322998-2.0589905-0.9750061-7.3760071-0.9750061-7.3760071s-4.3429871,0.4300232-6.2949829-1.8450012
		c-1.9530029-2.2779846-0.197998-5.519989,0.2149963-6.2929993c0.3699951-0.6999817,1.4379883-2.539978,5.651001-8.0019836
		c5.3309937-6.9089966,22.4029846-18.8509827,46.5789795-16.1529846c0,0-22.4989929,0.7879639-35.6640015,12.4839783
		c0,0,25.5370178-13.0090027,53.6880188-5.2479858c0,0-37.7590027-3.6839905-55.0379944,11.6809998
		c0,0,21.4279785-10.2670288,38.8529968-5.4960022c0,0-24.5320129,0.3599854-32.9500122,8.7879944
		c0,0,5.6409912-1.9850159,11.0979919-2.0320129c3.1160278-0.0279846,11.006012,0.8950195,2.3940125,9.5039978
		c-1.6809998,1.684021-4.7380066,4.7070007-6.098999,7.3250122c-0.769989,1.4849854-1.0140076,3.2829895-0.2170105,3.7799988
		c0,0,11.2640076-12.6400146,25.3240051-19.1409912c13.2680054-6.1380005,21.3930054-2.473999,28.447998,0.1229858
		c2.4219971,0.8909912,5.375,2.1759949,8.5169983,3.6400146c7.6660156-11.7200012,14.2750244-24.1889954,19.6849976-37.2850037
		C248.5070496,114.7990112,233.8700562,109.0040283,217.0990601,104.3000488 M148.499054,187.9790039l2.2519836,2.2820129
		c0,0,1.7090149-2.7399902,1.7910156-7.2160034c0,0,1.9029846,3.9890137,1.4079895,7.4570007
		c-0.0799866,0.5709839-0.2669983,1.9790039-1.6819763,2.4199829c-1.40802,0.4410095-4.8260193,1.6920166-10.3590088,1.6920166
		s-8.9519958-1.2510071-10.3619995-1.6920166c-1.4120178-0.440979-1.598999-1.848999-1.6790161-2.4199829
		c-0.4949951-3.4679871,1.4100037-7.4570007,1.4100037-7.4570007c0.0800171,4.4760132,1.7890015,7.2160034,1.7890015,7.2160034
		l2.2520142-2.2820129l1.9779968,2.8780212l2.6049805-2.4970093l2.007019,2.8139954l2.0059814-2.8139954l2.605011,2.4970093
		L148.499054,187.9790039z M148.4320679,146.6549988c-2.125,1.6810303-4.6070251,3.7890015-6.7210083,3.7890015
		c-2.1100159,0-4.5920105-2.1079712-6.7189941-3.7890015c-0.7770081-0.6499939-0.6330261-1.5439758,1.2999878-1.8409729
		c1.3129883-0.2020264,3.0360107-0.3380127,5.4190063-0.3380127c2.3869934,0,4.1049805,0.1340027,5.4249878,0.3359985
		C149.0630493,145.1110229,149.2090454,146.0050049,148.4320679,146.6549988"/>
	<path class="st1" d="M68.0897827,48.0368042c-1.8300171,0.467041-4.8420105,3.0680542-10.2410126,4.4520264
		c-9.2169952,2.3599854-15.4229889-1.0910034-17.4919891-9.1690063c-2.0390015-7.9550171,2.0749969-14.71698,12.223999-17.3150024
		c3.5759888-0.914978,6.3439941-0.9110107,7.927002-1.3179932c0.4879761-0.1229858,1.2779846-0.414978,2.3309937-0.8649902
		l-0.0750122,6.8010254c-3.1799927-0.9260254-6.3169861-1.0140381-9.2419891-0.2650146
		c-5.8860016,1.506958-8.3710022,5.6660156-6.8589935,11.5689697c1.394989,5.44104,4.8439941,7.5910034,10.0410004,6.2609863
		c4.5079803-1.1539917,6.4839935-3.4019775,5.7329865-6.3319702l-0.5769958-2.2600098l-5.519989,1.4140015
		c-1.1820068,0.302002-2.0200043,0.7410278-2.8720093,1.8040161l0.0299988-3.4400024
		c0.0339966-1.882019,0.4069977-2.2880249,2.4349976-2.809021l11.2890015-2.8919678
		c-0.5100098,0.8869629-0.3380127,1.55896-0.0899963,2.5209961l2.9899902,11.6790161
		C69.1357727,47.9008179,68.4537659,47.9438477,68.0897827,48.0368042"/>
	<path class="st1" d="M74.628479,43.3496704l-2.7000122-16.6779785c-0.3739929-2.3040161-1.2139893-3.5670166-2.7749939-4.0150146
		l25.8190002-4.1829834c-0.2279968,0.4329834-0.2969971,0.7919922-0.2470093,1.0910034
		c0.0820007,0.5130005,1.0270081,2.1530151,2.4200134,5.2550049c-3.053009-1.2999878-6.0200195-1.257019-9.3720093-0.7139893
		l-9.8059998,1.5859985l0.9620056,5.9309692l10.8399963-1.7559814c1.446991-0.2349854,2.4259949-0.742981,3.1990051-1.2189941
		l-1.4880066,3.9179688c-0.3869934,1.0270386-1.2140198,1.684021-2.3309937,1.8670044l-9.5160217,1.5390015l1.0360107,6.3980103
		l10.3439941-1.6740112c4.0950012-0.6659546,7.1929932-2.2589722,9.1090088-4.5839844
		c-0.7770081,3.8469849-1.4060059,6.007019-1.2999878,6.6459961c0.0509949,0.3400269,0.2749939,0.6569824,0.6349792,1.0380249
		L73.2654724,48.034729C74.6114502,47.1627197,75.003479,45.6536865,74.628479,43.3496704"/>
	<path class="st1" d="M104.174469,38.8378906l-1.2490234-16.8479614c-0.1699829-2.3270264-0.8970032-3.6600342-2.4129944-4.242981
		l26.0840149-1.9290161c-0.2630005,0.4110107-0.3640137,0.7639771-0.3420105,1.0650024
		c0.0360107,0.5169678,0.8370056,2.2349854,1.9589844,5.4450073c-2.9349976-1.5610352-5.8899841-1.7740479-9.2789917-1.5220337
		l-9.9069824,0.7300415l0.446991,5.9909668l10.9500122-0.809021c1.4639893-0.1099854,2.4839783-0.5299683,3.2939758-0.9389648
		l-1.821991,3.7739868c-0.4729919,0.9899902-1.3559875,1.5739746-2.4840088,1.6599731l-9.6149902,0.710022l0.480011,6.4630127
		l10.447998-0.7730103c4.1399841-0.3059692,7.3609924-1.6300049,9.4729919-3.7780151
		c-1.1090088,3.7670288-1.92099,5.8619995-1.8710022,6.5079956c0.0239868,0.3440552,0.2149963,0.6780396,0.5400085,1.0870361
		l-26.4580078,1.9569702C103.8234558,42.6339111,104.3464661,41.164917,104.174469,38.8378906"/>
	<path class="st1" d="M131.8577881,15.5233765l10.4309998,0.1700439c-1.4770203,0.6239624-2.257019,2.1229858-2.2910156,4.367981
		l-0.2730103,16.8959961l7.0820007,0.1140137c3.9810181,0.0650024,7.0960083-0.7059937,9.8150024-2.9089966
		c-1.4419861,3.6499634-2.4799805,5.664978-2.492981,6.3129883c-0.006012,0.3439941,0.1999817,0.6950073,0.4849854,1.1300049
		l-23.1740112-0.3770142c1.4770203-0.664978,2.1270142-2.0800171,2.1680298-4.3699951l0.2719727-16.8939819
		C133.9157715,17.6314087,133.3107605,16.2384033,131.8577881,15.5233765"/>
	<path class="st1" d="M167.2287598,43.012146c-9.3179932-0.6929932-14.20401-6.2130127-13.6060181-14.2280273
		c0.605011-8.1439819,6.5380249-13.3349609,15.6080017-12.6609497c9.3220215,0.6929932,14.2590027,6.0859985,13.6300049,14.5339966
		C182.2837524,38.4141235,176.3007507,43.6881104,167.2287598,43.012146 M176.4107666,29.7871094
		c0.3979797-5.3429565-2.2650146-8.5749512-7.1930237-8.940979c-5.4360046-0.4049683-8.7339783,2.6870117-9.17099,8.5449829
		c-0.3900146,5.257019,2.2690125,8.4890137,7.2009888,8.8550415
		C172.6387634,38.6481323,175.9797363,35.5611572,176.4107666,29.7871094"/>
	<path class="st1" d="M190.8583679,40.3358765c-0.3420105,2.3530273-0.1010132,3.7480469,1.3859863,4.7790527l-9.7200012-1.5880127
		c1.6000061-0.4400024,2.4089966-1.7510376,2.7919922-4.0969849l2.697998-16.5040283
		c0.3850098-2.3449707,0.0339966-3.8469849-1.3410034-4.7730103l12.0340271,1.9680176
		c-0.2130127,0.2709961-0.3310242,0.4730225-0.3510132,0.5999756c-0.026001,0.1680298,0.0409851,0.5320435,0.177002,0.993042
		l6.4609985,20.71698l2.57901-16.3060303c0.3829956-2.3439941-0.0820007-3.9099731-1.4250183-4.7859497l9.473999,1.5479736
		c-2.1049805,0.664978-2.3829956,2.1080322-2.696991,4.026001c-0.0090027,0.0430298-0.0239868,0.1270142-0.0369873,0.2130127
		l-3.0460205,18.6350098c-0.1470032,0.8959961-0.177002,1.5910034,0.223999,2.2709961l-9.8819885-1.6160278
		c0.2609863-0.3079834,0.3850098-0.5509644,0.4129944-0.7219849c0.0280151-0.1699829-0.0509949-0.4470215-0.1889954-0.9060059
		l-7.1929932-21.4509888L190.8583679,40.3358765z"/>
	<path class="st1" d="M237.1595764,53.5924683c-1.8280029-0.4649658-5.7180176,0.375-11.1200256-1.0009766
		c-9.2179871-2.3469849-13.0139771-8.3510132-10.9549866-16.4329834c2.0249939-7.9550171,8.8710022-11.9180298,19.0270081-9.3370361
		c3.572998,0.9110107,6.0059814,2.2410278,7.5879822,2.644043c0.4869995,0.1269531,1.3200073,0.25,2.4609985,0.3599854
		l-3.3259888,5.9309692c-2.348999-2.3379517-5.0589905-3.9159546-7.9830017-4.6609497
		c-5.8900146-1.5010376-10.0620117,0.9619751-11.5650024,6.8649902c-1.3869934,5.4450073,0.6090088,8.9840088,5.8099976,10.3079834
		c4.5110168,1.1480103,7.321991,0.1229858,8.0690002-2.8070068l0.5750122-2.2630005l-5.5240173-1.4060059
		c-1.1779785-0.2990112-2.125-0.315979-3.3840027,0.2090454l1.6719971-3.007019
		c0.9370117-1.6340332,1.4580078-1.8150024,3.4880066-1.2940063l11.2940063,2.8720093
		c-0.8739929,0.5360107-1.0440063,1.2050171-1.2869873,2.1679688l-2.9760132,11.6849976
		C238.1435547,53.977478,237.5255737,53.6854858,237.1595764,53.5924683"/>
</g>
</svg>
