<?xml version="1.0" encoding="utf-8"?>
<!-- Generator: Adobe Illustrator 19.1.0, SVG Export Plug-In . SVG Version: 6.00 Build 0)  -->
<svg version="1.1" id="Layer_1" xmlns="http://www.w3.org/2000/svg" xmlns:xlink="http://www.w3.org/1999/xlink" x="0px" y="0px"
	 viewBox="0 0 36.267 39.035" width="304.809658451" height="328.07359356" style="enable-background:new 0 0 36.267 39.035;" xml:space="preserve">
<style type="text/css">
	.st0{clip-path:url(#SVGID_2_);fill:#CC2031;}
	.st1{clip-path:url(#SVGID_2_);fill:#0F1131;}
</style>
<g>
	<defs>
		<rect id="SVGID_1_" width="36.267" height="39.035"/>
	</defs>
	<clipPath id="SVGID_2_">
		<use xlink:href="#SVGID_1_"  style="overflow:visible;"/>
	</clipPath>
	<path class="st0" d="M18.054,39.021c-0.009-0.002-0.218-0.039-0.383-0.077c-1.276-0.294-4.546-1.698-7.788-4.909
		c-1.816-1.798-3.352-3.897-4.566-6.239c-1.438-2.775-2.425-5.902-2.936-9.296L0,15.872V4.842l0.3-0.105
		c0.542-0.189,1.1-0.374,1.665-0.551V2.675l0.259-0.12C2.281,2.528,3.649,1.9,6.304,1.269c2.434-0.579,6.461-1.268,11.829-1.268
		c2.963,0,7.421,0.22,11.83,1.268c2.655,0.631,4.023,1.259,4.08,1.286l0.259,0.12v1.511c0.564,0.177,1.123,0.362,1.665,0.551
		l0.3,0.105v11.026l-2.396,2.726c-0.517,3.378-1.509,6.49-2.948,9.252c-1.213,2.33-2.747,4.419-4.559,6.209
		c-3.234,3.196-6.494,4.595-7.766,4.888c-0.166,0.038-0.376,0.076-0.385,0.078l-0.08,0.014L18.054,39.021z"/>
	<path class="st1" d="M35.847,5.132c-0.653-0.228-1.308-0.442-1.965-0.644V2.933c0,0-5.413-2.512-15.721-2.512
		C7.853,0.421,2.44,2.933,2.44,2.933v1.555C1.783,4.69,1.128,4.904,0.475,5.132c0,3.513,0,7.026,0,10.539l2.357,2.602
		c2.154,14.72,12.573,19.656,14.967,20.207c0.156,0.036,0.362,0.073,0.362,0.073s0.206-0.037,0.364-0.074
		c2.391-0.551,12.766-5.468,14.951-20.109l2.371-2.699C35.847,12.157,35.847,8.646,35.847,5.132"/>
	<path class="st0" d="M32.03,14.81c-0.008-0.002-0.015-0.004-0.023-0.006c-0.588,16.161-11.229,21.385-13.525,21.928
		c-0.139,0.033-0.321,0.067-0.321,0.067s-0.181-0.034-0.32-0.067C15.547,36.191,4.9,30.966,4.315,14.796
		C4.307,14.798,4.3,14.8,4.292,14.802c0.205,16.894,11.212,22.307,13.549,22.859c0.139,0.032,0.32,0.066,0.32,0.066
		s0.182-0.034,0.321-0.066C20.821,37.107,31.822,31.695,32.03,14.81"/>
	<polygon class="st0" points="14.863,20.682 17.287,27.582 17.289,24.122 15.801,19.747 15.8,19.747 15.065,17.585 15.066,17.585 
		14.863,16.989 13.103,16.989 13.651,17.765 13.651,30.599 13.136,31.366 15.373,31.366 14.863,30.599 	"/>
	<path class="st0" d="M12.739,26.645c-0.302-0.311-0.565-0.661-0.769-1.044c-0.211-0.396-0.358-0.829-0.416-1.274
		c-0.074-0.563-0.014-1.138,0.174-1.674c0.139-0.399,0.346-0.773,0.599-1.112c0.268-0.36,0.588-0.68,0.938-0.96
		c0.04-0.032,0.08-0.063,0.121-0.094v-1.633c-0.016,0.009-0.033,0.017-0.049,0.026c-0.141,0.084-0.286,0.161-0.427,0.245
		c-0.128,0.076-0.249,0.162-0.367,0.252c-0.22,0.168-0.43,0.348-0.628,0.542c-0.373,0.363-0.701,0.772-0.975,1.215
		c-0.262,0.423-0.482,0.878-0.649,1.347c-0.084,0.24-0.165,0.48-0.247,0.72c-0.07,0.202-0.141,0.403-0.215,0.604
		c-0.004,0.013-0.016,0.033-0.016,0.046c0,0.016,0.014,0.04,0.02,0.055c0.026,0.071,0.052,0.143,0.079,0.215
		c0.022,0.062,0.043,0.125,0.065,0.188c0.096,0.279,0.192,0.558,0.289,0.837c0.131,0.38,0.295,0.75,0.488,1.103
		c0.247,0.452,0.546,0.876,0.893,1.258c0.181,0.199,0.375,0.386,0.578,0.561c0.219,0.188,0.447,0.368,0.694,0.515
		c0.138,0.082,0.28,0.157,0.418,0.24v-0.001c0.016,0.009,0.033,0.018,0.049,0.027v-1.633C13.157,27.042,12.939,26.852,12.739,26.645
		"/>
	<path class="st0" d="M20.146,28.519c-0.6,0.132-1.213,0.201-1.826,0.21c-0.575,0.009-1.15-0.034-1.716-0.131
		c-0.501-0.087-0.996-0.216-1.474-0.391v1.385c0.584,0.168,1.183,0.285,1.787,0.352c0.695,0.077,1.397,0.09,2.094,0.039
		c0.674-0.05,1.343-0.159,1.996-0.332c0.064-0.017,0.128-0.035,0.192-0.053v-1.383C20.855,28.339,20.503,28.44,20.146,28.519"/>
	<path class="st0" d="M17.289,19.014v-1.291c-0.045,0.004-0.09,0.008-0.135,0.012c-0.56,0.05-1.116,0.142-1.661,0.278l0.421,1.24
		C16.365,19.137,16.825,19.058,17.289,19.014"/>
	<polygon class="st0" points="22.678,17.764 23.226,16.988 21.466,16.988 21.264,17.584 20.529,19.746 19.041,24.121 19.042,27.581 
		21.466,20.681 21.466,30.598 20.957,31.365 23.193,31.365 22.678,30.598 	"/>
	<path class="st0" d="M23.927,21.291c0.191,0.223,0.365,0.463,0.507,0.721c0.154-0.141,0.307-0.282,0.46-0.423
		c0.208-0.191,0.416-0.382,0.623-0.574c0.062-0.056,0.123-0.112,0.184-0.169c-0.316-0.263-0.625-0.535-0.939-0.801
		c-0.18-0.153-0.357-0.309-0.545-0.453c-0.186-0.144-0.379-0.279-0.578-0.405c-0.116-0.074-0.233-0.144-0.351-0.214
		c-0.098-0.057-0.197-0.115-0.301-0.162c-0.014-0.007-0.028-0.014-0.042-0.021v1.607C23.306,20.656,23.639,20.954,23.927,21.291"/>
	<path class="st0" d="M24.604,25.847c-0.057-0.052-0.113-0.104-0.17-0.156c-0.307,0.556-0.753,1.036-1.248,1.431
		c-0.079,0.063-0.159,0.124-0.241,0.183v1.607c0.014-0.007,0.028-0.014,0.042-0.021c0.198-0.091,0.387-0.211,0.572-0.326
		c0.2-0.124,0.395-0.256,0.583-0.398c0.191-0.143,0.369-0.298,0.551-0.451c0.175-0.148,0.349-0.298,0.523-0.447
		c0.161-0.138,0.321-0.278,0.484-0.413c-0.135-0.125-0.27-0.249-0.405-0.374C25.064,26.271,24.834,26.059,24.604,25.847"/>
	<polygon class="st0" points="18.161,31.365 19.18,30.279 17.142,30.279 	"/>
	<path class="st0" d="M18.771,28.459v-9.445c0,0,0.793,0.033,1.64,0.251l0.427-1.256c-0.521-0.129-1.052-0.219-1.587-0.269
		c-0.161-0.015-0.322-0.027-0.483-0.035l0.003-1.555c0,0,0.97,0.007,1.339,0.048c0.368,0.04,0.976,0.245,0.976,0.245l0.029-1.482
		h-4.078l0.463,0.77l0.056,0.455v12.268C17.988,28.484,18.259,28.48,18.771,28.459"/>
	<path class="st0" d="M1.94,6.291c0.544-0.178,1.092-0.346,1.642-0.504C3.707,6.93,3.831,8.073,3.956,9.216
		c0.025,0.348,0.037,0.521,0.062,0.869c0.029-0.363,0.044-0.544,0.073-0.907c0.131-1.214,0.263-2.429,0.395-3.644
		c0.554-0.15,1.111-0.291,1.67-0.421v7.82c-0.498,0.117-0.747,0.179-1.243,0.308V8.418C4.884,8.912,4.869,9.158,4.84,9.651
		c-0.136,1.239-0.271,2.479-0.406,3.718c-0.354,0.096-0.53,0.145-0.883,0.247c-0.134-1.16-0.269-2.32-0.404-3.48
		C3.118,9.655,3.104,9.415,3.075,8.934v4.823c-0.455,0.136-0.682,0.207-1.135,0.354V6.291"/>
	<path class="st0" d="M6.673,4.995C7.539,4.802,8.41,4.627,9.285,4.479v1.277C8.76,5.846,8.499,5.894,7.976,5.997V7.95
		c0.51-0.101,0.766-0.148,1.277-0.236v1.255C8.742,9.057,8.486,9.105,7.976,9.205v2.122c0.523-0.104,0.784-0.152,1.309-0.242v1.214
		c-0.875,0.148-1.746,0.323-2.612,0.516V4.995"/>
	<path class="st0" d="M9.807,4.392c0.525-0.085,0.788-0.123,1.314-0.195v6.607c0.471-0.064,0.707-0.093,1.179-0.146v1.214
		c-0.833,0.099-1.663,0.212-2.493,0.34V4.392z"/>
	<path class="st0" d="M12.757,4.002c0.578-0.061,1.158-0.111,1.737-0.151c1.281-0.137,1.473,0.862,1.484,1.891
		c0.006,0.537,0.081,1.431-0.502,1.744c0.717,0.231,0.555,1.43,0.555,1.98c0.001,1.081-0.252,2.153-1.526,2.205
		c-0.583,0.04-1.166,0.09-1.748,0.151V4.002z M14.356,7.112c0.341-0.025,0.362-0.184,0.362-1.028c0-0.844-0.01-1.024-0.362-0.998
		c-0.12,0.008-0.18,0.013-0.299,0.022v2.026C14.176,7.125,14.236,7.12,14.356,7.112 M14.377,10.498
		c0.363-0.026,0.384-0.269,0.384-1.103s-0.021-1.044-0.384-1.018c-0.128,0.009-0.192,0.014-0.32,0.024v2.121
		C14.185,10.512,14.249,10.507,14.377,10.498"/>
	<path class="st0" d="M20.369,9.375V3.771c0.53,0.022,0.794,0.037,1.324,0.073v5.635c0,0.834,0.021,1.024,0.394,1.052
		c0.373,0.028,0.395-0.158,0.395-0.992V3.903c0.515,0.043,0.773,0.067,1.288,0.123V9.63c0.027,1.281-0.275,2.214-1.715,2.123
		C20.636,11.664,20.36,10.629,20.369,9.375"/>
	<path class="st0" d="M24.238,4.078c0.585,0.067,1.17,0.145,1.752,0.234c1.394,0.226,1.515,1.558,1.512,2.732
		c-0.002,0.713,0.072,1.794-0.623,2.255c0.194,1.025,0.387,2.051,0.581,3.077c-0.511-0.092-0.767-0.135-1.28-0.214
		c-0.169-0.912-0.339-1.824-0.508-2.736c-0.064-0.009-0.096-0.014-0.159-0.023v2.66c-0.51-0.072-0.764-0.105-1.275-0.165
		C24.238,9.291,24.238,6.685,24.238,4.078 M25.82,8.234c0.371,0.055,0.366-0.307,0.381-1.314c0.006-0.377,0.131-1.262-0.381-1.398
		c-0.123-0.018-0.184-0.027-0.307-0.045V8.19C25.635,8.207,25.697,8.216,25.82,8.234"/>
	<path class="st0" d="M27.905,4.638C28.462,4.743,28.74,4.8,29.294,4.92c0.182,0.878,0.364,1.756,0.546,2.634
		c0.088,0.467,0.132,0.701,0.22,1.169v-3.63c0.49,0.114,0.734,0.174,1.223,0.3v7.821c-0.493-0.128-0.739-0.188-1.234-0.303
		c-0.234-1.059-0.468-2.118-0.702-3.177c-0.089-0.433-0.133-0.65-0.221-1.082v4.052c-0.487-0.104-0.732-0.153-1.221-0.246V4.638"/>
	<path class="st0" d="M31.797,5.529c0.861,0.233,1.718,0.485,2.567,0.762v1.277c-0.511-0.166-0.767-0.245-1.28-0.398v1.953
		c0.501,0.149,0.751,0.226,1.249,0.388v1.255c-0.498-0.161-0.748-0.239-1.249-0.387V12.5c0.513,0.152,0.769,0.232,1.28,0.398v1.213
		c-0.849-0.277-1.706-0.528-2.567-0.762V5.529z"/>
	<path class="st0" d="M16.911,11.206c-0.443-0.528-0.465-1.53-0.465-3.578c0-1.963,0.022-2.965,0.433-3.514
		c0.253-0.317,0.676-0.454,1.309-0.454c0.633,0,1.066,0.137,1.298,0.433c0.433,0.538,0.443,1.541,0.443,3.535
		c0,2.185-0.01,3.135-0.454,3.62c-0.232,0.264-0.654,0.359-1.287,0.359C17.565,11.607,17.143,11.491,16.911,11.206 M18.61,7.66
		c0-2.554,0-2.702-0.422-2.702c-0.412,0-0.412,0.148-0.412,2.702c0,2.575,0,2.712,0.412,2.712C18.61,10.372,18.61,10.235,18.61,7.66
		"/>
</g>
</svg>
