<?xml version="1.0" encoding="utf-8"?>
<!-- Generator: Adobe Illustrator 21.1.0, SVG Export Plug-In . SVG Version: 6.00 Build 0)  -->
<svg version="1.1" id="Layer_1" xmlns="http://www.w3.org/2000/svg" xmlns:xlink="http://www.w3.org/1999/xlink" x="0px" y="0px"
	 viewBox="0 0 64 55.5" width="339.581087982" height="294.480474735" style="enable-background:new 0 0 64 55.5;" xml:space="preserve">
<style type="text/css">
	.st0{fill:#003087;}
	.st1{filter:url(#Adobe_OpacityMaskFilter);}
	.st2{fill:#FFFFFF;}
	.st3{mask:url(#b);fill:#003087;}
	.st4{filter:url(#Adobe_OpacityMaskFilter_1_);}
	.st5{mask:url(#d);fill:#003087;}
	.st6{fill:#F2A900;}
</style>
<title>WestCoastEagles</title>
<g>
	<path class="st0" d="M46.3,12.7c0,0,1.3,0,1.7,0.1c0,0,0.3-0.4,1.1-0.8C49,12.1,47.6,11.8,46.3,12.7"/>
	<path class="st0" d="M50.8,22.6c1.1-3.2-3.1-3.6-3.1-3.6c-2.1-2.7-16.3-1.7-16.3-1.7c5.1-2.7,14.5-5.7,14.5-5.7
		c-0.6-0.7-2.3-1.5-2.3-1.5c0.5-0.2,0.9-0.3,1.4-0.5c0,0-2.4-1.5-6.1-2.5c0,0,1,0.5,3.1,2.3c0,0-4.5-2.1-12.8-1.7c0,0,1.9,0.7,5,2.5
		c0,0,0.5-0.4,1.4-0.6c-0.1,1.1,1.4,2.1,3.3,2.3c0.7,0.1,1.4,0,2-0.2c0,0-1,1.1-3.1,1.1c-2.6,0-3.4-1.4-3.4-1.4s-3.7,1.1-6,2.3
		c0,0,2.4-0.2,5.2-0.1c0,0-8.3,3.1-20.1,14.2c0,0-1.9-5.8,2-10.3c0,0,1.3-1.1,6.9-2.9c0,0-8.1,1.7-12.9,3.3c0,0,1.2-4.6,7.1-7.4
		c0,0,1.9-0.6,7.1-1.2c0,0-5.2-0.4-11.9,0.2c0,0,3.5-4.1,8.9-5.2c0,0,0.6-0.1,4-0.1c0,0-3.1-1-7.7-2.1c0,0,18.7-1.5,30.5,6.8
		c0,0-0.6,0.2-1.3,0.4c0,0,5.4,1.9,7.5,4.8C56.5,17.9,50.8,22.6,50.8,22.6 M37.6,20.6c1.8-1,3.6-2.1,3.6-2.1
		c3.8-0.1,5.3,0.7,5.3,0.7C41.8,19.4,37.6,20.6,37.6,20.6 M29.9,30.7c-2.9-1.5-3.6-3.6-3.6-3.6c4-5.7,10-6.1,10-6.1
		C31.7,25.3,29.9,30.7,29.9,30.7 M20.9,32.3c0,0-2.9-2.8-3.5-6.2c0,0,5.8-7.3,15.7-6.5C33.1,19.6,25.6,23.3,20.9,32.3 M49,8.8
		c0,0,0.6-0.2,1.2-0.4c0,0-13.3-11.1-39.8-7.9c0,0,3.4,1.4,6.3,3c0,0-4.6,1.4-9.3,7.7c0,0,0.6,0,4.2-0.1c0,0-3.8,2.7-5.2,9.6
		c0,0,2.1-0.8,5.4-1.6c0,0-2.5,4.4,0.8,12.5c0,0,1.4-1.7,3.3-3.5c0,0,1.2,4.4,5.6,7.4c0,0,1.6-3.8,3.5-6.3c0,0,1.5,2.7,5.8,4
		C35.1,20.5,46,21,46,21c5.5-0.1,2.1,4.3,2.1,4.3s6.9-2,8.1-8.3C56.2,17,57.2,12.6,49,8.8 M17.2,50.5l-0.4-1.9l-0.2-1.2l-0.5,1.2
		l-1,1.9H17.2z M21.6,55.1c-0.7,0.1-1.5,0.2-2.2,0.2c-0.4,0-0.8,0-1.1-0.1l-0.4-1.9h-4.1l-1,1.9c-0.5,0.1-1,0.1-1.5,0.1
		c-0.6,0-1.2-0.1-1.7-0.2l6-11.7c0.6-0.1,1.2-0.1,1.7-0.1c0.6,0,1.1,0,1.6,0.1C18.8,43.4,21.6,55.1,21.6,55.1z M42.4,53.7
		c-0.1,0.5-0.2,1-0.3,1.5h-7.9l1.6-11.8c0.6-0.1,1.1-0.1,1.7-0.1c0.6,0,1.1,0.1,1.6,0.1l-1.2,8.8h4.6C42.5,52.7,42.5,53.2,42.4,53.7
		"/>
	<g transform="translate(61.77 55.698)">
		<defs>
			<filter id="Adobe_OpacityMaskFilter" filterUnits="userSpaceOnUse" x="-8.6" y="-12.6" width="10.8" height="12.4">
				<feColorMatrix  type="matrix" values="1 0 0 0 0  0 1 0 0 0  0 0 1 0 0  0 0 0 1 0"/>
			</filter>
		</defs>
		<mask maskUnits="userSpaceOnUse" x="-8.6" y="-12.6" width="10.8" height="12.4" id="b">
			<g class="st1">
				<path id="a" class="st2" d="M2.2-12.6v12.4H-8.6v-12.4H2.2z"/>
			</g>
		</mask>
		<path class="st3" d="M-8.6-1.6c0.2-1.1,0.9-2.2,1.8-2.7c0.7,0.6,2,1,3.4,1c1.1,0,1.5-0.2,1.5-0.6C-1.8-4.3-2-4.5-3.9-5
			c-2-0.5-3.6-1.3-3.3-3.7c0.3-2.4,2.5-3.9,5.4-3.9c2.1,0,3.5,0.7,4.1,1.2c-0.2,1-0.8,2.1-1.9,2.7c-0.6-0.5-1.6-0.9-2.9-0.9
			C-3.5-9.6-4-9.4-4-9c-0.1,0.4,0.1,0.6,2.2,1.1c2.1,0.5,3.4,1.5,3.2,3.5C1.1-1.7-0.9-0.2-3.9-0.2C-6.4-0.2-7.9-1-8.6-1.6"/>
	</g>
	<path class="st0" d="M52.1,52.3h-4.9l0.2-1.6h4.2c0.2-0.5,0.3-1,0.3-1.4c0.1-0.5,0.1-1,0-1.5h-4.2l0.2-1.5h4.7
		c0.2-0.5,0.3-1,0.3-1.5c0.1-0.5,0.1-1,0-1.5h-9.5l1.3,1.5l-1.4,10.3h8.2c0.2-0.5,0.3-1,0.3-1.5C52.1,53.2,52.2,52.7,52.1,52.3
		 M8.6,52.3H3.7l0.2-1.6h4.2c0.2-0.5,0.3-1,0.3-1.4c0.1-0.5,0.1-1,0-1.5H4.3l0.2-1.5h4.7c0.2-0.5,0.3-1,0.3-1.5c0.1-0.5,0.1-1,0-1.5
		H0.1l1.3,1.5L0,55.2h8.2c0.2-0.5,0.3-1,0.3-1.5C8.6,53.2,8.6,52.7,8.6,52.3"/>
	<g transform="translate(30.668 55.447)">
		<defs>
			<filter id="Adobe_OpacityMaskFilter_1_" filterUnits="userSpaceOnUse" x="-8.4" y="-12.5" width="11.2" height="12.6">
				<feColorMatrix  type="matrix" values="1 0 0 0 0  0 1 0 0 0  0 0 1 0 0  0 0 0 1 0"/>
			</filter>
		</defs>
		<mask maskUnits="userSpaceOnUse" x="-8.4" y="-12.5" width="11.2" height="12.6" id="d">
			<g class="st4">
				<path id="c" class="st2" d="M-8.4,0.1H2.7v-12.6H-8.4V0.1z"/>
			</g>
		</mask>
		<path class="st5" d="M-2.4-7.3C-2.8-6.6-3-5.7-3-4.9h1.9l-0.3,1.8C-1.7-3-2-3-2.4-3C-4.1-3-5-4.2-4.8-6.2c0.3-2,1.5-3.1,3.2-3.1
			c0.8,0,1.5,0.2,2.1,0.6c1-0.5,1.9-1.7,2.2-2.8c-0.8-0.6-2.1-1-3.8-1c-4,0-6.8,2.7-7.3,6.4c-0.5,3.7,1.5,6.2,5.5,6.2
			c2.2,0,3.5-0.5,4.4-0.9l0.9-6.5C2.5-7.3-2.4-7.3-2.4-7.3z"/>
	</g>
	<path class="st0" d="M15.3,37.2c-0.1,0-0.2,0-0.3,0l-0.1,0l0,0.1c-0.2,1.2-0.6,2.4-1.1,3.5c-0.1-0.9-0.3-2-0.3-3.3l0-0.1l-0.1,0
		c-0.2,0-0.4-0.1-0.6-0.1c-0.2,0-0.4,0-0.6,0.1l0,0l0,0c-0.2,0.9-0.6,2.2-1.1,3.3c-0.2-1.1-0.2-2.3-0.2-3.5l0-0.1l-0.1,0
		c-0.1,0-0.2,0-0.3,0c-0.3,0-0.6,0-0.9,0.1l-0.1,0l0,0.1c0.1,1.8,0.3,3.3,0.7,4.6l0,0l0,0c0.2,0,0.4,0.1,0.6,0.1
		c0.2,0,0.4,0,0.6-0.1l0,0l0,0c0.3-0.4,0.8-1.3,1.1-2.3c0.1,0.7,0.1,1.5,0.3,2.3l0,0l0,0c0.2,0,0.4,0.1,0.6,0.1c0.2,0,0.4,0,0.6-0.1
		l0,0l0,0c0.9-1.4,1.4-3,1.9-4.6l0-0.1l-0.1,0C16.1,37.2,15.6,37.2,15.3,37.2z M20.2,37.2h-3.1L16.5,42h3.1l0,0
		c0.1-0.3,0.2-0.6,0.1-1l0-0.1h-1.9l0.1-0.8h1.6l0,0c0.1-0.3,0.2-0.6,0.1-0.9l0-0.1h-1.6l0.1-0.7h1.8l0,0
		C20.3,37.9,20.3,37.7,20.2,37.2C20.2,37.3,20.2,37.2,20.2,37.2z M23,37.1c-0.6,0-1.2,0.2-1.5,0.6c-0.3,0.3-0.4,0.7-0.4,1.1
		c0,1,0.8,1.2,1.3,1.4c0.4,0.1,0.6,0.2,0.7,0.4c0,0.1,0,0.2-0.1,0.2C23,40.9,22.8,41,22.5,41c-0.5,0-0.9-0.2-1.2-0.4l0,0l0,0
		c-0.3,0.2-0.6,0.5-0.6,0.9l0,0l0,0c0.2,0.2,0.8,0.6,1.8,0.6c0.6,0,1.2-0.2,1.5-0.5c0.3-0.3,0.4-0.7,0.4-1.2c0-1-0.8-1.3-1.4-1.5
		c-0.3-0.1-0.6-0.2-0.6-0.4c0-0.1,0-0.1,0.1-0.2c0.1-0.1,0.3-0.1,0.5-0.1c0.5,0,0.9,0.2,1,0.3l0,0l0,0c0.3-0.2,0.5-0.5,0.6-0.9l0,0
		l0,0C24.5,37.5,24,37.1,23,37.1z M29.2,37.2h-3.7l0,0c-0.1,0.3-0.2,0.6-0.1,1l0,0.1h1.2L26.1,42l0.1,0c0.2,0,0.3,0.1,0.5,0.1
		c0.2,0,0.4,0,0.6-0.1l0.1,0l0.5-3.7h1.2l0,0C29.2,38,29.2,37.7,29.2,37.2C29.2,37.3,29.2,37.2,29.2,37.2z M34.3,37
		c-0.7,0-1.4,0.3-1.9,0.8c-0.5,0.6-0.8,1.4-0.8,2.2c0.1,1.3,0.9,2,2.2,2c0.6,0,1.1-0.2,1.5-0.5l0,0l0,0c0-0.4-0.2-0.7-0.5-0.9l0,0
		l0,0c-0.2,0.2-0.4,0.3-0.8,0.3c-0.6,0-1-0.4-1-1c0-0.6,0.1-1,0.4-1.4c0.2-0.2,0.5-0.3,0.8-0.3c0.3,0,0.5,0.1,0.7,0.3l0,0l0,0
		c0.3-0.2,0.6-0.5,0.7-0.9l0,0l0,0C35.5,37.3,35,37,34.3,37z M38.7,37.1c-0.7,0-1.3,0.3-1.8,0.7c-0.5,0.5-0.8,1.3-0.7,2.3
		c0.1,1.3,0.9,2.1,2.1,2.1c0.7,0,1.3-0.3,1.8-0.7c0.5-0.5,0.8-1.3,0.7-2.3C40.8,37.9,39.9,37.1,38.7,37.1z M39.1,40.7
		c-0.2,0.2-0.4,0.3-0.7,0.3c-0.6,0-0.9-0.4-0.9-1c0-0.6,0.1-1.1,0.4-1.4c0.2-0.2,0.4-0.3,0.7-0.3c0.7,0,0.9,0.6,0.9,1
		C39.5,39.9,39.4,40.4,39.1,40.7z M44.4,37.2c-0.2,0-0.4,0-0.5,0c-0.2,0-0.4,0-0.6,0l0,0l-2.3,4.7l0.1,0c0.1,0.1,0.3,0.1,0.6,0.1
		c0.2,0,0.4,0,0.5,0l0,0l0.4-0.9H44l0.2,0.9l0,0c0.1,0,0.3,0,0.4,0c0.2,0,0.4,0,0.7-0.1l0.1,0L44.4,37.2
		C44.4,37.2,44.4,37.2,44.4,37.2z M43,40.1l0.5-1l0.1-0.2l0,0.2l0.2,1H43z M48.5,37.1c-0.6,0-1.2,0.2-1.5,0.6
		c-0.3,0.3-0.4,0.7-0.4,1.1c0,1,0.8,1.2,1.3,1.4c0.4,0.1,0.6,0.2,0.7,0.4c0,0.1,0,0.2-0.1,0.2C48.5,40.9,48.3,41,48,41
		c-0.5,0-0.9-0.2-1.2-0.4l0,0l0,0c-0.3,0.2-0.6,0.5-0.6,0.9l0,0l0,0c0.2,0.2,0.8,0.6,1.8,0.6c0.6,0,1.2-0.2,1.5-0.5
		c0.3-0.3,0.4-0.7,0.4-1.2c0-1-0.8-1.3-1.4-1.5c-0.3-0.1-0.6-0.2-0.6-0.4c0-0.1,0-0.1,0.1-0.2c0.1-0.1,0.3-0.1,0.5-0.1
		c0.5,0,0.9,0.2,1,0.3l0,0l0,0c0.3-0.2,0.5-0.5,0.6-0.9l0,0l0,0C50,37.5,49.5,37.1,48.5,37.1z M54.7,37.3L54.7,37.3l-3.7-0.1l0,0
		c-0.1,0.3-0.2,0.6-0.1,1l0,0.1h1.2L51.6,42l0.1,0c0.2,0,0.3,0.1,0.5,0.1s0.4,0,0.6-0.1l0.1,0l0.5-3.7h1.2l0,0
		C54.7,38,54.7,37.7,54.7,37.3z"/>
	<path class="st2" d="M37.5,10.2c-0.7-0.2-0.7-0.8-0.7-0.8s0.9-0.1,2.3,0.1C39,9.5,38.1,9.8,37.5,10.2"/>
	<path class="st6" d="M53.6,14.1c2.9,3.8-2.8,8.5-2.8,8.5c1.1-3.2-3.1-3.6-3.1-3.6c-2.1-2.7-16.3-1.7-16.3-1.7
		c5.1-2.7,14.5-5.7,14.5-5.7c-0.6-0.7-2.3-1.5-2.3-1.5c0.5-0.2,0.9-0.3,1.4-0.5c0,0-2.4-1.5-6.1-2.5c0,0,1,0.5,3.1,2.3
		c0,0-4.5-2.1-12.8-1.7c0,0,1.9,0.7,5,2.5c0,0,0.5-0.4,1.4-0.6c-0.1,1.1,1.4,2.1,3.3,2.3c0.7,0.1,1.4,0,2-0.2c0,0-1,1.1-3.1,1.1
		c-2.6,0-3.4-1.4-3.4-1.4s-3.7,1.1-6,2.3c0,0,2.4-0.2,5.2-0.1c0,0-8.3,3.1-20.1,14.2c0,0-1.9-5.8,2-10.3c0,0,1.3-1.1,6.9-2.9
		c0,0-8.1,1.7-12.9,3.3c0,0,1.2-4.6,7.1-7.4c0,0,1.9-0.6,7.1-1.2c0,0-5.2-0.4-11.9,0.2c0,0,3.5-4.1,8.9-5.2c0,0,0.6-0.1,4-0.1
		c0,0-3.1-1-7.7-2.1c0,0,18.7-1.5,30.5,6.8c0,0-0.6,0.2-1.3,0.4C46.1,9.3,51.5,11.2,53.6,14.1 M47.9,12.8c0,0,0.3-0.4,1.1-0.8
		c0,0-1.4-0.2-2.7,0.6C46.3,12.7,47.6,12.7,47.9,12.8 M37.6,20.6c0,0,4.2-1.1,8.9-1.4c0,0-1.5-0.8-5.3-0.7
		C41.2,18.5,39.4,19.6,37.6,20.6 M29.9,30.7c0,0,1.8-5.3,6.3-9.6c0,0-6,0.4-10,6.1C26.2,27.1,26.9,29.2,29.9,30.7 M17.4,26.1
		c0,0,5.8-7.3,15.7-6.5c0,0-7.6,3.7-12.2,12.7C20.9,32.3,18,29.5,17.4,26.1"/>
</g>
</svg>
