<?xml version="1.0" encoding="UTF-8" standalone="no"?>
<!-- Created with Inkscape (http://www.inkscape.org/) -->
<svg
   xmlns:dc="http://purl.org/dc/elements/1.1/"
   xmlns:cc="http://creativecommons.org/ns#"
   xmlns:rdf="http://www.w3.org/1999/02/22-rdf-syntax-ns#"
   xmlns:svg="http://www.w3.org/2000/svg"
   xmlns="http://www.w3.org/2000/svg"
   xmlns:sodipodi="http://sodipodi.sourceforge.net/DTD/sodipodi-0.dtd"
   xmlns:inkscape="http://www.inkscape.org/namespaces/inkscape"
   width="329.710599888"
   height="303.296284784" viewBox="0 0 440.0 404.75"
   id="svg2"
   sodipodi:version="0.32"
   inkscape:version="0.46"
   version="1.0"
   sodipodi:docname="Hawthorn-football-club-brand.svg"
   inkscape:output_extension="org.inkscape.output.svg.inkscape">
  <defs
     id="defs4">
    <inkscape:perspective
       sodipodi:type="inkscape:persp3d"
       inkscape:vp_x="0 : 526.18109 : 1"
       inkscape:vp_y="0 : 1000 : 0"
       inkscape:vp_z="744.09448 : 526.18109 : 1"
       inkscape:persp3d-origin="372.04724 : 350.78739 : 1"
       id="perspective10" />
    <clipPath
       id="clipPath2524"
       clipPathUnits="userSpaceOnUse">
      <path
         id="path2526"
         d="M 823.477,1684.48 L 4277.297,1684.48 L 4277.297,5273.91 L 823.477,5273.91 L 823.477,1684.48 z" />
    </clipPath>
    <clipPath
       id="clipPath2512"
       clipPathUnits="userSpaceOnUse">
      <path
         id="path2514"
         d="M 672.578,5514.96 L 672.578,1423.06 L 834.059,1423.06 L 834.059,5514.96 L 672.578,5514.96" />
    </clipPath>
    <clipPath
       id="clipPath2500"
       clipPathUnits="userSpaceOnUse">
      <path
         id="path2502"
         d="M 834.059,5514.96 L 834.059,1423.06 L 4277.29,1423.06 L 4277.29,5514.96 L 834.059,5514.96" />
    </clipPath>
    <clipPath
       id="clipPath2488"
       clipPathUnits="userSpaceOnUse">
      <path
         id="path2490"
         d="M 4277.29,2.25781 L 4277.29,7014.54 L 672.578,7014.54 L 672.578,2.25781 L 4277.29,2.25781" />
    </clipPath>
    <inkscape:perspective
       id="perspective2478"
       inkscape:persp3d-origin="372.04724 : 350.78739 : 1"
       inkscape:vp_z="744.09448 : 526.18109 : 1"
       inkscape:vp_y="0 : 1000 : 0"
       inkscape:vp_x="0 : 526.18109 : 1"
       sodipodi:type="inkscape:persp3d" />
  </defs>
  <sodipodi:namedview
     id="base"
     pagecolor="#ffffff"
     bordercolor="#666666"
     borderopacity="1.0"
     gridtolerance="10000"
     guidetolerance="10"
     objecttolerance="10"
     inkscape:pageopacity="0.0"
     inkscape:pageshadow="2"
     inkscape:zoom="1.89"
     inkscape:cx="156.77249"
     inkscape:cy="202.375"
     inkscape:document-units="px"
     inkscape:current-layer="layer1"
     showgrid="false"
     inkscape:window-width="1680"
     inkscape:window-height="970"
     inkscape:window-x="-6"
     inkscape:window-y="-6" />
  <metadata
     id="metadata7">
    <rdf:RDF>
      <cc:Work
         rdf:about="">
        <dc:format>image/svg+xml</dc:format>
        <dc:type
           rdf:resource="http://purl.org/dc/dcmitype/StillImage" />
      </cc:Work>
    </rdf:RDF>
  </metadata>
  <g
     inkscape:label="Layer 1"
     inkscape:groupmode="layer"
     id="layer1"
     transform="translate(-104.53338,-431.38854)">
    <g
       id="g2732"
       transform="matrix(0.7536746,0,0,0.7536746,45.749234,211.03642)">
      <g
         transform="matrix(0,0.15,0.15,0,-151.97412,178.26496)"
         id="g2520">
        <g
           id="g2522"
           clip-path="url(#clipPath2524)">
          <path
             d="M 4006.11,3336.93 L 3992.96,3347.94 C 4009.38,3367.5 4025.79,3387.27 4042.21,3407.26 L 4068.69,3385.53 C 4052.19,3365.45 4035.72,3345.55 4019.26,3325.91 L 3992.96,3347.94 L 4006.11,3336.93 L 3992.96,3347.94 C 4009.33,3367.5 4025.79,3387.31 4042.21,3407.3 L 4068.69,3385.57 C 4052.19,3365.41 4035.68,3345.55 4019.26,3325.91 L 3992.96,3347.94 L 4006.11,3336.93 z M 4064.34,3407.3 L 4051.05,3418.14 C 4056.67,3424.98 4062.33,3432.04 4068.04,3439.05 L 4076.7,3449.76 L 4089.2,3443.45 L 4108.23,3433.87 L 4094.78,3417.36 C 4088.98,3410.18 4083.23,3403.34 4077.62,3396.5 L 4051.05,3418.14 L 4064.34,3407.3 L 4051.05,3418.1 C 4056.85,3425.29 4062.59,3432.13 4068.21,3438.96 L 4081.5,3428.16 L 4073.79,3412.88 L 4073.61,3412.96 L 4081.32,3428.25 L 4094.6,3417.45 C 4088.98,3410.52 4083.32,3403.47 4077.62,3396.46 L 4051.05,3418.1 L 4064.34,3407.3 z M 3750.78,3050.85 L 3763.15,3039 C 3750.61,3025.89 3738.06,3013.09 3725.57,3000.33 L 3701.09,3024.29 C 3713.59,3037.04 3726.04,3049.76 3738.41,3062.69 L 3763.15,3039 L 3750.78,3050.85 L 3763.15,3039 C 3750.61,3025.89 3738.06,3013.09 3725.57,3000.33 L 3701.09,3024.29 C 3713.59,3037.04 3726.04,3049.76 3738.41,3062.69 L 3763.15,3039 L 3750.78,3050.85 z M 3811.01,3114.82 L 3823.59,3103.2 C 3810.66,3089.17 3797.68,3075.41 3784.75,3061.73 L 3759.84,3085.25 C 3772.77,3098.93 3785.66,3112.6 3798.42,3126.45 L 3823.59,3103.2 L 3811.01,3114.82 L 3823.59,3103.2 C 3810.66,3089.17 3797.68,3075.41 3784.75,3061.73 L 3759.84,3085.25 C 3772.77,3098.93 3785.66,3112.6 3798.42,3126.45 L 3823.59,3103.2 L 3811.01,3114.82 z M 3871.32,3181.11 L 3884.09,3169.65 C 3870.59,3154.58 3857.04,3139.64 3843.54,3124.88 L 3818.28,3148.01 C 3831.7,3162.73 3845.15,3177.58 3858.57,3192.56 L 3884.09,3169.65 L 3871.32,3181.11 L 3884.09,3169.65 C 3870.59,3154.58 3857.04,3139.64 3843.54,3124.88 L 3818.28,3148.01 C 3831.7,3162.73 3845.15,3177.58 3858.57,3192.56 L 3884.09,3169.65 L 3871.32,3181.11 z M 3931.95,3249.91 L 3944.88,3238.68 C 3930.68,3222.3 3916.53,3206.1 3902.25,3190.07 L 3876.59,3212.81 C 3890.75,3228.79 3904.86,3244.86 3919.01,3261.15 L 3944.88,3238.68 L 3931.95,3249.91 L 3944.88,3238.68 C 3930.64,3222.3 3916.53,3206.14 3902.29,3190.07 L 3876.64,3212.81 C 3890.75,3228.75 3904.81,3244.86 3919.01,3261.15 L 3944.88,3238.68 L 3931.95,3249.91 z M 3993.13,3321.51 L 4006.24,3310.49 C 3991.09,3292.46 3975.93,3274.69 3960.82,3257.1 L 3934.78,3279.39 C 3949.89,3296.99 3964.96,3314.67 3980.02,3332.53 L 4006.24,3310.49 L 3993.13,3321.51 L 4006.24,3310.49 C 3991.09,3292.46 3975.93,3274.69 3960.82,3257.1 L 3934.78,3279.39 C 3949.89,3296.99 3964.96,3314.67 3980.02,3332.53 L 4006.24,3310.49 L 3993.13,3321.51 z M 3653.93,2952.99 L 3641.95,2965.27 C 3654.23,2977.21 3666.38,2989.18 3678.49,3001.33 L 3702.79,2977.21 C 3690.51,2964.79 3678.18,2952.73 3665.9,2940.71 L 3641.95,2965.27 L 3653.93,2952.99 L 3641.95,2965.27 C 3654.23,2977.21 3666.38,2989.18 3678.49,3001.33 L 3702.79,2977.21 C 3690.51,2964.79 3678.18,2952.73 3665.9,2940.71 L 3641.95,2965.27 L 3653.93,2952.99 z M 3594.05,2895.51 L 3582.29,2907.96 C 3594.39,2919.37 3606.5,2930.7 3618.43,2942.19 L 3642.21,2917.54 C 3630.02,2905.79 3617.82,2894.38 3605.8,2883.05 L 3582.29,2907.96 L 3594.05,2895.51 L 3582.29,2907.96 C 3594.39,2919.37 3606.5,2930.7 3618.43,2942.19 L 3642.21,2917.54 C 3630.02,2905.79 3617.82,2894.38 3605.8,2883.05 L 3582.29,2907.96 L 3594.05,2895.51 z M 2376.8,2227.59 L 2380.32,2210.82 C 2372.96,2209.26 2365.69,2207.95 2358.9,2206.55 L 2351.93,2240.09 C 2359.38,2241.66 2366.56,2242.92 2373.18,2244.36 L 2380.32,2210.82 L 2376.8,2227.59 L 2380.41,2210.82 C 2372.92,2209.21 2365.65,2207.95 2358.9,2206.55 L 2351.93,2240.09 C 2359.33,2241.66 2366.52,2242.96 2373.27,2244.36 L 2380.41,2210.82 L 2376.8,2227.59 z M 2455.36,2245.66 L 2459.45,2229.03 C 2450.48,2226.8 2441.64,2224.89 2433.11,2222.89 L 2425.27,2256.25 C 2434.15,2258.34 2442.9,2260.25 2451.27,2262.3 L 2459.45,2229.03 L 2455.36,2245.66 L 2459.45,2229.03 C 2450.48,2226.8 2441.64,2224.89 2433.11,2222.89 L 2425.27,2256.25 C 2434.15,2258.34 2442.9,2260.25 2451.27,2262.3 L 2459.45,2229.03 L 2455.36,2245.66 z M 2532.22,2266.13 L 2536.88,2249.63 C 2527.35,2246.93 2517.72,2244.4 2508.23,2241.88 L 2499.43,2274.97 C 2508.93,2277.5 2518.38,2280.02 2527.56,2282.64 L 2536.88,2249.63 L 2532.22,2266.13 L 2536.88,2249.63 C 2527.35,2246.93 2517.72,2244.4 2508.23,2241.88 L 2499.43,2274.97 C 2508.93,2277.5 2518.38,2280.02 2527.56,2282.64 L 2536.88,2249.63 L 2532.22,2266.13 z M 2607.57,2288.95 L 2612.79,2272.62 C 2602.86,2269.44 2592.93,2266.44 2583.09,2263.43 L 2573.07,2296.18 C 2582.96,2299.23 2592.71,2302.15 2602.3,2305.24 L 2612.79,2272.62 L 2607.57,2288.95 L 2612.84,2272.66 C 2602.82,2269.4 2592.89,2266.39 2583.09,2263.43 L 2573.07,2296.18 C 2582.92,2299.19 2592.67,2302.19 2602.34,2305.28 L 2612.84,2272.66 L 2607.57,2288.95 z M 2681.38,2314.08 L 2687.17,2297.96 C 2677.11,2294.35 2666.96,2290.82 2656.86,2287.38 L 2645.8,2319.79 C 2655.82,2323.23 2665.79,2326.66 2675.59,2330.19 L 2687.17,2297.96 L 2681.38,2314.08 L 2687.17,2297.96 C 2677.11,2294.35 2666.96,2290.82 2656.86,2287.38 L 2645.8,2319.79 C 2655.82,2323.23 2665.79,2326.66 2675.59,2330.19 L 2687.17,2297.96 L 2681.38,2314.08 z M 2753.8,2341.52 L 2760.16,2325.58 C 2749.97,2321.57 2739.78,2317.61 2729.55,2313.73 L 2717.44,2345.79 C 2727.5,2349.57 2737.52,2353.45 2747.45,2357.45 L 2760.16,2325.58 L 2753.8,2341.52 L 2760.16,2325.58 C 2749.97,2321.57 2739.78,2317.61 2729.55,2313.73 L 2717.44,2345.79 C 2727.5,2349.57 2737.52,2353.45 2747.45,2357.45 L 2760.16,2325.58 L 2753.8,2341.52 z M 2824.88,2371.26 L 2831.71,2355.54 C 2821.61,2351.14 2811.46,2346.74 2801.23,2342.43 L 2787.9,2374.05 C 2797.96,2378.27 2807.93,2382.58 2818.04,2386.98 L 2831.71,2355.54 L 2824.88,2371.26 L 2831.71,2355.54 C 2821.61,2351.14 2811.46,2346.74 2801.23,2342.43 L 2787.9,2374.05 C 2797.96,2378.27 2807.93,2382.58 2818.04,2386.98 L 2831.71,2355.54 L 2824.88,2371.26 z M 2894.55,2403.22 L 2901.96,2387.77 C 2891.94,2382.97 2881.84,2378.18 2871.61,2373.48 L 2857.32,2404.66 C 2867.29,2409.19 2877.22,2413.89 2887.15,2418.68 L 2901.96,2387.77 L 2894.55,2403.22 L 2901.96,2387.77 C 2891.94,2382.97 2881.84,2378.18 2871.61,2373.48 L 2857.32,2404.66 C 2867.29,2409.19 2877.22,2413.89 2887.15,2418.68 L 2901.96,2387.77 L 2894.55,2403.22 z M 2296.54,2211.91 L 2299.32,2195.02 L 2289.79,2193.45 L 2284.21,2227.24 L 2293.75,2228.81 L 2299.32,2195.02 L 2296.54,2211.91 L 2299.32,2195.02 L 2289.79,2193.45 L 2284.21,2227.24 L 2293.75,2228.81 L 2299.32,2195.02 L 2296.54,2211.91 z M 2963.1,2437.45 L 2971.03,2422.26 C 2961.05,2417.07 2951.04,2411.89 2940.98,2406.8 L 2925.56,2437.45 C 2935.45,2442.38 2945.29,2447.47 2955.18,2452.65 L 2971.03,2422.26 L 2963.1,2437.45 L 2971.03,2422.26 C 2961.05,2417.07 2951.04,2411.89 2940.98,2406.8 L 2925.56,2437.45 C 2935.45,2442.38 2945.29,2447.47 2955.18,2452.65 L 2971.03,2422.26 L 2963.1,2437.45 z M 3508.78,2817.64 L 3520.1,2804.79 C 3507.6,2793.78 3495.06,2783.11 3482.69,2772.52 L 3460.39,2798.57 C 3472.85,2809.24 3485.21,2819.73 3497.45,2830.49 L 3520.1,2804.79 L 3508.78,2817.64 L 3520.1,2804.79 C 3507.6,2793.78 3495.06,2783.11 3482.69,2772.52 L 3460.39,2798.57 C 3472.85,2809.24 3485.21,2819.73 3497.45,2830.49 L 3520.1,2804.79 L 3508.78,2817.64 z M 3569.75,2872.69 L 3581.38,2860.1 C 3569.18,2848.82 3556.94,2837.94 3544.88,2827.05 L 3521.97,2852.57 C 3534.12,2863.46 3546.18,2874.25 3558.12,2885.27 L 3581.38,2860.1 L 3569.75,2872.69 L 3581.38,2860.1 C 3569.18,2848.82 3556.94,2837.94 3544.88,2827.05 L 3521.97,2852.57 C 3534.12,2863.46 3546.18,2874.25 3558.12,2885.27 L 3581.38,2860.1 L 3569.75,2872.69 z M 3447.33,2764.77 L 3458.35,2751.66 C 3444.23,2739.82 3430.08,2728.36 3415.97,2716.95 L 3394.46,2743.61 C 3408.57,2755.02 3422.55,2766.3 3436.31,2777.88 L 3458.35,2751.66 L 3447.33,2764.77 L 3458.35,2751.66 C 3444.23,2739.82 3430.08,2728.36 3415.97,2716.95 L 3394.46,2743.61 C 3408.57,2755.02 3422.55,2766.3 3436.31,2777.88 L 3458.35,2751.66 L 3447.33,2764.77 z M 3362.14,2696.01 L 3372.68,2682.46 C 3360.14,2672.75 3347.55,2662.73 3334.66,2653.07 L 3314.02,2680.42 C 3326.48,2689.78 3338.98,2699.66 3351.61,2709.51 L 3372.68,2682.46 L 3362.14,2696.01 L 3372.68,2682.46 C 3360.14,2672.75 3347.55,2662.73 3334.66,2653.07 L 3314.02,2680.42 C 3326.48,2689.78 3338.98,2699.66 3351.61,2709.51 L 3372.68,2682.46 L 3362.14,2696.01 z M 3291.95,2642.88 L 3302.05,2629.03 C 3292.03,2621.71 3281.84,2614.09 3271.39,2606.64 L 3251.53,2634.6 C 3261.55,2641.7 3271.56,2649.23 3281.84,2656.73 L 3302.05,2629.03 L 3291.95,2642.88 L 3302.05,2629.03 C 3292.03,2621.71 3281.84,2614.09 3271.39,2606.64 L 3251.53,2634.6 C 3261.55,2641.7 3271.56,2649.23 3281.84,2656.73 L 3302.05,2629.03 L 3291.95,2642.88 z M 3030.56,2473.95 L 3038.96,2459.01 C 3029.13,2453.48 3019.2,2447.86 3009.09,2442.38 L 2992.71,2472.51 C 3002.47,2477.82 3012.31,2483.36 3022.16,2488.89 L 3038.96,2459.01 L 3030.56,2473.95 L 3038.96,2459.01 C 3029.13,2453.48 3019.2,2447.86 3009.09,2442.38 L 2992.71,2472.51 C 3002.47,2477.82 3012.31,2483.36 3022.16,2488.89 L 3038.96,2459.01 L 3030.56,2473.95 z M 3097.06,2512.66 L 3105.86,2497.95 C 3096.1,2492.11 3086.21,2486.05 3076.03,2480.13 L 3058.78,2509.75 C 3068.54,2515.41 3078.25,2521.38 3088.26,2527.38 L 3105.86,2497.95 L 3097.06,2512.66 L 3105.86,2497.95 C 3096.1,2492.11 3086.21,2486.05 3076.03,2480.13 L 3058.78,2509.75 C 3068.54,2515.41 3078.25,2521.38 3088.26,2527.38 L 3105.86,2497.95 L 3097.06,2512.66 z M 3162.52,2553.64 L 3171.84,2539.27 C 3162.13,2532.96 3152.24,2526.47 3142.13,2520.11 L 3123.93,2549.2 C 3133.6,2555.21 3143.31,2561.61 3153.2,2568.02 L 3171.84,2539.27 L 3162.52,2553.64 L 3171.84,2539.27 C 3162.13,2532.96 3152.24,2526.47 3142.13,2520.11 L 3123.93,2549.2 C 3133.6,2555.21 3143.31,2561.61 3153.2,2568.02 L 3171.84,2539.27 L 3162.52,2553.64 z M 3227.19,2596.85 L 3236.94,2582.78 C 3227.19,2576.03 3217.34,2569.06 3207.15,2562.31 L 3188.16,2590.79 C 3197.83,2597.28 3207.59,2604.07 3217.43,2610.91 L 3236.94,2582.78 L 3227.19,2596.85 L 3236.94,2582.78 C 3227.19,2576.03 3217.34,2569.06 3207.15,2562.31 L 3188.16,2590.79 C 3197.83,2597.28 3207.59,2604.07 3217.43,2610.91 L 3236.94,2582.78 L 3227.19,2596.85 z M 2253.99,4904.09 L 2251.11,4887.2 C 2119.38,4909.71 2036.5,4910.63 2024.22,4910.63 L 2022.57,4910.63 L 2022.39,4927.74 L 2038.38,4921.51 C 2019.04,4871.87 2001.01,4823.4 1984.24,4776.06 L 1979.93,4764 L 1967.13,4764.69 C 1933.33,4766.56 1899.14,4768.04 1864.48,4768.83 L 1864.88,4785.95 L 1881.03,4780.24 C 1734.14,4364.39 1659.67,3926.32 1659.67,3477.98 C 1659.67,3029.81 1734.14,2591.75 1881.03,2175.9 L 1864.88,2170.19 L 1864.52,2187.31 C 1898.67,2188.05 1932.38,2189.48 1965.73,2191.36 L 1978.49,2192.05 L 1982.8,2180.04 C 1999.44,2133.74 2016.73,2087.88 2035.15,2042.59 L 2019.26,2036.15 L 2018.95,2053.26 C 2650.59,2064.71 3200.66,2422.34 3592.7,2778.49 C 3788.71,2956.48 3945.1,3133.85 4052.36,3266.64 C 4106.01,3333 4147.43,3388.27 4175.34,3426.85 C 4189.32,3446.19 4199.91,3461.3 4207,3471.62 C 4214.14,3481.9 4217.63,3487.21 4217.67,3487.26 L 4231.96,3477.81 L 4217.63,3468.4 C 4217.59,3468.45 4199.16,3496.53 4174.25,3533.42 C 4149.34,3570.26 4118.03,3615.86 4092.64,3650.39 L 4106.45,3660.54 L 4101.14,3644.25 C 4044.96,3662.63 3987.64,3677.13 3929.73,3688.41 L 3923.93,3689.54 L 3920.06,3693.98 C 3895.19,3722.68 3870.28,3750.73 3845.37,3778.34 L 3814.75,3812.27 L 3860.13,3806.87 C 3920.23,3799.68 3980.02,3788.66 4038.9,3772.94 L 4034.46,3756.39 L 4020.92,3745.9 C 3950.89,3836.44 3879.77,3919.92 3808.09,3996.91 L 3820.63,4008.59 L 3819.76,3991.47 C 3796.12,3992.69 3772.47,3993.3 3748.82,3993.3 C 3716.25,3993.3 3683.67,3992.17 3651.23,3990.04 L 3643.61,3989.55 L 3638.12,3994.87 C 3615.47,4016.99 3592.74,4038.77 3569.96,4059.98 L 3543.62,4084.49 L 3579.28,4089.5 C 3634.94,4097.25 3691.12,4101.57 3747.6,4101.78 L 3747.69,4084.67 L 3735.5,4072.61 C 3664.6,4144.29 3593.7,4209.83 3522.8,4269.88 L 3533.86,4282.95 L 3536.95,4266.09 C 3485.74,4256.73 3435.13,4244.41 3385.31,4229.69 L 3376.78,4227.16 L 3369.81,4232.69 C 3348.3,4249.68 3326.65,4266.36 3304.92,4282.64 L 3279.88,4301.41 L 3309.19,4312.39 C 3357.7,4330.64 3407.35,4346.18 3458,4358.46 L 3462.05,4341.83 L 3451.34,4328.46 C 3376,4388.64 3301.09,4442.38 3227.49,4490.81 L 3236.9,4505.14 L 3244.08,4489.59 C 3200.01,4469.3 3157.07,4446.96 3115.22,4422.91 L 3106.42,4417.86 L 3097.76,4423.13 C 3076.07,4436.37 3054.29,4449.22 3032.3,4461.72 L 3008.35,4475.35 L 3031.17,4490.81 C 3071.28,4517.94 3112.82,4543.33 3156.03,4566.5 L 3164.13,4551.39 L 3155.16,4536.8 C 3081.21,4582.22 3008.52,4622.2 2938.19,4657.34 L 2945.86,4672.67 L 2956.09,4658.91 C 2917.46,4630.21 2880.27,4599.99 2844.34,4568.54 L 2836.11,4561.36 L 2826.14,4565.76 C 2804.58,4575.3 2782.98,4584.57 2761.16,4593.41 L 2737.17,4603.17 L 2755.5,4621.46 C 2789.91,4655.73 2825.92,4688.79 2863.81,4720.1 L 2874.74,4706.9 L 2867.51,4691.36 C 2785.9,4729.24 2707.51,4760.55 2633.82,4786.46 L 2639.49,4802.62 L 2652.16,4791.08 C 2618.58,4754.15 2586.66,4715.87 2556.18,4676.68 L 2549.04,4667.53 L 2537.84,4670.76 C 2514.8,4677.46 2491.46,4683.78 2467.9,4689.79 L 2444.13,4695.84 L 2458.02,4716.09 C 2486.84,4758.12 2517.5,4799.23 2550.34,4838.95 L 2563.54,4828.01 L 2558.31,4811.68 C 2473.78,4838.68 2396.22,4858.15 2328.24,4872.48 L 2331.77,4889.24 L 2346.14,4879.92 C 2317.48,4835.55 2290.83,4790 2265.79,4743.66 L 2260.04,4732.99 L 2248.02,4734.86 C 2224.94,4738.56 2201.6,4741.87 2177.95,4745.01 L 2154.78,4748.05 L 2164.71,4769.27 C 2187.45,4817.91 2212.09,4865.81 2239.14,4912.67 L 2253.99,4904.09 L 2251.11,4887.2 L 2253.99,4904.09 L 2268.84,4895.51 C 2242.32,4849.61 2218.1,4802.58 2195.72,4754.72 L 2180.21,4761.99 L 2182.48,4778.98 C 2206.3,4775.84 2229.99,4772.45 2253.42,4768.74 L 2250.72,4751.8 L 2235.65,4759.95 C 2261.04,4806.98 2288.13,4853.32 2317.39,4898.56 L 2323.75,4908.45 L 2335.29,4906.01 C 2404.32,4891.51 2483.01,4871.69 2568.76,4844.34 L 2592.89,4836.64 L 2576.73,4817.08 C 2544.68,4778.23 2514.63,4738 2486.24,4696.67 L 2472.13,4706.38 L 2476.35,4722.97 C 2500.26,4716.88 2523.95,4710.47 2547.42,4703.68 L 2542.63,4687.22 L 2529.09,4697.76 C 2560.1,4737.56 2592.54,4776.45 2626.81,4814.16 L 2634.43,4822.57 L 2645.19,4818.78 C 2719.88,4792.52 2799.23,4760.86 2881.97,4722.45 L 2906.57,4711 L 2885.67,4693.71 C 2848.65,4663.09 2813.42,4630.82 2779.71,4597.16 L 2767.61,4609.31 L 2774.05,4625.2 C 2796.31,4616.19 2818.26,4606.74 2839.99,4597.11 L 2833.06,4581.44 L 2821.79,4594.33 C 2858.32,4626.29 2896.21,4657.13 2935.62,4686.43 L 2944.07,4692.7 L 2953.52,4688 C 3024.72,4652.42 3098.28,4612.01 3173.1,4565.98 L 3198.49,4550.39 L 3172.23,4536.27 C 3130.16,4513.71 3089.57,4488.94 3050.42,4462.41 L 3040.79,4476.61 L 3049.29,4491.51 C 3071.54,4478.83 3093.66,4465.81 3115.61,4452.4 L 3106.68,4437.77 L 3098.15,4452.62 C 3140.87,4477.18 3184.68,4499.96 3229.71,4520.68 L 3238.38,4524.69 L 3246.3,4519.46 C 3320.77,4470.52 3396.55,4416.08 3472.76,4355.2 L 3500.07,4333.42 L 3466.1,4325.19 C 3416.84,4313.26 3368.59,4298.1 3321.25,4280.34 L 3315.2,4296.36 L 3325.48,4310.08 C 3347.47,4293.62 3369.38,4276.77 3391.06,4259.52 L 3380.44,4246.11 L 3375.56,4262.52 C 3426.51,4277.59 3478.25,4290.18 3530.77,4299.8 L 3538.74,4301.28 L 3544.92,4296.01 C 3616.61,4235.35 3688.29,4169.11 3759.88,4096.73 L 3788.58,4067.68 L 3747.78,4067.51 C 3692.95,4067.34 3638.25,4063.11 3583.98,4055.53 L 3581.63,4072.52 L 3593.3,4085.06 C 3616.34,4063.59 3639.25,4041.64 3662.07,4019.43 L 3650.09,4007.15 L 3648.96,4024.27 C 3682.15,4026.4 3715.46,4027.57 3748.82,4027.57 C 3773.04,4027.57 3797.25,4026.96 3821.5,4025.7 L 3828.47,4025.35 L 3833.18,4020.26 C 3905.55,3942.48 3977.37,3858.21 4048,3766.89 L 4079.05,3726.73 L 4030.02,3739.84 C 3972.88,3755.09 3914.74,3765.8 3856.04,3772.81 L 3858.09,3789.84 L 3870.8,3801.34 C 3895.89,3773.55 3920.88,3745.33 3945.93,3716.46 L 3932.99,3705.22 L 3936.26,3722.03 C 3995.4,3710.49 4054.1,3695.73 4111.76,3676.83 L 4116.99,3675.13 L 4120.25,3670.69 C 4172.04,3600.22 4246.2,3487.34 4246.29,3487.21 L 4252.47,3477.76 L 4246.24,3468.36 C 4245.76,3467.62 4011.03,3112.12 3615.78,2753.1 C 3220.52,2394.3 2664.27,2031.09 2019.56,2019.03 L 2007.8,2018.81 L 2003.36,2029.7 C 1984.77,2075.52 1967.3,2121.81 1950.58,2168.45 L 1966.69,2174.24 L 1967.65,2157.13 C 1933.94,2155.25 1899.89,2153.82 1865.22,2153.08 L 1852.85,2152.77 L 1848.71,2164.49 C 1700.52,2584 1625.35,3025.98 1625.39,3477.98 C 1625.35,3930.15 1700.52,4372.14 1848.71,4791.65 L 1852.85,4803.36 L 1865.27,4803.06 C 1900.37,4802.27 1934.9,4800.79 1969.04,4798.92 L 1968.09,4781.8 L 1951.93,4787.55 C 1968.87,4835.16 1986.99,4883.97 2006.41,4933.97 L 2010.63,4944.77 L 2022.22,4944.86 L 2024.22,4944.9 C 2038.16,4944.9 2122.95,4943.9 2256.86,4920.99 L 2281.12,4916.86 L 2268.84,4895.51 L 2253.99,4904.09"
             style="fill:#ffffff;fill-opacity:1;fill-rule:nonzero;stroke:none"
             id="path2528" />
          <path
             d="M 1425.24,2652.37 L 1207.71,2707.11 C 1156.98,2720.13 1109.46,2723.7 1109.46,2723.7 L 1109.46,2726.1 C 1109.46,2726.1 1158.15,2729.76 1208.89,2740.52 L 1425.24,2788.59 L 1425.24,2652.37 z M 869.375,2886.02 L 869.375,2581.91 L 1485.47,2398.13 L 869.375,2398.13 L 869.375,2113.4 L 1178.97,2113.4 L 1178.97,2003.4 L 869.375,2003.4 L 869.375,1718.63 L 1670.16,1718.63 L 1670.16,2003.4 L 1354.73,2003.4 L 1354.73,2113.4 L 1670.16,2113.4 L 1670.16,2592.75 L 1571.7,2617.27 L 1571.7,2821.73 L 1632.58,2834.93 C 1618.25,2923.82 1606.93,3013.35 1598.57,3103.46 L 869.375,2886.02"
             style="fill:#4d2004;fill-opacity:1;fill-rule:nonzero;stroke:none"
             id="path2530" />
          <path
             d="M 1425.24,2652.37 L 1423.15,2644.05 L 1205.62,2698.8 C 1180.67,2705.2 1156.37,2709.29 1138.38,2711.77 C 1120.39,2714.3 1108.86,2715.13 1108.81,2715.17 L 1100.89,2715.73 L 1100.89,2734.07 L 1108.81,2734.64 C 1108.86,2734.64 1120.79,2735.55 1139.12,2737.77 C 1157.46,2740.04 1182.11,2743.61 1207.1,2748.92 L 1433.82,2799.3 L 1433.82,2641.35 L 1423.15,2644.05 L 1425.24,2652.37 L 1416.66,2652.37 L 1416.66,2777.88 L 1210.76,2732.15 C 1159.24,2721.22 1110.34,2717.57 1110.12,2717.57 L 1109.46,2726.1 L 1118.05,2726.1 L 1118.05,2723.7 L 1109.46,2723.7 L 1110.12,2732.24 C 1110.38,2732.24 1158.24,2728.67 1209.85,2715.43 L 1427.33,2660.69 L 1425.24,2652.37 L 1416.66,2652.37 L 1425.24,2652.37 z M 877.957,2886.02 L 877.957,2588.31 L 1487.91,2406.36 L 1485.47,2389.55 L 877.957,2389.55 L 877.957,2121.98 L 1187.55,2121.98 L 1187.55,1994.82 L 877.957,1994.82 L 877.957,1727.21 L 1661.59,1727.21 L 1661.59,1994.82 L 1346.16,1994.82 L 1346.16,2121.98 L 1661.59,2121.98 L 1661.59,2586.05 L 1563.12,2610.56 L 1563.12,2828.66 L 1630.75,2843.34 L 1632.58,2834.93 L 1624.13,2833.58 C 1609.76,2922.64 1598.39,3012.35 1590.03,3102.67 L 1598.57,3103.46 L 1601.01,3095.23 L 871.816,2877.78 L 866.938,2894.25 L 1606.14,3114.65 L 1607.11,3104.24 C 1615.46,3014.36 1626.75,2924.99 1641.07,2836.28 L 1642.34,2828.27 L 1580.28,2814.81 L 1580.28,2623.98 L 1678.74,2599.46 L 1678.74,2104.82 L 1363.32,2104.82 L 1363.32,2011.98 L 1678.74,2011.98 L 1678.74,1710.05 L 860.797,1710.05 L 860.797,2011.98 L 1170.39,2011.98 L 1170.39,2104.82 L 860.797,2104.82 L 860.797,2406.71 L 1426.68,2406.71 L 860.797,2575.51 L 860.797,2886.02 L 877.957,2886.02"
             style="fill:#ffffff;fill-opacity:1;fill-rule:nonzero;stroke:none"
             id="path2532" />
          <path
             d="M 1168.52,5059.96 C 1135.9,4992.76 1116.13,4970.72 1082.38,4970.72 C 1052.11,4970.72 1038.13,4993.98 1038.13,5035.52 C 1038.13,5081.95 1054.42,5124.76 1070.75,5154.07 L 906.613,5211.55 C 881.004,5166.35 857.75,5094.23 857.75,4990.32 C 857.75,4808.24 978.773,4693.32 1126.58,4693.32 C 1204.58,4693.32 1295.38,4727.54 1354.73,4849.79 C 1386.13,4915.77 1407.13,4936.54 1437.35,4936.54 C 1462.96,4936.54 1480.46,4913.32 1480.46,4870.56 C 1480.46,4821.66 1458.34,4769.09 1442.05,4747.14 L 1532.46,4717.4 L 1233.67,4576.04 L 869.375,4764.21 L 869.375,4477 L 1220.86,4325.5 L 1220.86,4323.01 L 869.375,4323.01 L 869.375,3803.25 L 1236.76,3732.75 C 1282.27,3724.21 1326.08,3721.86 1326.08,3721.86 L 1326.08,3719.46 C 1326.08,3719.46 1282.27,3718.2 1236.76,3709.62 L 869.375,3635.67 L 869.375,3407.26 L 1236.76,3329.82 C 1282.27,3321.16 1326.08,3318.59 1326.08,3318.59 L 1326.08,3316.15 C 1326.08,3316.15 1282.27,3313.93 1236.76,3305.48 L 869.375,3238.41 L 869.375,2949.29 L 1594.21,3154.41 C 1586.07,3256.84 1581.76,3359.92 1581.45,3463.52 L 1405.47,3507.46 C 1367.02,3517 1328.13,3519.39 1328.13,3519.39 L 1328.13,3521.79 C 1328.13,3521.79 1368.15,3525.41 1405.47,3534.95 L 1582.67,3581.54 C 1585.24,3683.36 1591.64,3784.57 1601.75,3885.13 L 1057.68,4038.29 L 1620.13,4038.29 C 1633.41,4133.4 1650.09,4227.9 1670.16,4321.49 L 1670.16,4323.01 L 1290.72,4323.01 L 1290.72,4325.5 L 1670.16,4467.25 L 1670.16,4782.55 L 1668.6,4781.8 C 1677.3,4822.66 1681.79,4871.52 1681.79,4929.18 C 1681.79,5113.74 1565.38,5239.68 1416.45,5239.68 C 1323.29,5239.68 1244.16,5217.65 1168.52,5059.96"
             style="fill:#4d2004;fill-opacity:1;fill-rule:nonzero;stroke:none"
             id="path2534" />
          <path
             d="M 1176.23,5056.21 C 1159.77,5022.33 1146.48,4999.42 1132.07,4984.22 C 1117.83,4968.94 1101.15,4961.97 1082.38,4962.14 C 1065.09,4961.93 1050.37,4969.46 1041.75,4982.83 C 1033.08,4996.07 1029.6,5013.84 1029.55,5035.52 C 1029.6,5084 1046.41,5127.98 1063.26,5158.25 L 1070.75,5154.07 L 1067.92,5145.96 L 903.781,5203.45 L 906.613,5211.55 L 914.059,5207.33 C 889.277,5163.56 866.328,5092.96 866.328,4990.32 C 866.676,4812.16 983.477,4702.2 1126.58,4701.89 C 1202.14,4702.2 1288.67,4734.07 1347.03,4853.53 C 1362.88,4886.8 1376.2,4909.14 1390.32,4923.86 C 1404.3,4938.63 1420.23,4945.29 1437.35,4945.12 C 1452.81,4945.25 1466.79,4937.63 1475.59,4924.39 C 1484.51,4911.23 1489,4893.07 1489.04,4870.56 C 1488.82,4819 1466.53,4766 1448.93,4742.05 L 1442.05,4747.14 L 1444.75,4755.29 L 1555.54,4718.84 L 1233.5,4566.45 L 877.957,4750.1 L 877.957,4482.67 L 1229.45,4331.16 L 1229.45,4314.43 L 877.957,4314.43 L 877.957,3810.35 L 1238.37,3741.15 C 1260.75,3736.97 1282.88,3734.27 1299.34,3732.66 C 1315.8,3731 1326.52,3730.44 1326.56,3730.44 L 1334.66,3730 L 1334.66,3711.14 L 1326.34,3710.88 C 1326.3,3710.88 1315.63,3710.58 1299.21,3709.23 C 1282.75,3707.84 1260.67,3705.39 1238.33,3701.17 L 1236.76,3709.62 L 1238.46,3701.21 L 877.957,3628.66 L 877.957,3414.23 L 1238.55,3338.23 L 1236.76,3329.82 L 1238.37,3338.27 C 1260.8,3333.96 1282.88,3331.22 1299.38,3329.48 C 1315.85,3327.78 1326.56,3327.17 1326.6,3327.17 L 1334.66,3326.69 L 1334.66,3308.01 L 1326.52,3307.57 C 1326.47,3307.57 1315.8,3307.05 1299.3,3305.44 C 1282.84,3303.87 1260.71,3301.21 1238.33,3297.04 L 877.957,3231.27 L 877.957,2960.61 L 1591.86,3162.68 L 1594.21,3154.41 L 1585.68,3153.71 C 1577.49,3256.36 1573.18,3359.66 1572.88,3463.48 L 1581.45,3463.52 L 1579.36,3455.2 L 1403.38,3499.14 C 1384.65,3503.8 1365.63,3506.72 1351.34,3508.51 C 1337.01,3510.25 1327.61,3510.82 1327.61,3510.82 L 1319.55,3511.34 L 1319.55,3529.63 L 1327.34,3530.33 C 1327.39,3530.33 1337.1,3531.2 1351.6,3533.29 C 1366.06,3535.34 1385.13,3538.6 1403.34,3543.26 L 1580.5,3589.86 L 1582.67,3581.54 L 1574.09,3581.76 C 1576.66,3683.8 1583.11,3785.22 1593.21,3886 L 1601.75,3885.13 L 1599.44,3876.85 L 1055.38,4030.01 L 1057.68,4046.87 L 1620.13,4046.87 L 1620.13,4038.29 L 1611.63,4039.46 C 1624.96,4134.79 1641.64,4229.51 1661.76,4323.27 L 1670.16,4321.49 L 1661.59,4321.49 L 1661.59,4323.01 L 1670.16,4323.01 L 1670.16,4314.43 L 1282.14,4314.43 L 1282.14,4331.46 L 1661.59,4473.21 L 1661.59,4782.55 L 1670.16,4782.55 L 1673.82,4774.79 L 1672.25,4774.05 L 1656.58,4766.65 L 1660.19,4783.59 C 1668.77,4823.66 1673.21,4871.95 1673.21,4929.18 C 1672.86,5110.21 1560.07,5230.98 1416.45,5231.11 C 1370.46,5231.11 1329.39,5225.71 1290.41,5201.66 C 1251.44,5177.59 1213.68,5134.25 1176.27,5056.25 L 1160.77,5063.66 C 1199,5143.36 1238.63,5189.86 1281.4,5216.26 C 1324.21,5242.64 1369.28,5248.27 1416.45,5248.27 C 1493.35,5248.31 1562.25,5215.6 1611.41,5159.29 C 1660.67,5102.98 1690.37,5023.25 1690.37,4929.18 C 1690.37,4871.08 1685.84,4821.66 1677,4780.02 L 1668.6,4781.8 L 1664.94,4789.56 L 1666.51,4790.3 L 1678.74,4796.09 L 1678.74,4461.29 L 1293.72,4317.44 L 1290.72,4325.5 L 1299.3,4325.5 L 1299.3,4323.01 L 1290.72,4323.01 L 1290.72,4331.59 L 1678.74,4331.59 L 1678.74,4320.57 L 1678.57,4319.7 C 1658.54,4226.29 1641.86,4132.01 1628.62,4037.11 L 1627.57,4029.71 L 1119.83,4029.71 L 1611.02,3891.44 L 1610.28,3884.25 C 1600.22,3783.91 1593.82,3682.93 1591.25,3581.32 L 1591.08,3574.88 L 1407.65,3526.63 C 1369.41,3516.87 1329.13,3513.3 1328.91,3513.26 L 1328.13,3521.79 L 1336.71,3521.79 L 1336.71,3519.39 L 1328.13,3519.39 L 1328.65,3527.98 C 1328.95,3527.93 1368.15,3525.54 1407.52,3515.78 L 1590.03,3470.23 L 1590.03,3463.57 C 1590.34,3360.18 1594.65,3257.32 1602.75,3155.11 L 1603.32,3148.05 L 860.797,2937.93 L 860.797,3245.56 L 1235.23,3313.93 C 1281.4,3322.46 1325.43,3324.69 1325.64,3324.73 L 1326.08,3316.15 L 1317.5,3316.15 L 1317.5,3318.59 L 1326.08,3318.59 L 1325.56,3310.01 C 1325.38,3310.05 1281.31,3312.63 1235.15,3321.38 L 1235.02,3321.42 L 860.797,3400.29 L 860.797,3642.68 L 1235.06,3718.02 L 1235.19,3718.07 C 1281.48,3726.78 1325.56,3728.04 1325.82,3728.04 L 1326.08,3719.46 L 1317.5,3719.46 L 1317.5,3721.86 L 1326.08,3721.86 L 1325.6,3713.28 C 1325.43,3713.32 1281.36,3715.68 1235.19,3724.3 L 860.797,3796.15 L 860.797,4331.59 L 1220.86,4331.59 L 1220.86,4323.01 L 1212.29,4323.01 L 1212.29,4325.5 L 1220.86,4325.5 L 1217.47,4317.61 L 860.797,4471.34 L 860.797,4778.28 L 1233.84,4585.62 L 1509.38,4715.96 L 1428.07,4742.7 L 1435.17,4752.24 C 1450.15,4772.14 1472.1,4824.31 1471.88,4870.56 C 1471.93,4890.81 1467.66,4905.66 1461.43,4914.76 C 1455.07,4923.86 1447.5,4927.83 1437.35,4927.96 C 1424.24,4927.79 1414.57,4924.08 1402.68,4911.93 C 1390.88,4899.78 1377.99,4878.75 1362.49,4846.09 C 1302.08,4721.01 1207.02,4684.43 1126.58,4684.73 C 1050.46,4684.69 980.863,4714.44 930.52,4767.65 C 880.133,4820.83 849.125,4897.39 849.172,4990.32 C 849.172,5095.49 872.73,5169.14 899.164,5215.78 L 902.691,5222 L 1083.2,5158.81 L 1078.24,5149.89 C 1062.43,5121.54 1046.67,5079.9 1046.71,5035.52 C 1046.67,5015.67 1050.2,5001.04 1056.07,4992.28 C 1062,4983.61 1069.4,4979.52 1082.38,4979.3 C 1097.36,4979.48 1107.46,4983.53 1119.66,4996.07 C 1131.72,5008.66 1144.65,5030.39 1160.81,5063.7 L 1176.23,5056.21"
             style="fill:#ffffff;fill-opacity:1;fill-rule:nonzero;stroke:none"
             id="path2536" />
          <path
             d="M 1864.88,2170.19 C 2860.72,2192.23 3474.98,2668.92 4121.65,3478.16 C 3474.98,4287.39 2860.72,4763.95 1864.88,4785.95 C 1717.33,4368.26 1642.51,3928.24 1642.51,3477.98 C 1642.51,3027.9 1717.33,2587.88 1864.88,2170.19"
             style="fill:#fbbf15;fill-opacity:1;fill-rule:nonzero;stroke:none"
             id="path2538" />
          <path
             d="M 2253.99,4904.09 C 2109.01,4928.88 2022.39,4927.74 2022.39,4927.74 C 1412.74,3362.84 2109.97,2977.21 2109.97,2977.21 C 2184.96,2626.72 2401.58,2347.52 2740.17,2453.61 C 2842.52,2485.66 2937.36,2559.35 3009.74,2657.86 C 2969.77,2634.34 2925.87,2626.37 2877.92,2637.43 C 2762.38,2664.3 2685.39,2819.3 2695.58,3051.98 C 2711.47,3414.48 2776.84,3521.31 2776.84,3521.31 C 2776.84,3521.31 2642.8,2915.37 2781.46,2748.01 C 2771.31,2789.64 2765.91,2832.41 2765.91,2876.48 C 2765.91,3239.55 3010.83,3534.07 3583.25,3534.07 C 3791.37,3534.07 3955.94,3495.01 4081.5,3428.16 C 3471.67,2676.89 2882.93,2224.45 1966.69,2174.29 C 1983.33,2127.82 2000.75,2081.7 2019.26,2036.15 C 3295.6,2059.66 4231.96,3477.81 4231.96,3477.81 C 4231.96,3477.81 4157.75,3590.73 4106.45,3660.54 C 3731.75,3783.48 3314.85,3749.21 2961.4,3553.71 C 3276.14,3786.96 3673.44,3852.9 4034.46,3756.39 C 3964.13,3847.32 3892.66,3931.2 3820.63,4008.59 C 3484.04,4026.18 3146.57,3925.45 2873.48,3718.64 C 3107.69,3955.85 3424.99,4083.36 3747.69,4084.67 C 3676.44,4156.7 3605.15,4222.59 3533.86,4282.95 C 3232.46,4227.77 2951.95,4079.14 2737.04,3855.29 C 2914.59,4101.7 3174.36,4272.02 3462.05,4341.83 C 3386.27,4402.36 3310.93,4456.45 3236.9,4505.14 C 2971.81,4383.33 2745.36,4192.8 2578.17,3949.71 C 2707.21,4206.48 2910.1,4415.12 3164.13,4551.39 C 3089.74,4597.11 3016.63,4637.31 2945.86,4672.67 C 2705.2,4493.99 2516.89,4262 2393.21,3995.61 C 2481.53,4273.32 2647.06,4518.81 2874.74,4706.9 C 2792.56,4745.05 2713.7,4776.54 2639.49,4802.62 C 2424.18,4565.63 2271.8,4283.3 2193.5,3976.36 C 2233.26,4290.35 2361.43,4583.44 2563.54,4828.01 C 2478.4,4855.19 2400.27,4874.83 2331.77,4889.24 C 2144.59,4599.16 2034.06,4267.96 2009.46,3920.84 C 1997.44,4269.1 2082.36,4607.3 2253.99,4904.09"
             style="fill:#4d2004;fill-opacity:1;fill-rule:nonzero;stroke:none"
             id="path2540" />
          <path
             d="M 3214.47,4505.79 L 3214.47,4505.79 L 3214.51,4505.75"
             style="fill:#fbbf15;fill-opacity:1;fill-rule:nonzero;stroke:none"
             id="path2542" />
          <path
             d="M 2364.56,2712.82 C 2416.6,2705.59 2500.26,2715.43 2575.77,2843.51 C 2635.61,2945.15 2645.19,3103.63 2659.65,3209.32 C 2676.68,3338.41 2710.17,3477.81 2776.84,3521.31 C 2659.3,3477.81 2647.41,3239.55 2601.51,3087.73 C 2551.17,2921.12 2388.6,2928.52 2302.33,2956.09 C 2253.99,2971.63 2199.42,3001.98 2168.46,2973.5 C 2143.33,2950.34 2159.79,2904.26 2159.79,2904.26 C 2184.22,2819.3 2217.14,2743.56 2256.77,2679.85 C 2272.71,2711.9 2317.7,2719.31 2364.56,2712.82"
             style="fill:#fbbf15;fill-opacity:1;fill-rule:nonzero;stroke:none"
             id="path2544" />
          <path
             d="M 2347.05,2906.83 C 2330.59,2904.22 2319.36,2886.27 2322.84,2866.94 C 2331.86,2816.59 2371.05,2778.05 2371.05,2778.05 C 2376.88,2771.74 2385.07,2769.61 2390.52,2773.31 C 2396.31,2777.27 2396.87,2786.59 2392.21,2794.73 L 2392.3,2794.82 C 2392.3,2794.82 2384.55,2808.11 2380.71,2822.43 C 2375.75,2841.03 2381.93,2860.84 2381.93,2860.84 L 2381.8,2860.84 C 2382.98,2865.76 2383.29,2871.03 2382.41,2876.48 C 2379.37,2895.86 2363.47,2909.45 2347.05,2906.83"
             style="fill:#4d2004;fill-opacity:1;fill-rule:nonzero;stroke:none"
             id="path2546" />
          <path
             d="M 2422.48,3559.81 C 2422.48,3442.62 2333.46,3346.16 2219.41,3334.48 C 2218.8,3338.75 2218.14,3342.98 2217.49,3347.16 C 2215.49,3359.88 2213.05,3372.42 2210.35,3384.48 C 2300.89,3391.75 2372.14,3467.44 2372.14,3559.81 C 2372.14,3656.97 2293.44,3735.88 2196.07,3735.88 C 2149.6,3735.88 2107.23,3717.77 2075.74,3688.15 C 2069.73,3705.39 2064.42,3723.29 2060.54,3741.24 C 2098.34,3769.59 2145.16,3786.22 2196.07,3786.22 C 2321.23,3786.22 2422.48,3684.97 2422.48,3559.81 M 2307.34,3559.81 C 2307.34,3509.47 2266.4,3468.53 2215.84,3468.53 C 2203.56,3468.53 2191.75,3470.93 2181.04,3475.32 C 2168.02,3505.42 2153.34,3533.11 2137.75,3557.76 L 2137.63,3557.89 C 2137.14,3558.77 2133.96,3563.86 2129.13,3572.39 L 2134.62,3572.05 C 2156.44,3572.05 2174.03,3589.64 2174.03,3611.46 C 2174.03,3620.73 2170.85,3629.23 2165.5,3635.98 C 2179.95,3645.52 2197.24,3651.09 2215.84,3651.09 C 2266.4,3651.09 2307.34,3610.33 2307.34,3559.81 M 2206.95,3399.03 L 2206.87,3399.42 L 2206.95,3399.03 M 2206,3402.86 C 2202.73,3415.49 2199.2,3427.38 2195.5,3438.35 L 2195.2,3439.27 L 2194.46,3441.48 L 2193.41,3444.41 L 2192.93,3445.75 L 2191.54,3449.59 L 2191.14,3450.59 L 2189.58,3454.68 C 2195.5,3439.7 2201.12,3422.06 2206,3402.86"
             style="fill:#4d2004;fill-opacity:1;fill-rule:nonzero;stroke:none"
             id="path2548" />
          <path
             d="M 2422.48,3559.81 C 2422.48,3442.62 2333.46,3346.16 2219.41,3334.48 C 2218.8,3338.75 2218.14,3342.98 2217.49,3347.16 C 2215.49,3359.88 2213.05,3372.42 2210.35,3384.48 C 2300.89,3391.75 2372.14,3467.44 2372.14,3559.81 C 2372.14,3656.97 2293.44,3735.88 2196.07,3735.88 C 2149.6,3735.88 2107.23,3717.77 2075.74,3688.15 C 2069.73,3705.39 2064.42,3723.29 2060.54,3741.24 C 2098.34,3769.59 2145.16,3786.22 2196.07,3786.22 C 2321.23,3786.22 2422.48,3684.97 2422.48,3559.81 M 2307.34,3559.81 C 2307.34,3509.47 2266.4,3468.53 2215.84,3468.53 C 2203.56,3468.53 2191.75,3470.93 2181.04,3475.32 C 2168.02,3505.42 2153.34,3533.11 2137.75,3557.76 L 2137.63,3557.89 C 2137.14,3558.77 2133.96,3563.86 2129.13,3572.39 L 2134.62,3572.05 C 2156.44,3572.05 2174.03,3589.64 2174.03,3611.46 C 2174.03,3620.73 2170.85,3629.23 2165.5,3635.98 C 2179.95,3645.52 2197.24,3651.09 2215.84,3651.09 C 2266.4,3651.09 2307.34,3610.33 2307.34,3559.81 M 2206.95,3399.03 L 2206.87,3399.42 L 2206.95,3399.03 M 2206,3402.86 C 2202.73,3415.49 2199.2,3427.38 2195.5,3438.35 L 2195.2,3439.27 L 2194.46,3441.48 L 2193.41,3444.41 L 2192.93,3445.75 L 2191.54,3449.59 L 2191.14,3450.59 L 2189.58,3454.68 C 2195.5,3439.7 2201.12,3422.06 2206,3402.86"
             style="fill:#100f0d;fill-opacity:1;fill-rule:nonzero;stroke:none"
             id="path2550" />
          <path
             d="M 2075.74,3688.11 C 2091.85,3641.81 2113.32,3600.53 2126.26,3577.4 C 2134.4,3619.43 2171.46,3651.09 2215.84,3651.09 C 2266.4,3651.09 2307.34,3610.33 2307.34,3559.81 C 2307.34,3509.47 2266.4,3468.53 2215.84,3468.53 C 2203.43,3468.53 2191.63,3470.93 2180.87,3475.41 C 2183.87,3468.7 2186.79,3461.7 2189.58,3454.68 C 2197.38,3435.04 2204.56,3410.79 2210.31,3384.48 C 2300.85,3391.71 2372.14,3467.4 2372.14,3559.81 C 2372.14,3656.97 2293.44,3735.88 2196.07,3735.88 C 2149.6,3735.88 2107.18,3717.72 2075.74,3688.11"
             style="fill:#fbbf15;fill-opacity:1;fill-rule:nonzero;stroke:none"
             id="path2552" />
          <path
             d="M 2134.62,3572.05 C 2156.44,3572.05 2174.03,3589.64 2174.03,3611.46 C 2174.03,3633.32 2156.44,3650.92 2134.62,3650.92 C 2119.42,3650.92 2106.09,3642.38 2099.61,3629.62 C 2110.93,3605.19 2121.82,3585.16 2129.04,3572.39 L 2134.62,3572.05"
             style="fill:#ffffff;fill-opacity:1;fill-rule:nonzero;stroke:none"
             id="path2554" />
          <path
             d="M 2224.42,3265.33 C 2224.42,3222.61 2217.58,3184.46 2200.34,3161.77 C 2090.77,3381.69 2026.27,3622.74 2011.68,3873.8 C 2022.79,3864.35 2043.69,3836.22 2057.75,3755.3 C 2068.86,3690.29 2101.39,3623.18 2121.34,3586.33 C 2124.21,3581.06 2126.82,3576.36 2129.04,3572.39 L 2129.09,3572.39 C 2133.92,3563.86 2137.14,3558.77 2137.63,3557.89 L 2137.75,3557.76 C 2153.34,3533.11 2168.02,3505.42 2181.04,3475.32 L 2180.87,3475.41 C 2183.87,3468.7 2186.79,3461.7 2189.58,3454.68 L 2191.14,3450.59 L 2191.54,3449.59 L 2192.93,3445.75 L 2193.41,3444.41 L 2194.46,3441.48 L 2195.2,3439.27 L 2195.5,3438.35 C 2200.55,3423.41 2205.25,3406.6 2209.35,3388.75 L 2210.31,3384.48 C 2213.01,3372.42 2215.45,3359.83 2217.49,3347.16 C 2221.8,3319.85 2224.42,3291.72 2224.42,3265.33"
             style="fill:#4d2004;fill-opacity:1;fill-rule:nonzero;stroke:none"
             id="path2556" />
          <path
             d="M 2224.42,3265.33 C 2224.42,3222.61 2217.58,3184.46 2200.34,3161.77 C 2090.77,3381.69 2026.27,3622.74 2011.68,3873.8 C 2022.79,3864.35 2043.69,3836.22 2057.75,3755.3 C 2068.86,3690.29 2101.39,3623.18 2121.34,3586.33 C 2124.21,3581.06 2126.82,3576.36 2129.04,3572.39 L 2129.09,3572.39 C 2133.92,3563.86 2137.14,3558.77 2137.63,3557.89 L 2137.75,3557.76 C 2153.34,3533.11 2168.02,3505.42 2181.04,3475.32 L 2180.87,3475.41 C 2183.87,3468.7 2186.79,3461.7 2189.58,3454.68 L 2191.14,3450.59 L 2191.54,3449.59 L 2192.93,3445.75 L 2193.41,3444.41 L 2194.46,3441.48 L 2195.2,3439.27 L 2195.5,3438.35 C 2200.55,3423.41 2205.25,3406.6 2209.35,3388.75 L 2210.31,3384.48 C 2213.01,3372.42 2215.45,3359.83 2217.49,3347.16 C 2221.8,3319.85 2224.42,3291.72 2224.42,3265.33"
             style="fill:#100f0d;fill-opacity:1;fill-rule:nonzero;stroke:none"
             id="path2558" />
          <path
             d="M 2217.49,3347.16 C 2215.45,3359.83 2213.01,3372.42 2210.31,3384.48 L 2210.35,3384.48 C 2213.05,3372.42 2215.49,3359.88 2217.49,3347.16 M 2209.35,3388.75 C 2205.25,3406.6 2200.55,3423.41 2195.5,3438.35 C 2199.2,3427.38 2202.73,3415.49 2206,3402.86 L 2206.87,3399.42 L 2206.95,3399.03 L 2209.35,3388.75 M 2195.2,3439.27 L 2194.46,3441.48 L 2195.2,3439.27 M 2193.41,3444.41 L 2192.93,3445.75 L 2193.41,3444.41 M 2191.54,3449.59 L 2191.14,3450.59 L 2191.54,3449.59 M 2181.04,3475.32 L 2181.04,3475.32 C 2168.02,3505.42 2153.34,3533.11 2137.75,3557.76 L 2137.63,3557.89 L 2137.75,3557.76 C 2153.34,3533.11 2168.02,3505.42 2181.04,3475.32"
             style="fill:#4d2004;fill-opacity:1;fill-rule:nonzero;stroke:none"
             id="path2560" />
          <path
             d="M 2217.49,3347.16 C 2215.45,3359.83 2213.01,3372.42 2210.31,3384.48 L 2210.35,3384.48 C 2213.05,3372.42 2215.49,3359.88 2217.49,3347.16 M 2209.35,3388.75 C 2205.25,3406.6 2200.55,3423.41 2195.5,3438.35 C 2199.2,3427.38 2202.73,3415.49 2206,3402.86 L 2206.87,3399.42 L 2206.95,3399.03 L 2209.35,3388.75 M 2195.2,3439.27 L 2194.46,3441.48 L 2195.2,3439.27 M 2193.41,3444.41 L 2192.93,3445.75 L 2193.41,3444.41 M 2191.54,3449.59 L 2191.14,3450.59 L 2191.54,3449.59 M 2181.04,3475.32 L 2181.04,3475.32 C 2168.02,3505.42 2153.34,3533.11 2137.75,3557.76 L 2137.63,3557.89 L 2137.75,3557.76 C 2153.34,3533.11 2168.02,3505.42 2181.04,3475.32"
             style="fill:#100f0d;fill-opacity:1;fill-rule:nonzero;stroke:none"
             id="path2562" />
          <path
             d="M 2210.35,3384.48 L 2210.31,3384.48 L 2209.35,3388.75 L 2206.95,3399.03 C 2208.13,3394.23 2209.26,3389.4 2210.35,3384.48 M 2206.87,3399.42 L 2206,3402.86 L 2206.87,3399.42 M 2189.58,3454.68 L 2189.58,3454.68 C 2186.79,3461.7 2183.87,3468.7 2180.87,3475.41 L 2181.04,3475.32 C 2184,3468.57 2186.84,3461.65 2189.58,3454.68"
             style="fill:#fbbf15;fill-opacity:1;fill-rule:nonzero;stroke:none"
             id="path2564" />
          <path
             d="M 2210.35,3384.48 L 2210.31,3384.48 L 2209.35,3388.75 L 2206.95,3399.03 C 2208.13,3394.23 2209.26,3389.4 2210.35,3384.48 M 2206.87,3399.42 L 2206,3402.86 L 2206.87,3399.42 M 2189.58,3454.68 L 2189.58,3454.68 C 2186.79,3461.7 2183.87,3468.7 2180.87,3475.41 L 2181.04,3475.32 C 2184,3468.57 2186.84,3461.65 2189.58,3454.68"
             style="fill:#100f0d;fill-opacity:1;fill-rule:nonzero;stroke:none"
             id="path2566" />
          <path
             d="M 2129.09,3572.39 L 2129.04,3572.39 C 2126.82,3576.36 2124.21,3581.06 2121.34,3586.33 C 2124.21,3581.02 2126.82,3576.36 2129.09,3572.39"
             style="fill:#100f0d;fill-opacity:1;fill-rule:nonzero;stroke:none"
             id="path2568" />
          <path
             d="M 2921.69,2632.55 C 2907.49,2632.38 2892.9,2633.99 2877.92,2637.43 L 2872.82,2638.74 L 2877.92,2637.43 C 2892.9,2633.99 2907.49,2632.38 2921.69,2632.55 M 2860.32,2642.66 L 2857.93,2643.53 L 2860.32,2642.66 M 2857.71,2643.62 C 2760.12,2680.55 2694.66,2814.59 2694.66,3011.35 C 2694.66,3024.63 2694.97,3038.18 2695.58,3051.98 C 2694.97,3038.39 2694.71,3025.02 2694.71,3011.91 C 2694.71,2814.86 2760.03,2680.55 2857.71,2643.62 M 2731.64,2451.04 L 2729.33,2450.39 L 2731.64,2451.04 M 2723.02,2448.56 L 2720.66,2447.91 L 2723.02,2448.56 M 2714.39,2446.25 L 2712.08,2445.64 L 2714.39,2446.25 M 2705.68,2444.03 L 2703.77,2443.59 L 2705.68,2444.03 M 2696.75,2441.98 L 2695.4,2441.68 L 2696.75,2441.98 M 2687.17,2439.94 L 2687.17,2439.94 M 2518.11,2439.41 L 2518.11,2439.41 M 2489.07,2446.95 L 2488.24,2447.21 L 2489.07,2446.95 M 2482.36,2449.08 L 2480.62,2449.65 L 2482.36,2449.08 M 2475.7,2451.3 L 2473.34,2452.13 L 2475.7,2451.3 M 2469.21,2453.57 L 2466.38,2454.61 L 2469.21,2453.57 M 2463.02,2455.92 L 2459.54,2457.31 L 2463.02,2455.92 M 2457.19,2458.23 C 2391.47,2484.88 2333.9,2529.82 2284.95,2588.05 L 2282.16,2591.45 C 2331.77,2531.61 2390.21,2485.4 2457.19,2458.23"
             style="fill:#fbbf15;fill-opacity:1;fill-rule:nonzero;stroke:none"
             id="path2570" />
          <path
             d="M 2921.69,2632.55 C 2907.49,2632.38 2892.9,2633.99 2877.92,2637.43 L 2872.82,2638.74 L 2877.92,2637.43 C 2892.9,2633.99 2907.49,2632.38 2921.69,2632.55 M 2860.32,2642.66 L 2857.93,2643.53 L 2860.32,2642.66 M 2857.71,2643.62 C 2760.12,2680.55 2694.66,2814.59 2694.66,3011.35 C 2694.66,3024.63 2694.97,3038.18 2695.58,3051.98 C 2694.97,3038.39 2694.71,3025.02 2694.71,3011.91 C 2694.71,2814.86 2760.03,2680.55 2857.71,2643.62 M 2731.64,2451.04 L 2729.33,2450.39 L 2731.64,2451.04 M 2723.02,2448.56 L 2720.66,2447.91 L 2723.02,2448.56 M 2714.39,2446.25 L 2712.08,2445.64 L 2714.39,2446.25 M 2705.68,2444.03 L 2703.77,2443.59 L 2705.68,2444.03 M 2696.75,2441.98 L 2695.4,2441.68 L 2696.75,2441.98 M 2687.17,2439.94 L 2687.17,2439.94 M 2518.11,2439.41 L 2518.11,2439.41 M 2489.07,2446.95 L 2488.24,2447.21 L 2489.07,2446.95 M 2482.36,2449.08 L 2480.62,2449.65 L 2482.36,2449.08 M 2475.7,2451.3 L 2473.34,2452.13 L 2475.7,2451.3 M 2469.21,2453.57 L 2466.38,2454.61 L 2469.21,2453.57 M 2463.02,2455.92 L 2459.54,2457.31 L 2463.02,2455.92 M 2457.19,2458.23 C 2391.47,2484.88 2333.9,2529.82 2284.95,2588.05 L 2282.16,2591.45 C 2331.77,2531.61 2390.21,2485.4 2457.19,2458.23"
             style="fill:#100f0d;fill-opacity:1;fill-rule:nonzero;stroke:none"
             id="path2572" />
          <path
             d="M 3009.74,2657.86 C 2937.36,2559.35 2842.52,2485.66 2740.17,2453.61 L 2731.64,2451.04 L 2729.33,2450.39 L 2723.02,2448.56 L 2720.66,2447.91 L 2714.39,2446.25 L 2712.08,2445.64 L 2705.68,2444.03 L 2703.77,2443.59 L 2696.75,2441.98 L 2695.4,2441.68 L 2687.17,2439.94 C 2626.51,2427.66 2570.11,2428.14 2518.11,2439.41 C 2508.27,2441.55 2498.61,2444.03 2489.07,2446.95 L 2488.24,2447.21 L 2482.36,2449.08 L 2480.62,2449.65 L 2475.7,2451.3 L 2473.34,2452.13 L 2469.21,2453.57 L 2466.38,2454.61 L 2463.02,2455.92 L 2459.54,2457.31 L 2457.19,2458.23 C 2390.21,2485.4 2331.77,2531.61 2282.16,2591.45 C 2274.28,2601.55 2252.11,2632.38 2252.11,2659.99 C 2252.11,2665.26 2252.9,2670.4 2254.73,2675.23 L 2256.77,2679.89 L 2256.77,2679.85 C 2272.71,2711.9 2317.7,2719.31 2364.56,2712.82 C 2371.83,2711.82 2379.8,2711.12 2388.25,2711.07 C 2439.9,2710.73 2510.89,2733.42 2575.77,2843.51 C 2635.61,2945.15 2645.19,3103.63 2659.65,3209.32 C 2676.68,3338.41 2710.17,3477.81 2776.84,3521.31 L 2776.8,3521.23 C 2774.79,3517.87 2710.86,3408.82 2695.58,3051.98 C 2694.97,3038.18 2694.66,3024.63 2694.66,3011.35 C 2694.66,2814.59 2760.12,2680.55 2857.71,2643.62 L 2857.93,2643.53 L 2860.32,2642.66 C 2864.42,2641.18 2868.6,2639.87 2872.82,2638.74 L 2877.92,2637.43 C 2892.9,2633.99 2907.49,2632.38 2921.69,2632.55 C 2952.91,2632.86 2982.27,2641.66 3009.74,2657.86"
             style="fill:#4d2004;fill-opacity:1;fill-rule:nonzero;stroke:none"
             id="path2574" />
          <path
             d="M 3009.74,2657.86 C 2937.36,2559.35 2842.52,2485.66 2740.17,2453.61 L 2731.64,2451.04 L 2729.33,2450.39 L 2723.02,2448.56 L 2720.66,2447.91 L 2714.39,2446.25 L 2712.08,2445.64 L 2705.68,2444.03 L 2703.77,2443.59 L 2696.75,2441.98 L 2695.4,2441.68 L 2687.17,2439.94 C 2626.51,2427.66 2570.11,2428.14 2518.11,2439.41 C 2508.27,2441.55 2498.61,2444.03 2489.07,2446.95 L 2488.24,2447.21 L 2482.36,2449.08 L 2480.62,2449.65 L 2475.7,2451.3 L 2473.34,2452.13 L 2469.21,2453.57 L 2466.38,2454.61 L 2463.02,2455.92 L 2459.54,2457.31 L 2457.19,2458.23 C 2390.21,2485.4 2331.77,2531.61 2282.16,2591.45 C 2274.28,2601.55 2252.11,2632.38 2252.11,2659.99 C 2252.11,2665.26 2252.9,2670.4 2254.73,2675.23 L 2256.77,2679.89 L 2256.77,2679.85 C 2272.71,2711.9 2317.7,2719.31 2364.56,2712.82 C 2371.83,2711.82 2379.8,2711.12 2388.25,2711.07 C 2439.9,2710.73 2510.89,2733.42 2575.77,2843.51 C 2635.61,2945.15 2645.19,3103.63 2659.65,3209.32 C 2676.68,3338.41 2710.17,3477.81 2776.84,3521.31 L 2776.8,3521.23 C 2774.79,3517.87 2710.86,3408.82 2695.58,3051.98 C 2694.97,3038.18 2694.66,3024.63 2694.66,3011.35 C 2694.66,2814.59 2760.12,2680.55 2857.71,2643.62 L 2857.93,2643.53 L 2860.32,2642.66 C 2864.42,2641.18 2868.6,2639.87 2872.82,2638.74 L 2877.92,2637.43 C 2892.9,2633.99 2907.49,2632.38 2921.69,2632.55 C 2952.91,2632.86 2982.27,2641.66 3009.74,2657.86"
             style="fill:#100f0d;fill-opacity:1;fill-rule:nonzero;stroke:none"
             id="path2576" />
          <path
             d="M 2388.25,2711.07 C 2379.8,2711.12 2371.83,2711.82 2364.56,2712.82 C 2317.7,2719.31 2272.71,2711.9 2256.77,2679.85 L 2256.77,2679.89 C 2272.67,2712.08 2317.66,2719.35 2364.56,2712.82 C 2371.83,2711.82 2379.8,2711.12 2388.25,2711.07"
             style="fill:#fbbf15;fill-opacity:1;fill-rule:nonzero;stroke:none"
             id="path2578" />
          <path
             d="M 2388.25,2711.07 C 2379.8,2711.12 2371.83,2711.82 2364.56,2712.82 C 2317.7,2719.31 2272.71,2711.9 2256.77,2679.85 L 2256.77,2679.89 C 2272.67,2712.08 2317.66,2719.35 2364.56,2712.82 C 2371.83,2711.82 2379.8,2711.12 2388.25,2711.07"
             style="fill:#100f0d;fill-opacity:1;fill-rule:nonzero;stroke:none"
             id="path2580" />
          <path
             d="M 2225.86,2793.25 C 2279.51,2669.01 2395.26,2563.88 2403.67,2570.89 C 2409.85,2576.03 2332.59,2628.5 2262.22,2808.98 C 2258.25,2819.12 2246.19,2823.61 2236.18,2819.3 C 2226.16,2814.94 2221.54,2803.27 2225.86,2793.25"
             style="fill:#ffffff;fill-opacity:1;fill-rule:nonzero;stroke:none"
             id="path2582" />
        </g>
      </g>
    </g>
  </g>
</svg>
