<?xml version="1.0" encoding="UTF-8" standalone="no"?>
<svg
   xmlns:dc="http://purl.org/dc/elements/1.1/"
   xmlns:cc="http://creativecommons.org/ns#"
   xmlns:rdf="http://www.w3.org/1999/02/22-rdf-syntax-ns#"
   xmlns:svg="http://www.w3.org/2000/svg"
   xmlns="http://www.w3.org/2000/svg"
   xmlns:sodipodi="http://sodipodi.sourceforge.net/DTD/sodipodi-0.dtd"
   xmlns:inkscape="http://www.inkscape.org/namespaces/inkscape"
   width="249"
   height="300"
   viewBox="0 0 331 400"
   version="1.0"
   id="svg2"
   sodipodi:version="0.32"
   inkscape:version="0.46"
   sodipodi:docname="Sydney_Swans_Logo.svg"
   inkscape:output_extension="org.inkscape.output.svg.inkscape">
  <metadata
     id="metadata34">
    <rdf:RDF>
      <cc:Work
         rdf:about="">
        <dc:format>image/svg+xml</dc:format>
        <dc:type
           rdf:resource="http://purl.org/dc/dcmitype/StillImage" />
      </cc:Work>
    </rdf:RDF>
  </metadata>
  <defs
     id="defs32">
    <inkscape:perspective
       sodipodi:type="inkscape:persp3d"
       inkscape:vp_x="0 : 250 : 1"
       inkscape:vp_y="0 : 1000 : 0"
       inkscape:vp_z="413.75 : 250 : 1"
       inkscape:persp3d-origin="206.875 : 166.66667 : 1"
       id="perspective36" />
  </defs>
  <sodipodi:namedview
     inkscape:window-height="669"
     inkscape:window-width="640"
     inkscape:pageshadow="2"
     inkscape:pageopacity="0.0"
     guidetolerance="10.0"
     gridtolerance="10.0"
     objecttolerance="10.0"
     borderopacity="1.0"
     bordercolor="#666666"
     pagecolor="#ffffff"
     id="base"
     showgrid="false"
     inkscape:zoom="0.924"
     inkscape:cx="206.875"
     inkscape:cy="250"
     inkscape:window-x="138"
     inkscape:window-y="95"
     inkscape:current-layer="svg2" />
  <g
     id="#ffffffff" />
  <g
     id="#010101ff">
    <path
       d="M 7.53,2.76 C 10.87,1.63 14.6,2.03 17.79,3.46 C 17.78,5.78 17.78,8.11 17.81,10.44 C 15.76,9.29 13.47,8.18 11.05,8.81 C 8.83,9.57 8.81,12.4 9.72,14.17 C 12.55,17.68 17.39,19.42 19.22,23.75 C 20.41,28.06 20.02,33.37 16.5,36.52 C 13.02,39.89 7.45,39.35 3.44,37.28 C 3.47,35.01 3.5,32.75 3.49,30.49 C 5.69,31.64 8.26,32.22 10.72,31.67 C 13.25,31.15 13.31,27.63 11.98,25.96 C 9.2,23.09 5.21,21.43 3.16,17.84 C 0.61,12.73 2.13,5.4 7.53,2.76 z"
       id="path6"
       style="opacity:1;fill:#010101" />
    <path
       d="M 24.91,2.45 C 27.58,2.41 30.24,2.41 32.9,2.44 C 34.22,6.3 35.6,10.13 36.93,13.98 C 38.47,10.15 39.8,6.24 41.3,2.4 C 43.91,2.41 46.52,2.41 49.12,2.46 C 46.36,8.62 43.44,14.72 40.8,20.94 C 40.42,26.75 40.68,32.6 40.47,38.43 C 38.13,38.42 35.78,38.42 33.44,38.42 C 33.35,32.59 33.63,26.74 33.33,20.91 C 30.65,14.7 27.69,8.61 24.91,2.45 z"
       id="path8"
       style="opacity:1;fill:#010101" />
    <path
       d="M 117.56,2.42 C 122.53,2.41 127.5,2.43 132.48,2.41 C 132.47,4.78 132.47,7.16 132.47,9.54 C 130.07,9.53 127.67,9.53 125.27,9.53 C 125.29,11.97 125.29,14.41 125.29,16.85 C 127.33,16.84 129.37,16.83 131.41,16.82 C 131.44,19.09 131.45,21.37 131.46,23.64 C 129.35,23.63 127.24,23.62 125.13,23.62 C 125.13,26.23 125.13,28.84 125.13,31.45 C 127.51,31.45 129.9,31.45 132.28,31.45 C 132.27,33.77 132.27,36.09 132.28,38.42 C 127.37,38.42 122.47,38.41 117.57,38.42 C 117.57,26.42 117.6,14.42 117.56,2.42 z"
       id="path10"
       style="opacity:1;fill:#010101" />
    <path
       d="M 188.18,4 C 191.68,1.24 196.75,1.8 200.6,3.53 C 200.57,5.83 200.57,8.13 200.61,10.42 C 198.8,9.58 196.98,8.43 194.9,8.67 C 192.26,8.41 190.74,11.81 192.26,13.83 C 194.75,17.46 199.26,19.28 201.57,23.08 C 203.99,28.32 202.24,35.85 196.6,38.23 C 193.23,39.48 189.36,38.98 186.22,37.32 C 186.25,35.06 186.26,32.81 186.25,30.55 C 188.67,31.67 191.48,32.37 194.09,31.46 C 196.16,30.28 195.99,27.11 194.34,25.64 C 191.43,22.81 187.35,21.02 185.56,17.16 C 183.75,12.79 184.65,7.26 188.18,4 z"
       id="path12"
       style="opacity:1;fill:#010101" />
    <path
       d="M 208.98,2.77 C 211.44,2.76 213.9,2.76 216.36,2.76 C 217.67,10.26 218.92,17.77 220.06,25.3 C 221.66,17.86 222.78,10.31 223.92,2.79 C 226.07,2.77 228.23,2.76 230.39,2.74 C 231.97,10.29 233.06,17.94 234.95,25.42 C 235.57,17.83 236.9,10.33 237.79,2.77 C 240.43,2.76 243.06,2.76 245.69,2.76 C 243.19,14.73 240.64,26.69 238.2,38.67 C 236.05,38.67 233.91,38.67 231.76,38.66 C 230.22,30.74 229.17,22.71 227.09,14.91 C 226.05,22.93 223.97,30.77 222.4,38.7 C 220.23,38.68 218.05,38.66 215.88,38.62 C 213.75,26.64 210.98,14.77 208.98,2.77 z"
       id="path14"
       style="opacity:1;fill:#010101" />
    <path
       d="M 316.75,2.74 C 320.18,1.66 324.04,1.97 327.23,3.63 C 327.18,5.94 327.18,8.25 327.24,10.56 C 325.12,9.33 322.63,8.06 320.13,8.9 C 318.01,9.61 317.87,12.44 318.91,14.08 C 321.25,17.08 324.9,18.73 327.25,21.74 C 330.99,26.95 329.18,35.51 323.18,38.23 C 319.77,39.47 315.83,39.01 312.67,37.28 C 312.7,35.04 312.7,32.8 312.67,30.55 C 315.26,31.73 318.5,32.59 321.14,31.11 C 322.44,29.51 322.25,26.7 320.58,25.39 C 317.68,22.63 313.6,20.85 311.98,16.95 C 310.15,11.92 311.56,5.16 316.75,2.74 z"
       id="path16"
       style="opacity:1;fill:#010101" />
    <path
       d="M 55.79,2.52 C 61.23,3.07 67.63,1.99 72.05,5.97 C 76.15,9.36 76.82,15.03 77.13,19.99 C 76.98,25.58 76.32,31.95 71.75,35.81 C 67.22,39.39 61.09,38.37 55.72,38.47 C 55.68,26.49 55.86,14.51 55.79,2.52 M 63.28,32.36 C 67.49,31.4 69.66,27.1 69.67,23.06 C 70.17,17.83 69.22,11 63.49,9.02 C 62.89,16.78 63.29,24.58 63.28,32.36 z"
       id="path18"
       style="opacity:1;fill:#010101" />
    <path
       d="M 85.84,2.77 C 88.21,2.75 90.58,2.77 92.95,2.81 C 95.36,9.12 98.23,15.25 100.51,21.6 C 100.94,15.33 100.62,9.04 100.72,2.77 C 103.26,2.76 105.8,2.76 108.35,2.76 C 108.36,14.73 108.33,26.7 108.36,38.67 C 106.1,38.67 103.85,38.68 101.59,38.71 C 98.86,32.17 95.82,25.74 93.54,19.02 C 92.93,25.55 93.37,32.11 93.26,38.65 C 90.78,38.68 88.29,38.67 85.81,38.6 C 85.86,26.66 85.82,14.72 85.84,2.77 z"
       id="path20"
       style="opacity:1;fill:#010101" />
    <path
       d="M 138.34,2.45 C 140.97,2.42 143.61,2.41 146.25,2.4 C 147.62,6.25 149.12,10.05 150.16,14.01 C 151.94,10.24 153.27,6.28 154.78,2.4 C 157.39,2.41 160.01,2.42 162.63,2.46 C 160.38,6.97 158.45,11.63 156.34,16.2 C 152.31,22.95 155.22,31.11 153.83,38.48 C 151.48,38.44 149.14,38.4 146.81,38.33 C 146.79,32.55 146.98,26.76 146.75,20.98 C 144.27,14.67 141.2,8.59 138.34,2.45 z"
       id="path22"
       style="opacity:1;fill:#010101" />
    <path
       d="M 248.69,38.66 C 251.68,26.71 254.11,14.61 257.21,2.69 C 259.8,2.76 262.39,2.77 264.99,2.8 C 267.62,14.79 270.46,26.73 273.39,38.64 C 270.79,38.66 268.19,38.67 265.59,38.7 C 265.06,36.67 264.55,34.64 264.08,32.61 C 261.95,32.59 259.84,32.58 257.72,32.57 C 257.2,34.6 256.69,36.63 256.2,38.67 C 253.69,38.67 251.19,38.67 248.69,38.66 M 260.91,13.85 C 259.84,18.02 259.47,22.31 258.63,26.52 C 260,26.53 261.37,26.54 262.75,26.55 C 262.04,22.33 261.38,18.11 260.91,13.85 z"
       id="path24"
       style="opacity:1;fill:#010101" />
    <path
       d="M 280.66,2.77 C 282.92,2.77 285.19,2.76 287.46,2.71 C 290.3,8.89 292.64,15.28 295.32,21.53 C 295.58,15.28 295.36,9.02 295.44,2.76 C 297.91,2.76 300.39,2.76 302.87,2.76 C 302.89,14.73 302.86,26.7 302.89,38.67 C 300.64,38.68 298.39,38.66 296.14,38.63 C 293.41,32.01 290.7,25.38 287.83,18.83 C 287.86,25.44 287.84,32.06 287.85,38.68 C 285.44,38.67 283.04,38.67 280.64,38.66 C 280.67,26.7 280.64,14.74 280.66,2.77 z"
       id="path26"
       style="opacity:1;fill:#010101" />
  </g>
  <g
     id="#ed171fff">
    <path
       d="M 3.44,57.68 C 43.98,57.68 84.51,57.66 125.04,57.69 C 138.53,84.07 152.03,110.46 165.61,136.8 C 178.98,110.43 192.26,84.01 205.65,57.64 C 246.33,57.72 287.02,57.65 327.71,57.68 C 273.33,171.06 219.08,284.5 165.05,398.05 C 155.96,378.34 146.74,358.69 137.44,339.08 C 139.44,326.99 147.32,317.09 154.9,307.9 C 160.9,300.53 168.13,294.07 172.73,285.64 C 177.92,276.54 180.61,265.56 178.28,255.18 C 176.37,246.44 170.8,238.53 163.21,233.81 C 154.35,229 143.57,228.5 133.97,231.25 C 126.04,233.31 118.56,238.51 115.49,246.34 C 117.54,247.16 118.69,244.92 120.1,243.93 C 120.74,244.16 122.03,244.62 122.67,244.85 C 121.56,247.55 119.43,249.99 119.37,253.02 C 120.86,255.3 123.61,256.68 126.14,257.54 C 130.48,258.59 133.23,254.45 135.98,251.9 C 139.32,248.06 145.18,247.83 149.67,249.51 C 153.92,251.47 157.04,255.48 158.25,259.97 C 160.39,266.84 158.15,274.36 154.21,280.14 C 149.91,286.18 144.06,290.87 138.03,295.07 C 132.09,299.29 127.55,305.11 123.85,311.32 C 123.43,309.8 122.5,308.1 123.72,306.7 C 130.18,295.95 142.25,290.58 150.38,281.36 C 153.9,277.07 156.66,271.75 156.43,266.06 C 156.47,261.04 154.82,255.43 150.31,252.67 C 147.43,250.59 143.67,251.27 140.37,251.61 C 136.38,252.84 134.61,257.31 130.9,259.03 C 129.15,259.5 127.32,259.28 125.53,259.36 C 118.86,265.81 112.58,272.84 104.69,277.86 C 105.22,269.37 109.43,261.68 111.85,253.64 C 114.62,256.32 112.84,260.53 112.73,263.89 C 114.92,261.49 116.56,258.67 117.78,255.67 C 115.9,253.5 111.66,252.36 112.17,248.93 C 113.82,241.28 119.5,234.9 126.37,231.39 C 134.23,227.32 143.4,226.69 152.06,227.65 C 158.65,228.52 165.44,230.95 169.94,236.05 C 174.63,241.24 178.67,247.24 180.5,254.06 C 182.81,263.21 181.59,273.09 177.5,281.57 C 170.73,297.47 155.36,307.58 148.29,323.3 C 147.17,326.1 145.85,329.54 147.7,332.33 C 149.84,335.37 154.79,336.35 157.54,333.56 C 162.06,329.18 164.68,323.31 167.64,317.85 C 172.89,308.17 177.53,298.07 184.24,289.27 C 191.57,279.02 200.83,270.19 211.33,263.25 C 218.48,258.55 226.47,255.42 234.38,252.29 C 230.6,234.33 232.46,214.34 242.86,198.83 C 235.21,198.88 227.36,199.42 220.18,202.29 C 213.94,204.56 208.38,208.39 203.54,212.9 C 200.31,206.85 196.9,200.85 192.31,195.69 C 178.25,179.72 157.2,171.6 136.42,169.37 C 145.81,180.69 149.72,195.83 148.66,210.36 C 139.19,202.1 127.28,195.9 114.56,195.18 C 119.42,204.14 119.82,214.71 120.4,224.68 C 112.08,216.93 101.51,212.05 90.52,209.47 C 92.66,220.85 95.45,232.75 92.53,244.25 C 86.44,232.31 80.86,220.1 75.01,208.03 C 51,157.99 27.45,107.73 3.44,57.68 z"
       id="path29"
       style="opacity:1;fill:#ed171f" />
  </g>
</svg>
